%TF.GenerationSoftware,KiCad,Pcbnew,9.0.6*%
%TF.CreationDate,2025-11-19T13:11:48-05:00*%
%TF.ProjectId,kicad,6b696361-642e-46b6-9963-61645f706362,rev?*%
%TF.SameCoordinates,Original*%
%TF.FileFunction,Drillmap*%
%TF.FilePolarity,Positive*%
%FSLAX45Y45*%
G04 Gerber Fmt 4.5, Leading zero omitted, Abs format (unit mm)*
G04 Created by KiCad (PCBNEW 9.0.6) date 2025-11-19 13:11:48*
%MOMM*%
%LPD*%
G01*
G04 APERTURE LIST*
%ADD10C,0.050000*%
%ADD11C,0.200000*%
G04 APERTURE END LIST*
D10*
X7600000Y-2000000D02*
X23912500Y-2012500D01*
X23912500Y-2012500D02*
X23937500Y-15687500D01*
X7600000Y-15675000D02*
X7600000Y-2000000D01*
X23937500Y-15687500D02*
X7600000Y-15675000D01*
D11*
X7858277Y-16001484D02*
X7858277Y-15801484D01*
X7858277Y-15801484D02*
X7905896Y-15801484D01*
X7905896Y-15801484D02*
X7934467Y-15811008D01*
X7934467Y-15811008D02*
X7953515Y-15830055D01*
X7953515Y-15830055D02*
X7963039Y-15849103D01*
X7963039Y-15849103D02*
X7972562Y-15887198D01*
X7972562Y-15887198D02*
X7972562Y-15915769D01*
X7972562Y-15915769D02*
X7963039Y-15953865D01*
X7963039Y-15953865D02*
X7953515Y-15972912D01*
X7953515Y-15972912D02*
X7934467Y-15991960D01*
X7934467Y-15991960D02*
X7905896Y-16001484D01*
X7905896Y-16001484D02*
X7858277Y-16001484D01*
X8058277Y-16001484D02*
X8058277Y-15868150D01*
X8058277Y-15906246D02*
X8067801Y-15887198D01*
X8067801Y-15887198D02*
X8077324Y-15877674D01*
X8077324Y-15877674D02*
X8096372Y-15868150D01*
X8096372Y-15868150D02*
X8115420Y-15868150D01*
X8182086Y-16001484D02*
X8182086Y-15868150D01*
X8182086Y-15801484D02*
X8172562Y-15811008D01*
X8172562Y-15811008D02*
X8182086Y-15820531D01*
X8182086Y-15820531D02*
X8191610Y-15811008D01*
X8191610Y-15811008D02*
X8182086Y-15801484D01*
X8182086Y-15801484D02*
X8182086Y-15820531D01*
X8305896Y-16001484D02*
X8286848Y-15991960D01*
X8286848Y-15991960D02*
X8277324Y-15972912D01*
X8277324Y-15972912D02*
X8277324Y-15801484D01*
X8410658Y-16001484D02*
X8391610Y-15991960D01*
X8391610Y-15991960D02*
X8382086Y-15972912D01*
X8382086Y-15972912D02*
X8382086Y-15801484D01*
X8639229Y-16001484D02*
X8639229Y-15801484D01*
X8639229Y-15801484D02*
X8705896Y-15944341D01*
X8705896Y-15944341D02*
X8772563Y-15801484D01*
X8772563Y-15801484D02*
X8772563Y-16001484D01*
X8953515Y-16001484D02*
X8953515Y-15896722D01*
X8953515Y-15896722D02*
X8943991Y-15877674D01*
X8943991Y-15877674D02*
X8924944Y-15868150D01*
X8924944Y-15868150D02*
X8886848Y-15868150D01*
X8886848Y-15868150D02*
X8867801Y-15877674D01*
X8953515Y-15991960D02*
X8934467Y-16001484D01*
X8934467Y-16001484D02*
X8886848Y-16001484D01*
X8886848Y-16001484D02*
X8867801Y-15991960D01*
X8867801Y-15991960D02*
X8858277Y-15972912D01*
X8858277Y-15972912D02*
X8858277Y-15953865D01*
X8858277Y-15953865D02*
X8867801Y-15934817D01*
X8867801Y-15934817D02*
X8886848Y-15925293D01*
X8886848Y-15925293D02*
X8934467Y-15925293D01*
X8934467Y-15925293D02*
X8953515Y-15915769D01*
X9048753Y-15868150D02*
X9048753Y-16068150D01*
X9048753Y-15877674D02*
X9067801Y-15868150D01*
X9067801Y-15868150D02*
X9105896Y-15868150D01*
X9105896Y-15868150D02*
X9124944Y-15877674D01*
X9124944Y-15877674D02*
X9134467Y-15887198D01*
X9134467Y-15887198D02*
X9143991Y-15906246D01*
X9143991Y-15906246D02*
X9143991Y-15963388D01*
X9143991Y-15963388D02*
X9134467Y-15982436D01*
X9134467Y-15982436D02*
X9124944Y-15991960D01*
X9124944Y-15991960D02*
X9105896Y-16001484D01*
X9105896Y-16001484D02*
X9067801Y-16001484D01*
X9067801Y-16001484D02*
X9048753Y-15991960D01*
X9229705Y-15982436D02*
X9239229Y-15991960D01*
X9239229Y-15991960D02*
X9229705Y-16001484D01*
X9229705Y-16001484D02*
X9220182Y-15991960D01*
X9220182Y-15991960D02*
X9229705Y-15982436D01*
X9229705Y-15982436D02*
X9229705Y-16001484D01*
X9229705Y-15877674D02*
X9239229Y-15887198D01*
X9239229Y-15887198D02*
X9229705Y-15896722D01*
X9229705Y-15896722D02*
X9220182Y-15887198D01*
X9220182Y-15887198D02*
X9229705Y-15877674D01*
X9229705Y-15877674D02*
X9229705Y-15896722D01*
M02*
