%TF.GenerationSoftware,KiCad,Pcbnew,9.0.6*%
%TF.CreationDate,2025-11-19T13:11:45-05:00*%
%TF.ProjectId,kicad,6b696361-642e-46b6-9963-61645f706362,rev?*%
%TF.SameCoordinates,Original*%
%TF.FileFunction,Copper,L2,Inr*%
%TF.FilePolarity,Positive*%
%FSLAX46Y46*%
G04 Gerber Fmt 4.6, Leading zero omitted, Abs format (unit mm)*
G04 Created by KiCad (PCBNEW 9.0.6) date 2025-11-19 13:11:45*
%MOMM*%
%LPD*%
G01*
G04 APERTURE LIST*
G04 Aperture macros list*
%AMRoundRect*
0 Rectangle with rounded corners*
0 $1 Rounding radius*
0 $2 $3 $4 $5 $6 $7 $8 $9 X,Y pos of 4 corners*
0 Add a 4 corners polygon primitive as box body*
4,1,4,$2,$3,$4,$5,$6,$7,$8,$9,$2,$3,0*
0 Add four circle primitives for the rounded corners*
1,1,$1+$1,$2,$3*
1,1,$1+$1,$4,$5*
1,1,$1+$1,$6,$7*
1,1,$1+$1,$8,$9*
0 Add four rect primitives between the rounded corners*
20,1,$1+$1,$2,$3,$4,$5,0*
20,1,$1+$1,$4,$5,$6,$7,0*
20,1,$1+$1,$6,$7,$8,$9,0*
20,1,$1+$1,$8,$9,$2,$3,0*%
G04 Aperture macros list end*
%TA.AperFunction,ComponentPad*%
%ADD10RoundRect,0.250000X0.600000X0.725000X-0.600000X0.725000X-0.600000X-0.725000X0.600000X-0.725000X0*%
%TD*%
%TA.AperFunction,ComponentPad*%
%ADD11O,1.700000X1.950000*%
%TD*%
%TA.AperFunction,ComponentPad*%
%ADD12RoundRect,0.250000X0.725000X-0.600000X0.725000X0.600000X-0.725000X0.600000X-0.725000X-0.600000X0*%
%TD*%
%TA.AperFunction,ComponentPad*%
%ADD13O,1.950000X1.700000*%
%TD*%
%TA.AperFunction,ComponentPad*%
%ADD14RoundRect,0.250000X-0.725000X0.600000X-0.725000X-0.600000X0.725000X-0.600000X0.725000X0.600000X0*%
%TD*%
%TA.AperFunction,ComponentPad*%
%ADD15R,2.250000X2.250000*%
%TD*%
%TA.AperFunction,ComponentPad*%
%ADD16C,2.250000*%
%TD*%
%TA.AperFunction,ComponentPad*%
%ADD17RoundRect,0.250000X0.600000X0.600000X-0.600000X0.600000X-0.600000X-0.600000X0.600000X-0.600000X0*%
%TD*%
%TA.AperFunction,ComponentPad*%
%ADD18C,1.700000*%
%TD*%
%TA.AperFunction,ComponentPad*%
%ADD19R,3.500000X3.500000*%
%TD*%
%TA.AperFunction,ComponentPad*%
%ADD20RoundRect,0.750000X1.000000X-0.750000X1.000000X0.750000X-1.000000X0.750000X-1.000000X-0.750000X0*%
%TD*%
%TA.AperFunction,ComponentPad*%
%ADD21RoundRect,0.875000X0.875000X-0.875000X0.875000X0.875000X-0.875000X0.875000X-0.875000X-0.875000X0*%
%TD*%
%TA.AperFunction,ComponentPad*%
%ADD22RoundRect,0.250000X-0.750000X0.600000X-0.750000X-0.600000X0.750000X-0.600000X0.750000X0.600000X0*%
%TD*%
%TA.AperFunction,ComponentPad*%
%ADD23O,2.000000X1.700000*%
%TD*%
%TA.AperFunction,ComponentPad*%
%ADD24RoundRect,0.250000X-0.550000X-0.550000X0.550000X-0.550000X0.550000X0.550000X-0.550000X0.550000X0*%
%TD*%
%TA.AperFunction,ComponentPad*%
%ADD25C,1.600000*%
%TD*%
%TA.AperFunction,ComponentPad*%
%ADD26R,1.700000X1.700000*%
%TD*%
%TA.AperFunction,ComponentPad*%
%ADD27RoundRect,0.250000X0.600000X-0.600000X0.600000X0.600000X-0.600000X0.600000X-0.600000X-0.600000X0*%
%TD*%
%TA.AperFunction,ComponentPad*%
%ADD28R,1.600000X1.600000*%
%TD*%
%TA.AperFunction,ComponentPad*%
%ADD29C,4.000000*%
%TD*%
%TA.AperFunction,ViaPad*%
%ADD30C,0.500000*%
%TD*%
%TA.AperFunction,ViaPad*%
%ADD31C,0.600000*%
%TD*%
%TA.AperFunction,ViaPad*%
%ADD32C,1.000000*%
%TD*%
%TA.AperFunction,Conductor*%
%ADD33C,0.200000*%
%TD*%
%TA.AperFunction,Conductor*%
%ADD34C,0.300000*%
%TD*%
%TA.AperFunction,Conductor*%
%ADD35C,1.000000*%
%TD*%
G04 APERTURE END LIST*
D10*
%TO.N,/AT_RX*%
%TO.C,ATUART1*%
X84900000Y-154370000D03*
D11*
%TO.N,/AT_TX*%
X82400000Y-154370000D03*
%TO.N,GND*%
X79900000Y-154370000D03*
%TD*%
D12*
%TO.N,/SCL*%
%TO.C,LCD1*%
X79590000Y-103470000D03*
D13*
%TO.N,/SDA*%
X79590000Y-100970000D03*
%TO.N,VCC_5V*%
X79590000Y-98470000D03*
%TO.N,GND*%
X79590000Y-95970000D03*
%TD*%
D14*
%TO.N,/SPEAKER_R*%
%TO.C,SPEAKER1*%
X236750000Y-111000000D03*
D13*
%TO.N,/SPEAKER_L*%
X236750000Y-113500000D03*
%TO.N,GND*%
X236750000Y-116000000D03*
%TD*%
D15*
%TO.N,GND*%
%TO.C,STRESET1*%
X213000000Y-152750000D03*
D16*
%TO.N,/NRST*%
X219500000Y-152750000D03*
%TD*%
D15*
%TO.N,Net-(U3-~{RESET})*%
%TO.C,FRESET1*%
X187750000Y-152750000D03*
D16*
%TO.N,GND*%
X194250000Y-152750000D03*
%TD*%
D17*
%TO.N,/AT_MOSI*%
%TO.C,USBASP1*%
X84040000Y-124660000D03*
D18*
%TO.N,VCC*%
X81500000Y-124660000D03*
%TO.N,GND*%
X84040000Y-122120000D03*
X81500000Y-122120000D03*
%TO.N,/AT_CS*%
X84040000Y-119580000D03*
%TO.N,GND*%
X81500000Y-119580000D03*
%TO.N,/AT_SCK*%
X84040000Y-117040000D03*
%TO.N,GND*%
X81500000Y-117040000D03*
%TO.N,/AT_MISO*%
X84040000Y-114500000D03*
%TO.N,GND*%
X81500000Y-114500000D03*
%TD*%
D14*
%TO.N,/J_UP*%
%TO.C,J2*%
X236500000Y-84250000D03*
D13*
%TO.N,/J_DOWN*%
X236500000Y-86750000D03*
%TO.N,/J_LEFT*%
X236500000Y-89250000D03*
%TO.N,/J_RIGHT*%
X236500000Y-91750000D03*
%TD*%
D15*
%TO.N,VCC*%
%TO.C,BOOT0*%
X175500000Y-152750000D03*
D16*
%TO.N,Net-(U6-BOOT0)*%
X182000000Y-152750000D03*
%TD*%
D19*
%TO.N,VCC_5V*%
%TO.C,J15*%
X107792500Y-148000000D03*
D20*
%TO.N,GND*%
X107792500Y-154000000D03*
D21*
X112492500Y-151000000D03*
%TD*%
D22*
%TO.N,GND*%
%TO.C,V_2*%
X237000000Y-141750000D03*
D23*
%TO.N,Net-(V_2-Pin_2)*%
X237000000Y-144250000D03*
%TD*%
D24*
%TO.N,/RAM_CS*%
%TO.C,23A1024/23LC1*%
X80130000Y-139170000D03*
D25*
%TO.N,/AT_MISO*%
X80130000Y-141710000D03*
%TO.N,Net-(23A1024/23LC1-SIO2)*%
X80130000Y-144250000D03*
%TO.N,GND*%
X80130000Y-146790000D03*
%TO.N,/AT_MOSI*%
X87750000Y-146790000D03*
%TO.N,/AT_SCK*%
X87750000Y-144250000D03*
%TO.N,Net-(23A1024/23LC1-HOLD{slash}SIO3)*%
X87750000Y-141710000D03*
%TO.N,VCC_5V*%
X87750000Y-139170000D03*
%TD*%
D22*
%TO.N,GND*%
%TO.C,V_4*%
X236750000Y-132500000D03*
D23*
%TO.N,Net-(V_4-Pin_2)*%
X236750000Y-135000000D03*
%TD*%
D10*
%TO.N,/RX*%
%TO.C,STUART1*%
X162000000Y-150000000D03*
D11*
%TO.N,/TX*%
X159500000Y-150000000D03*
%TO.N,GND*%
X157000000Y-150000000D03*
%TD*%
D26*
%TO.N,/SRAM_CS*%
%TO.C,J5*%
X113440000Y-130510000D03*
D18*
%TO.N,/SRAM_CS_*%
X115980000Y-130510000D03*
%TD*%
D22*
%TO.N,GND*%
%TO.C,V_3*%
X236750000Y-123000000D03*
D23*
%TO.N,Net-(V_3-Pin_2)*%
X236750000Y-125500000D03*
%TD*%
D12*
%TO.N,/J_A*%
%TO.C,J3*%
X236000000Y-103750000D03*
D13*
%TO.N,/J_B*%
X236000000Y-101250000D03*
%TO.N,/J_C*%
X236000000Y-98750000D03*
%TD*%
D25*
%TO.N,VCC_5V*%
%TO.C,220UF1*%
X96250000Y-136000000D03*
%TO.N,GND*%
X98750000Y-136000000D03*
%TD*%
D15*
%TO.N,Net-(U7-~{RESET}{slash}PC6)*%
%TO.C,ATRESET1*%
X200500000Y-152750000D03*
D16*
%TO.N,GND*%
X207000000Y-152750000D03*
%TD*%
D18*
%TO.N,Net-(U7-XTAL2{slash}PB7)*%
%TO.C,Y2*%
X91087500Y-113250000D03*
%TO.N,Net-(U7-XTAL1{slash}PB6)*%
X96087500Y-113250000D03*
%TD*%
D27*
%TO.N,VCC*%
%TO.C,JTAG1*%
X197590000Y-138540000D03*
D18*
X197590000Y-136000000D03*
%TO.N,/NJRST*%
X200130000Y-138540000D03*
%TO.N,GND*%
X200130000Y-136000000D03*
%TO.N,/JTDI*%
X202670000Y-138540000D03*
%TO.N,GND*%
X202670000Y-136000000D03*
%TO.N,/JTMS-SWDIO*%
X205210000Y-138540000D03*
%TO.N,GND*%
X205210000Y-136000000D03*
%TO.N,/JTCK-SWCLK*%
X207750000Y-138540000D03*
%TO.N,GND*%
X207750000Y-136000000D03*
%TO.N,unconnected-(JTAG1-Pin_11-Pad11)*%
X210290000Y-138540000D03*
%TO.N,GND*%
X210290000Y-136000000D03*
%TO.N,/TRACESWO - JTDO*%
X212830000Y-138540000D03*
%TO.N,GND*%
X212830000Y-136000000D03*
%TO.N,/NRST*%
X215370000Y-138540000D03*
%TO.N,GND*%
X215370000Y-136000000D03*
%TO.N,unconnected-(JTAG1-Pin_17-Pad17)*%
X217910000Y-138540000D03*
%TO.N,GND*%
X217910000Y-136000000D03*
%TO.N,unconnected-(JTAG1-Pin_19-Pad19)*%
X220450000Y-138540000D03*
%TO.N,GND*%
X220450000Y-136000000D03*
%TD*%
D25*
%TO.N,VCC_5V*%
%TO.C,220UF2*%
X100500000Y-140000000D03*
%TO.N,GND*%
X103000000Y-140000000D03*
%TD*%
D28*
%TO.N,Net-(J6-VBUS)*%
%TO.C,J6*%
X127250000Y-146962500D03*
D25*
%TO.N,/D-*%
X124750000Y-146962500D03*
%TO.N,/D+*%
X124750000Y-148962500D03*
%TO.N,GND*%
X127250000Y-148962500D03*
D29*
%TO.N,unconnected-(J6-Shield-Pad5)_1*%
X132000000Y-151822500D03*
%TO.N,unconnected-(J6-Shield-Pad5)*%
X120000000Y-151822500D03*
%TD*%
D24*
%TO.N,VCC_5V*%
%TO.C,C4321*%
X106500000Y-130750000D03*
D25*
%TO.N,GND*%
X109000000Y-130750000D03*
%TD*%
D22*
%TO.N,GND*%
%TO.C,V_1*%
X237000000Y-151000000D03*
D23*
%TO.N,Net-(V_1-Pin_2)*%
X237000000Y-153500000D03*
%TD*%
D30*
%TO.N,GND*%
X89100000Y-153950000D03*
X92940000Y-155740000D03*
%TO.N,/AT_TX*%
X103040000Y-121420000D03*
%TO.N,/AT_RX*%
X103327817Y-122799999D03*
%TO.N,/SCL*%
X99720000Y-123250000D03*
%TO.N,/SDA*%
X99720000Y-124090000D03*
%TO.N,VCC*%
X162920000Y-139590000D03*
%TO.N,GND*%
X198420000Y-90250000D03*
%TO.N,/BUS_3_DETECT*%
X157600000Y-24600000D03*
X205200000Y-81800000D03*
X205200000Y-100600000D03*
X174000000Y-136800000D03*
%TO.N,/BUS_1*%
X150400000Y-81400000D03*
X204000000Y-87800000D03*
X204200000Y-101200000D03*
X172200000Y-135600000D03*
%TO.N,/BUS_4_DETECT*%
X233400000Y-38200000D03*
X208200000Y-81600000D03*
X205400000Y-98800000D03*
X164400000Y-120400000D03*
%TO.N,/BUS_2*%
X216000000Y-105000000D03*
X218800000Y-113800000D03*
X222600000Y-120200000D03*
X216800000Y-129200000D03*
%TO.N,/BUS_3*%
X209600000Y-52200000D03*
X209600000Y-81000000D03*
X217000000Y-107200000D03*
X218229120Y-114493062D03*
X222000000Y-120800000D03*
X216600000Y-128400000D03*
%TO.N,/BUS_4*%
X212600000Y-44400000D03*
X208800000Y-81000000D03*
X216800000Y-108000000D03*
X217600000Y-114800000D03*
X221200000Y-121200000D03*
X216200000Y-127600000D03*
%TO.N,/BUS_1_DETECT*%
X163800000Y-68200000D03*
X176200000Y-81400000D03*
X216000000Y-109000000D03*
X217000000Y-115400000D03*
X220400000Y-121600000D03*
X215200000Y-127600000D03*
D31*
%TO.N,/BUS_2_DETECT*%
X235000000Y-58000000D03*
X216400000Y-116000000D03*
X219400000Y-122400000D03*
X214200000Y-127600000D03*
%TO.N,VCC*%
X180200000Y-139000000D03*
D30*
%TO.N,GND*%
X160500000Y-49000000D03*
X120250000Y-108000000D03*
X156000000Y-90153000D03*
X119850000Y-82150000D03*
X91750000Y-98750000D03*
X153000000Y-111000000D03*
X158013909Y-85236091D03*
X194000000Y-82750000D03*
X186750000Y-111000000D03*
X198250000Y-48750000D03*
X150500000Y-110750000D03*
X186750000Y-137250000D03*
X160000000Y-45500000D03*
X110750000Y-113000000D03*
X87000000Y-103250000D03*
X154750000Y-49000000D03*
X114500000Y-45250000D03*
X90750000Y-45500000D03*
X189750000Y-111000000D03*
X190250000Y-115000000D03*
X138750000Y-153000000D03*
X201000000Y-113000000D03*
X90500000Y-131250000D03*
X233000000Y-29500000D03*
X146000000Y-139750000D03*
X137500000Y-108500000D03*
X98587500Y-116150000D03*
X183250000Y-112750000D03*
X193750000Y-90250000D03*
X112750000Y-108750000D03*
D31*
X97219669Y-142530331D03*
D30*
X155000000Y-61750000D03*
X85450000Y-82472401D03*
X203750000Y-110750000D03*
X149000000Y-151500000D03*
D31*
X142500000Y-155000000D03*
D30*
X91750000Y-49000000D03*
X91087500Y-108600000D03*
X119250000Y-45250000D03*
X166750000Y-152750000D03*
X232500000Y-71750000D03*
X137000000Y-115000000D03*
X130500000Y-112750000D03*
X224250000Y-83000000D03*
X155000000Y-45750000D03*
X219000000Y-45500000D03*
X172000000Y-114000000D03*
X198750000Y-45750000D03*
X167500000Y-110750000D03*
X146250000Y-29250000D03*
X146250000Y-147750000D03*
X123000000Y-143500000D03*
X218250000Y-49000000D03*
X193500000Y-45750000D03*
X236750000Y-56000000D03*
X147750000Y-113000000D03*
X161750000Y-121250000D03*
X224300000Y-90250000D03*
D31*
X93500000Y-141250000D03*
D30*
X94500000Y-138000000D03*
X86250000Y-134750000D03*
X114750000Y-133500000D03*
X115500000Y-82250000D03*
X119000000Y-49250000D03*
X86250000Y-49000000D03*
X153750000Y-115000000D03*
X91500000Y-82750000D03*
X183500000Y-130500000D03*
X98250000Y-131000000D03*
X156000000Y-82250000D03*
X116262017Y-95349999D03*
D31*
X156250000Y-139250000D03*
D30*
X125000000Y-128000000D03*
X186000000Y-155250000D03*
X198500000Y-82750000D03*
X171500000Y-110750000D03*
X157750000Y-21750000D03*
X101750000Y-142750000D03*
X176500000Y-146250000D03*
X114500000Y-48500000D03*
X223500000Y-45500000D03*
X223500000Y-49500000D03*
X86250000Y-45500000D03*
X99750000Y-116000000D03*
X219306659Y-86693341D03*
X193500000Y-48500000D03*
X119500000Y-114750000D03*
X119800000Y-86750000D03*
X131250000Y-107750000D03*
X219500000Y-83000000D03*
X181500000Y-138500000D03*
X150000000Y-72500000D03*
X181380000Y-136000000D03*
X235000000Y-40500000D03*
X126750000Y-143250000D03*
X175500000Y-120250000D03*
X100000000Y-108250000D03*
X164500000Y-113000000D03*
X94837500Y-108850000D03*
X160550000Y-82250000D03*
%TO.N,/AT_MISO*%
X89750000Y-125750000D03*
X84250000Y-128250000D03*
X85000000Y-130750000D03*
%TO.N,/AT_SCK*%
X88750000Y-127500000D03*
%TO.N,/RAM_CS*%
X90500000Y-129500000D03*
X90750000Y-123250000D03*
X87750000Y-131750000D03*
%TO.N,/AT_MOSI*%
X85750000Y-130500000D03*
%TO.N,VCC*%
X229750000Y-86500000D03*
X172750000Y-122750000D03*
X172250000Y-113000000D03*
X140500000Y-114750000D03*
X190000000Y-114250000D03*
D31*
X157500000Y-141000000D03*
D30*
X229250000Y-88750000D03*
X158000000Y-114750000D03*
X161000000Y-123750000D03*
D32*
X100500000Y-150500000D03*
D30*
X121144473Y-141050000D03*
X80500000Y-46000000D03*
X220750000Y-146000000D03*
D31*
X150250000Y-80000000D03*
D30*
X148250000Y-45500000D03*
X121000000Y-111750000D03*
D32*
X96250000Y-150500000D03*
D31*
X231000000Y-105750000D03*
D30*
X177250000Y-144250000D03*
X119500000Y-113000000D03*
D32*
X94250000Y-149750000D03*
D31*
X106000000Y-79750000D03*
D30*
X181000000Y-135250000D03*
X99750000Y-113000000D03*
X230000000Y-92750000D03*
X229750000Y-84500000D03*
D32*
X94250000Y-151750000D03*
D30*
%TO.N,Net-(U6-PH1)*%
X186750000Y-130250000D03*
X181500000Y-132750000D03*
%TO.N,VCCA*%
X171250000Y-138000000D03*
X126500000Y-140750000D03*
X155000000Y-139000000D03*
X100000000Y-142000000D03*
X131125000Y-139375000D03*
X97950000Y-145750000D03*
%TO.N,VCC_5V*%
X119750000Y-111000000D03*
D32*
X153090000Y-147750000D03*
D30*
X97000000Y-50250000D03*
X103000000Y-109500000D03*
X107250000Y-123000000D03*
X153000000Y-112500000D03*
X139750000Y-140750000D03*
X96500000Y-115750000D03*
D31*
X197000000Y-49250000D03*
D30*
X155500000Y-153000000D03*
X117500000Y-49000000D03*
X223500000Y-87000000D03*
X171500000Y-112250000D03*
X159500000Y-90153000D03*
X148500000Y-144500000D03*
X90763909Y-99986091D03*
X197300000Y-90250000D03*
X133000000Y-128000000D03*
D32*
X226750000Y-119750000D03*
D30*
X158500000Y-49250000D03*
X145000000Y-147500000D03*
X95750000Y-129000000D03*
X136500000Y-111500000D03*
X90250000Y-119500000D03*
X189750000Y-113000000D03*
X221750000Y-49000000D03*
X113750000Y-141500000D03*
X118513909Y-86486091D03*
%TO.N,/CS*%
X163000000Y-130030000D03*
X121500000Y-139148000D03*
%TO.N,/SCK*%
X122630000Y-140940000D03*
X163000000Y-129260000D03*
%TO.N,/MISO*%
X123359570Y-140139712D03*
X163000000Y-128390000D03*
%TO.N,/MOSI*%
X163406868Y-127820385D03*
X123240000Y-139450000D03*
%TO.N,/NRST*%
X179500000Y-133450000D03*
%TO.N,/JTDI*%
X167013909Y-148236091D03*
X163250000Y-144500000D03*
X193000000Y-148250000D03*
%TO.N,/JTMS-SWDIO*%
X168750000Y-149550000D03*
X199000000Y-149250000D03*
X202250000Y-146000000D03*
X161500000Y-144000000D03*
%TO.N,/JTCK-SWCLK*%
X167500000Y-149000000D03*
X162500000Y-144250000D03*
X197500000Y-148750000D03*
%TO.N,/V_2*%
X230000000Y-147000000D03*
X179750000Y-125750000D03*
X227750000Y-144750000D03*
X149250000Y-123500000D03*
X131750000Y-123500000D03*
X111500000Y-125000000D03*
X119500000Y-123500000D03*
X138250000Y-123500000D03*
%TO.N,/V_1*%
X150250000Y-124250000D03*
X111500000Y-126000000D03*
X132500000Y-124250000D03*
X119500000Y-124250000D03*
X180500000Y-126750000D03*
X139000000Y-124250000D03*
%TO.N,/V_4*%
X163500000Y-120250000D03*
X136500000Y-121750000D03*
X230500000Y-138000000D03*
X117500000Y-122000000D03*
X129750000Y-121750000D03*
X190250000Y-122000000D03*
X111500000Y-123500000D03*
X227250000Y-131750000D03*
X147500000Y-121750000D03*
X152750000Y-120500000D03*
%TO.N,/V_3*%
X148500000Y-122750000D03*
X118500000Y-122750000D03*
X137500000Y-122750000D03*
X130750000Y-122750000D03*
X230000000Y-128000000D03*
X178750000Y-125000000D03*
X111500000Y-124250000D03*
X219000000Y-125000000D03*
%TO.N,/J_UP*%
X173250000Y-132750000D03*
%TO.N,/J_DOWN*%
X174000000Y-132500000D03*
%TO.N,/J_LEFT*%
X174750000Y-132000000D03*
%TO.N,/J_RIGHT*%
X180750000Y-132000000D03*
%TO.N,/J_C*%
X172500000Y-133250000D03*
X227250000Y-102000000D03*
%TO.N,/J_B*%
X211260000Y-127540000D03*
%TO.N,/J_A*%
X212940000Y-127530000D03*
%TO.N,/AT_CS*%
X86500000Y-129500000D03*
%TO.N,Net-(U7-~{RESET}{slash}PC6)*%
X139500000Y-156000000D03*
X105500000Y-124400000D03*
%TO.N,Net-(U6-BOOT0)*%
X172000000Y-145250000D03*
%TO.N,/SRAM_CS*%
X138250000Y-134500000D03*
X172000000Y-136500000D03*
X123250000Y-135750000D03*
X142750000Y-134750000D03*
%TO.N,/burst_45_*%
X168800000Y-130400000D03*
X193600000Y-118600000D03*
%TO.N,/burst_46_*%
X194400000Y-118800000D03*
X169400000Y-130940000D03*
%TO.N,/burst_42_*%
X191600000Y-116800000D03*
X166195000Y-130805000D03*
%TO.N,/burst_47_*%
X170200000Y-130620000D03*
X195200000Y-119000000D03*
%TO.N,/burst_44_*%
X192800000Y-118000000D03*
X167800000Y-131000000D03*
%TO.N,/burst_48_*%
X170800000Y-131200000D03*
X196000000Y-119200000D03*
%TO.N,/burst_41_*%
X191200000Y-116200000D03*
X165580000Y-130420000D03*
D31*
%TO.N,/RX*%
X169750000Y-140000000D03*
X159500000Y-144500000D03*
X165450735Y-149049265D03*
X168500000Y-143750000D03*
D30*
%TO.N,/burst_43_*%
X192200000Y-117400000D03*
X167080000Y-130740000D03*
D31*
%TO.N,/TX*%
X166000000Y-150000000D03*
X168500000Y-144750000D03*
X170500000Y-139250000D03*
X147750000Y-140750000D03*
D30*
%TO.N,/SPEAKER_L*%
X153000000Y-119000000D03*
X162500000Y-118500000D03*
X231000000Y-112500000D03*
X135250000Y-119750000D03*
X128250000Y-119750000D03*
X145500000Y-119750000D03*
X201000000Y-120500000D03*
X117250000Y-119750000D03*
X107500000Y-119750000D03*
X229750000Y-110250000D03*
%TO.N,/SPEAKER_R*%
X147000000Y-121000000D03*
X95000000Y-122250000D03*
X117500000Y-121000000D03*
X163000000Y-119500000D03*
X152250000Y-119750000D03*
X129250000Y-121000000D03*
X189500000Y-121250000D03*
X136000000Y-121000000D03*
%TO.N,/burst_4_5V*%
X82000000Y-55000000D03*
X81000000Y-83600000D03*
X105800000Y-92800000D03*
X158200000Y-56000000D03*
X171600000Y-86800000D03*
X157200000Y-82800000D03*
%TO.N,/burst_2_5V*%
X154400000Y-57600000D03*
X80400000Y-54600000D03*
X173200000Y-87000000D03*
X148400000Y-81600000D03*
X80000000Y-85400000D03*
X107400000Y-94000000D03*
%TO.N,/burst_6_5V*%
X160000000Y-56000000D03*
X158600000Y-82800000D03*
X83400000Y-55400000D03*
X82200000Y-80800000D03*
X169600000Y-86800000D03*
X103200000Y-91600000D03*
%TO.N,/burst_5_5V*%
X170800000Y-86600000D03*
X81600000Y-82800000D03*
X104600000Y-92200000D03*
X82664081Y-55221360D03*
X159200000Y-56000000D03*
X158000000Y-83400000D03*
%TO.N,/burst_7_5V*%
X84200000Y-55400000D03*
X161000000Y-55800000D03*
X168800000Y-86600000D03*
X159400000Y-83400000D03*
X102000000Y-91000000D03*
X82800000Y-79400000D03*
%TO.N,/burst_8_5V*%
X102800000Y-90400000D03*
X85200000Y-55200000D03*
X160000000Y-82800000D03*
X161200000Y-56600000D03*
X83600000Y-83400000D03*
X167800000Y-86400000D03*
%TO.N,/burst_3_5V*%
X154200000Y-59000000D03*
X80800000Y-85000000D03*
X81200000Y-54800000D03*
X106800000Y-93400000D03*
X149000000Y-80800000D03*
X172400000Y-86800000D03*
%TO.N,/burst_1_5V*%
X147800000Y-80800000D03*
X154400000Y-56600000D03*
X81600000Y-52600000D03*
X108000000Y-94800000D03*
X173200000Y-88200000D03*
X79400000Y-84800000D03*
D31*
%TO.N,/BUS_2*%
X189050000Y-81200000D03*
X204000000Y-81250000D03*
X151250000Y-80000000D03*
X168000000Y-80000000D03*
%TO.N,/BUS_1*%
X78500000Y-79000000D03*
X106000000Y-82250000D03*
X128250000Y-79750000D03*
X105750000Y-77750000D03*
D30*
%TO.N,/burst_12_5V*%
X86600000Y-82800000D03*
X185800000Y-84800000D03*
X186200000Y-55000000D03*
X185400000Y-105000000D03*
X87400000Y-56600000D03*
%TO.N,/burst_16_5V*%
X90464081Y-56821360D03*
X188800000Y-103400000D03*
X188400000Y-84200000D03*
X89000000Y-83000000D03*
X188800000Y-56600000D03*
%TO.N,/burst_11_5V*%
X184600000Y-105400000D03*
X186400000Y-53800000D03*
X86600000Y-56600000D03*
X185200000Y-85600000D03*
X86000000Y-83200000D03*
%TO.N,/burst_15_5V*%
X89800000Y-56600000D03*
X187800000Y-104000000D03*
X187600000Y-83200000D03*
X88400000Y-83400000D03*
X188400000Y-56000000D03*
%TO.N,/burst_14_5V*%
X187400000Y-56000000D03*
X87800000Y-82800000D03*
X187000000Y-83600000D03*
X89000000Y-56600000D03*
X186800000Y-104200000D03*
%TO.N,/burst_13_5V*%
X186000000Y-104600000D03*
X186400000Y-84200000D03*
X187000000Y-55200000D03*
X87200000Y-83200000D03*
X88200000Y-56600000D03*
%TO.N,/burst_10_5V*%
X85800000Y-56400000D03*
X166200000Y-85400000D03*
X101800000Y-89000000D03*
X162000000Y-83400000D03*
X163000000Y-57200000D03*
X85301356Y-83156438D03*
%TO.N,/burst_9_5V*%
X162200000Y-56600000D03*
X167000000Y-86200000D03*
X101600000Y-89800000D03*
X84400000Y-83032900D03*
X161200000Y-83200000D03*
X86200000Y-55200000D03*
%TO.N,/burst_23_5V*%
X196200000Y-56400000D03*
X195800000Y-100600000D03*
X108000000Y-83600000D03*
X195400000Y-83400000D03*
X108800000Y-54400000D03*
%TO.N,/burst_18_5V*%
X191600000Y-56000000D03*
X90200000Y-83000000D03*
X191400000Y-82800000D03*
X190600000Y-102800000D03*
X92400000Y-56600000D03*
%TO.N,/burst_22_5V*%
X194600000Y-83400000D03*
X195000000Y-56400000D03*
X194600000Y-101200000D03*
X107400000Y-84200000D03*
X108864081Y-53621360D03*
%TO.N,/burst_20_5V*%
X193200000Y-56000000D03*
X192600000Y-83000000D03*
X92200000Y-84000000D03*
X192600000Y-102000000D03*
X94200000Y-56800000D03*
%TO.N,/burst_17_5V*%
X190800000Y-56400000D03*
X189600000Y-103000000D03*
X91600000Y-56600000D03*
X190800000Y-83400000D03*
X89600000Y-82600000D03*
%TO.N,/burst_24_5V*%
X108800000Y-55200000D03*
X196800000Y-100200000D03*
X108600000Y-83200000D03*
X197400000Y-56400000D03*
X196000000Y-83000000D03*
%TO.N,/burst_19_5V*%
X191600000Y-102400000D03*
X192400000Y-56000000D03*
X192000000Y-83400000D03*
X90800000Y-83400000D03*
X93200000Y-56600000D03*
%TO.N,/burst_21_5V*%
X106800000Y-84800000D03*
X193600000Y-101600000D03*
X193246157Y-82730768D03*
X108200000Y-53400000D03*
X194200000Y-56000000D03*
%TO.N,/burst_29_5V*%
X111600000Y-83000000D03*
X201800000Y-55800000D03*
X201200000Y-98400000D03*
X201000000Y-83800000D03*
X112800000Y-56000000D03*
%TO.N,/burst_25_5V*%
X197800000Y-100000000D03*
X109800000Y-55200000D03*
X198600000Y-56400000D03*
X196800000Y-83200000D03*
X109200000Y-82800000D03*
%TO.N,/burst_26_5V*%
X197600000Y-83200000D03*
X199800000Y-56400000D03*
X198800000Y-99600000D03*
X109800000Y-82400000D03*
X110600000Y-55400000D03*
%TO.N,/burst_28_5V*%
X110950000Y-83570000D03*
X200535919Y-98621360D03*
X112000000Y-56000000D03*
X201200000Y-56400000D03*
X200000000Y-84200000D03*
%TO.N,/burst_32_5V*%
X211200000Y-84400000D03*
X114000000Y-82400000D03*
X214400000Y-97200000D03*
X212000000Y-55000000D03*
X115000000Y-56600000D03*
%TO.N,/burst_31_5V*%
X213800000Y-97600000D03*
X210600000Y-84800000D03*
X114000000Y-56800000D03*
X212000000Y-54200000D03*
X113200000Y-82400000D03*
%TO.N,/burst_27_5V*%
X111000000Y-56000000D03*
X110400000Y-83000000D03*
X199800000Y-99200000D03*
X200600000Y-55800000D03*
X199200000Y-83800000D03*
%TO.N,/burst_30_5V*%
X202400000Y-98400000D03*
X112400000Y-83000000D03*
X113800000Y-56000000D03*
X201800000Y-83600000D03*
X202600000Y-55200000D03*
%TO.N,/burst_36_5V*%
X214400000Y-56600000D03*
X213600000Y-82400000D03*
X216800000Y-95400000D03*
X117800000Y-83200000D03*
X118400000Y-57000000D03*
%TO.N,/burst_37_5V*%
X215400000Y-56600000D03*
X119400000Y-57000000D03*
X217400000Y-94959000D03*
X214200000Y-81800000D03*
X118464081Y-82978640D03*
%TO.N,/burst_34_5V*%
X212351000Y-83449000D03*
X116200000Y-82800000D03*
X215600000Y-96200000D03*
X117400000Y-56200000D03*
X212800000Y-56200000D03*
%TO.N,/burst_35_5V*%
X213000000Y-83000000D03*
X117000000Y-83000000D03*
X213400000Y-56600000D03*
X216200000Y-95800000D03*
X117600000Y-57000000D03*
%TO.N,/burst_40_5V*%
X216400000Y-83000000D03*
X218400000Y-56200000D03*
X123000000Y-55600000D03*
X220400000Y-94800000D03*
X121200000Y-83200000D03*
%TO.N,/burst_33_5V*%
X215000000Y-96800000D03*
X114800000Y-82600000D03*
X116000000Y-56600000D03*
X212600000Y-55400000D03*
X211800000Y-84000000D03*
%TO.N,/burst_39_5V*%
X215400000Y-80600000D03*
X121600000Y-56800000D03*
X217400000Y-56200000D03*
X120400000Y-83600000D03*
X219600000Y-94800000D03*
%TO.N,/burst_38_5V*%
X214800000Y-81400000D03*
X218400000Y-94800000D03*
X119200000Y-83400000D03*
X120400000Y-57000000D03*
X216200000Y-56600000D03*
%TO.N,/burst_44_5V*%
X223310384Y-94910384D03*
X144400000Y-82600000D03*
X151200000Y-55000000D03*
X222800000Y-55800000D03*
X222800000Y-83800000D03*
%TO.N,/burst_43_5V*%
X222000000Y-56200000D03*
X222000000Y-84000000D03*
X150600000Y-54400000D03*
X143800000Y-83000000D03*
X222626200Y-94762411D03*
%TO.N,/burst_47_5V*%
X225800000Y-84200000D03*
X152400000Y-56600000D03*
X146200000Y-82400000D03*
X225800000Y-55600000D03*
X225800000Y-94800000D03*
%TO.N,/burst_45_5V*%
X224100000Y-94900000D03*
X223400000Y-83400000D03*
X145000000Y-83800000D03*
X223600000Y-55200000D03*
X152200000Y-55000000D03*
%TO.N,/burst_42_5V*%
X221927456Y-94804355D03*
X221200000Y-55000000D03*
X149800000Y-53800000D03*
X143200000Y-83400000D03*
X221000000Y-83600000D03*
%TO.N,/burst_48_5V*%
X147000000Y-81800000D03*
X153200000Y-56800000D03*
X226400000Y-54400000D03*
X226800000Y-83600000D03*
%TO.N,/burst_41_5V*%
X221200000Y-94800000D03*
X149200000Y-53200000D03*
X220400000Y-84000000D03*
X220400000Y-55600000D03*
X142600000Y-83800000D03*
%TO.N,/burst_46_5V*%
X225000000Y-94800000D03*
X152200000Y-55800000D03*
X224800000Y-83800000D03*
X224800000Y-55200000D03*
X145600000Y-83000000D03*
%TO.N,/RTS_5V*%
X99000000Y-125500000D03*
X99000000Y-130750000D03*
%TO.N,/INT*%
X123500000Y-138800000D03*
X120750000Y-137000000D03*
X169250000Y-147000000D03*
X168000000Y-146250000D03*
X126250000Y-139750000D03*
X172750000Y-144500000D03*
%TO.N,/CTS_5V*%
X99750000Y-131250000D03*
X98450000Y-124500000D03*
%TO.N,/CTS*%
X124125000Y-136875000D03*
X137750000Y-135250000D03*
X172000000Y-137500000D03*
X141500000Y-135500000D03*
%TO.N,/INT_5V*%
X104250000Y-131000000D03*
X104000000Y-121500000D03*
%TO.N,/RTS*%
X154750000Y-143250000D03*
X170750000Y-144500000D03*
X156750000Y-143250000D03*
X128900000Y-141000000D03*
%TO.N,/SRAM_CS_*%
X123138909Y-138050000D03*
%TO.N,Net-(FTX1-K)*%
X151250000Y-153250000D03*
X144750000Y-144500000D03*
%TO.N,Net-(U3-~{RESET})*%
X140000000Y-148500000D03*
%TD*%
D33*
%TO.N,/burst_28_5V*%
X110950000Y-83570000D02*
X110970000Y-83570000D01*
X111000000Y-57000000D02*
X112000000Y-56000000D01*
X111000000Y-83520000D02*
X111000000Y-57000000D01*
X110950000Y-83570000D02*
X111000000Y-83520000D01*
X125819000Y-98419000D02*
X200333559Y-98419000D01*
X110970000Y-83570000D02*
X125819000Y-98419000D01*
X200333559Y-98419000D02*
X200535919Y-98621360D01*
%TO.N,/AT_TX*%
X103040000Y-121420000D02*
X102580000Y-121880000D01*
X99890000Y-132610000D02*
X84460000Y-132610000D01*
X102580000Y-121880000D02*
X102580000Y-124760000D01*
X102580000Y-124760000D02*
X100810000Y-126530000D01*
X100810000Y-126530000D02*
X100810000Y-131690000D01*
X100810000Y-131690000D02*
X99890000Y-132610000D01*
X84460000Y-132610000D02*
X82400000Y-134670000D01*
X82400000Y-134670000D02*
X82400000Y-154370000D01*
%TO.N,/AT_RX*%
X103327817Y-122799999D02*
X103327817Y-125922183D01*
X103327817Y-125922183D02*
X101430000Y-127820000D01*
X84900000Y-145340000D02*
X84900000Y-154370000D01*
X101430000Y-127820000D02*
X101430000Y-131920000D01*
X101430000Y-131920000D02*
X100140000Y-133210000D01*
X100140000Y-133210000D02*
X84740000Y-133210000D01*
X84740000Y-133210000D02*
X83190000Y-134760000D01*
X83190000Y-134760000D02*
X83190000Y-143630000D01*
X83190000Y-143630000D02*
X84900000Y-145340000D01*
%TO.N,/SCL*%
X99720000Y-123250000D02*
X99060000Y-123250000D01*
X99060000Y-123250000D02*
X95370000Y-119560000D01*
X95370000Y-119560000D02*
X93240000Y-119560000D01*
X93240000Y-119560000D02*
X85800000Y-112120000D01*
X85800000Y-112120000D02*
X85800000Y-109910000D01*
X85800000Y-109910000D02*
X79590000Y-103700000D01*
X79590000Y-103700000D02*
X79590000Y-103470000D01*
%TO.N,/SDA*%
X99720000Y-124090000D02*
X99010000Y-124090000D01*
X85260000Y-110150000D02*
X82560000Y-107450000D01*
X99010000Y-124090000D02*
X95010000Y-120090000D01*
X85260000Y-112370000D02*
X85260000Y-110150000D01*
X82560000Y-107450000D02*
X79270000Y-107450000D01*
X95010000Y-120090000D02*
X92980000Y-120090000D01*
X92980000Y-120090000D02*
X85260000Y-112370000D01*
X79270000Y-107450000D02*
X77440000Y-105620000D01*
X77440000Y-105620000D02*
X77440000Y-102070000D01*
X77440000Y-102070000D02*
X78540000Y-100970000D01*
X78540000Y-100970000D02*
X79590000Y-100970000D01*
D34*
%TO.N,/AT_MISO*%
X84250000Y-128250000D02*
X78300000Y-134200000D01*
X78300000Y-134200000D02*
X78300000Y-140700000D01*
X78300000Y-140700000D02*
X79310000Y-141710000D01*
X79310000Y-141710000D02*
X80130000Y-141710000D01*
D33*
%TO.N,/BUS_3_DETECT*%
X205200000Y-81800000D02*
X205200000Y-34200000D01*
X195600000Y-24600000D02*
X157600000Y-24600000D01*
X205200000Y-34200000D02*
X195600000Y-24600000D01*
X174000000Y-136800000D02*
X174000000Y-136200000D01*
X174000000Y-136200000D02*
X172800000Y-135000000D01*
X172800000Y-135000000D02*
X166600000Y-135000000D01*
X166600000Y-135000000D02*
X164400000Y-132800000D01*
X164400000Y-132800000D02*
X164400000Y-128600000D01*
X164400000Y-128600000D02*
X164800000Y-128200000D01*
X164800000Y-128200000D02*
X164800000Y-121800000D01*
X205200000Y-101400000D02*
X205200000Y-100600000D01*
X164800000Y-121800000D02*
X165400000Y-121200000D01*
X165400000Y-121200000D02*
X165400000Y-118600000D01*
X165400000Y-118600000D02*
X170000000Y-114000000D01*
X170000000Y-114000000D02*
X170000000Y-110767100D01*
X170000000Y-110767100D02*
X173965100Y-106802000D01*
X173965100Y-106802000D02*
X199798000Y-106802000D01*
X199798000Y-106802000D02*
X205200000Y-101400000D01*
%TO.N,/BUS_1*%
X204000000Y-87800000D02*
X203200000Y-87000000D01*
X203200000Y-87000000D02*
X177800000Y-87000000D01*
X163400000Y-86600000D02*
X158000000Y-86600000D01*
X177800000Y-87000000D02*
X174800000Y-84000000D01*
X174800000Y-84000000D02*
X166000000Y-84000000D01*
X166000000Y-84000000D02*
X163400000Y-86600000D01*
X158000000Y-86600000D02*
X152800000Y-81400000D01*
X152800000Y-81400000D02*
X150400000Y-81400000D01*
X198999000Y-106401000D02*
X204200000Y-101200000D01*
X166400000Y-135600000D02*
X163800000Y-133000000D01*
X173799000Y-106401000D02*
X198999000Y-106401000D01*
X169600000Y-113600000D02*
X169600000Y-110600000D01*
X165000000Y-118200000D02*
X169600000Y-113600000D01*
X164200000Y-121400000D02*
X165000000Y-120600000D01*
X163800000Y-133000000D02*
X163800000Y-128400000D01*
X163800000Y-128400000D02*
X164200000Y-128000000D01*
X165000000Y-120600000D02*
X165000000Y-118200000D01*
X169600000Y-110600000D02*
X173799000Y-106401000D01*
X164200000Y-128000000D02*
X164200000Y-121400000D01*
X172200000Y-135600000D02*
X166400000Y-135600000D01*
%TO.N,/BUS_4_DETECT*%
X164400000Y-120400000D02*
X164400000Y-117800000D01*
X164400000Y-117800000D02*
X169200000Y-113000000D01*
X169200000Y-110200000D02*
X173400000Y-106000000D01*
X198200000Y-106000000D02*
X205400000Y-98800000D01*
X169200000Y-113000000D02*
X169200000Y-110200000D01*
X173400000Y-106000000D02*
X198200000Y-106000000D01*
%TO.N,/MOSI*%
X137263900Y-136979000D02*
X126163900Y-136979000D01*
X146412900Y-127830000D02*
X137263900Y-136979000D01*
X163397253Y-127830000D02*
X146412900Y-127830000D01*
X163406868Y-127820385D02*
X163397253Y-127830000D01*
X126163900Y-136979000D02*
X123692900Y-139450000D01*
X123692900Y-139450000D02*
X123240000Y-139450000D01*
%TO.N,/MISO*%
X146420000Y-128390000D02*
X137430000Y-137380000D01*
X126330000Y-137380000D02*
X123570288Y-140139712D01*
X137430000Y-137380000D02*
X126330000Y-137380000D01*
X163000000Y-128390000D02*
X146420000Y-128390000D01*
X123570288Y-140139712D02*
X123359570Y-140139712D01*
%TO.N,/SCK*%
X139323550Y-136093550D02*
X139283550Y-136093550D01*
X146117100Y-129260000D02*
X144998550Y-130378550D01*
X163000000Y-129260000D02*
X146117100Y-129260000D01*
X123337100Y-140940000D02*
X122630000Y-140940000D01*
X144998550Y-130418550D02*
X139323550Y-136093550D01*
X144998550Y-130378550D02*
X144998550Y-130418550D01*
X139283550Y-136093550D02*
X137596100Y-137781000D01*
X137596100Y-137781000D02*
X126496100Y-137781000D01*
X126496100Y-137781000D02*
X123337100Y-140940000D01*
%TO.N,/CS*%
X123353200Y-141491000D02*
X122201000Y-141491000D01*
X126662200Y-138182000D02*
X123353200Y-141491000D01*
X145954200Y-130030000D02*
X137802200Y-138182000D01*
X137802200Y-138182000D02*
X126662200Y-138182000D01*
X122201000Y-141491000D02*
X121690000Y-140980000D01*
X163000000Y-130030000D02*
X145954200Y-130030000D01*
X121500000Y-139820000D02*
X121500000Y-139148000D01*
X121690000Y-140980000D02*
X121690000Y-140010000D01*
X121690000Y-140010000D02*
X121500000Y-139820000D01*
%TO.N,/BUS_4_DETECT*%
X208200000Y-81600000D02*
X208200000Y-46200000D01*
X208200000Y-46200000D02*
X216200000Y-38200000D01*
X216200000Y-38200000D02*
X233400000Y-38200000D01*
%TO.N,/BUS_2*%
X218800000Y-113800000D02*
X218000000Y-113000000D01*
X218000000Y-113000000D02*
X218000000Y-107000000D01*
X218000000Y-107000000D02*
X216000000Y-105000000D01*
X216800000Y-129200000D02*
X217600000Y-129200000D01*
X217600000Y-129200000D02*
X222600000Y-124200000D01*
X222600000Y-124200000D02*
X222600000Y-120200000D01*
%TO.N,/BUS_3*%
X209600000Y-81000000D02*
X209600000Y-52200000D01*
X218229120Y-114493062D02*
X218229120Y-114229120D01*
X218229120Y-114229120D02*
X217400000Y-113400000D01*
X217400000Y-113400000D02*
X217400000Y-107600000D01*
X217400000Y-107600000D02*
X217000000Y-107200000D01*
X216600000Y-128400000D02*
X217600000Y-128400000D01*
X222000000Y-124000000D02*
X222000000Y-120800000D01*
X217600000Y-128400000D02*
X222000000Y-124000000D01*
%TO.N,/BUS_4*%
X208800000Y-48200000D02*
X212600000Y-44400000D01*
X208800000Y-81000000D02*
X208800000Y-48200000D01*
X217600000Y-114800000D02*
X216800000Y-114000000D01*
X216800000Y-114000000D02*
X216800000Y-108000000D01*
X216200000Y-127600000D02*
X217400000Y-127600000D01*
X217400000Y-127600000D02*
X221200000Y-123800000D01*
X221200000Y-123800000D02*
X221200000Y-121200000D01*
%TO.N,/BUS_1_DETECT*%
X176200000Y-80600000D02*
X163800000Y-68200000D01*
X176200000Y-81400000D02*
X176200000Y-80600000D01*
X217000000Y-115400000D02*
X216000000Y-114400000D01*
X216000000Y-114400000D02*
X216000000Y-109000000D01*
X220400000Y-122400000D02*
X220400000Y-121600000D01*
X215200000Y-127600000D02*
X220400000Y-122400000D01*
%TO.N,/BUS_2_DETECT*%
X216400000Y-116000000D02*
X215200000Y-114800000D01*
X224000000Y-97600000D02*
X227400000Y-94200000D01*
X227400000Y-94200000D02*
X227400000Y-84600000D01*
X235000000Y-77000000D02*
X235000000Y-58000000D01*
X215200000Y-114800000D02*
X215200000Y-104000000D01*
X215200000Y-104000000D02*
X221600000Y-97600000D01*
X221600000Y-97600000D02*
X224000000Y-97600000D01*
X227400000Y-84600000D02*
X235000000Y-77000000D01*
X214200000Y-127600000D02*
X219000000Y-122800000D01*
X219000000Y-122800000D02*
X219400000Y-122400000D01*
D34*
%TO.N,/AT_MISO*%
X87500000Y-123500000D02*
X87500000Y-117960000D01*
D33*
X84250000Y-130000000D02*
X84250000Y-128250000D01*
X85000000Y-130750000D02*
X84250000Y-130000000D01*
D34*
X89750000Y-125750000D02*
X87500000Y-123500000D01*
X87500000Y-117960000D02*
X84040000Y-114500000D01*
%TO.N,/AT_SCK*%
X86250000Y-119250000D02*
X84040000Y-117040000D01*
X88750000Y-127500000D02*
X86250000Y-125000000D01*
X86250000Y-125000000D02*
X86250000Y-119250000D01*
%TO.N,/RAM_CS*%
X82750000Y-131750000D02*
X80130000Y-134370000D01*
X90500000Y-123500000D02*
X90500000Y-129500000D01*
X80130000Y-134370000D02*
X80130000Y-139170000D01*
X90750000Y-123250000D02*
X90500000Y-123500000D01*
X87750000Y-131750000D02*
X82750000Y-131750000D01*
D33*
%TO.N,/AT_MOSI*%
X84040000Y-126040000D02*
X84040000Y-124660000D01*
X85750000Y-130500000D02*
X85750000Y-127750000D01*
X85750000Y-127750000D02*
X84040000Y-126040000D01*
%TO.N,Net-(U6-PH1)*%
X186250000Y-129500000D02*
X186750000Y-130000000D01*
X182500000Y-131750000D02*
X182500000Y-130500000D01*
X183500000Y-129500000D02*
X186250000Y-129500000D01*
X182500000Y-130500000D02*
X183500000Y-129500000D01*
X181500000Y-132750000D02*
X182500000Y-131750000D01*
X186750000Y-130000000D02*
X186750000Y-130250000D01*
D34*
%TO.N,VCCA*%
X155500000Y-138500000D02*
X155000000Y-139000000D01*
X98750000Y-145000000D02*
X98000000Y-145750000D01*
X98000000Y-145750000D02*
X97950000Y-145750000D01*
X129000000Y-139500000D02*
X131000000Y-139500000D01*
X131000000Y-139500000D02*
X131125000Y-139375000D01*
X98750000Y-143250000D02*
X98750000Y-145000000D01*
X126500000Y-140750000D02*
X127750000Y-140750000D01*
X170750000Y-138500000D02*
X155500000Y-138500000D01*
X127750000Y-140750000D02*
X129000000Y-139500000D01*
X171250000Y-138000000D02*
X170750000Y-138500000D01*
X100000000Y-142000000D02*
X98750000Y-143250000D01*
D35*
%TO.N,VCC_5V*%
X100500000Y-140000000D02*
X99250000Y-140000000D01*
X96250000Y-137000000D02*
X96250000Y-136000000D01*
X107792500Y-148000000D02*
X107792500Y-145542500D01*
X102250000Y-141750000D02*
X100500000Y-140000000D01*
X107792500Y-145542500D02*
X104000000Y-141750000D01*
X99250000Y-140000000D02*
X96250000Y-137000000D01*
X104000000Y-141750000D02*
X102250000Y-141750000D01*
D33*
%TO.N,/NRST*%
X189125000Y-140375000D02*
X197250000Y-132250000D01*
X212000000Y-132250000D02*
X214219000Y-134469000D01*
X182250000Y-136750000D02*
X185875000Y-140375000D01*
X185875000Y-140375000D02*
X189125000Y-140375000D01*
X214219000Y-134469000D02*
X214219000Y-137389000D01*
X179500000Y-133450000D02*
X180200000Y-133450000D01*
X197250000Y-132250000D02*
X212000000Y-132250000D01*
X182250000Y-135500000D02*
X182250000Y-136750000D01*
X180200000Y-133450000D02*
X182250000Y-135500000D01*
X214219000Y-137389000D02*
X215370000Y-138540000D01*
%TO.N,/JTDI*%
X163250000Y-144500000D02*
X167000000Y-148250000D01*
X167000000Y-148250000D02*
X167013909Y-148236091D01*
X192960000Y-148250000D02*
X202670000Y-138540000D01*
%TO.N,/JTMS-SWDIO*%
X161500000Y-144250000D02*
X166500000Y-149250000D01*
X168749000Y-149551000D02*
X168750000Y-149550000D01*
X161500000Y-144000000D02*
X161500000Y-144250000D01*
X166801000Y-149551000D02*
X168749000Y-149551000D01*
X166500000Y-149250000D02*
X166801000Y-149551000D01*
X199000000Y-149250000D02*
X202250000Y-146000000D01*
%TO.N,/JTCK-SWCLK*%
X162500000Y-144529232D02*
X164720768Y-146750000D01*
X197540000Y-148750000D02*
X207750000Y-138540000D01*
X167000000Y-149000000D02*
X167500000Y-149000000D01*
X162500000Y-144250000D02*
X162500000Y-144529232D01*
X164750000Y-146750000D02*
X167000000Y-149000000D01*
X164720768Y-146750000D02*
X164750000Y-146750000D01*
%TO.N,/J_UP*%
X182750000Y-127500000D02*
X185250000Y-125000000D01*
X177000000Y-130750000D02*
X180250000Y-127500000D01*
X185250000Y-125000000D02*
X209250000Y-125000000D01*
X231000000Y-84250000D02*
X236500000Y-84250000D01*
X209250000Y-125000000D02*
X228000000Y-106250000D01*
X228000000Y-87250000D02*
X231000000Y-84250000D01*
X228000000Y-106250000D02*
X228000000Y-87250000D01*
X174000000Y-130750000D02*
X177000000Y-130750000D01*
X173250000Y-131500000D02*
X174000000Y-130750000D01*
X180250000Y-127500000D02*
X182750000Y-127500000D01*
X173250000Y-132750000D02*
X173250000Y-131500000D01*
%TO.N,/J_DOWN*%
X183000000Y-128000000D02*
X185500000Y-125500000D01*
X174000000Y-131750000D02*
X174500000Y-131250000D01*
X228500000Y-106500000D02*
X228500000Y-88250000D01*
X209500000Y-125500000D02*
X228500000Y-106500000D01*
X228500000Y-88250000D02*
X229000000Y-87750000D01*
X230750000Y-87750000D02*
X231750000Y-86750000D01*
X229000000Y-87750000D02*
X230750000Y-87750000D01*
X174000000Y-132500000D02*
X174000000Y-131750000D01*
X180432900Y-128000000D02*
X183000000Y-128000000D01*
X185500000Y-125500000D02*
X209500000Y-125500000D01*
X231750000Y-86750000D02*
X236500000Y-86750000D01*
X174500000Y-131250000D02*
X177182900Y-131250000D01*
X177182900Y-131250000D02*
X180432900Y-128000000D01*
%TO.N,/J_LEFT*%
X180500000Y-128500000D02*
X183365800Y-128500000D01*
X209750000Y-126000000D02*
X229000000Y-106750000D01*
X229000000Y-106750000D02*
X229000000Y-91500000D01*
X174750000Y-132000000D02*
X177000000Y-132000000D01*
X231250000Y-89250000D02*
X236500000Y-89250000D01*
X229000000Y-91500000D02*
X231250000Y-89250000D01*
X177000000Y-132000000D02*
X180500000Y-128500000D01*
X185865800Y-126000000D02*
X209750000Y-126000000D01*
X183365800Y-128500000D02*
X185865800Y-126000000D01*
%TO.N,/J_RIGHT*%
X180750000Y-131682900D02*
X185682900Y-126750000D01*
X229500000Y-95250000D02*
X233000000Y-91750000D01*
X180750000Y-132000000D02*
X180750000Y-131682900D01*
X229500000Y-107500000D02*
X229500000Y-95250000D01*
X185682900Y-126750000D02*
X210250000Y-126750000D01*
X210250000Y-126750000D02*
X229500000Y-107500000D01*
X233000000Y-91750000D02*
X236500000Y-91750000D01*
%TO.N,/J_C*%
X178500000Y-127970768D02*
X181970768Y-124500000D01*
X227250000Y-106250000D02*
X227250000Y-102000000D01*
X176750000Y-130250000D02*
X178500000Y-128500000D01*
X173500000Y-130250000D02*
X176750000Y-130250000D01*
X209000000Y-124500000D02*
X227250000Y-106250000D01*
X172500000Y-131250000D02*
X173500000Y-130250000D01*
X172500000Y-133250000D02*
X172500000Y-131250000D01*
X181970768Y-124500000D02*
X209000000Y-124500000D01*
X178500000Y-128500000D02*
X178500000Y-127970768D01*
%TO.N,/J_B*%
X232720000Y-106090000D02*
X232720000Y-103810000D01*
X232720000Y-103810000D02*
X235280000Y-101250000D01*
X232710000Y-106090000D02*
X232720000Y-106090000D01*
X235280000Y-101250000D02*
X236000000Y-101250000D01*
X211260000Y-127540000D02*
X232710000Y-106090000D01*
%TO.N,/J_A*%
X236000000Y-105000000D02*
X236000000Y-103750000D01*
X212940000Y-127530000D02*
X212940000Y-127520000D01*
X227750000Y-113250000D02*
X236000000Y-105000000D01*
X212940000Y-127520000D02*
X227210000Y-113250000D01*
X227210000Y-113250000D02*
X227750000Y-113250000D01*
%TO.N,/AT_CS*%
X86500000Y-127250000D02*
X85750000Y-126500000D01*
X85750000Y-121290000D02*
X84040000Y-119580000D01*
X86500000Y-129500000D02*
X86500000Y-127250000D01*
X85750000Y-126500000D02*
X85750000Y-121290000D01*
%TO.N,Net-(U7-~{RESET}{slash}PC6)*%
X107850000Y-126750000D02*
X108750000Y-126750000D01*
X116750000Y-154500000D02*
X136000000Y-154500000D01*
X115000000Y-152750000D02*
X116750000Y-154500000D01*
X137500000Y-156000000D02*
X139500000Y-156000000D01*
X105500000Y-124400000D02*
X107850000Y-126750000D01*
X115000000Y-145000000D02*
X115000000Y-152750000D01*
X136000000Y-154500000D02*
X137500000Y-156000000D01*
X111750000Y-129750000D02*
X111750000Y-141750000D01*
X108750000Y-126750000D02*
X111750000Y-129750000D01*
X111750000Y-141750000D02*
X115000000Y-145000000D01*
%TO.N,Net-(U6-BOOT0)*%
X182000000Y-153250000D02*
X182000000Y-152750000D01*
X173500000Y-155250000D02*
X180000000Y-155250000D01*
X172000000Y-153750000D02*
X173500000Y-155250000D01*
X180000000Y-155250000D02*
X182000000Y-153250000D01*
X172000000Y-145250000D02*
X172000000Y-153750000D01*
%TO.N,/SRAM_CS*%
X136073000Y-136177000D02*
X123677000Y-136177000D01*
X123677000Y-136177000D02*
X123250000Y-135750000D01*
X137000000Y-135220768D02*
X137000000Y-135250000D01*
X172000000Y-136500000D02*
X145000000Y-136500000D01*
X143250000Y-134750000D02*
X142750000Y-134750000D01*
X145000000Y-136500000D02*
X143250000Y-134750000D01*
X137000000Y-135250000D02*
X136073000Y-136177000D01*
X138250000Y-134500000D02*
X137720768Y-134500000D01*
X137720768Y-134500000D02*
X137000000Y-135220768D01*
%TO.N,/burst_45_*%
X174800000Y-118600000D02*
X193600000Y-118600000D01*
X168800000Y-124600000D02*
X174800000Y-118600000D01*
X168800000Y-130400000D02*
X168800000Y-124600000D01*
%TO.N,/burst_46_*%
X174767100Y-119200000D02*
X194000000Y-119200000D01*
X169400000Y-130940000D02*
X169400000Y-124567100D01*
X194000000Y-119200000D02*
X194400000Y-118800000D01*
X169400000Y-124567100D02*
X174767100Y-119200000D01*
%TO.N,/burst_42_*%
X167000000Y-124200000D02*
X174400000Y-116800000D01*
X166195000Y-130805000D02*
X167000000Y-130000000D01*
X174400000Y-116800000D02*
X191600000Y-116800000D01*
X167000000Y-130000000D02*
X167000000Y-124200000D01*
%TO.N,/burst_47_*%
X172200000Y-125600000D02*
X176000000Y-125600000D01*
X181600000Y-120000000D02*
X194200000Y-120000000D01*
X170200000Y-130620000D02*
X170200000Y-127600000D01*
X176000000Y-125600000D02*
X181600000Y-120000000D01*
X170200000Y-127600000D02*
X172200000Y-125600000D01*
X194200000Y-120000000D02*
X195200000Y-119000000D01*
%TO.N,/burst_44_*%
X167800000Y-131000000D02*
X168200000Y-130600000D01*
X168200000Y-130600000D02*
X168200000Y-124600000D01*
X168200000Y-124600000D02*
X174800000Y-118000000D01*
X174800000Y-118000000D02*
X192800000Y-118000000D01*
%TO.N,/burst_48_*%
X170773357Y-129264345D02*
X170800000Y-129237702D01*
X194600000Y-120600000D02*
X196000000Y-119200000D01*
X170800000Y-129237702D02*
X170800000Y-127800000D01*
X170773357Y-131173357D02*
X170773357Y-129264345D01*
X181800000Y-120600000D02*
X194600000Y-120600000D01*
X176200000Y-126200000D02*
X181800000Y-120600000D01*
X170800000Y-127800000D02*
X172400000Y-126200000D01*
X170800000Y-131200000D02*
X170773357Y-131173357D01*
X172400000Y-126200000D02*
X176200000Y-126200000D01*
%TO.N,/burst_41_*%
X165580000Y-130420000D02*
X166200000Y-129800000D01*
X166200000Y-124200000D02*
X174200000Y-116200000D01*
X174200000Y-116200000D02*
X191200000Y-116200000D01*
X166200000Y-129800000D02*
X166200000Y-124200000D01*
%TO.N,/RX*%
X159500000Y-144500000D02*
X162000000Y-147000000D01*
X169750000Y-140000000D02*
X169750000Y-142500000D01*
X164500000Y-150000000D02*
X162000000Y-150000000D01*
X162000000Y-147000000D02*
X162000000Y-150000000D01*
X165450735Y-149049265D02*
X164500000Y-150000000D01*
X169750000Y-142500000D02*
X168500000Y-143750000D01*
%TO.N,/burst_43_*%
X167600000Y-130220000D02*
X167600000Y-124400000D01*
X167600000Y-124400000D02*
X174600000Y-117400000D01*
X174600000Y-117400000D02*
X192200000Y-117400000D01*
X167080000Y-130740000D02*
X167600000Y-130220000D01*
%TO.N,/TX*%
X160250000Y-152000000D02*
X159500000Y-151250000D01*
X152750000Y-140250000D02*
X159500000Y-147000000D01*
X148250000Y-140250000D02*
X152750000Y-140250000D01*
X166000000Y-150000000D02*
X165250000Y-150000000D01*
X170500000Y-142750000D02*
X168500000Y-144750000D01*
X159500000Y-151250000D02*
X159500000Y-150000000D01*
X163250000Y-152000000D02*
X160250000Y-152000000D01*
X147750000Y-140750000D02*
X148250000Y-140250000D01*
X165250000Y-150000000D02*
X163250000Y-152000000D01*
X159500000Y-147000000D02*
X159500000Y-150000000D01*
X170500000Y-139250000D02*
X170500000Y-142750000D01*
%TO.N,/burst_4_5V*%
X157200000Y-82800000D02*
X157200000Y-57000000D01*
X81000000Y-83600000D02*
X81000000Y-84000000D01*
X157200000Y-57000000D02*
X158200000Y-56000000D01*
X81000000Y-83600000D02*
X81000000Y-56000000D01*
X89800000Y-92800000D02*
X105800000Y-92800000D01*
X81000000Y-56000000D02*
X82000000Y-55000000D01*
X81000000Y-84000000D02*
X89800000Y-92800000D01*
%TO.N,/burst_2_5V*%
X88600000Y-94000000D02*
X107400000Y-94000000D01*
X149400000Y-59000000D02*
X153000000Y-59000000D01*
X148400000Y-60000000D02*
X149400000Y-59000000D01*
X80000000Y-85400000D02*
X88600000Y-94000000D01*
X80000000Y-85400000D02*
X80000000Y-55000000D01*
X148400000Y-81600000D02*
X148400000Y-60000000D01*
X153000000Y-59000000D02*
X154400000Y-57600000D01*
X80000000Y-55000000D02*
X80400000Y-54600000D01*
%TO.N,/burst_6_5V*%
X82200000Y-80800000D02*
X82200000Y-56600000D01*
X158600000Y-82800000D02*
X158600000Y-57400000D01*
X90200000Y-91600000D02*
X103200000Y-91600000D01*
X158600000Y-57400000D02*
X160000000Y-56000000D01*
X82200000Y-56600000D02*
X83400000Y-55400000D01*
X82200000Y-80800000D02*
X82200000Y-83600000D01*
X82200000Y-83600000D02*
X90200000Y-91600000D01*
%TO.N,/burst_5_5V*%
X81600000Y-82800000D02*
X81600000Y-84000000D01*
X158000000Y-83400000D02*
X158000000Y-57200000D01*
X81600000Y-56200000D02*
X82600000Y-55200000D01*
X89800000Y-92200000D02*
X104600000Y-92200000D01*
X82621360Y-55221360D02*
X82664081Y-55221360D01*
X82600000Y-55200000D02*
X82621360Y-55221360D01*
X81600000Y-82800000D02*
X81600000Y-56200000D01*
X158000000Y-57200000D02*
X159200000Y-56000000D01*
X81600000Y-84000000D02*
X89800000Y-92200000D01*
%TO.N,/burst_7_5V*%
X82800000Y-56800000D02*
X84200000Y-55400000D01*
X90420768Y-91000000D02*
X102000000Y-91000000D01*
X82800000Y-83379232D02*
X90420768Y-91000000D01*
X82800000Y-79400000D02*
X82800000Y-56800000D01*
X159400000Y-57400000D02*
X161000000Y-55800000D01*
X82800000Y-79400000D02*
X82800000Y-83379232D01*
X159400000Y-83400000D02*
X159400000Y-57400000D01*
%TO.N,/burst_8_5V*%
X160000000Y-82800000D02*
X160000000Y-57800000D01*
X83600000Y-56800000D02*
X85200000Y-55200000D01*
X160000000Y-57800000D02*
X161200000Y-56600000D01*
X83600000Y-83400000D02*
X90600000Y-90400000D01*
X90600000Y-90400000D02*
X102800000Y-90400000D01*
X83600000Y-83400000D02*
X83600000Y-56800000D01*
%TO.N,/burst_3_5V*%
X80400000Y-84600000D02*
X80400000Y-55600000D01*
X153600000Y-59600000D02*
X154200000Y-59000000D01*
X89200000Y-93400000D02*
X106800000Y-93400000D01*
X80400000Y-55600000D02*
X81200000Y-54800000D01*
X149000000Y-60600000D02*
X150000000Y-59600000D01*
X80800000Y-85000000D02*
X89200000Y-93400000D01*
X149000000Y-80800000D02*
X149000000Y-60600000D01*
X80800000Y-85000000D02*
X80400000Y-84600000D01*
X150000000Y-59600000D02*
X153600000Y-59600000D01*
%TO.N,/burst_1_5V*%
X147800000Y-59800000D02*
X149200000Y-58400000D01*
X79400000Y-85600000D02*
X88600000Y-94800000D01*
X79400000Y-54800000D02*
X81600000Y-52600000D01*
X149200000Y-58400000D02*
X152600000Y-58400000D01*
X152600000Y-58400000D02*
X154400000Y-56600000D01*
X79400000Y-84800000D02*
X79400000Y-85600000D01*
X147800000Y-80800000D02*
X147800000Y-59800000D01*
X88600000Y-94800000D02*
X108000000Y-94800000D01*
X79400000Y-84800000D02*
X79400000Y-54800000D01*
%TO.N,/burst_12_5V*%
X119832400Y-104835000D02*
X185235000Y-104835000D01*
X86600000Y-57400000D02*
X87400000Y-56600000D01*
X185800000Y-55400000D02*
X186200000Y-55000000D01*
X90800000Y-87800000D02*
X102797400Y-87800000D01*
X86600000Y-83600000D02*
X90800000Y-87800000D01*
X86600000Y-82800000D02*
X86600000Y-57400000D01*
X185800000Y-84800000D02*
X185800000Y-55400000D01*
X185235000Y-104835000D02*
X185400000Y-105000000D01*
X86600000Y-82800000D02*
X86600000Y-83600000D01*
X102797400Y-87800000D02*
X119832400Y-104835000D01*
%TO.N,/burst_16_5V*%
X120496800Y-103231000D02*
X188631000Y-103231000D01*
X90421360Y-56821360D02*
X90464081Y-56821360D01*
X103067800Y-85802000D02*
X120496800Y-103231000D01*
X90400000Y-56800000D02*
X90421360Y-56821360D01*
X91100700Y-85802000D02*
X103067800Y-85802000D01*
X188631000Y-103231000D02*
X188800000Y-103400000D01*
X89000000Y-58200000D02*
X90400000Y-56800000D01*
X188400000Y-57000000D02*
X188800000Y-56600000D01*
X188400000Y-84200000D02*
X188400000Y-57000000D01*
X89000000Y-83000000D02*
X89000000Y-83701300D01*
X89000000Y-83701300D02*
X91100700Y-85802000D01*
X89000000Y-83000000D02*
X89000000Y-58200000D01*
%TO.N,/burst_11_5V*%
X86199000Y-83399000D02*
X86199000Y-83766100D01*
X184436000Y-105236000D02*
X184600000Y-105400000D01*
X119666300Y-105236000D02*
X184436000Y-105236000D01*
X102631300Y-88201000D02*
X119666300Y-105236000D01*
X90633900Y-88201000D02*
X102631300Y-88201000D01*
X86000000Y-83200000D02*
X86000000Y-57200000D01*
X86199000Y-83766100D02*
X90633900Y-88201000D01*
X185200000Y-85600000D02*
X185200000Y-55000000D01*
X86000000Y-57200000D02*
X86600000Y-56600000D01*
X185200000Y-55000000D02*
X186400000Y-53800000D01*
X86000000Y-83200000D02*
X86199000Y-83399000D01*
%TO.N,/burst_15_5V*%
X90934600Y-86203000D02*
X102901700Y-86203000D01*
X120330700Y-103632000D02*
X187432000Y-103632000D01*
X88400000Y-83668400D02*
X90934600Y-86203000D01*
X88400000Y-58000000D02*
X89800000Y-56600000D01*
X187432000Y-103632000D02*
X187800000Y-104000000D01*
X88400000Y-83400000D02*
X88400000Y-58000000D01*
X88400000Y-83400000D02*
X88400000Y-83668400D01*
X102901700Y-86203000D02*
X120330700Y-103632000D01*
X187600000Y-83200000D02*
X187600000Y-56800000D01*
X187600000Y-56800000D02*
X188400000Y-56000000D01*
%TO.N,/burst_14_5V*%
X87800000Y-83635500D02*
X90964500Y-86800000D01*
X186633000Y-104033000D02*
X186800000Y-104200000D01*
X87800000Y-82800000D02*
X87800000Y-57800000D01*
X120164600Y-104033000D02*
X186633000Y-104033000D01*
X87800000Y-82800000D02*
X87800000Y-83635500D01*
X187000000Y-83600000D02*
X187000000Y-56400000D01*
X90964500Y-86800000D02*
X102931600Y-86800000D01*
X87800000Y-57800000D02*
X89000000Y-56600000D01*
X187000000Y-56400000D02*
X187400000Y-56000000D01*
X102931600Y-86800000D02*
X120164600Y-104033000D01*
%TO.N,/burst_13_5V*%
X87200000Y-83602600D02*
X90997400Y-87400000D01*
X90997400Y-87400000D02*
X102964500Y-87400000D01*
X186400000Y-55800000D02*
X187000000Y-55200000D01*
X119998500Y-104434000D02*
X185834000Y-104434000D01*
X87200000Y-83200000D02*
X87200000Y-57600000D01*
X186400000Y-84200000D02*
X186400000Y-55800000D01*
X185834000Y-104434000D02*
X186000000Y-104600000D01*
X87200000Y-57600000D02*
X88200000Y-56600000D01*
X87200000Y-83200000D02*
X87200000Y-83602600D01*
X102964500Y-87400000D02*
X119998500Y-104434000D01*
%TO.N,/burst_10_5V*%
X162000000Y-83400000D02*
X162000000Y-58200000D01*
X84500000Y-57700000D02*
X85800000Y-56400000D01*
X85301356Y-83156438D02*
X84500000Y-82355082D01*
X85211411Y-83246383D02*
X85211411Y-83345611D01*
X90865800Y-89000000D02*
X101800000Y-89000000D01*
X85301356Y-83156438D02*
X85211411Y-83246383D01*
X162000000Y-58200000D02*
X163000000Y-57200000D01*
X84500000Y-82355082D02*
X84500000Y-57700000D01*
X85211411Y-83345611D02*
X90865800Y-89000000D01*
%TO.N,/burst_9_5V*%
X84001000Y-82633900D02*
X84001000Y-57399000D01*
X84001000Y-57399000D02*
X86200000Y-55200000D01*
X161200000Y-83200000D02*
X161200000Y-57600000D01*
X84400000Y-83032900D02*
X84001000Y-82633900D01*
X91098700Y-89800000D02*
X101600000Y-89800000D01*
X84400000Y-83032900D02*
X84400000Y-83101300D01*
X84400000Y-83101300D02*
X91098700Y-89800000D01*
X161200000Y-57600000D02*
X162200000Y-56600000D01*
%TO.N,/burst_23_5V*%
X108000000Y-83600000D02*
X108000000Y-83701300D01*
X108000000Y-83701300D02*
X124722700Y-100424000D01*
X195624000Y-100424000D02*
X195800000Y-100600000D01*
X195400000Y-83400000D02*
X195400000Y-57200000D01*
X124722700Y-100424000D02*
X195624000Y-100424000D01*
X108000000Y-55200000D02*
X108800000Y-54400000D01*
X108000000Y-83600000D02*
X108000000Y-55200000D01*
X195400000Y-57200000D02*
X196200000Y-56400000D01*
%TO.N,/burst_18_5V*%
X191400000Y-56200000D02*
X191600000Y-56000000D01*
X91432900Y-85000000D02*
X103400000Y-85000000D01*
X90200000Y-58800000D02*
X92400000Y-56600000D01*
X90200000Y-83767100D02*
X91432900Y-85000000D01*
X90200000Y-83000000D02*
X90200000Y-58800000D01*
X120829000Y-102429000D02*
X190229000Y-102429000D01*
X103400000Y-85000000D02*
X120829000Y-102429000D01*
X191400000Y-82800000D02*
X191400000Y-56200000D01*
X90200000Y-83000000D02*
X90200000Y-83767100D01*
X190229000Y-102429000D02*
X190600000Y-102800000D01*
%TO.N,/burst_22_5V*%
X194600000Y-56800000D02*
X195000000Y-56400000D01*
X108821360Y-53621360D02*
X108864081Y-53621360D01*
X107400000Y-84200000D02*
X107931600Y-84200000D01*
X194600000Y-83400000D02*
X194600000Y-56800000D01*
X108800000Y-53600000D02*
X108821360Y-53621360D01*
X107400000Y-55000000D02*
X108800000Y-53600000D01*
X194225000Y-100825000D02*
X194600000Y-101200000D01*
X107400000Y-84200000D02*
X107400000Y-55000000D01*
X107931600Y-84200000D02*
X124556600Y-100825000D01*
X124556600Y-100825000D02*
X194225000Y-100825000D01*
%TO.N,/burst_20_5V*%
X192600000Y-83000000D02*
X192600000Y-56600000D01*
X192227000Y-101627000D02*
X192600000Y-102000000D01*
X92200000Y-58800000D02*
X94200000Y-56800000D01*
X192600000Y-56600000D02*
X193200000Y-56000000D01*
X103600000Y-84000000D02*
X121227000Y-101627000D01*
X92200000Y-84000000D02*
X103600000Y-84000000D01*
X92200000Y-84000000D02*
X92200000Y-58800000D01*
X121227000Y-101627000D02*
X192227000Y-101627000D01*
%TO.N,/burst_17_5V*%
X120662900Y-102830000D02*
X189430000Y-102830000D01*
X89600000Y-58400000D02*
X90400000Y-57600000D01*
X91266800Y-85401000D02*
X103233900Y-85401000D01*
X89600000Y-83734200D02*
X91266800Y-85401000D01*
X89600000Y-82600000D02*
X89600000Y-58400000D01*
X103233900Y-85401000D02*
X120662900Y-102830000D01*
X90400000Y-57600000D02*
X90600000Y-57600000D01*
X89600000Y-82600000D02*
X89600000Y-83734200D01*
X189430000Y-102830000D02*
X189600000Y-103000000D01*
X90600000Y-57600000D02*
X91600000Y-56600000D01*
X190800000Y-83400000D02*
X190800000Y-56400000D01*
%TO.N,/burst_24_5V*%
X108600000Y-55400000D02*
X108800000Y-55200000D01*
X108600000Y-83200000D02*
X108600000Y-55400000D01*
X196000000Y-57800000D02*
X197400000Y-56400000D01*
X108600000Y-83734200D02*
X124888800Y-100023000D01*
X124888800Y-100023000D02*
X196623000Y-100023000D01*
X196000000Y-83000000D02*
X196000000Y-57800000D01*
X196623000Y-100023000D02*
X196800000Y-100200000D01*
X108600000Y-83200000D02*
X108600000Y-83734200D01*
%TO.N,/burst_19_5V*%
X90800000Y-83800000D02*
X91600000Y-84600000D01*
X121060900Y-102028000D02*
X191228000Y-102028000D01*
X90800000Y-83400000D02*
X90800000Y-59000000D01*
X91600000Y-84600000D02*
X103632900Y-84600000D01*
X192000000Y-56400000D02*
X192400000Y-56000000D01*
X103632900Y-84600000D02*
X121060900Y-102028000D01*
X191228000Y-102028000D02*
X191600000Y-102400000D01*
X192000000Y-83400000D02*
X192000000Y-56400000D01*
X90800000Y-59000000D02*
X93200000Y-56600000D01*
X90800000Y-83400000D02*
X90800000Y-83800000D01*
%TO.N,/burst_21_5V*%
X106800000Y-54800000D02*
X108200000Y-53400000D01*
X124390500Y-101226000D02*
X193226000Y-101226000D01*
X193246157Y-82730768D02*
X193200000Y-82684611D01*
X106800000Y-84800000D02*
X106800000Y-54800000D01*
X106800000Y-84800000D02*
X107964500Y-84800000D01*
X193226000Y-101226000D02*
X193600000Y-101600000D01*
X107964500Y-84800000D02*
X124390500Y-101226000D01*
X193200000Y-82684611D02*
X193200000Y-57000000D01*
X193200000Y-57000000D02*
X194200000Y-56000000D01*
%TO.N,/burst_29_5V*%
X111600000Y-57200000D02*
X112800000Y-56000000D01*
X126618000Y-98018000D02*
X200818000Y-98018000D01*
X111600000Y-83000000D02*
X111600000Y-57200000D01*
X201000000Y-83800000D02*
X201000000Y-58600000D01*
X200818000Y-98018000D02*
X201200000Y-98400000D01*
X111600000Y-83000000D02*
X126618000Y-98018000D01*
X201800000Y-57800000D02*
X201800000Y-55800000D01*
X201000000Y-58600000D02*
X201800000Y-57800000D01*
%TO.N,/burst_25_5V*%
X109200000Y-83767100D02*
X125054900Y-99622000D01*
X196800000Y-58200000D02*
X198600000Y-56400000D01*
X109200000Y-55800000D02*
X109800000Y-55200000D01*
X109200000Y-82800000D02*
X109200000Y-55800000D01*
X196800000Y-83200000D02*
X196800000Y-58200000D01*
X125054900Y-99622000D02*
X197422000Y-99622000D01*
X197422000Y-99622000D02*
X197800000Y-100000000D01*
X109200000Y-82800000D02*
X109200000Y-83767100D01*
%TO.N,/burst_26_5V*%
X197600000Y-58600000D02*
X199800000Y-56400000D01*
X109800000Y-82400000D02*
X109800000Y-83800000D01*
X109800000Y-82400000D02*
X109800000Y-56200000D01*
X125221000Y-99221000D02*
X198421000Y-99221000D01*
X197600000Y-83200000D02*
X197600000Y-58600000D01*
X109800000Y-83800000D02*
X125221000Y-99221000D01*
X198421000Y-99221000D02*
X198800000Y-99600000D01*
X109800000Y-56200000D02*
X110600000Y-55400000D01*
%TO.N,/burst_28_5V*%
X201200000Y-57400000D02*
X201200000Y-56400000D01*
X200000000Y-84200000D02*
X200000000Y-58600000D01*
X200000000Y-58600000D02*
X201200000Y-57400000D01*
%TO.N,/burst_32_5V*%
X114000000Y-82400000D02*
X114000000Y-57600000D01*
X114000000Y-82782900D02*
X114000000Y-82400000D01*
X211200000Y-55800000D02*
X212000000Y-55000000D01*
X214015000Y-96815000D02*
X128032100Y-96815000D01*
X114000000Y-57600000D02*
X115000000Y-56600000D01*
X128032100Y-96815000D02*
X114000000Y-82782900D01*
X214400000Y-97200000D02*
X214015000Y-96815000D01*
X211200000Y-84400000D02*
X211200000Y-55800000D01*
%TO.N,/burst_31_5V*%
X113200000Y-82550000D02*
X113200000Y-82400000D01*
X210600000Y-84800000D02*
X210600000Y-55600000D01*
X213416000Y-97216000D02*
X127866000Y-97216000D01*
X213800000Y-97600000D02*
X213416000Y-97216000D01*
X113200000Y-82400000D02*
X113200000Y-57600000D01*
X113200000Y-57600000D02*
X114000000Y-56800000D01*
X210600000Y-55600000D02*
X212000000Y-54200000D01*
X127866000Y-97216000D02*
X113200000Y-82550000D01*
%TO.N,/burst_27_5V*%
X199200000Y-58400000D02*
X200600000Y-57000000D01*
X110400000Y-83000000D02*
X110400000Y-56600000D01*
X110400000Y-56600000D02*
X111000000Y-56000000D01*
X199200000Y-83800000D02*
X199200000Y-58400000D01*
X125420000Y-98820000D02*
X199420000Y-98820000D01*
X200600000Y-57000000D02*
X200600000Y-55800000D01*
X110400000Y-83800000D02*
X125420000Y-98820000D01*
X199420000Y-98820000D02*
X199800000Y-99200000D01*
X110400000Y-83000000D02*
X110400000Y-83800000D01*
%TO.N,/burst_30_5V*%
X202400000Y-98300000D02*
X201717000Y-97617000D01*
X201800000Y-58600000D02*
X202600000Y-57800000D01*
X201800000Y-83600000D02*
X201800000Y-58600000D01*
X201717000Y-97617000D02*
X127017000Y-97617000D01*
X202600000Y-57800000D02*
X202600000Y-55200000D01*
X112400000Y-57400000D02*
X113800000Y-56000000D01*
X202400000Y-98400000D02*
X202400000Y-98300000D01*
X112400000Y-83000000D02*
X112400000Y-57400000D01*
X127017000Y-97617000D02*
X112400000Y-83000000D01*
%TO.N,/burst_36_5V*%
X117800000Y-83200000D02*
X117800000Y-57600000D01*
X117800000Y-57600000D02*
X118400000Y-57000000D01*
X117913081Y-83200000D02*
X117913081Y-83206872D01*
X117800000Y-83200000D02*
X117913081Y-83200000D01*
X118248000Y-83794332D02*
X118805668Y-84352000D01*
X216611000Y-95211000D02*
X216800000Y-95400000D01*
X122204000Y-84954000D02*
X132461000Y-95211000D01*
X119668800Y-84954000D02*
X122204000Y-84954000D01*
X132461000Y-95211000D02*
X216611000Y-95211000D01*
X118235849Y-83529640D02*
X118248000Y-83529640D01*
X118805668Y-84352000D02*
X119066800Y-84352000D01*
X213600000Y-57400000D02*
X214400000Y-56600000D01*
X213600000Y-82400000D02*
X213600000Y-57400000D01*
X118248000Y-83529640D02*
X118248000Y-83794332D01*
X119066800Y-84352000D02*
X119668800Y-84954000D01*
X117913081Y-83206872D02*
X118235849Y-83529640D01*
%TO.N,/burst_37_5V*%
X118464081Y-82978640D02*
X118464081Y-58135919D01*
X119000000Y-57600000D02*
X119000000Y-57400000D01*
X123053000Y-84553000D02*
X120006668Y-84553000D01*
X118649000Y-83628232D02*
X118649000Y-83163559D01*
X119854668Y-84401000D02*
X119682900Y-84401000D01*
X119232900Y-83951000D02*
X118971768Y-83951000D01*
X118649000Y-83163559D02*
X118464081Y-82978640D01*
X133310000Y-94810000D02*
X123053000Y-84553000D01*
X214200000Y-81800000D02*
X214200000Y-57800000D01*
X119000000Y-57400000D02*
X119400000Y-57000000D01*
X120006668Y-84553000D02*
X119854668Y-84401000D01*
X118464081Y-58135919D02*
X119000000Y-57600000D01*
X217400000Y-94959000D02*
X217251000Y-94810000D01*
X118971768Y-83951000D02*
X118649000Y-83628232D01*
X214200000Y-57800000D02*
X215400000Y-56600000D01*
X119682900Y-84401000D02*
X119232900Y-83951000D01*
X217251000Y-94810000D02*
X133310000Y-94810000D01*
%TO.N,/burst_34_5V*%
X119038316Y-85457716D02*
X118690616Y-85457716D01*
X212400000Y-56600000D02*
X212800000Y-56200000D01*
X116200000Y-57400000D02*
X117400000Y-56200000D01*
X116449000Y-83228232D02*
X116449000Y-82800000D01*
X212400000Y-83400000D02*
X212400000Y-56600000D01*
X215600000Y-96200000D02*
X215413000Y-96013000D01*
X116783900Y-83551000D02*
X116771768Y-83551000D01*
X116200000Y-82800000D02*
X116200000Y-57400000D01*
X121871800Y-85756000D02*
X119336600Y-85756000D01*
X119336600Y-85756000D02*
X119038316Y-85457716D01*
X116771768Y-83551000D02*
X116449000Y-83228232D01*
X116449000Y-82800000D02*
X116200000Y-82800000D01*
X212351000Y-83449000D02*
X212400000Y-83400000D01*
X215413000Y-96013000D02*
X132128800Y-96013000D01*
X118690616Y-85457716D02*
X116783900Y-83551000D01*
X132128800Y-96013000D02*
X121871800Y-85756000D01*
%TO.N,/burst_35_5V*%
X117000000Y-57600000D02*
X117600000Y-57000000D01*
X216200000Y-95800000D02*
X216012000Y-95612000D01*
X122037900Y-85355000D02*
X119502700Y-85355000D01*
X216012000Y-95612000D02*
X132294900Y-95612000D01*
X132294900Y-95612000D02*
X122037900Y-85355000D01*
X117000000Y-83200000D02*
X117000000Y-83000000D01*
X117000000Y-83000000D02*
X117000000Y-57600000D01*
X118856716Y-85056716D02*
X117000000Y-83200000D01*
X119502700Y-85355000D02*
X119204416Y-85056716D01*
X213000000Y-57000000D02*
X213400000Y-56600000D01*
X119204416Y-85056716D02*
X118856716Y-85056716D01*
X213000000Y-83000000D02*
X213000000Y-57000000D01*
%TO.N,/burst_40_5V*%
X220400000Y-94200000D02*
X219807000Y-93607000D01*
X123000000Y-56600000D02*
X123000000Y-55600000D01*
X121200000Y-58400000D02*
X123000000Y-56600000D01*
X134107000Y-93607000D02*
X123700000Y-83200000D01*
X219807000Y-93607000D02*
X134107000Y-93607000D01*
X121200000Y-83200000D02*
X121200000Y-58400000D01*
X216400000Y-83000000D02*
X216400000Y-58200000D01*
X220400000Y-94800000D02*
X220400000Y-94200000D01*
X216400000Y-58200000D02*
X218400000Y-56200000D01*
X123700000Y-83200000D02*
X121200000Y-83200000D01*
%TO.N,/burst_33_5V*%
X116048000Y-83394332D02*
X115594332Y-83394332D01*
X214614000Y-96414000D02*
X131664000Y-96414000D01*
X215000000Y-96800000D02*
X214614000Y-96414000D01*
X131664000Y-96414000D02*
X121407000Y-86157000D01*
X116605668Y-83952000D02*
X116048000Y-83394332D01*
X114800000Y-57800000D02*
X116000000Y-56600000D01*
X116617800Y-83952000D02*
X116605668Y-83952000D01*
X115594332Y-83394332D02*
X114800000Y-82600000D01*
X211800000Y-84000000D02*
X211800000Y-56200000D01*
X114800000Y-82600000D02*
X114800000Y-57800000D01*
X121407000Y-86157000D02*
X119170500Y-86157000D01*
X118524516Y-85858716D02*
X116617800Y-83952000D01*
X118872216Y-85858716D02*
X118524516Y-85858716D01*
X119170500Y-86157000D02*
X118872216Y-85858716D01*
X211800000Y-56200000D02*
X212600000Y-55400000D01*
%TO.N,/burst_39_5V*%
X215400000Y-58200000D02*
X217400000Y-56200000D01*
X120820768Y-83600000D02*
X120400000Y-83600000D01*
X133940900Y-94008000D02*
X123683900Y-83751000D01*
X123683900Y-83751000D02*
X120971768Y-83751000D01*
X218808000Y-94008000D02*
X133940900Y-94008000D01*
X215400000Y-80600000D02*
X215400000Y-58200000D01*
X219600000Y-94800000D02*
X218808000Y-94008000D01*
X120400000Y-83600000D02*
X120400000Y-58000000D01*
X120971768Y-83751000D02*
X120820768Y-83600000D01*
X120400000Y-58000000D02*
X121600000Y-56800000D01*
%TO.N,/burst_38_5V*%
X120172768Y-84152000D02*
X120020768Y-84000000D01*
X120020768Y-84000000D02*
X119849000Y-84000000D01*
X119849000Y-84000000D02*
X119249000Y-83400000D01*
X119200000Y-58200000D02*
X120400000Y-57000000D01*
X218400000Y-94800000D02*
X218009000Y-94409000D01*
X119200000Y-83400000D02*
X119200000Y-58200000D01*
X123517800Y-84152000D02*
X120172768Y-84152000D01*
X119249000Y-83400000D02*
X119200000Y-83400000D01*
X133774800Y-94409000D02*
X123517800Y-84152000D01*
X214800000Y-58000000D02*
X216200000Y-56600000D01*
X214800000Y-81400000D02*
X214800000Y-58000000D01*
X218009000Y-94409000D02*
X133774800Y-94409000D01*
%TO.N,/burst_44_5V*%
X152403000Y-92003000D02*
X144400000Y-84000000D01*
X223310384Y-94910384D02*
X223310384Y-92710384D01*
X223310384Y-92710384D02*
X222603000Y-92003000D01*
X222603000Y-92003000D02*
X152403000Y-92003000D01*
X144400000Y-84000000D02*
X144400000Y-82600000D01*
X147800000Y-55000000D02*
X151200000Y-55000000D01*
X222800000Y-83800000D02*
X222800000Y-55800000D01*
X144400000Y-58400000D02*
X147800000Y-55000000D01*
X144400000Y-82600000D02*
X144400000Y-58400000D01*
%TO.N,/burst_43_5V*%
X143800000Y-83000000D02*
X143800000Y-58200000D01*
X143999000Y-83199000D02*
X143800000Y-83000000D01*
X222626200Y-94762411D02*
X222626200Y-93026200D01*
X147600000Y-54400000D02*
X150600000Y-54400000D01*
X222004000Y-92404000D02*
X152236900Y-92404000D01*
X143800000Y-58200000D02*
X147600000Y-54400000D01*
X152236900Y-92404000D02*
X143999000Y-84166100D01*
X222626200Y-93026200D02*
X222004000Y-92404000D01*
X143999000Y-84166100D02*
X143999000Y-83199000D01*
X222000000Y-84000000D02*
X222000000Y-56200000D01*
%TO.N,/burst_47_5V*%
X146200000Y-59400000D02*
X148600000Y-57000000D01*
X146200000Y-84000000D02*
X146200000Y-82400000D01*
X146200000Y-82400000D02*
X146200000Y-59400000D01*
X152000000Y-57000000D02*
X152400000Y-56600000D01*
X225800000Y-92000000D02*
X224600000Y-90800000D01*
X225800000Y-84200000D02*
X225800000Y-55600000D01*
X153000000Y-90800000D02*
X146200000Y-84000000D01*
X225800000Y-94800000D02*
X225800000Y-92000000D01*
X224600000Y-90800000D02*
X153000000Y-90800000D01*
X148600000Y-57000000D02*
X152000000Y-57000000D01*
%TO.N,/burst_45_5V*%
X145398000Y-84332200D02*
X145398000Y-84198000D01*
X224100000Y-94900000D02*
X224100000Y-92900000D01*
X224100000Y-92900000D02*
X223200000Y-92000000D01*
X145398000Y-84198000D02*
X145000000Y-83800000D01*
X145000000Y-58800000D02*
X145000000Y-83800000D01*
X152200000Y-55000000D02*
X151400000Y-55800000D01*
X223200000Y-92000000D02*
X223167100Y-92000000D01*
X223400000Y-83400000D02*
X223400000Y-55400000D01*
X148000000Y-55800000D02*
X145000000Y-58800000D01*
X151400000Y-55800000D02*
X148000000Y-55800000D01*
X152667800Y-91602000D02*
X145398000Y-84332200D01*
X222769100Y-91602000D02*
X152667800Y-91602000D01*
X223167100Y-92000000D02*
X222769100Y-91602000D01*
X223400000Y-55400000D02*
X223600000Y-55200000D01*
%TO.N,/burst_42_5V*%
X143200000Y-57800000D02*
X147200000Y-53800000D01*
X152070800Y-92805000D02*
X143200000Y-83934200D01*
X147200000Y-53800000D02*
X149800000Y-53800000D01*
X221000000Y-55200000D02*
X221200000Y-55000000D01*
X221000000Y-83600000D02*
X221000000Y-55200000D01*
X143200000Y-83934200D02*
X143200000Y-83400000D01*
X143200000Y-83400000D02*
X143200000Y-57800000D01*
X221927456Y-93127456D02*
X221605000Y-92805000D01*
X221605000Y-92805000D02*
X152070800Y-92805000D01*
X221927456Y-94804355D02*
X221927456Y-93127456D01*
%TO.N,/burst_48_5V*%
X147000000Y-81800000D02*
X147000000Y-59400000D01*
X226800000Y-54800000D02*
X226400000Y-54400000D01*
X226800000Y-83600000D02*
X226800000Y-54800000D01*
X148800000Y-57600000D02*
X152400000Y-57600000D01*
X147000000Y-59400000D02*
X148800000Y-57600000D01*
X152400000Y-57600000D02*
X153200000Y-56800000D01*
%TO.N,/burst_41_5V*%
X142600000Y-83901300D02*
X142600000Y-83800000D01*
X151904700Y-93206000D02*
X142600000Y-83901300D01*
X146800000Y-53200000D02*
X149200000Y-53200000D01*
X221200000Y-93600000D02*
X220806000Y-93206000D01*
X142600000Y-83800000D02*
X142600000Y-57400000D01*
X220400000Y-84000000D02*
X220400000Y-55600000D01*
X221200000Y-94800000D02*
X221200000Y-93600000D01*
X220806000Y-93206000D02*
X151904700Y-93206000D01*
X142600000Y-57400000D02*
X146800000Y-53200000D01*
%TO.N,/burst_46_5V*%
X145799000Y-84166100D02*
X145799000Y-83199000D01*
X225000000Y-94800000D02*
X225000000Y-93000000D01*
X148200000Y-56400000D02*
X151600000Y-56400000D01*
X145600000Y-83000000D02*
X145600000Y-59000000D01*
X151600000Y-56400000D02*
X152200000Y-55800000D01*
X152833900Y-91201000D02*
X145799000Y-84166100D01*
X225000000Y-93000000D02*
X223201000Y-91201000D01*
X224800000Y-83800000D02*
X224800000Y-55200000D01*
X223201000Y-91201000D02*
X152833900Y-91201000D01*
X145799000Y-83199000D02*
X145600000Y-83000000D01*
X145600000Y-59000000D02*
X148200000Y-56400000D01*
%TO.N,/RTS_5V*%
X99000000Y-130750000D02*
X99000000Y-125500000D01*
%TO.N,/INT*%
X164250000Y-142500000D02*
X156000000Y-142500000D01*
X127417000Y-138583000D02*
X126250000Y-139750000D01*
X121250000Y-137000000D02*
X120750000Y-137000000D01*
X168000000Y-146250000D02*
X164250000Y-142500000D01*
X156000000Y-142500000D02*
X152000000Y-138500000D01*
X123500000Y-138800000D02*
X123050000Y-138800000D01*
X144250000Y-138500000D02*
X144167000Y-138583000D01*
X152000000Y-138500000D02*
X144250000Y-138500000D01*
X144167000Y-138583000D02*
X127417000Y-138583000D01*
X123050000Y-138800000D02*
X121250000Y-137000000D01*
X172750000Y-144500000D02*
X171750000Y-144500000D01*
X171750000Y-144500000D02*
X169250000Y-147000000D01*
%TO.N,/CTS_5V*%
X99000000Y-124500000D02*
X98450000Y-124500000D01*
X99750000Y-125250000D02*
X99000000Y-124500000D01*
X99750000Y-131250000D02*
X99750000Y-125250000D01*
%TO.N,/CTS*%
X136422000Y-136578000D02*
X137750000Y-135250000D01*
X145000000Y-137250000D02*
X143250000Y-135500000D01*
X124422000Y-136578000D02*
X136422000Y-136578000D01*
X143250000Y-135500000D02*
X141500000Y-135500000D01*
X124125000Y-136875000D02*
X124422000Y-136578000D01*
X171750000Y-137250000D02*
X145000000Y-137250000D01*
X172000000Y-137500000D02*
X171750000Y-137250000D01*
%TO.N,/INT_5V*%
X104250000Y-121750000D02*
X104000000Y-121500000D01*
X104250000Y-131000000D02*
X104250000Y-121750000D01*
%TO.N,/RTS*%
X131250000Y-143250000D02*
X154750000Y-143250000D01*
X128900000Y-141000000D02*
X129000000Y-141000000D01*
X168250000Y-147000000D02*
X167000000Y-147000000D01*
X129000000Y-141000000D02*
X131250000Y-143250000D01*
X170750000Y-144500000D02*
X168250000Y-147000000D01*
X167000000Y-147000000D02*
X163250000Y-143250000D01*
X163250000Y-143250000D02*
X163750000Y-143250000D01*
X163750000Y-143250000D02*
X156750000Y-143250000D01*
%TO.N,/SRAM_CS_*%
X122500000Y-134500000D02*
X118750000Y-130750000D01*
X117760000Y-130510000D02*
X115980000Y-130510000D01*
X118000000Y-130750000D02*
X117760000Y-130510000D01*
X118750000Y-130750000D02*
X118000000Y-130750000D01*
X122500000Y-137411091D02*
X122500000Y-134500000D01*
X123138909Y-138050000D02*
X122500000Y-137411091D01*
D34*
%TO.N,Net-(FTX1-K)*%
X150750000Y-147750000D02*
X151250000Y-148250000D01*
X144750000Y-144500000D02*
X146750000Y-144500000D01*
X151250000Y-148250000D02*
X151250000Y-153250000D01*
X150000000Y-147750000D02*
X150750000Y-147750000D01*
X146750000Y-144500000D02*
X150000000Y-147750000D01*
D33*
%TO.N,Net-(U3-~{RESET})*%
X187020075Y-156229925D02*
X181770075Y-156229925D01*
X141500039Y-156199115D02*
X141199115Y-156199115D01*
X148704882Y-156204627D02*
X141500039Y-156199115D01*
X181750015Y-156229910D02*
X181724732Y-156204627D01*
X141199115Y-156199115D02*
X140000000Y-155000000D01*
X181770075Y-156229925D02*
X181750015Y-156229910D01*
X140000000Y-155000000D02*
X140000000Y-148500000D01*
X187750000Y-155500000D02*
X187020075Y-156229925D01*
X181724732Y-156204627D02*
X148704882Y-156204627D01*
X187750000Y-152750000D02*
X187750000Y-155500000D01*
%TD*%
%TA.AperFunction,NonConductor*%
G36*
X198743039Y-111419685D02*
G01*
X198788794Y-111472489D01*
X198800000Y-111524000D01*
X198800000Y-112676000D01*
X198780315Y-112743039D01*
X198727511Y-112788794D01*
X198676000Y-112800000D01*
X195924000Y-112800000D01*
X195856961Y-112780315D01*
X195811206Y-112727511D01*
X195800000Y-112676000D01*
X195800000Y-111524000D01*
X195819685Y-111456961D01*
X195872489Y-111411206D01*
X195924000Y-111400000D01*
X198676000Y-111400000D01*
X198743039Y-111419685D01*
G37*
%TD.AperFunction*%
%TA.AperFunction,NonConductor*%
G36*
X180843039Y-111119685D02*
G01*
X180888794Y-111172489D01*
X180900000Y-111224000D01*
X180900000Y-112376000D01*
X180880315Y-112443039D01*
X180827511Y-112488794D01*
X180776000Y-112500000D01*
X178024000Y-112500000D01*
X177956961Y-112480315D01*
X177911206Y-112427511D01*
X177900000Y-112376000D01*
X177900000Y-111224000D01*
X177919685Y-111156961D01*
X177972489Y-111111206D01*
X178024000Y-111100000D01*
X180776000Y-111100000D01*
X180843039Y-111119685D01*
G37*
%TD.AperFunction*%
%TA.AperFunction,NonConductor*%
G36*
X145043039Y-111119685D02*
G01*
X145088794Y-111172489D01*
X145100000Y-111224000D01*
X145100000Y-112376000D01*
X145080315Y-112443039D01*
X145027511Y-112488794D01*
X144976000Y-112500000D01*
X142224000Y-112500000D01*
X142156961Y-112480315D01*
X142111206Y-112427511D01*
X142100000Y-112376000D01*
X142100000Y-111224000D01*
X142119685Y-111156961D01*
X142172489Y-111111206D01*
X142224000Y-111100000D01*
X144976000Y-111100000D01*
X145043039Y-111119685D01*
G37*
%TD.AperFunction*%
%TA.AperFunction,NonConductor*%
G36*
X161943039Y-111319685D02*
G01*
X161988794Y-111372489D01*
X162000000Y-111424000D01*
X162000000Y-112576000D01*
X161980315Y-112643039D01*
X161927511Y-112688794D01*
X161876000Y-112700000D01*
X159124000Y-112700000D01*
X159056961Y-112680315D01*
X159011206Y-112627511D01*
X159000000Y-112576000D01*
X159000000Y-111424000D01*
X159019685Y-111356961D01*
X159072489Y-111311206D01*
X159124000Y-111300000D01*
X161876000Y-111300000D01*
X161943039Y-111319685D01*
G37*
%TD.AperFunction*%
M02*
