%TF.GenerationSoftware,KiCad,Pcbnew,9.0.6*%
%TF.CreationDate,2025-11-19T13:11:46-05:00*%
%TF.ProjectId,kicad,6b696361-642e-46b6-9963-61645f706362,rev?*%
%TF.SameCoordinates,Original*%
%TF.FileFunction,Soldermask,Bot*%
%TF.FilePolarity,Negative*%
%FSLAX46Y46*%
G04 Gerber Fmt 4.6, Leading zero omitted, Abs format (unit mm)*
G04 Created by KiCad (PCBNEW 9.0.6) date 2025-11-19 13:11:46*
%MOMM*%
%LPD*%
G01*
G04 APERTURE LIST*
G04 Aperture macros list*
%AMRoundRect*
0 Rectangle with rounded corners*
0 $1 Rounding radius*
0 $2 $3 $4 $5 $6 $7 $8 $9 X,Y pos of 4 corners*
0 Add a 4 corners polygon primitive as box body*
4,1,4,$2,$3,$4,$5,$6,$7,$8,$9,$2,$3,0*
0 Add four circle primitives for the rounded corners*
1,1,$1+$1,$2,$3*
1,1,$1+$1,$4,$5*
1,1,$1+$1,$6,$7*
1,1,$1+$1,$8,$9*
0 Add four rect primitives between the rounded corners*
20,1,$1+$1,$2,$3,$4,$5,0*
20,1,$1+$1,$4,$5,$6,$7,0*
20,1,$1+$1,$6,$7,$8,$9,0*
20,1,$1+$1,$8,$9,$2,$3,0*%
G04 Aperture macros list end*
%ADD10RoundRect,0.250000X0.600000X0.725000X-0.600000X0.725000X-0.600000X-0.725000X0.600000X-0.725000X0*%
%ADD11O,1.700000X1.950000*%
%ADD12RoundRect,0.250000X0.725000X-0.600000X0.725000X0.600000X-0.725000X0.600000X-0.725000X-0.600000X0*%
%ADD13O,1.950000X1.700000*%
%ADD14RoundRect,0.250000X-0.725000X0.600000X-0.725000X-0.600000X0.725000X-0.600000X0.725000X0.600000X0*%
%ADD15R,2.250000X2.250000*%
%ADD16C,2.250000*%
%ADD17RoundRect,0.250000X0.600000X0.600000X-0.600000X0.600000X-0.600000X-0.600000X0.600000X-0.600000X0*%
%ADD18C,1.700000*%
%ADD19R,3.500000X3.500000*%
%ADD20RoundRect,0.750000X1.000000X-0.750000X1.000000X0.750000X-1.000000X0.750000X-1.000000X-0.750000X0*%
%ADD21RoundRect,0.875000X0.875000X-0.875000X0.875000X0.875000X-0.875000X0.875000X-0.875000X-0.875000X0*%
%ADD22RoundRect,0.250000X-0.750000X0.600000X-0.750000X-0.600000X0.750000X-0.600000X0.750000X0.600000X0*%
%ADD23O,2.000000X1.700000*%
%ADD24RoundRect,0.250000X-0.550000X-0.550000X0.550000X-0.550000X0.550000X0.550000X-0.550000X0.550000X0*%
%ADD25C,1.600000*%
%ADD26R,1.700000X1.700000*%
%ADD27RoundRect,0.250000X0.600000X-0.600000X0.600000X0.600000X-0.600000X0.600000X-0.600000X-0.600000X0*%
%ADD28R,1.600000X1.600000*%
%ADD29C,4.000000*%
%ADD30C,0.500000*%
%ADD31C,0.600000*%
%ADD32C,1.000000*%
G04 APERTURE END LIST*
D10*
%TO.C,ATUART1*%
X84900000Y-154370000D03*
D11*
X82400000Y-154370000D03*
X79900000Y-154370000D03*
%TD*%
D12*
%TO.C,LCD1*%
X79590000Y-103470000D03*
D13*
X79590000Y-100970000D03*
X79590000Y-98470000D03*
X79590000Y-95970000D03*
%TD*%
D14*
%TO.C,SPEAKER1*%
X236750000Y-111000000D03*
D13*
X236750000Y-113500000D03*
X236750000Y-116000000D03*
%TD*%
D15*
%TO.C,STRESET1*%
X213000000Y-152750000D03*
D16*
X219500000Y-152750000D03*
%TD*%
D15*
%TO.C,FRESET1*%
X187750000Y-152750000D03*
D16*
X194250000Y-152750000D03*
%TD*%
D17*
%TO.C,USBASP1*%
X84040000Y-124660000D03*
D18*
X81500000Y-124660000D03*
X84040000Y-122120000D03*
X81500000Y-122120000D03*
X84040000Y-119580000D03*
X81500000Y-119580000D03*
X84040000Y-117040000D03*
X81500000Y-117040000D03*
X84040000Y-114500000D03*
X81500000Y-114500000D03*
%TD*%
D14*
%TO.C,J2*%
X236500000Y-84250000D03*
D13*
X236500000Y-86750000D03*
X236500000Y-89250000D03*
X236500000Y-91750000D03*
%TD*%
D15*
%TO.C,BOOT0*%
X175500000Y-152750000D03*
D16*
X182000000Y-152750000D03*
%TD*%
D19*
%TO.C,J15*%
X107792500Y-148000000D03*
D20*
X107792500Y-154000000D03*
D21*
X112492500Y-151000000D03*
%TD*%
D22*
%TO.C,V_2*%
X237000000Y-141750000D03*
D23*
X237000000Y-144250000D03*
%TD*%
D24*
%TO.C,23A1024/23LC1*%
X80130000Y-139170000D03*
D25*
X80130000Y-141710000D03*
X80130000Y-144250000D03*
X80130000Y-146790000D03*
X87750000Y-146790000D03*
X87750000Y-144250000D03*
X87750000Y-141710000D03*
X87750000Y-139170000D03*
%TD*%
D22*
%TO.C,V_4*%
X236750000Y-132500000D03*
D23*
X236750000Y-135000000D03*
%TD*%
D10*
%TO.C,STUART1*%
X162000000Y-150000000D03*
D11*
X159500000Y-150000000D03*
X157000000Y-150000000D03*
%TD*%
D26*
%TO.C,J5*%
X113440000Y-130510000D03*
D18*
X115980000Y-130510000D03*
%TD*%
D22*
%TO.C,V_3*%
X236750000Y-123000000D03*
D23*
X236750000Y-125500000D03*
%TD*%
D12*
%TO.C,J3*%
X236000000Y-103750000D03*
D13*
X236000000Y-101250000D03*
X236000000Y-98750000D03*
%TD*%
D25*
%TO.C,220UF1*%
X96250000Y-136000000D03*
X98750000Y-136000000D03*
%TD*%
D15*
%TO.C,ATRESET1*%
X200500000Y-152750000D03*
D16*
X207000000Y-152750000D03*
%TD*%
D18*
%TO.C,Y2*%
X91087500Y-113250000D03*
X96087500Y-113250000D03*
%TD*%
D27*
%TO.C,JTAG1*%
X197590000Y-138540000D03*
D18*
X197590000Y-136000000D03*
X200130000Y-138540000D03*
X200130000Y-136000000D03*
X202670000Y-138540000D03*
X202670000Y-136000000D03*
X205210000Y-138540000D03*
X205210000Y-136000000D03*
X207750000Y-138540000D03*
X207750000Y-136000000D03*
X210290000Y-138540000D03*
X210290000Y-136000000D03*
X212830000Y-138540000D03*
X212830000Y-136000000D03*
X215370000Y-138540000D03*
X215370000Y-136000000D03*
X217910000Y-138540000D03*
X217910000Y-136000000D03*
X220450000Y-138540000D03*
X220450000Y-136000000D03*
%TD*%
D25*
%TO.C,220UF2*%
X100500000Y-140000000D03*
X103000000Y-140000000D03*
%TD*%
D28*
%TO.C,J6*%
X127250000Y-146962500D03*
D25*
X124750000Y-146962500D03*
X124750000Y-148962500D03*
X127250000Y-148962500D03*
D29*
X132000000Y-151822500D03*
X120000000Y-151822500D03*
%TD*%
D24*
%TO.C,C4321*%
X106500000Y-130750000D03*
D25*
X109000000Y-130750000D03*
%TD*%
D22*
%TO.C,V_1*%
X237000000Y-151000000D03*
D23*
X237000000Y-153500000D03*
%TD*%
D30*
X89100000Y-153950000D03*
X92940000Y-155740000D03*
X103040000Y-121420000D03*
X103327817Y-122799999D03*
X99720000Y-123250000D03*
X99720000Y-124090000D03*
X162920000Y-139590000D03*
X198420000Y-90250000D03*
X157600000Y-24600000D03*
X205200000Y-81800000D03*
X205200000Y-100600000D03*
X174000000Y-136800000D03*
X150400000Y-81400000D03*
X204000000Y-87800000D03*
X204200000Y-101200000D03*
X172200000Y-135600000D03*
X233400000Y-38200000D03*
X208200000Y-81600000D03*
X205400000Y-98800000D03*
X164400000Y-120400000D03*
X216000000Y-105000000D03*
X218800000Y-113800000D03*
X222600000Y-120200000D03*
X216800000Y-129200000D03*
X209600000Y-52200000D03*
X209600000Y-81000000D03*
X217000000Y-107200000D03*
X218229120Y-114493062D03*
X222000000Y-120800000D03*
X216600000Y-128400000D03*
X212600000Y-44400000D03*
X208800000Y-81000000D03*
X216800000Y-108000000D03*
X217600000Y-114800000D03*
X221200000Y-121200000D03*
X216200000Y-127600000D03*
X163800000Y-68200000D03*
X176200000Y-81400000D03*
X216000000Y-109000000D03*
X217000000Y-115400000D03*
X220400000Y-121600000D03*
X215200000Y-127600000D03*
D31*
X235000000Y-58000000D03*
X216400000Y-116000000D03*
X219400000Y-122400000D03*
X214200000Y-127600000D03*
X180200000Y-139000000D03*
D30*
X160500000Y-49000000D03*
X120250000Y-108000000D03*
X156000000Y-90153000D03*
X119850000Y-82150000D03*
X91750000Y-98750000D03*
X153000000Y-111000000D03*
X158013909Y-85236091D03*
X194000000Y-82750000D03*
X186750000Y-111000000D03*
X198250000Y-48750000D03*
X150500000Y-110750000D03*
X186750000Y-137250000D03*
X160000000Y-45500000D03*
X110750000Y-113000000D03*
X87000000Y-103250000D03*
X154750000Y-49000000D03*
X114500000Y-45250000D03*
X90750000Y-45500000D03*
X189750000Y-111000000D03*
X190250000Y-115000000D03*
X138750000Y-153000000D03*
X201000000Y-113000000D03*
X90500000Y-131250000D03*
X233000000Y-29500000D03*
X146000000Y-139750000D03*
X137500000Y-108500000D03*
X98587500Y-116150000D03*
X183250000Y-112750000D03*
X193750000Y-90250000D03*
X112750000Y-108750000D03*
D31*
X97219669Y-142530331D03*
D30*
X155000000Y-61750000D03*
X85450000Y-82472401D03*
X203750000Y-110750000D03*
X149000000Y-151500000D03*
D31*
X142500000Y-155000000D03*
D30*
X91750000Y-49000000D03*
X91087500Y-108600000D03*
X119250000Y-45250000D03*
X166750000Y-152750000D03*
X232500000Y-71750000D03*
X137000000Y-115000000D03*
X130500000Y-112750000D03*
X224250000Y-83000000D03*
X155000000Y-45750000D03*
X219000000Y-45500000D03*
X172000000Y-114000000D03*
X198750000Y-45750000D03*
X167500000Y-110750000D03*
X146250000Y-29250000D03*
X146250000Y-147750000D03*
X123000000Y-143500000D03*
X218250000Y-49000000D03*
X193500000Y-45750000D03*
X236750000Y-56000000D03*
X147750000Y-113000000D03*
X161750000Y-121250000D03*
X224300000Y-90250000D03*
D31*
X93500000Y-141250000D03*
D30*
X94500000Y-138000000D03*
X86250000Y-134750000D03*
X114750000Y-133500000D03*
X115500000Y-82250000D03*
X119000000Y-49250000D03*
X86250000Y-49000000D03*
X153750000Y-115000000D03*
X91500000Y-82750000D03*
X183500000Y-130500000D03*
X98250000Y-131000000D03*
X156000000Y-82250000D03*
X116262017Y-95349999D03*
D31*
X156250000Y-139250000D03*
D30*
X125000000Y-128000000D03*
X186000000Y-155250000D03*
X198500000Y-82750000D03*
X171500000Y-110750000D03*
X157750000Y-21750000D03*
X101750000Y-142750000D03*
X176500000Y-146250000D03*
X114500000Y-48500000D03*
X223500000Y-45500000D03*
X223500000Y-49500000D03*
X86250000Y-45500000D03*
X99750000Y-116000000D03*
X219306659Y-86693341D03*
X193500000Y-48500000D03*
X119500000Y-114750000D03*
X119800000Y-86750000D03*
X131250000Y-107750000D03*
X219500000Y-83000000D03*
X181500000Y-138500000D03*
X150000000Y-72500000D03*
X181380000Y-136000000D03*
X235000000Y-40500000D03*
X126750000Y-143250000D03*
X175500000Y-120250000D03*
X100000000Y-108250000D03*
X164500000Y-113000000D03*
X94837500Y-108850000D03*
X160550000Y-82250000D03*
X89750000Y-125750000D03*
X84250000Y-128250000D03*
X85000000Y-130750000D03*
X88750000Y-127500000D03*
X90500000Y-129500000D03*
X90750000Y-123250000D03*
X87750000Y-131750000D03*
X85750000Y-130500000D03*
X229750000Y-86500000D03*
X172750000Y-122750000D03*
X172250000Y-113000000D03*
X140500000Y-114750000D03*
X190000000Y-114250000D03*
D31*
X157500000Y-141000000D03*
D30*
X229250000Y-88750000D03*
X158000000Y-114750000D03*
X161000000Y-123750000D03*
D32*
X100500000Y-150500000D03*
D30*
X121144473Y-141050000D03*
X80500000Y-46000000D03*
X220750000Y-146000000D03*
D31*
X150250000Y-80000000D03*
D30*
X148250000Y-45500000D03*
X121000000Y-111750000D03*
D32*
X96250000Y-150500000D03*
D31*
X231000000Y-105750000D03*
D30*
X177250000Y-144250000D03*
X119500000Y-113000000D03*
D32*
X94250000Y-149750000D03*
D31*
X106000000Y-79750000D03*
D30*
X181000000Y-135250000D03*
X99750000Y-113000000D03*
X230000000Y-92750000D03*
X229750000Y-84500000D03*
D32*
X94250000Y-151750000D03*
D30*
X186750000Y-130250000D03*
X181500000Y-132750000D03*
X171250000Y-138000000D03*
X126500000Y-140750000D03*
X155000000Y-139000000D03*
X100000000Y-142000000D03*
X131125000Y-139375000D03*
X97950000Y-145750000D03*
X119750000Y-111000000D03*
D32*
X153090000Y-147750000D03*
D30*
X97000000Y-50250000D03*
X103000000Y-109500000D03*
X107250000Y-123000000D03*
X153000000Y-112500000D03*
X139750000Y-140750000D03*
X96500000Y-115750000D03*
D31*
X197000000Y-49250000D03*
D30*
X155500000Y-153000000D03*
X117500000Y-49000000D03*
X223500000Y-87000000D03*
X171500000Y-112250000D03*
X159500000Y-90153000D03*
X148500000Y-144500000D03*
X90763909Y-99986091D03*
X197300000Y-90250000D03*
X133000000Y-128000000D03*
D32*
X226750000Y-119750000D03*
D30*
X158500000Y-49250000D03*
X145000000Y-147500000D03*
X95750000Y-129000000D03*
X136500000Y-111500000D03*
X90250000Y-119500000D03*
X189750000Y-113000000D03*
X221750000Y-49000000D03*
X113750000Y-141500000D03*
X118513909Y-86486091D03*
X163000000Y-130030000D03*
X121500000Y-139148000D03*
X122630000Y-140940000D03*
X163000000Y-129260000D03*
X123359570Y-140139712D03*
X163000000Y-128390000D03*
X163406868Y-127820385D03*
X123240000Y-139450000D03*
X179500000Y-133450000D03*
X167013909Y-148236091D03*
X163250000Y-144500000D03*
X193000000Y-148250000D03*
X168750000Y-149550000D03*
X199000000Y-149250000D03*
X202250000Y-146000000D03*
X161500000Y-144000000D03*
X167500000Y-149000000D03*
X162500000Y-144250000D03*
X197500000Y-148750000D03*
X230000000Y-147000000D03*
X179750000Y-125750000D03*
X227750000Y-144750000D03*
X149250000Y-123500000D03*
X131750000Y-123500000D03*
X111500000Y-125000000D03*
X119500000Y-123500000D03*
X138250000Y-123500000D03*
X150250000Y-124250000D03*
X111500000Y-126000000D03*
X132500000Y-124250000D03*
X119500000Y-124250000D03*
X180500000Y-126750000D03*
X139000000Y-124250000D03*
X163500000Y-120250000D03*
X136500000Y-121750000D03*
X230500000Y-138000000D03*
X117500000Y-122000000D03*
X129750000Y-121750000D03*
X190250000Y-122000000D03*
X111500000Y-123500000D03*
X227250000Y-131750000D03*
X147500000Y-121750000D03*
X152750000Y-120500000D03*
X148500000Y-122750000D03*
X118500000Y-122750000D03*
X137500000Y-122750000D03*
X130750000Y-122750000D03*
X230000000Y-128000000D03*
X178750000Y-125000000D03*
X111500000Y-124250000D03*
X219000000Y-125000000D03*
X173250000Y-132750000D03*
X174000000Y-132500000D03*
X174750000Y-132000000D03*
X180750000Y-132000000D03*
X172500000Y-133250000D03*
X227250000Y-102000000D03*
X211260000Y-127540000D03*
X212940000Y-127530000D03*
X86500000Y-129500000D03*
X139500000Y-156000000D03*
X105500000Y-124400000D03*
X172000000Y-145250000D03*
X138250000Y-134500000D03*
X172000000Y-136500000D03*
X123250000Y-135750000D03*
X142750000Y-134750000D03*
X168800000Y-130400000D03*
X193600000Y-118600000D03*
X194400000Y-118800000D03*
X169400000Y-130940000D03*
X191600000Y-116800000D03*
X166195000Y-130805000D03*
X170200000Y-130620000D03*
X195200000Y-119000000D03*
X192800000Y-118000000D03*
X167800000Y-131000000D03*
X170800000Y-131200000D03*
X196000000Y-119200000D03*
X191200000Y-116200000D03*
X165580000Y-130420000D03*
D31*
X169750000Y-140000000D03*
X159500000Y-144500000D03*
X165450735Y-149049265D03*
X168500000Y-143750000D03*
D30*
X192200000Y-117400000D03*
X167080000Y-130740000D03*
D31*
X166000000Y-150000000D03*
X168500000Y-144750000D03*
X170500000Y-139250000D03*
X147750000Y-140750000D03*
D30*
X153000000Y-119000000D03*
X162500000Y-118500000D03*
X231000000Y-112500000D03*
X135250000Y-119750000D03*
X128250000Y-119750000D03*
X145500000Y-119750000D03*
X201000000Y-120500000D03*
X117250000Y-119750000D03*
X107500000Y-119750000D03*
X229750000Y-110250000D03*
X147000000Y-121000000D03*
X95000000Y-122250000D03*
X117500000Y-121000000D03*
X163000000Y-119500000D03*
X152250000Y-119750000D03*
X129250000Y-121000000D03*
X189500000Y-121250000D03*
X136000000Y-121000000D03*
X82000000Y-55000000D03*
X81000000Y-83600000D03*
X105800000Y-92800000D03*
X158200000Y-56000000D03*
X171600000Y-86800000D03*
X157200000Y-82800000D03*
X154400000Y-57600000D03*
X80400000Y-54600000D03*
X173200000Y-87000000D03*
X148400000Y-81600000D03*
X80000000Y-85400000D03*
X107400000Y-94000000D03*
X160000000Y-56000000D03*
X158600000Y-82800000D03*
X83400000Y-55400000D03*
X82200000Y-80800000D03*
X169600000Y-86800000D03*
X103200000Y-91600000D03*
X170800000Y-86600000D03*
X81600000Y-82800000D03*
X104600000Y-92200000D03*
X82664081Y-55221360D03*
X159200000Y-56000000D03*
X158000000Y-83400000D03*
X84200000Y-55400000D03*
X161000000Y-55800000D03*
X168800000Y-86600000D03*
X159400000Y-83400000D03*
X102000000Y-91000000D03*
X82800000Y-79400000D03*
X102800000Y-90400000D03*
X85200000Y-55200000D03*
X160000000Y-82800000D03*
X161200000Y-56600000D03*
X83600000Y-83400000D03*
X167800000Y-86400000D03*
X154200000Y-59000000D03*
X80800000Y-85000000D03*
X81200000Y-54800000D03*
X106800000Y-93400000D03*
X149000000Y-80800000D03*
X172400000Y-86800000D03*
X147800000Y-80800000D03*
X154400000Y-56600000D03*
X81600000Y-52600000D03*
X108000000Y-94800000D03*
X173200000Y-88200000D03*
X79400000Y-84800000D03*
D31*
X189050000Y-81200000D03*
X204000000Y-81250000D03*
X151250000Y-80000000D03*
X168000000Y-80000000D03*
X78500000Y-79000000D03*
X106000000Y-82250000D03*
X128250000Y-79750000D03*
X105750000Y-77750000D03*
D30*
X86600000Y-82800000D03*
X185800000Y-84800000D03*
X186200000Y-55000000D03*
X185400000Y-105000000D03*
X87400000Y-56600000D03*
X90464081Y-56821360D03*
X188800000Y-103400000D03*
X188400000Y-84200000D03*
X89000000Y-83000000D03*
X188800000Y-56600000D03*
X184600000Y-105400000D03*
X186400000Y-53800000D03*
X86600000Y-56600000D03*
X185200000Y-85600000D03*
X86000000Y-83200000D03*
X89800000Y-56600000D03*
X187800000Y-104000000D03*
X187600000Y-83200000D03*
X88400000Y-83400000D03*
X188400000Y-56000000D03*
X187400000Y-56000000D03*
X87800000Y-82800000D03*
X187000000Y-83600000D03*
X89000000Y-56600000D03*
X186800000Y-104200000D03*
X186000000Y-104600000D03*
X186400000Y-84200000D03*
X187000000Y-55200000D03*
X87200000Y-83200000D03*
X88200000Y-56600000D03*
X85800000Y-56400000D03*
X166200000Y-85400000D03*
X101800000Y-89000000D03*
X162000000Y-83400000D03*
X163000000Y-57200000D03*
X85301356Y-83156438D03*
X162200000Y-56600000D03*
X167000000Y-86200000D03*
X101600000Y-89800000D03*
X84400000Y-83032900D03*
X161200000Y-83200000D03*
X86200000Y-55200000D03*
X196200000Y-56400000D03*
X195800000Y-100600000D03*
X108000000Y-83600000D03*
X195400000Y-83400000D03*
X108800000Y-54400000D03*
X191600000Y-56000000D03*
X90200000Y-83000000D03*
X191400000Y-82800000D03*
X190600000Y-102800000D03*
X92400000Y-56600000D03*
X194600000Y-83400000D03*
X195000000Y-56400000D03*
X194600000Y-101200000D03*
X107400000Y-84200000D03*
X108864081Y-53621360D03*
X193200000Y-56000000D03*
X192600000Y-83000000D03*
X92200000Y-84000000D03*
X192600000Y-102000000D03*
X94200000Y-56800000D03*
X190800000Y-56400000D03*
X189600000Y-103000000D03*
X91600000Y-56600000D03*
X190800000Y-83400000D03*
X89600000Y-82600000D03*
X108800000Y-55200000D03*
X196800000Y-100200000D03*
X108600000Y-83200000D03*
X197400000Y-56400000D03*
X196000000Y-83000000D03*
X191600000Y-102400000D03*
X192400000Y-56000000D03*
X192000000Y-83400000D03*
X90800000Y-83400000D03*
X93200000Y-56600000D03*
X106800000Y-84800000D03*
X193600000Y-101600000D03*
X193246157Y-82730768D03*
X108200000Y-53400000D03*
X194200000Y-56000000D03*
X111600000Y-83000000D03*
X201800000Y-55800000D03*
X201200000Y-98400000D03*
X201000000Y-83800000D03*
X112800000Y-56000000D03*
X197800000Y-100000000D03*
X109800000Y-55200000D03*
X198600000Y-56400000D03*
X196800000Y-83200000D03*
X109200000Y-82800000D03*
X197600000Y-83200000D03*
X199800000Y-56400000D03*
X198800000Y-99600000D03*
X109800000Y-82400000D03*
X110600000Y-55400000D03*
X110950000Y-83570000D03*
X200535919Y-98621360D03*
X112000000Y-56000000D03*
X201200000Y-56400000D03*
X200000000Y-84200000D03*
X211200000Y-84400000D03*
X114000000Y-82400000D03*
X214400000Y-97200000D03*
X212000000Y-55000000D03*
X115000000Y-56600000D03*
X213800000Y-97600000D03*
X210600000Y-84800000D03*
X114000000Y-56800000D03*
X212000000Y-54200000D03*
X113200000Y-82400000D03*
X111000000Y-56000000D03*
X110400000Y-83000000D03*
X199800000Y-99200000D03*
X200600000Y-55800000D03*
X199200000Y-83800000D03*
X202400000Y-98400000D03*
X112400000Y-83000000D03*
X113800000Y-56000000D03*
X201800000Y-83600000D03*
X202600000Y-55200000D03*
X214400000Y-56600000D03*
X213600000Y-82400000D03*
X216800000Y-95400000D03*
X117800000Y-83200000D03*
X118400000Y-57000000D03*
X215400000Y-56600000D03*
X119400000Y-57000000D03*
X217400000Y-94959000D03*
X214200000Y-81800000D03*
X118464081Y-82978640D03*
X212351000Y-83449000D03*
X116200000Y-82800000D03*
X215600000Y-96200000D03*
X117400000Y-56200000D03*
X212800000Y-56200000D03*
X213000000Y-83000000D03*
X117000000Y-83000000D03*
X213400000Y-56600000D03*
X216200000Y-95800000D03*
X117600000Y-57000000D03*
X216400000Y-83000000D03*
X218400000Y-56200000D03*
X123000000Y-55600000D03*
X220400000Y-94800000D03*
X121200000Y-83200000D03*
X215000000Y-96800000D03*
X114800000Y-82600000D03*
X116000000Y-56600000D03*
X212600000Y-55400000D03*
X211800000Y-84000000D03*
X215400000Y-80600000D03*
X121600000Y-56800000D03*
X217400000Y-56200000D03*
X120400000Y-83600000D03*
X219600000Y-94800000D03*
X214800000Y-81400000D03*
X218400000Y-94800000D03*
X119200000Y-83400000D03*
X120400000Y-57000000D03*
X216200000Y-56600000D03*
X223310384Y-94910384D03*
X144400000Y-82600000D03*
X151200000Y-55000000D03*
X222800000Y-55800000D03*
X222800000Y-83800000D03*
X222000000Y-56200000D03*
X222000000Y-84000000D03*
X150600000Y-54400000D03*
X143800000Y-83000000D03*
X222626200Y-94762411D03*
X225800000Y-84200000D03*
X152400000Y-56600000D03*
X146200000Y-82400000D03*
X225800000Y-55600000D03*
X225800000Y-94800000D03*
X224100000Y-94900000D03*
X223400000Y-83400000D03*
X145000000Y-83800000D03*
X223600000Y-55200000D03*
X152200000Y-55000000D03*
X221927456Y-94804355D03*
X221200000Y-55000000D03*
X149800000Y-53800000D03*
X143200000Y-83400000D03*
X221000000Y-83600000D03*
X147000000Y-81800000D03*
X153200000Y-56800000D03*
X226400000Y-54400000D03*
X226800000Y-83600000D03*
X221200000Y-94800000D03*
X149200000Y-53200000D03*
X220400000Y-84000000D03*
X220400000Y-55600000D03*
X142600000Y-83800000D03*
X225000000Y-94800000D03*
X152200000Y-55800000D03*
X224800000Y-83800000D03*
X224800000Y-55200000D03*
X145600000Y-83000000D03*
X99000000Y-125500000D03*
X99000000Y-130750000D03*
X123500000Y-138800000D03*
X120750000Y-137000000D03*
X169250000Y-147000000D03*
X168000000Y-146250000D03*
X126250000Y-139750000D03*
X172750000Y-144500000D03*
X99750000Y-131250000D03*
X98450000Y-124500000D03*
X124125000Y-136875000D03*
X137750000Y-135250000D03*
X172000000Y-137500000D03*
X141500000Y-135500000D03*
X104250000Y-131000000D03*
X104000000Y-121500000D03*
X154750000Y-143250000D03*
X170750000Y-144500000D03*
X156750000Y-143250000D03*
X128900000Y-141000000D03*
X123138909Y-138050000D03*
X151250000Y-153250000D03*
X144750000Y-144500000D03*
X140000000Y-148500000D03*
M02*
