M48
; DRILL file {KiCad 9.0.6} date 2025-11-19T13:11:48-0500
; FORMAT={-:-/ absolute / metric / decimal}
; #@! TF.CreationDate,2025-11-19T13:11:48-05:00
; #@! TF.GenerationSoftware,Kicad,Pcbnew,9.0.6
; #@! TF.FileFunction,Plated,1,4,PTH
FMAT,2
METRIC
; #@! TA.AperFunction,Plated,PTH,ViaDrill
T1C0.200
; #@! TA.AperFunction,Plated,PTH,ViaDrill
T2C0.300
; #@! TA.AperFunction,Plated,PTH,ViaDrill
T3C0.400
; #@! TA.AperFunction,Plated,PTH,ComponentDrill
T4C0.800
; #@! TA.AperFunction,Plated,PTH,ComponentDrill
T5C0.950
; #@! TA.AperFunction,Plated,PTH,ComponentDrill
T6C1.000
; #@! TA.AperFunction,Plated,PTH,ComponentDrill
T7C1.300
; #@! TA.AperFunction,Plated,PTH,ComponentDrill
T8C2.300
%
G90
G05
T1
X79.4Y-84.8
X80.0Y-85.4
X80.4Y-54.6
X80.5Y-46.0
X80.8Y-85.0
X81.0Y-83.6
X81.2Y-54.8
X81.6Y-52.6
X81.6Y-82.8
X82.0Y-55.0
X82.2Y-80.8
X82.664Y-55.221
X82.8Y-79.4
X83.4Y-55.4
X83.6Y-83.4
X84.2Y-55.4
X84.25Y-128.25
X84.4Y-83.033
X85.0Y-130.75
X85.2Y-55.2
X85.301Y-83.156
X85.45Y-82.472
X85.75Y-130.5
X85.8Y-56.4
X86.0Y-83.2
X86.2Y-55.2
X86.25Y-45.5
X86.25Y-49.0
X86.25Y-134.75
X86.5Y-129.5
X86.6Y-56.6
X86.6Y-82.8
X87.0Y-103.25
X87.2Y-83.2
X87.4Y-56.6
X87.75Y-131.75
X87.8Y-82.8
X88.2Y-56.6
X88.4Y-83.4
X88.75Y-127.5
X89.0Y-56.6
X89.0Y-83.0
X89.1Y-153.95
X89.6Y-82.6
X89.75Y-125.75
X89.8Y-56.6
X90.2Y-83.0
X90.25Y-119.5
X90.464Y-56.821
X90.5Y-129.5
X90.5Y-131.25
X90.75Y-45.5
X90.75Y-123.25
X90.764Y-99.986
X90.8Y-83.4
X91.087Y-108.6
X91.5Y-82.75
X91.6Y-56.6
X91.75Y-49.0
X91.75Y-98.75
X92.2Y-84.0
X92.4Y-56.6
X92.94Y-155.74
X93.2Y-56.6
X94.2Y-56.8
X94.5Y-138.0
X94.837Y-108.85
X95.0Y-122.25
X95.75Y-129.0
X96.5Y-115.75
X97.0Y-50.25
X97.95Y-145.75
X98.25Y-131.0
X98.45Y-124.5
X98.587Y-116.15
X99.0Y-125.5
X99.0Y-130.75
X99.72Y-123.25
X99.72Y-124.09
X99.75Y-113.0
X99.75Y-116.0
X99.75Y-131.25
X100.0Y-108.25
X100.0Y-142.0
X101.6Y-89.8
X101.75Y-142.75
X101.8Y-89.0
X102.0Y-91.0
X102.8Y-90.4
X103.0Y-109.5
X103.04Y-121.42
X103.2Y-91.6
X103.328Y-122.8
X104.0Y-121.5
X104.25Y-131.0
X104.6Y-92.2
X105.5Y-124.4
X105.8Y-92.8
X106.8Y-84.8
X106.8Y-93.4
X107.25Y-123.0
X107.4Y-84.2
X107.4Y-94.0
X107.5Y-119.75
X108.0Y-83.6
X108.0Y-94.8
X108.2Y-53.4
X108.6Y-83.2
X108.8Y-54.4
X108.8Y-55.2
X108.864Y-53.621
X109.2Y-82.8
X109.8Y-55.2
X109.8Y-82.4
X110.4Y-83.0
X110.6Y-55.4
X110.75Y-113.0
X110.95Y-83.57
X111.0Y-56.0
X111.5Y-123.5
X111.5Y-124.25
X111.5Y-125.0
X111.5Y-126.0
X111.6Y-83.0
X112.0Y-56.0
X112.4Y-83.0
X112.75Y-108.75
X112.8Y-56.0
X113.2Y-82.4
X113.75Y-141.5
X113.8Y-56.0
X114.0Y-56.8
X114.0Y-82.4
X114.5Y-45.25
X114.5Y-48.5
X114.75Y-133.5
X114.8Y-82.6
X115.0Y-56.6
X115.5Y-82.25
X116.0Y-56.6
X116.2Y-82.8
X116.262Y-95.35
X117.0Y-83.0
X117.25Y-119.75
X117.4Y-56.2
X117.5Y-49.0
X117.5Y-121.0
X117.5Y-122.0
X117.6Y-57.0
X117.8Y-83.2
X118.4Y-57.0
X118.464Y-82.979
X118.5Y-122.75
X118.514Y-86.486
X119.0Y-49.25
X119.2Y-83.4
X119.25Y-45.25
X119.4Y-57.0
X119.5Y-113.0
X119.5Y-114.75
X119.5Y-123.5
X119.5Y-124.25
X119.75Y-111.0
X119.8Y-86.75
X119.85Y-82.15
X120.25Y-108.0
X120.4Y-57.0
X120.4Y-83.6
X120.75Y-137.0
X121.0Y-111.75
X121.144Y-141.05
X121.2Y-83.2
X121.5Y-139.148
X121.6Y-56.8
X122.63Y-140.94
X123.0Y-55.6
X123.0Y-143.5
X123.139Y-138.05
X123.24Y-139.45
X123.25Y-135.75
X123.36Y-140.14
X123.5Y-138.8
X124.125Y-136.875
X125.0Y-128.0
X126.25Y-139.75
X126.5Y-140.75
X126.75Y-143.25
X128.25Y-119.75
X128.9Y-141.0
X129.25Y-121.0
X129.75Y-121.75
X130.5Y-112.75
X130.75Y-122.75
X131.125Y-139.375
X131.25Y-107.75
X131.75Y-123.5
X132.5Y-124.25
X133.0Y-128.0
X135.25Y-119.75
X136.0Y-121.0
X136.5Y-111.5
X136.5Y-121.75
X137.0Y-115.0
X137.5Y-108.5
X137.5Y-122.75
X137.75Y-135.25
X138.25Y-123.5
X138.25Y-134.5
X138.75Y-153.0
X139.0Y-124.25
X139.5Y-156.0
X139.75Y-140.75
X140.0Y-148.5
X140.5Y-114.75
X141.5Y-135.5
X142.6Y-83.8
X142.75Y-134.75
X143.2Y-83.4
X143.8Y-83.0
X144.4Y-82.6
X144.75Y-144.5
X145.0Y-83.8
X145.0Y-147.5
X145.5Y-119.75
X145.6Y-83.0
X146.0Y-139.75
X146.2Y-82.4
X146.25Y-29.25
X146.25Y-147.75
X147.0Y-81.8
X147.0Y-121.0
X147.5Y-121.75
X147.75Y-113.0
X147.8Y-80.8
X148.25Y-45.5
X148.4Y-81.6
X148.5Y-122.75
X148.5Y-144.5
X149.0Y-80.8
X149.0Y-151.5
X149.2Y-53.2
X149.25Y-123.5
X149.8Y-53.8
X150.0Y-72.5
X150.25Y-124.25
X150.4Y-81.4
X150.5Y-110.75
X150.6Y-54.4
X151.2Y-55.0
X151.25Y-153.25
X152.2Y-55.0
X152.2Y-55.8
X152.25Y-119.75
X152.4Y-56.6
X152.75Y-120.5
X153.0Y-111.0
X153.0Y-112.5
X153.0Y-119.0
X153.2Y-56.8
X153.75Y-115.0
X154.2Y-59.0
X154.4Y-56.6
X154.4Y-57.6
X154.75Y-49.0
X154.75Y-143.25
X155.0Y-45.75
X155.0Y-61.75
X155.0Y-139.0
X155.5Y-153.0
X156.0Y-82.25
X156.0Y-90.153
X156.75Y-143.25
X157.2Y-82.8
X157.6Y-24.6
X157.75Y-21.75
X158.0Y-83.4
X158.0Y-114.75
X158.014Y-85.236
X158.2Y-56.0
X158.5Y-49.25
X158.6Y-82.8
X159.2Y-56.0
X159.4Y-83.4
X159.5Y-90.153
X160.0Y-45.5
X160.0Y-56.0
X160.0Y-82.8
X160.5Y-49.0
X160.55Y-82.25
X161.0Y-55.8
X161.0Y-123.75
X161.2Y-56.6
X161.2Y-83.2
X161.5Y-144.0
X161.75Y-121.25
X162.0Y-83.4
X162.2Y-56.6
X162.5Y-118.5
X162.5Y-144.25
X162.92Y-139.59
X163.0Y-57.2
X163.0Y-119.5
X163.0Y-128.39
X163.0Y-129.26
X163.0Y-130.03
X163.25Y-144.5
X163.407Y-127.82
X163.5Y-120.25
X163.8Y-68.2
X164.4Y-120.4
X164.5Y-113.0
X165.58Y-130.42
X166.195Y-130.805
X166.2Y-85.4
X166.75Y-152.75
X167.0Y-86.2
X167.014Y-148.236
X167.08Y-130.74
X167.5Y-110.75
X167.5Y-149.0
X167.8Y-86.4
X167.8Y-131.0
X168.0Y-146.25
X168.75Y-149.55
X168.8Y-86.6
X168.8Y-130.4
X169.25Y-147.0
X169.4Y-130.94
X169.6Y-86.8
X170.2Y-130.62
X170.75Y-144.5
X170.8Y-86.6
X170.8Y-131.2
X171.25Y-138.0
X171.5Y-110.75
X171.5Y-112.25
X171.6Y-86.8
X172.0Y-114.0
X172.0Y-136.5
X172.0Y-137.5
X172.0Y-145.25
X172.2Y-135.6
X172.25Y-113.0
X172.4Y-86.8
X172.5Y-133.25
X172.75Y-122.75
X172.75Y-144.5
X173.2Y-87.0
X173.2Y-88.2
X173.25Y-132.75
X174.0Y-132.5
X174.0Y-136.8
X174.75Y-132.0
X175.5Y-120.25
X176.2Y-81.4
X176.5Y-146.25
X177.25Y-144.25
X178.75Y-125.0
X179.5Y-133.45
X179.75Y-125.75
X180.5Y-126.75
X180.75Y-132.0
X181.0Y-135.25
X181.38Y-136.0
X181.5Y-132.75
X181.5Y-138.5
X183.25Y-112.75
X183.5Y-130.5
X184.6Y-105.4
X185.2Y-85.6
X185.4Y-105.0
X185.8Y-84.8
X186.0Y-104.6
X186.0Y-155.25
X186.2Y-55.0
X186.4Y-53.8
X186.4Y-84.2
X186.75Y-111.0
X186.75Y-130.25
X186.75Y-137.25
X186.8Y-104.2
X187.0Y-55.2
X187.0Y-83.6
X187.4Y-56.0
X187.6Y-83.2
X187.8Y-104.0
X188.4Y-56.0
X188.4Y-84.2
X188.8Y-56.6
X188.8Y-103.4
X189.5Y-121.25
X189.6Y-103.0
X189.75Y-111.0
X189.75Y-113.0
X190.0Y-114.25
X190.25Y-115.0
X190.25Y-122.0
X190.6Y-102.8
X190.8Y-56.4
X190.8Y-83.4
X191.2Y-116.2
X191.4Y-82.8
X191.6Y-56.0
X191.6Y-102.4
X191.6Y-116.8
X192.0Y-83.4
X192.2Y-117.4
X192.4Y-56.0
X192.6Y-83.0
X192.6Y-102.0
X192.8Y-118.0
X193.0Y-148.25
X193.2Y-56.0
X193.246Y-82.731
X193.5Y-45.75
X193.5Y-48.5
X193.6Y-101.6
X193.6Y-118.6
X193.75Y-90.25
X194.0Y-82.75
X194.2Y-56.0
X194.4Y-118.8
X194.6Y-83.4
X194.6Y-101.2
X195.0Y-56.4
X195.2Y-119.0
X195.4Y-83.4
X195.8Y-100.6
X196.0Y-83.0
X196.0Y-119.2
X196.2Y-56.4
X196.8Y-83.2
X196.8Y-100.2
X197.3Y-90.25
X197.4Y-56.4
X197.5Y-148.75
X197.6Y-83.2
X197.8Y-100.0
X198.25Y-48.75
X198.42Y-90.25
X198.5Y-82.75
X198.6Y-56.4
X198.75Y-45.75
X198.8Y-99.6
X199.0Y-149.25
X199.2Y-83.8
X199.8Y-56.4
X199.8Y-99.2
X200.0Y-84.2
X200.536Y-98.621
X200.6Y-55.8
X201.0Y-83.8
X201.0Y-113.0
X201.0Y-120.5
X201.2Y-56.4
X201.2Y-98.4
X201.8Y-55.8
X201.8Y-83.6
X202.25Y-146.0
X202.4Y-98.4
X202.6Y-55.2
X203.75Y-110.75
X204.0Y-87.8
X204.2Y-101.2
X205.2Y-81.8
X205.2Y-100.6
X205.4Y-98.8
X208.2Y-81.6
X208.8Y-81.0
X209.6Y-52.2
X209.6Y-81.0
X210.6Y-84.8
X211.2Y-84.4
X211.26Y-127.54
X211.8Y-84.0
X212.0Y-54.2
X212.0Y-55.0
X212.351Y-83.449
X212.6Y-44.4
X212.6Y-55.4
X212.8Y-56.2
X212.94Y-127.53
X213.0Y-83.0
X213.4Y-56.6
X213.6Y-82.4
X213.8Y-97.6
X214.2Y-81.8
X214.4Y-56.6
X214.4Y-97.2
X214.8Y-81.4
X215.0Y-96.8
X215.2Y-127.6
X215.4Y-56.6
X215.4Y-80.6
X215.6Y-96.2
X216.0Y-105.0
X216.0Y-109.0
X216.2Y-56.6
X216.2Y-95.8
X216.2Y-127.6
X216.4Y-83.0
X216.6Y-128.4
X216.8Y-95.4
X216.8Y-108.0
X216.8Y-129.2
X217.0Y-107.2
X217.0Y-115.4
X217.4Y-56.2
X217.4Y-94.959
X217.6Y-114.8
X218.229Y-114.493
X218.25Y-49.0
X218.4Y-56.2
X218.4Y-94.8
X218.8Y-113.8
X219.0Y-45.5
X219.0Y-125.0
X219.307Y-86.693
X219.5Y-83.0
X219.6Y-94.8
X220.4Y-55.6
X220.4Y-84.0
X220.4Y-94.8
X220.4Y-121.6
X220.75Y-146.0
X221.0Y-83.6
X221.2Y-55.0
X221.2Y-94.8
X221.2Y-121.2
X221.75Y-49.0
X221.927Y-94.804
X222.0Y-56.2
X222.0Y-84.0
X222.0Y-120.8
X222.6Y-120.2
X222.626Y-94.762
X222.8Y-55.8
X222.8Y-83.8
X223.31Y-94.91
X223.4Y-83.4
X223.5Y-45.5
X223.5Y-49.5
X223.5Y-87.0
X223.6Y-55.2
X224.1Y-94.9
X224.25Y-83.0
X224.3Y-90.25
X224.8Y-55.2
X224.8Y-83.8
X225.0Y-94.8
X225.8Y-55.6
X225.8Y-84.2
X225.8Y-94.8
X226.4Y-54.4
X226.8Y-83.6
X227.25Y-102.0
X227.25Y-131.75
X227.75Y-144.75
X229.25Y-88.75
X229.75Y-84.5
X229.75Y-86.5
X229.75Y-110.25
X230.0Y-92.75
X230.0Y-128.0
X230.0Y-147.0
X230.5Y-138.0
X231.0Y-112.5
X232.5Y-71.75
X233.0Y-29.5
X233.4Y-38.2
X235.0Y-40.5
X236.75Y-56.0
T2
X78.5Y-79.0
X93.5Y-141.25
X97.22Y-142.53
X105.75Y-77.75
X106.0Y-79.75
X106.0Y-82.25
X128.25Y-79.75
X142.5Y-155.0
X147.75Y-140.75
X150.25Y-80.0
X151.25Y-80.0
X156.25Y-139.25
X157.5Y-141.0
X159.5Y-144.5
X165.451Y-149.049
X166.0Y-150.0
X168.0Y-80.0
X168.5Y-143.75
X168.5Y-144.75
X169.75Y-140.0
X170.5Y-139.25
X180.2Y-139.0
X189.05Y-81.2
X197.0Y-49.25
X204.0Y-81.25
X214.2Y-127.6
X216.4Y-116.0
X219.4Y-122.4
X231.0Y-105.75
X235.0Y-58.0
T3
X94.25Y-149.75
X94.25Y-151.75
X96.25Y-150.5
X100.5Y-150.5
X153.09Y-147.75
X226.75Y-119.75
T4
X80.13Y-139.17
X80.13Y-141.71
X80.13Y-144.25
X80.13Y-146.79
X87.75Y-139.17
X87.75Y-141.71
X87.75Y-144.25
X87.75Y-146.79
X96.25Y-136.0
X98.75Y-136.0
X100.5Y-140.0
X103.0Y-140.0
X106.5Y-130.75
X109.0Y-130.75
T5
X79.59Y-95.97
X79.59Y-98.47
X79.59Y-100.97
X79.59Y-103.47
X79.9Y-154.37
X82.4Y-154.37
X84.9Y-154.37
X124.75Y-146.963
X124.75Y-148.963
X127.25Y-146.963
X127.25Y-148.963
X157.0Y-150.0
X159.5Y-150.0
X162.0Y-150.0
X236.0Y-98.75
X236.0Y-101.25
X236.0Y-103.75
X236.5Y-84.25
X236.5Y-86.75
X236.5Y-89.25
X236.5Y-91.75
X236.75Y-111.0
X236.75Y-113.5
X236.75Y-116.0
T6
X81.5Y-114.5
X81.5Y-117.04
X81.5Y-119.58
X81.5Y-122.12
X81.5Y-124.66
X84.04Y-114.5
X84.04Y-117.04
X84.04Y-119.58
X84.04Y-122.12
X84.04Y-124.66
X91.087Y-113.25
X96.087Y-113.25
X113.44Y-130.51
X115.98Y-130.51
X197.59Y-136.0
X197.59Y-138.54
X200.13Y-136.0
X200.13Y-138.54
X202.67Y-136.0
X202.67Y-138.54
X205.21Y-136.0
X205.21Y-138.54
X207.75Y-136.0
X207.75Y-138.54
X210.29Y-136.0
X210.29Y-138.54
X212.83Y-136.0
X212.83Y-138.54
X215.37Y-136.0
X215.37Y-138.54
X217.91Y-136.0
X217.91Y-138.54
X220.45Y-136.0
X220.45Y-138.54
X236.75Y-123.0
X236.75Y-125.5
X236.75Y-132.5
X236.75Y-135.0
X237.0Y-141.75
X237.0Y-144.25
X237.0Y-151.0
X237.0Y-153.5
T7
X175.5Y-152.75
X182.0Y-152.75
X187.75Y-152.75
X194.25Y-152.75
X200.5Y-152.75
X207.0Y-152.75
X213.0Y-152.75
X219.5Y-152.75
T8
X120.0Y-151.822
X132.0Y-151.822
T6
X106.792Y-148.0G85X108.792Y-148.0
G05
X106.792Y-154.0G85X108.792Y-154.0
G05
X112.492Y-152.0G85X112.492Y-150.0
G05
M30
