%TF.GenerationSoftware,KiCad,Pcbnew,9.0.6*%
%TF.CreationDate,2025-11-19T13:11:48-05:00*%
%TF.ProjectId,kicad,6b696361-642e-46b6-9963-61645f706362,rev?*%
%TF.SameCoordinates,Original*%
%TF.FileFunction,Drillmap*%
%TF.FilePolarity,Positive*%
%FSLAX45Y45*%
G04 Gerber Fmt 4.5, Leading zero omitted, Abs format (unit mm)*
G04 Created by KiCad (PCBNEW 9.0.6) date 2025-11-19 13:11:48*
%MOMM*%
%LPD*%
G01*
G04 APERTURE LIST*
%ADD10C,0.050000*%
%ADD11C,0.200000*%
%ADD12C,0.100000*%
%ADD13C,0.130000*%
%ADD14C,0.230000*%
G04 APERTURE END LIST*
D10*
X7600000Y-2000000D02*
X23912500Y-2012500D01*
X23912500Y-2012500D02*
X23937500Y-15687500D01*
X7600000Y-15675000D02*
X7600000Y-2000000D01*
X23937500Y-15687500D02*
X7600000Y-15675000D01*
D11*
D12*
X7930000Y-8470000D02*
X7950000Y-8490000D01*
X7950000Y-8470000D02*
X7930000Y-8490000D01*
X7990000Y-8530000D02*
X8010000Y-8550000D01*
X8010000Y-8530000D02*
X7990000Y-8550000D01*
X8030000Y-5450000D02*
X8050000Y-5470000D01*
X8050000Y-5450000D02*
X8030000Y-5470000D01*
X8040000Y-4590000D02*
X8060000Y-4610000D01*
X8060000Y-4590000D02*
X8040000Y-4610000D01*
X8070000Y-8490000D02*
X8090000Y-8510000D01*
X8090000Y-8490000D02*
X8070000Y-8510000D01*
X8090000Y-8350000D02*
X8110000Y-8370000D01*
X8110000Y-8350000D02*
X8090000Y-8370000D01*
X8110000Y-5470000D02*
X8130000Y-5490000D01*
X8130000Y-5470000D02*
X8110000Y-5490000D01*
X8150000Y-5250000D02*
X8170000Y-5270000D01*
X8170000Y-5250000D02*
X8150000Y-5270000D01*
X8150000Y-8270000D02*
X8170000Y-8290000D01*
X8170000Y-8270000D02*
X8150000Y-8290000D01*
X8190000Y-5490000D02*
X8210000Y-5510000D01*
X8210000Y-5490000D02*
X8190000Y-5510000D01*
X8210000Y-8070000D02*
X8230000Y-8090000D01*
X8230000Y-8070000D02*
X8210000Y-8090000D01*
X8256408Y-5512136D02*
X8276408Y-5532136D01*
X8276408Y-5512136D02*
X8256408Y-5532136D01*
X8270000Y-7930000D02*
X8290000Y-7950000D01*
X8290000Y-7930000D02*
X8270000Y-7950000D01*
X8330000Y-5530000D02*
X8350000Y-5550000D01*
X8350000Y-5530000D02*
X8330000Y-5550000D01*
X8350000Y-8330000D02*
X8370000Y-8350000D01*
X8370000Y-8330000D02*
X8350000Y-8350000D01*
X8410000Y-5530000D02*
X8430000Y-5550000D01*
X8430000Y-5530000D02*
X8410000Y-5550000D01*
X8415000Y-12815000D02*
X8435000Y-12835000D01*
X8435000Y-12815000D02*
X8415000Y-12835000D01*
X8430000Y-8293290D02*
X8450000Y-8313290D01*
X8450000Y-8293290D02*
X8430000Y-8313290D01*
X8490000Y-13065000D02*
X8510000Y-13085000D01*
X8510000Y-13065000D02*
X8490000Y-13085000D01*
X8510000Y-5510000D02*
X8530000Y-5530000D01*
X8530000Y-5510000D02*
X8510000Y-5530000D01*
X8520136Y-8305644D02*
X8540136Y-8325644D01*
X8540136Y-8305644D02*
X8520136Y-8325644D01*
X8535000Y-8237240D02*
X8555000Y-8257240D01*
X8555000Y-8237240D02*
X8535000Y-8257240D01*
X8565000Y-13040000D02*
X8585000Y-13060000D01*
X8585000Y-13040000D02*
X8565000Y-13060000D01*
X8570000Y-5630000D02*
X8590000Y-5650000D01*
X8590000Y-5630000D02*
X8570000Y-5650000D01*
X8590000Y-8310000D02*
X8610000Y-8330000D01*
X8610000Y-8310000D02*
X8590000Y-8330000D01*
X8610000Y-5510000D02*
X8630000Y-5530000D01*
X8630000Y-5510000D02*
X8610000Y-5530000D01*
X8615000Y-4540000D02*
X8635000Y-4560000D01*
X8635000Y-4540000D02*
X8615000Y-4560000D01*
X8615000Y-4890000D02*
X8635000Y-4910000D01*
X8635000Y-4890000D02*
X8615000Y-4910000D01*
X8615000Y-13465000D02*
X8635000Y-13485000D01*
X8635000Y-13465000D02*
X8615000Y-13485000D01*
X8640000Y-12940000D02*
X8660000Y-12960000D01*
X8660000Y-12940000D02*
X8640000Y-12960000D01*
X8650000Y-5650000D02*
X8670000Y-5670000D01*
X8670000Y-5650000D02*
X8650000Y-5670000D01*
X8650000Y-8270000D02*
X8670000Y-8290000D01*
X8670000Y-8270000D02*
X8650000Y-8290000D01*
X8690000Y-10315000D02*
X8710000Y-10335000D01*
X8710000Y-10315000D02*
X8690000Y-10335000D01*
X8710000Y-8310000D02*
X8730000Y-8330000D01*
X8730000Y-8310000D02*
X8710000Y-8330000D01*
X8730000Y-5650000D02*
X8750000Y-5670000D01*
X8750000Y-5650000D02*
X8730000Y-5670000D01*
X8765000Y-13165000D02*
X8785000Y-13185000D01*
X8785000Y-13165000D02*
X8765000Y-13185000D01*
X8770000Y-8270000D02*
X8790000Y-8290000D01*
X8790000Y-8270000D02*
X8770000Y-8290000D01*
X8810000Y-5650000D02*
X8830000Y-5670000D01*
X8830000Y-5650000D02*
X8810000Y-5670000D01*
X8830000Y-8330000D02*
X8850000Y-8350000D01*
X8850000Y-8330000D02*
X8830000Y-8350000D01*
X8865000Y-12740000D02*
X8885000Y-12760000D01*
X8885000Y-12740000D02*
X8865000Y-12760000D01*
X8890000Y-5650000D02*
X8910000Y-5670000D01*
X8910000Y-5650000D02*
X8890000Y-5670000D01*
X8890000Y-8290000D02*
X8910000Y-8310000D01*
X8910000Y-8290000D02*
X8890000Y-8310000D01*
X8900000Y-15385000D02*
X8920000Y-15405000D01*
X8920000Y-15385000D02*
X8900000Y-15405000D01*
X8950000Y-8250000D02*
X8970000Y-8270000D01*
X8970000Y-8250000D02*
X8950000Y-8270000D01*
X8965000Y-12565000D02*
X8985000Y-12585000D01*
X8985000Y-12565000D02*
X8965000Y-12585000D01*
X8970000Y-5650000D02*
X8990000Y-5670000D01*
X8990000Y-5650000D02*
X8970000Y-5670000D01*
X9010000Y-8290000D02*
X9030000Y-8310000D01*
X9030000Y-8290000D02*
X9010000Y-8310000D01*
X9015000Y-11940000D02*
X9035000Y-11960000D01*
X9035000Y-11940000D02*
X9015000Y-11960000D01*
X9036408Y-5672136D02*
X9056408Y-5692136D01*
X9056408Y-5672136D02*
X9036408Y-5692136D01*
X9040000Y-12940000D02*
X9060000Y-12960000D01*
X9060000Y-12940000D02*
X9040000Y-12960000D01*
X9040000Y-13115000D02*
X9060000Y-13135000D01*
X9060000Y-13115000D02*
X9040000Y-13135000D01*
X9065000Y-4540000D02*
X9085000Y-4560000D01*
X9085000Y-4540000D02*
X9065000Y-4560000D01*
X9065000Y-12315000D02*
X9085000Y-12335000D01*
X9085000Y-12315000D02*
X9065000Y-12335000D01*
X9066391Y-9988609D02*
X9086391Y-10008609D01*
X9086391Y-9988609D02*
X9066391Y-10008609D01*
X9070000Y-8330000D02*
X9090000Y-8350000D01*
X9090000Y-8330000D02*
X9070000Y-8350000D01*
X9098750Y-10850000D02*
X9118750Y-10870000D01*
X9118750Y-10850000D02*
X9098750Y-10870000D01*
X9140000Y-8265000D02*
X9160000Y-8285000D01*
X9160000Y-8265000D02*
X9140000Y-8285000D01*
X9150000Y-5650000D02*
X9170000Y-5670000D01*
X9170000Y-5650000D02*
X9150000Y-5670000D01*
X9165000Y-4890000D02*
X9185000Y-4910000D01*
X9185000Y-4890000D02*
X9165000Y-4910000D01*
X9165000Y-9865000D02*
X9185000Y-9885000D01*
X9185000Y-9865000D02*
X9165000Y-9885000D01*
X9210000Y-8390000D02*
X9230000Y-8410000D01*
X9230000Y-8390000D02*
X9210000Y-8410000D01*
X9230000Y-5650000D02*
X9250000Y-5670000D01*
X9250000Y-5650000D02*
X9230000Y-5670000D01*
X9284000Y-15564000D02*
X9304000Y-15584000D01*
X9304000Y-15564000D02*
X9284000Y-15584000D01*
X9310000Y-5650000D02*
X9330000Y-5670000D01*
X9330000Y-5650000D02*
X9310000Y-5670000D01*
X9410000Y-5670000D02*
X9430000Y-5690000D01*
X9430000Y-5670000D02*
X9410000Y-5690000D01*
X9440000Y-13790000D02*
X9460000Y-13810000D01*
X9460000Y-13790000D02*
X9440000Y-13810000D01*
X9473750Y-10875000D02*
X9493750Y-10895000D01*
X9493750Y-10875000D02*
X9473750Y-10895000D01*
X9490000Y-12215000D02*
X9510000Y-12235000D01*
X9510000Y-12215000D02*
X9490000Y-12235000D01*
X9565000Y-12890000D02*
X9585000Y-12910000D01*
X9585000Y-12890000D02*
X9565000Y-12910000D01*
X9640000Y-11565000D02*
X9660000Y-11585000D01*
X9660000Y-11565000D02*
X9640000Y-11585000D01*
X9690000Y-5015000D02*
X9710000Y-5035000D01*
X9710000Y-5015000D02*
X9690000Y-5035000D01*
X9785000Y-14565000D02*
X9805000Y-14585000D01*
X9805000Y-14565000D02*
X9785000Y-14585000D01*
X9815000Y-13090000D02*
X9835000Y-13110000D01*
X9835000Y-13090000D02*
X9815000Y-13110000D01*
X9835000Y-12440000D02*
X9855000Y-12460000D01*
X9855000Y-12440000D02*
X9835000Y-12460000D01*
X9848750Y-11605000D02*
X9868750Y-11625000D01*
X9868750Y-11605000D02*
X9848750Y-11625000D01*
X9890000Y-12540000D02*
X9910000Y-12560000D01*
X9910000Y-12540000D02*
X9890000Y-12560000D01*
X9890000Y-13065000D02*
X9910000Y-13085000D01*
X9910000Y-13065000D02*
X9890000Y-13085000D01*
X9962000Y-12315000D02*
X9982000Y-12335000D01*
X9982000Y-12315000D02*
X9962000Y-12335000D01*
X9962000Y-12399000D02*
X9982000Y-12419000D01*
X9982000Y-12399000D02*
X9962000Y-12419000D01*
X9965000Y-11290000D02*
X9985000Y-11310000D01*
X9985000Y-11290000D02*
X9965000Y-11310000D01*
X9965000Y-11590000D02*
X9985000Y-11610000D01*
X9985000Y-11590000D02*
X9965000Y-11610000D01*
X9965000Y-13115000D02*
X9985000Y-13135000D01*
X9985000Y-13115000D02*
X9965000Y-13135000D01*
X9990000Y-10815000D02*
X10010000Y-10835000D01*
X10010000Y-10815000D02*
X9990000Y-10835000D01*
X9990000Y-14190000D02*
X10010000Y-14210000D01*
X10010000Y-14190000D02*
X9990000Y-14210000D01*
X10150000Y-8970000D02*
X10170000Y-8990000D01*
X10170000Y-8970000D02*
X10150000Y-8990000D01*
X10165000Y-14265000D02*
X10185000Y-14285000D01*
X10185000Y-14265000D02*
X10165000Y-14285000D01*
X10170000Y-8890000D02*
X10190000Y-8910000D01*
X10190000Y-8890000D02*
X10170000Y-8910000D01*
X10190000Y-9090000D02*
X10210000Y-9110000D01*
X10210000Y-9090000D02*
X10190000Y-9110000D01*
X10270000Y-9030000D02*
X10290000Y-9050000D01*
X10290000Y-9030000D02*
X10270000Y-9050000D01*
X10290000Y-10940000D02*
X10310000Y-10960000D01*
X10310000Y-10940000D02*
X10290000Y-10960000D01*
X10294000Y-12132000D02*
X10314000Y-12152000D01*
X10314000Y-12132000D02*
X10294000Y-12152000D01*
X10310000Y-9150000D02*
X10330000Y-9170000D01*
X10330000Y-9150000D02*
X10310000Y-9170000D01*
X10322782Y-12270000D02*
X10342782Y-12290000D01*
X10342782Y-12270000D02*
X10322782Y-12290000D01*
X10390000Y-12140000D02*
X10410000Y-12160000D01*
X10410000Y-12140000D02*
X10390000Y-12160000D01*
X10415000Y-13090000D02*
X10435000Y-13110000D01*
X10435000Y-13090000D02*
X10415000Y-13110000D01*
X10450000Y-9210000D02*
X10470000Y-9230000D01*
X10470000Y-9210000D02*
X10450000Y-9230000D01*
X10540000Y-12430000D02*
X10560000Y-12450000D01*
X10560000Y-12430000D02*
X10540000Y-12450000D01*
X10570000Y-9270000D02*
X10590000Y-9290000D01*
X10590000Y-9270000D02*
X10570000Y-9290000D01*
X10670000Y-8470000D02*
X10690000Y-8490000D01*
X10690000Y-8470000D02*
X10670000Y-8490000D01*
X10670000Y-9330000D02*
X10690000Y-9350000D01*
X10690000Y-9330000D02*
X10670000Y-9350000D01*
X10715000Y-12290000D02*
X10735000Y-12310000D01*
X10735000Y-12290000D02*
X10715000Y-12310000D01*
X10730000Y-8410000D02*
X10750000Y-8430000D01*
X10750000Y-8410000D02*
X10730000Y-8430000D01*
X10730000Y-9390000D02*
X10750000Y-9410000D01*
X10750000Y-9390000D02*
X10730000Y-9410000D01*
X10740000Y-11965000D02*
X10760000Y-11985000D01*
X10760000Y-11965000D02*
X10740000Y-11985000D01*
X10790000Y-8350000D02*
X10810000Y-8370000D01*
X10810000Y-8350000D02*
X10790000Y-8370000D01*
X10790000Y-9470000D02*
X10810000Y-9490000D01*
X10810000Y-9470000D02*
X10790000Y-9490000D01*
X10810000Y-5330000D02*
X10830000Y-5350000D01*
X10830000Y-5330000D02*
X10810000Y-5350000D01*
X10850000Y-8310000D02*
X10870000Y-8330000D01*
X10870000Y-8310000D02*
X10850000Y-8330000D01*
X10870000Y-5430000D02*
X10890000Y-5450000D01*
X10890000Y-5430000D02*
X10870000Y-5450000D01*
X10870000Y-5510000D02*
X10890000Y-5530000D01*
X10890000Y-5510000D02*
X10870000Y-5530000D01*
X10876408Y-5352136D02*
X10896408Y-5372136D01*
X10896408Y-5352136D02*
X10876408Y-5372136D01*
X10910000Y-8270000D02*
X10930000Y-8290000D01*
X10930000Y-8270000D02*
X10910000Y-8290000D01*
X10970000Y-5510000D02*
X10990000Y-5530000D01*
X10990000Y-5510000D02*
X10970000Y-5530000D01*
X10970000Y-8230000D02*
X10990000Y-8250000D01*
X10990000Y-8230000D02*
X10970000Y-8250000D01*
X11030000Y-8290000D02*
X11050000Y-8310000D01*
X11050000Y-8290000D02*
X11030000Y-8310000D01*
X11050000Y-5530000D02*
X11070000Y-5550000D01*
X11070000Y-5530000D02*
X11050000Y-5550000D01*
X11065000Y-11290000D02*
X11085000Y-11310000D01*
X11085000Y-11290000D02*
X11065000Y-11310000D01*
X11085000Y-8347000D02*
X11105000Y-8367000D01*
X11105000Y-8347000D02*
X11085000Y-8367000D01*
X11090000Y-5590000D02*
X11110000Y-5610000D01*
X11110000Y-5590000D02*
X11090000Y-5610000D01*
X11140000Y-12340000D02*
X11160000Y-12360000D01*
X11160000Y-12340000D02*
X11140000Y-12360000D01*
X11140000Y-12415000D02*
X11160000Y-12435000D01*
X11160000Y-12415000D02*
X11140000Y-12435000D01*
X11140000Y-12490000D02*
X11160000Y-12510000D01*
X11160000Y-12490000D02*
X11140000Y-12510000D01*
X11140000Y-12590000D02*
X11160000Y-12610000D01*
X11160000Y-12590000D02*
X11140000Y-12610000D01*
X11150000Y-8290000D02*
X11170000Y-8310000D01*
X11170000Y-8290000D02*
X11150000Y-8310000D01*
X11190000Y-5590000D02*
X11210000Y-5610000D01*
X11210000Y-5590000D02*
X11190000Y-5610000D01*
X11230000Y-8290000D02*
X11250000Y-8310000D01*
X11250000Y-8290000D02*
X11230000Y-8310000D01*
X11265000Y-10865000D02*
X11285000Y-10885000D01*
X11285000Y-10865000D02*
X11265000Y-10885000D01*
X11270000Y-5590000D02*
X11290000Y-5610000D01*
X11290000Y-5590000D02*
X11270000Y-5610000D01*
X11310000Y-8230000D02*
X11330000Y-8250000D01*
X11330000Y-8230000D02*
X11310000Y-8250000D01*
X11365000Y-14140000D02*
X11385000Y-14160000D01*
X11385000Y-14140000D02*
X11365000Y-14160000D01*
X11370000Y-5590000D02*
X11390000Y-5610000D01*
X11390000Y-5590000D02*
X11370000Y-5610000D01*
X11390000Y-5670000D02*
X11410000Y-5690000D01*
X11410000Y-5670000D02*
X11390000Y-5690000D01*
X11390000Y-8230000D02*
X11410000Y-8250000D01*
X11410000Y-8230000D02*
X11390000Y-8250000D01*
X11440000Y-4515000D02*
X11460000Y-4535000D01*
X11460000Y-4515000D02*
X11440000Y-4535000D01*
X11440000Y-4840000D02*
X11460000Y-4860000D01*
X11460000Y-4840000D02*
X11440000Y-4860000D01*
X11465000Y-13340000D02*
X11485000Y-13360000D01*
X11485000Y-13340000D02*
X11465000Y-13360000D01*
X11470000Y-8250000D02*
X11490000Y-8270000D01*
X11490000Y-8250000D02*
X11470000Y-8270000D01*
X11490000Y-5650000D02*
X11510000Y-5670000D01*
X11510000Y-5650000D02*
X11490000Y-5670000D01*
X11540000Y-8215000D02*
X11560000Y-8235000D01*
X11560000Y-8215000D02*
X11540000Y-8235000D01*
X11590000Y-5650000D02*
X11610000Y-5670000D01*
X11610000Y-5650000D02*
X11590000Y-5670000D01*
X11610000Y-8270000D02*
X11630000Y-8290000D01*
X11630000Y-8270000D02*
X11610000Y-8290000D01*
X11616202Y-9525000D02*
X11636202Y-9545000D01*
X11636202Y-9525000D02*
X11616202Y-9545000D01*
X11690000Y-8290000D02*
X11710000Y-8310000D01*
X11710000Y-8290000D02*
X11690000Y-8310000D01*
X11715000Y-11965000D02*
X11735000Y-11985000D01*
X11735000Y-11965000D02*
X11715000Y-11985000D01*
X11730000Y-5610000D02*
X11750000Y-5630000D01*
X11750000Y-5610000D02*
X11730000Y-5630000D01*
X11740000Y-4890000D02*
X11760000Y-4910000D01*
X11760000Y-4890000D02*
X11740000Y-4910000D01*
X11740000Y-12090000D02*
X11760000Y-12110000D01*
X11760000Y-12090000D02*
X11740000Y-12110000D01*
X11740000Y-12190000D02*
X11760000Y-12210000D01*
X11760000Y-12190000D02*
X11740000Y-12210000D01*
X11750000Y-5690000D02*
X11770000Y-5710000D01*
X11770000Y-5690000D02*
X11750000Y-5710000D01*
X11770000Y-8310000D02*
X11790000Y-8330000D01*
X11790000Y-8310000D02*
X11770000Y-8330000D01*
X11830000Y-5690000D02*
X11850000Y-5710000D01*
X11850000Y-5690000D02*
X11830000Y-5710000D01*
X11836408Y-8287864D02*
X11856408Y-8307864D01*
X11856408Y-8287864D02*
X11836408Y-8307864D01*
X11840000Y-12265000D02*
X11860000Y-12285000D01*
X11860000Y-12265000D02*
X11840000Y-12285000D01*
X11841391Y-8638609D02*
X11861391Y-8658609D01*
X11861391Y-8638609D02*
X11841391Y-8658609D01*
X11890000Y-4915000D02*
X11910000Y-4935000D01*
X11910000Y-4915000D02*
X11890000Y-4935000D01*
X11910000Y-8330000D02*
X11930000Y-8350000D01*
X11930000Y-8330000D02*
X11910000Y-8350000D01*
X11915000Y-4515000D02*
X11935000Y-4535000D01*
X11935000Y-4515000D02*
X11915000Y-4535000D01*
X11930000Y-5690000D02*
X11950000Y-5710000D01*
X11950000Y-5690000D02*
X11930000Y-5710000D01*
X11940000Y-11290000D02*
X11960000Y-11310000D01*
X11960000Y-11290000D02*
X11940000Y-11310000D01*
X11940000Y-11465000D02*
X11960000Y-11485000D01*
X11960000Y-11465000D02*
X11940000Y-11485000D01*
X11940000Y-12340000D02*
X11960000Y-12360000D01*
X11960000Y-12340000D02*
X11940000Y-12360000D01*
X11940000Y-12415000D02*
X11960000Y-12435000D01*
X11960000Y-12415000D02*
X11940000Y-12435000D01*
X11965000Y-11090000D02*
X11985000Y-11110000D01*
X11985000Y-11090000D02*
X11965000Y-11110000D01*
X11970000Y-8665000D02*
X11990000Y-8685000D01*
X11990000Y-8665000D02*
X11970000Y-8685000D01*
X11975000Y-8205000D02*
X11995000Y-8225000D01*
X11995000Y-8205000D02*
X11975000Y-8225000D01*
X12015000Y-10790000D02*
X12035000Y-10810000D01*
X12035000Y-10790000D02*
X12015000Y-10810000D01*
X12030000Y-5690000D02*
X12050000Y-5710000D01*
X12050000Y-5690000D02*
X12030000Y-5710000D01*
X12030000Y-8350000D02*
X12050000Y-8370000D01*
X12050000Y-8350000D02*
X12030000Y-8370000D01*
X12065000Y-13690000D02*
X12085000Y-13710000D01*
X12085000Y-13690000D02*
X12065000Y-13710000D01*
X12090000Y-11165000D02*
X12110000Y-11185000D01*
X12110000Y-11165000D02*
X12090000Y-11185000D01*
X12104447Y-14095000D02*
X12124447Y-14115000D01*
X12124447Y-14095000D02*
X12104447Y-14115000D01*
X12110000Y-8310000D02*
X12130000Y-8330000D01*
X12130000Y-8310000D02*
X12110000Y-8330000D01*
X12140000Y-13904800D02*
X12160000Y-13924800D01*
X12160000Y-13904800D02*
X12140000Y-13924800D01*
X12150000Y-5670000D02*
X12170000Y-5690000D01*
X12170000Y-5670000D02*
X12150000Y-5690000D01*
X12253000Y-14084000D02*
X12273000Y-14104000D01*
X12273000Y-14084000D02*
X12253000Y-14104000D01*
X12290000Y-5550000D02*
X12310000Y-5570000D01*
X12310000Y-5550000D02*
X12290000Y-5570000D01*
X12290000Y-14340000D02*
X12310000Y-14360000D01*
X12310000Y-14340000D02*
X12290000Y-14360000D01*
X12303891Y-13795000D02*
X12323891Y-13815000D01*
X12323891Y-13795000D02*
X12303891Y-13815000D01*
X12314000Y-13935000D02*
X12334000Y-13955000D01*
X12334000Y-13935000D02*
X12314000Y-13955000D01*
X12315000Y-13565000D02*
X12335000Y-13585000D01*
X12335000Y-13565000D02*
X12315000Y-13585000D01*
X12325957Y-14003971D02*
X12345957Y-14023971D01*
X12345957Y-14003971D02*
X12325957Y-14023971D01*
X12340000Y-13870000D02*
X12360000Y-13890000D01*
X12360000Y-13870000D02*
X12340000Y-13890000D01*
X12402500Y-13677500D02*
X12422500Y-13697500D01*
X12422500Y-13677500D02*
X12402500Y-13697500D01*
X12490000Y-12790000D02*
X12510000Y-12810000D01*
X12510000Y-12790000D02*
X12490000Y-12810000D01*
X12615000Y-13965000D02*
X12635000Y-13985000D01*
X12635000Y-13965000D02*
X12615000Y-13985000D01*
X12640000Y-14065000D02*
X12660000Y-14085000D01*
X12660000Y-14065000D02*
X12640000Y-14085000D01*
X12665000Y-14315000D02*
X12685000Y-14335000D01*
X12685000Y-14315000D02*
X12665000Y-14335000D01*
X12815000Y-11965000D02*
X12835000Y-11985000D01*
X12835000Y-11965000D02*
X12815000Y-11985000D01*
X12880000Y-14090000D02*
X12900000Y-14110000D01*
X12900000Y-14090000D02*
X12880000Y-14110000D01*
X12915000Y-12090000D02*
X12935000Y-12110000D01*
X12935000Y-12090000D02*
X12915000Y-12110000D01*
X12965000Y-12165000D02*
X12985000Y-12185000D01*
X12985000Y-12165000D02*
X12965000Y-12185000D01*
X13040000Y-11265000D02*
X13060000Y-11285000D01*
X13060000Y-11265000D02*
X13040000Y-11285000D01*
X13065000Y-12265000D02*
X13085000Y-12285000D01*
X13085000Y-12265000D02*
X13065000Y-12285000D01*
X13102500Y-13927500D02*
X13122500Y-13947500D01*
X13122500Y-13927500D02*
X13102500Y-13947500D01*
X13115000Y-10765000D02*
X13135000Y-10785000D01*
X13135000Y-10765000D02*
X13115000Y-10785000D01*
X13165000Y-12340000D02*
X13185000Y-12360000D01*
X13185000Y-12340000D02*
X13165000Y-12360000D01*
X13240000Y-12415000D02*
X13260000Y-12435000D01*
X13260000Y-12415000D02*
X13240000Y-12435000D01*
X13290000Y-12790000D02*
X13310000Y-12810000D01*
X13310000Y-12790000D02*
X13290000Y-12810000D01*
X13515000Y-11965000D02*
X13535000Y-11985000D01*
X13535000Y-11965000D02*
X13515000Y-11985000D01*
X13590000Y-12090000D02*
X13610000Y-12110000D01*
X13610000Y-12090000D02*
X13590000Y-12110000D01*
X13640000Y-11140000D02*
X13660000Y-11160000D01*
X13660000Y-11140000D02*
X13640000Y-11160000D01*
X13640000Y-12165000D02*
X13660000Y-12185000D01*
X13660000Y-12165000D02*
X13640000Y-12185000D01*
X13690000Y-11490000D02*
X13710000Y-11510000D01*
X13710000Y-11490000D02*
X13690000Y-11510000D01*
X13740000Y-10840000D02*
X13760000Y-10860000D01*
X13760000Y-10840000D02*
X13740000Y-10860000D01*
X13740000Y-12265000D02*
X13760000Y-12285000D01*
X13760000Y-12265000D02*
X13740000Y-12285000D01*
X13765000Y-13515000D02*
X13785000Y-13535000D01*
X13785000Y-13515000D02*
X13765000Y-13535000D01*
X13815000Y-12340000D02*
X13835000Y-12360000D01*
X13835000Y-12340000D02*
X13815000Y-12360000D01*
X13815000Y-13440000D02*
X13835000Y-13460000D01*
X13835000Y-13440000D02*
X13815000Y-13460000D01*
X13865000Y-15290000D02*
X13885000Y-15310000D01*
X13885000Y-15290000D02*
X13865000Y-15310000D01*
X13890000Y-12415000D02*
X13910000Y-12435000D01*
X13910000Y-12415000D02*
X13890000Y-12435000D01*
X13940000Y-15590000D02*
X13960000Y-15610000D01*
X13960000Y-15590000D02*
X13940000Y-15610000D01*
X13965000Y-14065000D02*
X13985000Y-14085000D01*
X13985000Y-14065000D02*
X13965000Y-14085000D01*
X13990000Y-14840000D02*
X14010000Y-14860000D01*
X14010000Y-14840000D02*
X13990000Y-14860000D01*
X14040000Y-11465000D02*
X14060000Y-11485000D01*
X14060000Y-11465000D02*
X14040000Y-11485000D01*
X14140000Y-13540000D02*
X14160000Y-13560000D01*
X14160000Y-13540000D02*
X14140000Y-13560000D01*
X14250000Y-8370000D02*
X14270000Y-8390000D01*
X14270000Y-8370000D02*
X14250000Y-8390000D01*
X14265000Y-13465000D02*
X14285000Y-13485000D01*
X14285000Y-13465000D02*
X14265000Y-13485000D01*
X14310000Y-8330000D02*
X14330000Y-8350000D01*
X14330000Y-8330000D02*
X14310000Y-8350000D01*
X14370000Y-8290000D02*
X14390000Y-8310000D01*
X14390000Y-8290000D02*
X14370000Y-8310000D01*
X14430000Y-8250000D02*
X14450000Y-8270000D01*
X14450000Y-8250000D02*
X14430000Y-8270000D01*
X14465000Y-14440000D02*
X14485000Y-14460000D01*
X14485000Y-14440000D02*
X14465000Y-14460000D01*
X14490000Y-8370000D02*
X14510000Y-8390000D01*
X14510000Y-8370000D02*
X14490000Y-8390000D01*
X14490000Y-14740000D02*
X14510000Y-14760000D01*
X14510000Y-14740000D02*
X14490000Y-14760000D01*
X14540000Y-11965000D02*
X14560000Y-11985000D01*
X14560000Y-11965000D02*
X14540000Y-11985000D01*
X14550000Y-8290000D02*
X14570000Y-8310000D01*
X14570000Y-8290000D02*
X14550000Y-8310000D01*
X14590000Y-13965000D02*
X14610000Y-13985000D01*
X14610000Y-13965000D02*
X14590000Y-13985000D01*
X14610000Y-8230000D02*
X14630000Y-8250000D01*
X14630000Y-8230000D02*
X14610000Y-8250000D01*
X14615000Y-2915000D02*
X14635000Y-2935000D01*
X14635000Y-2915000D02*
X14615000Y-2935000D01*
X14615000Y-14765000D02*
X14635000Y-14785000D01*
X14635000Y-14765000D02*
X14615000Y-14785000D01*
X14690000Y-8170000D02*
X14710000Y-8190000D01*
X14710000Y-8170000D02*
X14690000Y-8190000D01*
X14690000Y-12090000D02*
X14710000Y-12110000D01*
X14710000Y-12090000D02*
X14690000Y-12110000D01*
X14740000Y-12165000D02*
X14760000Y-12185000D01*
X14760000Y-12165000D02*
X14740000Y-12185000D01*
X14765000Y-11290000D02*
X14785000Y-11310000D01*
X14785000Y-11290000D02*
X14765000Y-11310000D01*
X14770000Y-8070000D02*
X14790000Y-8090000D01*
X14790000Y-8070000D02*
X14770000Y-8090000D01*
X14815000Y-4540000D02*
X14835000Y-4560000D01*
X14835000Y-4540000D02*
X14815000Y-4560000D01*
X14830000Y-8150000D02*
X14850000Y-8170000D01*
X14850000Y-8150000D02*
X14830000Y-8170000D01*
X14840000Y-12265000D02*
X14860000Y-12285000D01*
X14860000Y-12265000D02*
X14840000Y-12285000D01*
X14840000Y-14440000D02*
X14860000Y-14460000D01*
X14860000Y-14440000D02*
X14840000Y-14460000D01*
X14890000Y-8070000D02*
X14910000Y-8090000D01*
X14910000Y-8070000D02*
X14890000Y-8090000D01*
X14890000Y-15140000D02*
X14910000Y-15160000D01*
X14910000Y-15140000D02*
X14890000Y-15160000D01*
X14910000Y-5310000D02*
X14930000Y-5330000D01*
X14930000Y-5310000D02*
X14910000Y-5330000D01*
X14915000Y-12340000D02*
X14935000Y-12360000D01*
X14935000Y-12340000D02*
X14915000Y-12360000D01*
X14970000Y-5370000D02*
X14990000Y-5390000D01*
X14990000Y-5370000D02*
X14970000Y-5390000D01*
X14990000Y-7240000D02*
X15010000Y-7260000D01*
X15010000Y-7240000D02*
X14990000Y-7260000D01*
X15015000Y-12415000D02*
X15035000Y-12435000D01*
X15035000Y-12415000D02*
X15015000Y-12435000D01*
X15030000Y-8130000D02*
X15050000Y-8150000D01*
X15050000Y-8130000D02*
X15030000Y-8150000D01*
X15040000Y-11065000D02*
X15060000Y-11085000D01*
X15060000Y-11065000D02*
X15040000Y-11085000D01*
X15050000Y-5430000D02*
X15070000Y-5450000D01*
X15070000Y-5430000D02*
X15050000Y-5450000D01*
X15110000Y-5490000D02*
X15130000Y-5510000D01*
X15130000Y-5490000D02*
X15110000Y-5510000D01*
X15115000Y-15315000D02*
X15135000Y-15335000D01*
X15135000Y-15315000D02*
X15115000Y-15335000D01*
X15210000Y-5490000D02*
X15230000Y-5510000D01*
X15230000Y-5490000D02*
X15210000Y-5510000D01*
X15210000Y-5570000D02*
X15230000Y-5590000D01*
X15230000Y-5570000D02*
X15210000Y-5590000D01*
X15215000Y-11965000D02*
X15235000Y-11985000D01*
X15235000Y-11965000D02*
X15215000Y-11985000D01*
X15230000Y-5650000D02*
X15250000Y-5670000D01*
X15250000Y-5650000D02*
X15230000Y-5670000D01*
X15265000Y-12040000D02*
X15285000Y-12060000D01*
X15285000Y-12040000D02*
X15265000Y-12060000D01*
X15290000Y-11090000D02*
X15310000Y-11110000D01*
X15310000Y-11090000D02*
X15290000Y-11110000D01*
X15290000Y-11240000D02*
X15310000Y-11260000D01*
X15310000Y-11240000D02*
X15290000Y-11260000D01*
X15290000Y-11890000D02*
X15310000Y-11910000D01*
X15310000Y-11890000D02*
X15290000Y-11910000D01*
X15310000Y-5670000D02*
X15330000Y-5690000D01*
X15330000Y-5670000D02*
X15310000Y-5690000D01*
X15365000Y-11490000D02*
X15385000Y-11510000D01*
X15385000Y-11490000D02*
X15365000Y-11510000D01*
X15410000Y-5890000D02*
X15430000Y-5910000D01*
X15430000Y-5890000D02*
X15410000Y-5910000D01*
X15430000Y-5650000D02*
X15450000Y-5670000D01*
X15450000Y-5650000D02*
X15430000Y-5670000D01*
X15430000Y-5750000D02*
X15450000Y-5770000D01*
X15450000Y-5750000D02*
X15430000Y-5770000D01*
X15465000Y-4890000D02*
X15485000Y-4910000D01*
X15485000Y-4890000D02*
X15465000Y-4910000D01*
X15465000Y-14315000D02*
X15485000Y-14335000D01*
X15485000Y-14315000D02*
X15465000Y-14335000D01*
X15490000Y-4565000D02*
X15510000Y-4585000D01*
X15510000Y-4565000D02*
X15490000Y-4585000D01*
X15490000Y-6165000D02*
X15510000Y-6185000D01*
X15510000Y-6165000D02*
X15490000Y-6185000D01*
X15490000Y-13890000D02*
X15510000Y-13910000D01*
X15510000Y-13890000D02*
X15490000Y-13910000D01*
X15540000Y-15290000D02*
X15560000Y-15310000D01*
X15560000Y-15290000D02*
X15540000Y-15310000D01*
X15590000Y-8215000D02*
X15610000Y-8235000D01*
X15610000Y-8215000D02*
X15590000Y-8235000D01*
X15590000Y-9005300D02*
X15610000Y-9025300D01*
X15610000Y-9005300D02*
X15590000Y-9025300D01*
X15665000Y-14315000D02*
X15685000Y-14335000D01*
X15685000Y-14315000D02*
X15665000Y-14335000D01*
X15710000Y-8270000D02*
X15730000Y-8290000D01*
X15730000Y-8270000D02*
X15710000Y-8290000D01*
X15750000Y-2450000D02*
X15770000Y-2470000D01*
X15770000Y-2450000D02*
X15750000Y-2470000D01*
X15765000Y-2165000D02*
X15785000Y-2185000D01*
X15785000Y-2165000D02*
X15765000Y-2185000D01*
X15790000Y-8330000D02*
X15810000Y-8350000D01*
X15810000Y-8330000D02*
X15790000Y-8350000D01*
X15790000Y-11465000D02*
X15810000Y-11485000D01*
X15810000Y-11465000D02*
X15790000Y-11485000D01*
X15791391Y-8513609D02*
X15811391Y-8533609D01*
X15811391Y-8513609D02*
X15791391Y-8533609D01*
X15810000Y-5590000D02*
X15830000Y-5610000D01*
X15830000Y-5590000D02*
X15810000Y-5610000D01*
X15840000Y-4915000D02*
X15860000Y-4935000D01*
X15860000Y-4915000D02*
X15840000Y-4935000D01*
X15850000Y-8270000D02*
X15870000Y-8290000D01*
X15870000Y-8270000D02*
X15850000Y-8290000D01*
X15910000Y-5590000D02*
X15930000Y-5610000D01*
X15930000Y-5590000D02*
X15910000Y-5610000D01*
X15930000Y-8330000D02*
X15950000Y-8350000D01*
X15950000Y-8330000D02*
X15930000Y-8350000D01*
X15940000Y-9005300D02*
X15960000Y-9025300D01*
X15960000Y-9005300D02*
X15940000Y-9025300D01*
X15990000Y-4540000D02*
X16010000Y-4560000D01*
X16010000Y-4540000D02*
X15990000Y-4560000D01*
X15990000Y-5590000D02*
X16010000Y-5610000D01*
X16010000Y-5590000D02*
X15990000Y-5610000D01*
X15990000Y-8270000D02*
X16010000Y-8290000D01*
X16010000Y-8270000D02*
X15990000Y-8290000D01*
X16040000Y-4890000D02*
X16060000Y-4910000D01*
X16060000Y-4890000D02*
X16040000Y-4910000D01*
X16045000Y-8215000D02*
X16065000Y-8235000D01*
X16065000Y-8215000D02*
X16045000Y-8235000D01*
X16090000Y-5570000D02*
X16110000Y-5590000D01*
X16110000Y-5570000D02*
X16090000Y-5590000D01*
X16090000Y-12365000D02*
X16110000Y-12385000D01*
X16110000Y-12365000D02*
X16090000Y-12385000D01*
X16110000Y-5650000D02*
X16130000Y-5670000D01*
X16130000Y-5650000D02*
X16110000Y-5670000D01*
X16110000Y-8310000D02*
X16130000Y-8330000D01*
X16130000Y-8310000D02*
X16110000Y-8330000D01*
X16140000Y-14390000D02*
X16160000Y-14410000D01*
X16160000Y-14390000D02*
X16140000Y-14410000D01*
X16165000Y-12115000D02*
X16185000Y-12135000D01*
X16185000Y-12115000D02*
X16165000Y-12135000D01*
X16190000Y-8330000D02*
X16210000Y-8350000D01*
X16210000Y-8330000D02*
X16190000Y-8350000D01*
X16210000Y-5650000D02*
X16230000Y-5670000D01*
X16230000Y-5650000D02*
X16210000Y-5670000D01*
X16240000Y-11840000D02*
X16260000Y-11860000D01*
X16260000Y-11840000D02*
X16240000Y-11860000D01*
X16240000Y-14415000D02*
X16260000Y-14435000D01*
X16260000Y-14415000D02*
X16240000Y-14435000D01*
X16282000Y-13949000D02*
X16302000Y-13969000D01*
X16302000Y-13949000D02*
X16282000Y-13969000D01*
X16290000Y-5710000D02*
X16310000Y-5730000D01*
X16310000Y-5710000D02*
X16290000Y-5730000D01*
X16290000Y-11940000D02*
X16310000Y-11960000D01*
X16310000Y-11940000D02*
X16290000Y-11960000D01*
X16290000Y-12829000D02*
X16310000Y-12849000D01*
X16310000Y-12829000D02*
X16290000Y-12849000D01*
X16290000Y-12916000D02*
X16310000Y-12936000D01*
X16310000Y-12916000D02*
X16290000Y-12936000D01*
X16290000Y-12993000D02*
X16310000Y-13013000D01*
X16310000Y-12993000D02*
X16290000Y-13013000D01*
X16315000Y-14440000D02*
X16335000Y-14460000D01*
X16335000Y-14440000D02*
X16315000Y-14460000D01*
X16330687Y-12772038D02*
X16350687Y-12792038D01*
X16350687Y-12772038D02*
X16330687Y-12792038D01*
X16340000Y-12015000D02*
X16360000Y-12035000D01*
X16360000Y-12015000D02*
X16340000Y-12035000D01*
X16370000Y-6810000D02*
X16390000Y-6830000D01*
X16390000Y-6810000D02*
X16370000Y-6830000D01*
X16430000Y-12030000D02*
X16450000Y-12050000D01*
X16450000Y-12030000D02*
X16430000Y-12050000D01*
X16440000Y-11290000D02*
X16460000Y-11310000D01*
X16460000Y-11290000D02*
X16440000Y-11310000D01*
X16548000Y-13032000D02*
X16568000Y-13052000D01*
X16568000Y-13032000D02*
X16548000Y-13052000D01*
X16609500Y-13070500D02*
X16629500Y-13090500D01*
X16629500Y-13070500D02*
X16609500Y-13090500D01*
X16610000Y-8530000D02*
X16630000Y-8550000D01*
X16630000Y-8530000D02*
X16610000Y-8550000D01*
X16665000Y-15265000D02*
X16685000Y-15285000D01*
X16685000Y-15265000D02*
X16665000Y-15285000D01*
X16690000Y-8610000D02*
X16710000Y-8630000D01*
X16710000Y-8610000D02*
X16690000Y-8630000D01*
X16691391Y-14813609D02*
X16711391Y-14833609D01*
X16711391Y-14813609D02*
X16691391Y-14833609D01*
X16698000Y-13064000D02*
X16718000Y-13084000D01*
X16718000Y-13064000D02*
X16698000Y-13084000D01*
X16740000Y-11065000D02*
X16760000Y-11085000D01*
X16760000Y-11065000D02*
X16740000Y-11085000D01*
X16740000Y-14890000D02*
X16760000Y-14910000D01*
X16760000Y-14890000D02*
X16740000Y-14910000D01*
X16770000Y-8630000D02*
X16790000Y-8650000D01*
X16790000Y-8630000D02*
X16770000Y-8650000D01*
X16770000Y-13090000D02*
X16790000Y-13110000D01*
X16790000Y-13090000D02*
X16770000Y-13110000D01*
X16790000Y-14615000D02*
X16810000Y-14635000D01*
X16810000Y-14615000D02*
X16790000Y-14635000D01*
X16865000Y-14945000D02*
X16885000Y-14965000D01*
X16885000Y-14945000D02*
X16865000Y-14965000D01*
X16870000Y-8650000D02*
X16890000Y-8670000D01*
X16890000Y-8650000D02*
X16870000Y-8670000D01*
X16870000Y-13030000D02*
X16890000Y-13050000D01*
X16890000Y-13030000D02*
X16870000Y-13050000D01*
X16915000Y-14690000D02*
X16935000Y-14710000D01*
X16935000Y-14690000D02*
X16915000Y-14710000D01*
X16930000Y-13084000D02*
X16950000Y-13104000D01*
X16950000Y-13084000D02*
X16930000Y-13104000D01*
X16950000Y-8670000D02*
X16970000Y-8690000D01*
X16970000Y-8670000D02*
X16950000Y-8690000D01*
X17010000Y-13052000D02*
X17030000Y-13072000D01*
X17030000Y-13052000D02*
X17010000Y-13072000D01*
X17065000Y-14440000D02*
X17085000Y-14460000D01*
X17085000Y-14440000D02*
X17065000Y-14460000D01*
X17070000Y-8650000D02*
X17090000Y-8670000D01*
X17090000Y-8650000D02*
X17070000Y-8670000D01*
X17070000Y-13110000D02*
X17090000Y-13130000D01*
X17090000Y-13110000D02*
X17070000Y-13130000D01*
X17115000Y-13790000D02*
X17135000Y-13810000D01*
X17135000Y-13790000D02*
X17115000Y-13810000D01*
X17140000Y-11065000D02*
X17160000Y-11085000D01*
X17160000Y-11065000D02*
X17140000Y-11085000D01*
X17140000Y-11215000D02*
X17160000Y-11235000D01*
X17160000Y-11215000D02*
X17140000Y-11235000D01*
X17150000Y-8670000D02*
X17170000Y-8690000D01*
X17170000Y-8670000D02*
X17150000Y-8690000D01*
X17190000Y-11390000D02*
X17210000Y-11410000D01*
X17210000Y-11390000D02*
X17190000Y-11410000D01*
X17190000Y-13640000D02*
X17210000Y-13660000D01*
X17210000Y-13640000D02*
X17190000Y-13660000D01*
X17190000Y-13740000D02*
X17210000Y-13760000D01*
X17210000Y-13740000D02*
X17190000Y-13760000D01*
X17190000Y-14515000D02*
X17210000Y-14535000D01*
X17210000Y-14515000D02*
X17190000Y-14535000D01*
X17210000Y-13550000D02*
X17230000Y-13570000D01*
X17230000Y-13550000D02*
X17210000Y-13570000D01*
X17215000Y-11290000D02*
X17235000Y-11310000D01*
X17235000Y-11290000D02*
X17215000Y-11310000D01*
X17230000Y-8670000D02*
X17250000Y-8690000D01*
X17250000Y-8670000D02*
X17230000Y-8690000D01*
X17240000Y-13315000D02*
X17260000Y-13335000D01*
X17260000Y-13315000D02*
X17240000Y-13335000D01*
X17265000Y-12265000D02*
X17285000Y-12285000D01*
X17285000Y-12265000D02*
X17265000Y-12285000D01*
X17265000Y-14440000D02*
X17285000Y-14460000D01*
X17285000Y-14440000D02*
X17265000Y-14460000D01*
X17310000Y-8690000D02*
X17330000Y-8710000D01*
X17330000Y-8690000D02*
X17310000Y-8710000D01*
X17310000Y-8810000D02*
X17330000Y-8830000D01*
X17330000Y-8810000D02*
X17310000Y-8830000D01*
X17315000Y-13265000D02*
X17335000Y-13285000D01*
X17335000Y-13265000D02*
X17315000Y-13285000D01*
X17390000Y-13240000D02*
X17410000Y-13260000D01*
X17410000Y-13240000D02*
X17390000Y-13260000D01*
X17390000Y-13670000D02*
X17410000Y-13690000D01*
X17410000Y-13670000D02*
X17390000Y-13690000D01*
X17465000Y-13190000D02*
X17485000Y-13210000D01*
X17485000Y-13190000D02*
X17465000Y-13210000D01*
X17540000Y-12015000D02*
X17560000Y-12035000D01*
X17560000Y-12015000D02*
X17540000Y-12035000D01*
X17610000Y-8130000D02*
X17630000Y-8150000D01*
X17630000Y-8130000D02*
X17610000Y-8150000D01*
X17640000Y-14615000D02*
X17660000Y-14635000D01*
X17660000Y-14615000D02*
X17640000Y-14635000D01*
X17715000Y-14415000D02*
X17735000Y-14435000D01*
X17735000Y-14415000D02*
X17715000Y-14435000D01*
X17865000Y-12490000D02*
X17885000Y-12510000D01*
X17885000Y-12490000D02*
X17865000Y-12510000D01*
X17940000Y-13335000D02*
X17960000Y-13355000D01*
X17960000Y-13335000D02*
X17940000Y-13355000D01*
X17965000Y-12565000D02*
X17985000Y-12585000D01*
X17985000Y-12565000D02*
X17965000Y-12585000D01*
X18040000Y-12665000D02*
X18060000Y-12685000D01*
X18060000Y-12665000D02*
X18040000Y-12685000D01*
X18065000Y-13190000D02*
X18085000Y-13210000D01*
X18085000Y-13190000D02*
X18065000Y-13210000D01*
X18090000Y-13515000D02*
X18110000Y-13535000D01*
X18110000Y-13515000D02*
X18090000Y-13535000D01*
X18128000Y-13590000D02*
X18148000Y-13610000D01*
X18148000Y-13590000D02*
X18128000Y-13610000D01*
X18140000Y-13265000D02*
X18160000Y-13285000D01*
X18160000Y-13265000D02*
X18140000Y-13285000D01*
X18140000Y-13840000D02*
X18160000Y-13860000D01*
X18160000Y-13840000D02*
X18140000Y-13860000D01*
X18315000Y-11265000D02*
X18335000Y-11285000D01*
X18335000Y-11265000D02*
X18315000Y-11285000D01*
X18340000Y-13040000D02*
X18360000Y-13060000D01*
X18360000Y-13040000D02*
X18340000Y-13060000D01*
X18450000Y-10530000D02*
X18470000Y-10550000D01*
X18470000Y-10530000D02*
X18450000Y-10550000D01*
X18510000Y-8550000D02*
X18530000Y-8570000D01*
X18530000Y-8550000D02*
X18510000Y-8570000D01*
X18530000Y-10490000D02*
X18550000Y-10510000D01*
X18550000Y-10490000D02*
X18530000Y-10510000D01*
X18570000Y-8470000D02*
X18590000Y-8490000D01*
X18590000Y-8470000D02*
X18570000Y-8490000D01*
X18590000Y-10450000D02*
X18610000Y-10470000D01*
X18610000Y-10450000D02*
X18590000Y-10470000D01*
X18590000Y-15515000D02*
X18610000Y-15535000D01*
X18610000Y-15515000D02*
X18590000Y-15535000D01*
X18610000Y-5490000D02*
X18630000Y-5510000D01*
X18630000Y-5490000D02*
X18610000Y-5510000D01*
X18630000Y-5370000D02*
X18650000Y-5390000D01*
X18650000Y-5370000D02*
X18630000Y-5390000D01*
X18630000Y-8410000D02*
X18650000Y-8430000D01*
X18650000Y-8410000D02*
X18630000Y-8430000D01*
X18665000Y-11090000D02*
X18685000Y-11110000D01*
X18685000Y-11090000D02*
X18665000Y-11110000D01*
X18665000Y-13015000D02*
X18685000Y-13035000D01*
X18685000Y-13015000D02*
X18665000Y-13035000D01*
X18665000Y-13715000D02*
X18685000Y-13735000D01*
X18685000Y-13715000D02*
X18665000Y-13735000D01*
X18670000Y-10410000D02*
X18690000Y-10430000D01*
X18690000Y-10410000D02*
X18670000Y-10430000D01*
X18690000Y-5510000D02*
X18710000Y-5530000D01*
X18710000Y-5510000D02*
X18690000Y-5530000D01*
X18690000Y-8350000D02*
X18710000Y-8370000D01*
X18710000Y-8350000D02*
X18690000Y-8370000D01*
X18730000Y-5590000D02*
X18750000Y-5610000D01*
X18750000Y-5590000D02*
X18730000Y-5610000D01*
X18750000Y-8310000D02*
X18770000Y-8330000D01*
X18770000Y-8310000D02*
X18750000Y-8330000D01*
X18770000Y-10390000D02*
X18790000Y-10410000D01*
X18790000Y-10390000D02*
X18770000Y-10410000D01*
X18830000Y-5590000D02*
X18850000Y-5610000D01*
X18850000Y-5590000D02*
X18830000Y-5610000D01*
X18830000Y-8410000D02*
X18850000Y-8430000D01*
X18850000Y-8410000D02*
X18830000Y-8430000D01*
X18870000Y-5650000D02*
X18890000Y-5670000D01*
X18890000Y-5650000D02*
X18870000Y-5670000D01*
X18870000Y-10330000D02*
X18890000Y-10350000D01*
X18890000Y-10330000D02*
X18870000Y-10350000D01*
X18940000Y-12115000D02*
X18960000Y-12135000D01*
X18960000Y-12115000D02*
X18940000Y-12135000D01*
X18950000Y-10290000D02*
X18970000Y-10310000D01*
X18970000Y-10290000D02*
X18950000Y-10310000D01*
X18965000Y-11090000D02*
X18985000Y-11110000D01*
X18985000Y-11090000D02*
X18965000Y-11110000D01*
X18965000Y-11290000D02*
X18985000Y-11310000D01*
X18985000Y-11290000D02*
X18965000Y-11310000D01*
X18990000Y-11415000D02*
X19010000Y-11435000D01*
X19010000Y-11415000D02*
X18990000Y-11435000D01*
X19015000Y-11490000D02*
X19035000Y-11510000D01*
X19035000Y-11490000D02*
X19015000Y-11510000D01*
X19015000Y-12190000D02*
X19035000Y-12210000D01*
X19035000Y-12190000D02*
X19015000Y-12210000D01*
X19050000Y-10270000D02*
X19070000Y-10290000D01*
X19070000Y-10270000D02*
X19050000Y-10290000D01*
X19070000Y-5630000D02*
X19090000Y-5650000D01*
X19090000Y-5630000D02*
X19070000Y-5650000D01*
X19070000Y-8330000D02*
X19090000Y-8350000D01*
X19090000Y-8330000D02*
X19070000Y-8350000D01*
X19110000Y-11610000D02*
X19130000Y-11630000D01*
X19130000Y-11610000D02*
X19110000Y-11630000D01*
X19130000Y-8270000D02*
X19150000Y-8290000D01*
X19150000Y-8270000D02*
X19130000Y-8290000D01*
X19150000Y-5590000D02*
X19170000Y-5610000D01*
X19170000Y-5590000D02*
X19150000Y-5610000D01*
X19150000Y-10230000D02*
X19170000Y-10250000D01*
X19170000Y-10230000D02*
X19150000Y-10250000D01*
X19150000Y-11670000D02*
X19170000Y-11690000D01*
X19170000Y-11670000D02*
X19150000Y-11690000D01*
X19190000Y-8330000D02*
X19210000Y-8350000D01*
X19210000Y-8330000D02*
X19190000Y-8350000D01*
X19210000Y-11730000D02*
X19230000Y-11750000D01*
X19230000Y-11730000D02*
X19210000Y-11750000D01*
X19230000Y-5590000D02*
X19250000Y-5610000D01*
X19250000Y-5590000D02*
X19230000Y-5610000D01*
X19250000Y-8290000D02*
X19270000Y-8310000D01*
X19270000Y-8290000D02*
X19250000Y-8310000D01*
X19250000Y-10190000D02*
X19270000Y-10210000D01*
X19270000Y-10190000D02*
X19250000Y-10210000D01*
X19270000Y-11790000D02*
X19290000Y-11810000D01*
X19290000Y-11790000D02*
X19270000Y-11810000D01*
X19290000Y-14815000D02*
X19310000Y-14835000D01*
X19310000Y-14815000D02*
X19290000Y-14835000D01*
X19310000Y-5590000D02*
X19330000Y-5610000D01*
X19330000Y-5590000D02*
X19310000Y-5610000D01*
X19314616Y-8263077D02*
X19334616Y-8283077D01*
X19334616Y-8263077D02*
X19314616Y-8283077D01*
X19340000Y-4565000D02*
X19360000Y-4585000D01*
X19360000Y-4565000D02*
X19340000Y-4585000D01*
X19340000Y-4840000D02*
X19360000Y-4860000D01*
X19360000Y-4840000D02*
X19340000Y-4860000D01*
X19350000Y-10150000D02*
X19370000Y-10170000D01*
X19370000Y-10150000D02*
X19350000Y-10170000D01*
X19350000Y-11850000D02*
X19370000Y-11870000D01*
X19370000Y-11850000D02*
X19350000Y-11870000D01*
X19365000Y-9015000D02*
X19385000Y-9035000D01*
X19385000Y-9015000D02*
X19365000Y-9035000D01*
X19390000Y-8265000D02*
X19410000Y-8285000D01*
X19410000Y-8265000D02*
X19390000Y-8285000D01*
X19410000Y-5590000D02*
X19430000Y-5610000D01*
X19430000Y-5590000D02*
X19410000Y-5610000D01*
X19430000Y-11870000D02*
X19450000Y-11890000D01*
X19450000Y-11870000D02*
X19430000Y-11890000D01*
X19450000Y-8330000D02*
X19470000Y-8350000D01*
X19470000Y-8330000D02*
X19450000Y-8350000D01*
X19450000Y-10110000D02*
X19470000Y-10130000D01*
X19470000Y-10110000D02*
X19450000Y-10130000D01*
X19490000Y-5630000D02*
X19510000Y-5650000D01*
X19510000Y-5630000D02*
X19490000Y-5650000D01*
X19510000Y-11890000D02*
X19530000Y-11910000D01*
X19530000Y-11890000D02*
X19510000Y-11910000D01*
X19530000Y-8330000D02*
X19550000Y-8350000D01*
X19550000Y-8330000D02*
X19530000Y-8350000D01*
X19570000Y-10050000D02*
X19590000Y-10070000D01*
X19590000Y-10050000D02*
X19570000Y-10070000D01*
X19590000Y-8290000D02*
X19610000Y-8310000D01*
X19610000Y-8290000D02*
X19590000Y-8310000D01*
X19590000Y-11910000D02*
X19610000Y-11930000D01*
X19610000Y-11910000D02*
X19590000Y-11930000D01*
X19610000Y-5630000D02*
X19630000Y-5650000D01*
X19630000Y-5630000D02*
X19610000Y-5650000D01*
X19670000Y-8310000D02*
X19690000Y-8330000D01*
X19690000Y-8310000D02*
X19670000Y-8330000D01*
X19670000Y-10010000D02*
X19690000Y-10030000D01*
X19690000Y-10010000D02*
X19670000Y-10030000D01*
X19720000Y-9015000D02*
X19740000Y-9035000D01*
X19740000Y-9015000D02*
X19720000Y-9035000D01*
X19730000Y-5630000D02*
X19750000Y-5650000D01*
X19750000Y-5630000D02*
X19730000Y-5650000D01*
X19740000Y-14865000D02*
X19760000Y-14885000D01*
X19760000Y-14865000D02*
X19740000Y-14885000D01*
X19750000Y-8310000D02*
X19770000Y-8330000D01*
X19770000Y-8310000D02*
X19750000Y-8330000D01*
X19770000Y-9990000D02*
X19790000Y-10010000D01*
X19790000Y-9990000D02*
X19770000Y-10010000D01*
X19815000Y-4865000D02*
X19835000Y-4885000D01*
X19835000Y-4865000D02*
X19815000Y-4885000D01*
X19832000Y-9015000D02*
X19852000Y-9035000D01*
X19852000Y-9015000D02*
X19832000Y-9035000D01*
X19840000Y-8265000D02*
X19860000Y-8285000D01*
X19860000Y-8265000D02*
X19840000Y-8285000D01*
X19850000Y-5630000D02*
X19870000Y-5650000D01*
X19870000Y-5630000D02*
X19850000Y-5650000D01*
X19865000Y-4565000D02*
X19885000Y-4585000D01*
X19885000Y-4565000D02*
X19865000Y-4585000D01*
X19870000Y-9950000D02*
X19890000Y-9970000D01*
X19890000Y-9950000D02*
X19870000Y-9970000D01*
X19890000Y-14915000D02*
X19910000Y-14935000D01*
X19910000Y-14915000D02*
X19890000Y-14935000D01*
X19910000Y-8370000D02*
X19930000Y-8390000D01*
X19930000Y-8370000D02*
X19910000Y-8390000D01*
X19970000Y-5630000D02*
X19990000Y-5650000D01*
X19990000Y-5630000D02*
X19970000Y-5650000D01*
X19970000Y-9910000D02*
X19990000Y-9930000D01*
X19990000Y-9910000D02*
X19970000Y-9930000D01*
X19990000Y-8410000D02*
X20010000Y-8430000D01*
X20010000Y-8410000D02*
X19990000Y-8430000D01*
X20043592Y-9852136D02*
X20063592Y-9872136D01*
X20063592Y-9852136D02*
X20043592Y-9872136D01*
X20050000Y-5570000D02*
X20070000Y-5590000D01*
X20070000Y-5570000D02*
X20050000Y-5590000D01*
X20090000Y-8370000D02*
X20110000Y-8390000D01*
X20110000Y-8370000D02*
X20090000Y-8390000D01*
X20090000Y-11290000D02*
X20110000Y-11310000D01*
X20110000Y-11290000D02*
X20090000Y-11310000D01*
X20090000Y-12040000D02*
X20110000Y-12060000D01*
X20110000Y-12040000D02*
X20090000Y-12060000D01*
X20110000Y-5630000D02*
X20130000Y-5650000D01*
X20130000Y-5630000D02*
X20110000Y-5650000D01*
X20110000Y-9830000D02*
X20130000Y-9850000D01*
X20130000Y-9830000D02*
X20110000Y-9850000D01*
X20170000Y-5570000D02*
X20190000Y-5590000D01*
X20190000Y-5570000D02*
X20170000Y-5590000D01*
X20170000Y-8350000D02*
X20190000Y-8370000D01*
X20190000Y-8350000D02*
X20170000Y-8370000D01*
X20215000Y-14590000D02*
X20235000Y-14610000D01*
X20235000Y-14590000D02*
X20215000Y-14610000D01*
X20230000Y-9830000D02*
X20250000Y-9850000D01*
X20250000Y-9830000D02*
X20230000Y-9850000D01*
X20250000Y-5510000D02*
X20270000Y-5530000D01*
X20270000Y-5510000D02*
X20250000Y-5530000D01*
X20365000Y-11065000D02*
X20385000Y-11085000D01*
X20385000Y-11065000D02*
X20365000Y-11085000D01*
X20390000Y-8770000D02*
X20410000Y-8790000D01*
X20410000Y-8770000D02*
X20390000Y-8790000D01*
X20410000Y-10110000D02*
X20430000Y-10130000D01*
X20430000Y-10110000D02*
X20410000Y-10130000D01*
X20510000Y-8170000D02*
X20530000Y-8190000D01*
X20530000Y-8170000D02*
X20510000Y-8190000D01*
X20510000Y-10050000D02*
X20530000Y-10070000D01*
X20530000Y-10050000D02*
X20510000Y-10070000D01*
X20530000Y-9870000D02*
X20550000Y-9890000D01*
X20550000Y-9870000D02*
X20530000Y-9890000D01*
X20810000Y-8150000D02*
X20830000Y-8170000D01*
X20830000Y-8150000D02*
X20810000Y-8170000D01*
X20870000Y-8090000D02*
X20890000Y-8110000D01*
X20890000Y-8090000D02*
X20870000Y-8110000D01*
X20950000Y-5210000D02*
X20970000Y-5230000D01*
X20970000Y-5210000D02*
X20950000Y-5230000D01*
X20950000Y-8090000D02*
X20970000Y-8110000D01*
X20970000Y-8090000D02*
X20950000Y-8110000D01*
X21050000Y-8470000D02*
X21070000Y-8490000D01*
X21070000Y-8470000D02*
X21050000Y-8490000D01*
X21110000Y-8430000D02*
X21130000Y-8450000D01*
X21130000Y-8430000D02*
X21110000Y-8450000D01*
X21116000Y-12744000D02*
X21136000Y-12764000D01*
X21136000Y-12744000D02*
X21116000Y-12764000D01*
X21170000Y-8390000D02*
X21190000Y-8410000D01*
X21190000Y-8390000D02*
X21170000Y-8410000D01*
X21190000Y-5410000D02*
X21210000Y-5430000D01*
X21210000Y-5410000D02*
X21190000Y-5430000D01*
X21190000Y-5490000D02*
X21210000Y-5510000D01*
X21210000Y-5490000D02*
X21190000Y-5510000D01*
X21225100Y-8334900D02*
X21245100Y-8354900D01*
X21245100Y-8334900D02*
X21225100Y-8354900D01*
X21250000Y-4430000D02*
X21270000Y-4450000D01*
X21270000Y-4430000D02*
X21250000Y-4450000D01*
X21250000Y-5530000D02*
X21270000Y-5550000D01*
X21270000Y-5530000D02*
X21250000Y-5550000D01*
X21270000Y-5610000D02*
X21290000Y-5630000D01*
X21290000Y-5610000D02*
X21270000Y-5630000D01*
X21284000Y-12743000D02*
X21304000Y-12763000D01*
X21304000Y-12743000D02*
X21284000Y-12763000D01*
X21290000Y-8290000D02*
X21310000Y-8310000D01*
X21310000Y-8290000D02*
X21290000Y-8310000D01*
X21330000Y-5650000D02*
X21350000Y-5670000D01*
X21350000Y-5650000D02*
X21330000Y-5670000D01*
X21350000Y-8230000D02*
X21370000Y-8250000D01*
X21370000Y-8230000D02*
X21350000Y-8250000D01*
X21370000Y-9750000D02*
X21390000Y-9770000D01*
X21390000Y-9750000D02*
X21370000Y-9770000D01*
X21410000Y-8170000D02*
X21430000Y-8190000D01*
X21430000Y-8170000D02*
X21410000Y-8190000D01*
X21430000Y-5650000D02*
X21450000Y-5670000D01*
X21450000Y-5650000D02*
X21430000Y-5670000D01*
X21430000Y-9710000D02*
X21450000Y-9730000D01*
X21450000Y-9710000D02*
X21430000Y-9730000D01*
X21470000Y-8130000D02*
X21490000Y-8150000D01*
X21490000Y-8130000D02*
X21470000Y-8150000D01*
X21490000Y-9670000D02*
X21510000Y-9690000D01*
X21510000Y-9670000D02*
X21490000Y-9690000D01*
X21510000Y-12750000D02*
X21530000Y-12770000D01*
X21530000Y-12750000D02*
X21510000Y-12770000D01*
X21530000Y-5650000D02*
X21550000Y-5670000D01*
X21550000Y-5650000D02*
X21530000Y-5670000D01*
X21530000Y-8050000D02*
X21550000Y-8070000D01*
X21550000Y-8050000D02*
X21530000Y-8070000D01*
X21550000Y-9610000D02*
X21570000Y-9630000D01*
X21570000Y-9610000D02*
X21550000Y-9630000D01*
X21590000Y-10490000D02*
X21610000Y-10510000D01*
X21610000Y-10490000D02*
X21590000Y-10510000D01*
X21590000Y-10890000D02*
X21610000Y-10910000D01*
X21610000Y-10890000D02*
X21590000Y-10910000D01*
X21610000Y-5650000D02*
X21630000Y-5670000D01*
X21630000Y-5650000D02*
X21610000Y-5670000D01*
X21610000Y-9570000D02*
X21630000Y-9590000D01*
X21630000Y-9570000D02*
X21610000Y-9590000D01*
X21610000Y-12750000D02*
X21630000Y-12770000D01*
X21630000Y-12750000D02*
X21610000Y-12770000D01*
X21630000Y-8290000D02*
X21650000Y-8310000D01*
X21650000Y-8290000D02*
X21630000Y-8310000D01*
X21650000Y-12830000D02*
X21670000Y-12850000D01*
X21670000Y-12830000D02*
X21650000Y-12850000D01*
X21670000Y-9530000D02*
X21690000Y-9550000D01*
X21690000Y-9530000D02*
X21670000Y-9550000D01*
X21670000Y-10790000D02*
X21690000Y-10810000D01*
X21690000Y-10790000D02*
X21670000Y-10810000D01*
X21670000Y-12910000D02*
X21690000Y-12930000D01*
X21690000Y-12910000D02*
X21670000Y-12930000D01*
X21690000Y-10710000D02*
X21710000Y-10730000D01*
X21710000Y-10710000D02*
X21690000Y-10730000D01*
X21690000Y-11530000D02*
X21710000Y-11550000D01*
X21710000Y-11530000D02*
X21690000Y-11550000D01*
X21730000Y-5610000D02*
X21750000Y-5630000D01*
X21750000Y-5610000D02*
X21730000Y-5630000D01*
X21730000Y-9485900D02*
X21750000Y-9505900D01*
X21750000Y-9485900D02*
X21730000Y-9505900D01*
X21750000Y-11470000D02*
X21770000Y-11490000D01*
X21770000Y-11470000D02*
X21750000Y-11490000D01*
X21812912Y-11439306D02*
X21832912Y-11459306D01*
X21832912Y-11439306D02*
X21812912Y-11459306D01*
X21815000Y-4890000D02*
X21835000Y-4910000D01*
X21835000Y-4890000D02*
X21815000Y-4910000D01*
X21830000Y-5610000D02*
X21850000Y-5630000D01*
X21850000Y-5610000D02*
X21830000Y-5630000D01*
X21830000Y-9470000D02*
X21850000Y-9490000D01*
X21850000Y-9470000D02*
X21830000Y-9490000D01*
X21870000Y-11370000D02*
X21890000Y-11390000D01*
X21890000Y-11370000D02*
X21870000Y-11390000D01*
X21890000Y-4540000D02*
X21910000Y-4560000D01*
X21910000Y-4540000D02*
X21890000Y-4560000D01*
X21890000Y-12490000D02*
X21910000Y-12510000D01*
X21910000Y-12490000D02*
X21890000Y-12510000D01*
X21920666Y-8659334D02*
X21940666Y-8679334D01*
X21940666Y-8659334D02*
X21920666Y-8679334D01*
X21940000Y-8290000D02*
X21960000Y-8310000D01*
X21960000Y-8290000D02*
X21940000Y-8310000D01*
X21950000Y-9470000D02*
X21970000Y-9490000D01*
X21970000Y-9470000D02*
X21950000Y-9490000D01*
X22030000Y-5550000D02*
X22050000Y-5570000D01*
X22050000Y-5550000D02*
X22030000Y-5570000D01*
X22030000Y-8390000D02*
X22050000Y-8410000D01*
X22050000Y-8390000D02*
X22030000Y-8410000D01*
X22030000Y-9470000D02*
X22050000Y-9490000D01*
X22050000Y-9470000D02*
X22030000Y-9490000D01*
X22030000Y-12150000D02*
X22050000Y-12170000D01*
X22050000Y-12150000D02*
X22030000Y-12170000D01*
X22065000Y-14590000D02*
X22085000Y-14610000D01*
X22085000Y-14590000D02*
X22065000Y-14610000D01*
X22090000Y-8350000D02*
X22110000Y-8370000D01*
X22110000Y-8350000D02*
X22090000Y-8370000D01*
X22110000Y-5490000D02*
X22130000Y-5510000D01*
X22130000Y-5490000D02*
X22110000Y-5510000D01*
X22110000Y-9470000D02*
X22130000Y-9490000D01*
X22130000Y-9470000D02*
X22110000Y-9490000D01*
X22110000Y-12110000D02*
X22130000Y-12130000D01*
X22130000Y-12110000D02*
X22110000Y-12130000D01*
X22165000Y-4890000D02*
X22185000Y-4910000D01*
X22185000Y-4890000D02*
X22165000Y-4910000D01*
X22182746Y-9470436D02*
X22202746Y-9490436D01*
X22202746Y-9470436D02*
X22182746Y-9490436D01*
X22190000Y-5610000D02*
X22210000Y-5630000D01*
X22210000Y-5610000D02*
X22190000Y-5630000D01*
X22190000Y-8390000D02*
X22210000Y-8410000D01*
X22210000Y-8390000D02*
X22190000Y-8410000D01*
X22190000Y-12070000D02*
X22210000Y-12090000D01*
X22210000Y-12070000D02*
X22190000Y-12090000D01*
X22250000Y-12010000D02*
X22270000Y-12030000D01*
X22270000Y-12010000D02*
X22250000Y-12030000D01*
X22252620Y-9466241D02*
X22272620Y-9486241D01*
X22272620Y-9466241D02*
X22252620Y-9486241D01*
X22270000Y-5570000D02*
X22290000Y-5590000D01*
X22290000Y-5570000D02*
X22270000Y-5590000D01*
X22270000Y-8370000D02*
X22290000Y-8390000D01*
X22290000Y-8370000D02*
X22270000Y-8390000D01*
X22321038Y-9481038D02*
X22341038Y-9501038D01*
X22341038Y-9481038D02*
X22321038Y-9501038D01*
X22330000Y-8330000D02*
X22350000Y-8350000D01*
X22350000Y-8330000D02*
X22330000Y-8350000D01*
X22340000Y-4540000D02*
X22360000Y-4560000D01*
X22360000Y-4540000D02*
X22340000Y-4560000D01*
X22340000Y-4940000D02*
X22360000Y-4960000D01*
X22360000Y-4940000D02*
X22340000Y-4960000D01*
X22340000Y-8690000D02*
X22360000Y-8710000D01*
X22360000Y-8690000D02*
X22340000Y-8710000D01*
X22350000Y-5510000D02*
X22370000Y-5530000D01*
X22370000Y-5510000D02*
X22350000Y-5530000D01*
X22400000Y-9480000D02*
X22420000Y-9500000D01*
X22420000Y-9480000D02*
X22400000Y-9500000D01*
X22415000Y-8290000D02*
X22435000Y-8310000D01*
X22435000Y-8290000D02*
X22415000Y-8310000D01*
X22420000Y-9015000D02*
X22440000Y-9035000D01*
X22440000Y-9015000D02*
X22420000Y-9035000D01*
X22470000Y-5510000D02*
X22490000Y-5530000D01*
X22490000Y-5510000D02*
X22470000Y-5530000D01*
X22470000Y-8370000D02*
X22490000Y-8390000D01*
X22490000Y-8370000D02*
X22470000Y-8390000D01*
X22490000Y-9470000D02*
X22510000Y-9490000D01*
X22510000Y-9470000D02*
X22490000Y-9490000D01*
X22570000Y-5550000D02*
X22590000Y-5570000D01*
X22590000Y-5550000D02*
X22570000Y-5570000D01*
X22570000Y-8410000D02*
X22590000Y-8430000D01*
X22590000Y-8410000D02*
X22570000Y-8430000D01*
X22570000Y-9470000D02*
X22590000Y-9490000D01*
X22590000Y-9470000D02*
X22570000Y-9490000D01*
X22630000Y-5430000D02*
X22650000Y-5450000D01*
X22650000Y-5430000D02*
X22630000Y-5450000D01*
X22670000Y-8350000D02*
X22690000Y-8370000D01*
X22690000Y-8350000D02*
X22670000Y-8370000D01*
X22715000Y-10190000D02*
X22735000Y-10210000D01*
X22735000Y-10190000D02*
X22715000Y-10210000D01*
X22715000Y-13165000D02*
X22735000Y-13185000D01*
X22735000Y-13165000D02*
X22715000Y-13185000D01*
X22765000Y-14465000D02*
X22785000Y-14485000D01*
X22785000Y-14465000D02*
X22765000Y-14485000D01*
X22915000Y-8865000D02*
X22935000Y-8885000D01*
X22935000Y-8865000D02*
X22915000Y-8885000D01*
X22965000Y-8440000D02*
X22985000Y-8460000D01*
X22985000Y-8440000D02*
X22965000Y-8460000D01*
X22965000Y-8640000D02*
X22985000Y-8660000D01*
X22985000Y-8640000D02*
X22965000Y-8660000D01*
X22965000Y-11015000D02*
X22985000Y-11035000D01*
X22985000Y-11015000D02*
X22965000Y-11035000D01*
X22990000Y-9265000D02*
X23010000Y-9285000D01*
X23010000Y-9265000D02*
X22990000Y-9285000D01*
X22990000Y-12790000D02*
X23010000Y-12810000D01*
X23010000Y-12790000D02*
X22990000Y-12810000D01*
X22990000Y-14690000D02*
X23010000Y-14710000D01*
X23010000Y-14690000D02*
X22990000Y-14710000D01*
X23040000Y-13790000D02*
X23060000Y-13810000D01*
X23060000Y-13790000D02*
X23040000Y-13810000D01*
X23090000Y-11240000D02*
X23110000Y-11260000D01*
X23110000Y-11240000D02*
X23090000Y-11260000D01*
X23240000Y-7165000D02*
X23260000Y-7185000D01*
X23260000Y-7165000D02*
X23240000Y-7185000D01*
X23290000Y-2940000D02*
X23310000Y-2960000D01*
X23310000Y-2940000D02*
X23290000Y-2960000D01*
X23330000Y-3810000D02*
X23350000Y-3830000D01*
X23350000Y-3810000D02*
X23330000Y-3830000D01*
X23490000Y-4040000D02*
X23510000Y-4060000D01*
X23510000Y-4040000D02*
X23490000Y-4060000D01*
X23665000Y-5590000D02*
X23685000Y-5610000D01*
X23685000Y-5590000D02*
X23665000Y-5610000D01*
X7865000Y-7900000D02*
G75*
G02*
X7835000Y-7900000I-15000J0D01*
G01*
X7835000Y-7900000D02*
G75*
G02*
X7865000Y-7900000I15000J0D01*
G01*
X9365000Y-14125000D02*
G75*
G02*
X9335000Y-14125000I-15000J0D01*
G01*
X9335000Y-14125000D02*
G75*
G02*
X9365000Y-14125000I15000J0D01*
G01*
X9736967Y-14253033D02*
G75*
G02*
X9706967Y-14253033I-15000J0D01*
G01*
X9706967Y-14253033D02*
G75*
G02*
X9736967Y-14253033I15000J0D01*
G01*
X10590000Y-7775000D02*
G75*
G02*
X10560000Y-7775000I-15000J0D01*
G01*
X10560000Y-7775000D02*
G75*
G02*
X10590000Y-7775000I15000J0D01*
G01*
X10615000Y-7975000D02*
G75*
G02*
X10585000Y-7975000I-15000J0D01*
G01*
X10585000Y-7975000D02*
G75*
G02*
X10615000Y-7975000I15000J0D01*
G01*
X10615000Y-8225000D02*
G75*
G02*
X10585000Y-8225000I-15000J0D01*
G01*
X10585000Y-8225000D02*
G75*
G02*
X10615000Y-8225000I15000J0D01*
G01*
X12840000Y-7975000D02*
G75*
G02*
X12810000Y-7975000I-15000J0D01*
G01*
X12810000Y-7975000D02*
G75*
G02*
X12840000Y-7975000I15000J0D01*
G01*
X14265000Y-15500000D02*
G75*
G02*
X14235000Y-15500000I-15000J0D01*
G01*
X14235000Y-15500000D02*
G75*
G02*
X14265000Y-15500000I15000J0D01*
G01*
X14790000Y-14075000D02*
G75*
G02*
X14760000Y-14075000I-15000J0D01*
G01*
X14760000Y-14075000D02*
G75*
G02*
X14790000Y-14075000I15000J0D01*
G01*
X15040000Y-8000000D02*
G75*
G02*
X15010000Y-8000000I-15000J0D01*
G01*
X15010000Y-8000000D02*
G75*
G02*
X15040000Y-8000000I15000J0D01*
G01*
X15140000Y-8000000D02*
G75*
G02*
X15110000Y-8000000I-15000J0D01*
G01*
X15110000Y-8000000D02*
G75*
G02*
X15140000Y-8000000I15000J0D01*
G01*
X15640000Y-13925000D02*
G75*
G02*
X15610000Y-13925000I-15000J0D01*
G01*
X15610000Y-13925000D02*
G75*
G02*
X15640000Y-13925000I15000J0D01*
G01*
X15765000Y-14100000D02*
G75*
G02*
X15735000Y-14100000I-15000J0D01*
G01*
X15735000Y-14100000D02*
G75*
G02*
X15765000Y-14100000I15000J0D01*
G01*
X15965000Y-14450000D02*
G75*
G02*
X15935000Y-14450000I-15000J0D01*
G01*
X15935000Y-14450000D02*
G75*
G02*
X15965000Y-14450000I15000J0D01*
G01*
X16560073Y-14904926D02*
G75*
G02*
X16530073Y-14904926I-15000J0D01*
G01*
X16530073Y-14904926D02*
G75*
G02*
X16560073Y-14904926I15000J0D01*
G01*
X16615000Y-15000000D02*
G75*
G02*
X16585000Y-15000000I-15000J0D01*
G01*
X16585000Y-15000000D02*
G75*
G02*
X16615000Y-15000000I15000J0D01*
G01*
X16815000Y-8000000D02*
G75*
G02*
X16785000Y-8000000I-15000J0D01*
G01*
X16785000Y-8000000D02*
G75*
G02*
X16815000Y-8000000I15000J0D01*
G01*
X16865000Y-14375000D02*
G75*
G02*
X16835000Y-14375000I-15000J0D01*
G01*
X16835000Y-14375000D02*
G75*
G02*
X16865000Y-14375000I15000J0D01*
G01*
X16865000Y-14475000D02*
G75*
G02*
X16835000Y-14475000I-15000J0D01*
G01*
X16835000Y-14475000D02*
G75*
G02*
X16865000Y-14475000I15000J0D01*
G01*
X16990000Y-14000000D02*
G75*
G02*
X16960000Y-14000000I-15000J0D01*
G01*
X16960000Y-14000000D02*
G75*
G02*
X16990000Y-14000000I15000J0D01*
G01*
X17065000Y-13925000D02*
G75*
G02*
X17035000Y-13925000I-15000J0D01*
G01*
X17035000Y-13925000D02*
G75*
G02*
X17065000Y-13925000I15000J0D01*
G01*
X18035000Y-13900000D02*
G75*
G02*
X18005000Y-13900000I-15000J0D01*
G01*
X18005000Y-13900000D02*
G75*
G02*
X18035000Y-13900000I15000J0D01*
G01*
X18920000Y-8120000D02*
G75*
G02*
X18890000Y-8120000I-15000J0D01*
G01*
X18890000Y-8120000D02*
G75*
G02*
X18920000Y-8120000I15000J0D01*
G01*
X19715000Y-4925000D02*
G75*
G02*
X19685000Y-4925000I-15000J0D01*
G01*
X19685000Y-4925000D02*
G75*
G02*
X19715000Y-4925000I15000J0D01*
G01*
X20415000Y-8125000D02*
G75*
G02*
X20385000Y-8125000I-15000J0D01*
G01*
X20385000Y-8125000D02*
G75*
G02*
X20415000Y-8125000I15000J0D01*
G01*
X21435000Y-12760000D02*
G75*
G02*
X21405000Y-12760000I-15000J0D01*
G01*
X21405000Y-12760000D02*
G75*
G02*
X21435000Y-12760000I15000J0D01*
G01*
X21655000Y-11600000D02*
G75*
G02*
X21625000Y-11600000I-15000J0D01*
G01*
X21625000Y-11600000D02*
G75*
G02*
X21655000Y-11600000I15000J0D01*
G01*
X21955000Y-12240000D02*
G75*
G02*
X21925000Y-12240000I-15000J0D01*
G01*
X21925000Y-12240000D02*
G75*
G02*
X21955000Y-12240000I15000J0D01*
G01*
X23115000Y-10575000D02*
G75*
G02*
X23085000Y-10575000I-15000J0D01*
G01*
X23085000Y-10575000D02*
G75*
G02*
X23115000Y-10575000I15000J0D01*
G01*
X23515000Y-5800000D02*
G75*
G02*
X23485000Y-5800000I-15000J0D01*
G01*
X23485000Y-5800000D02*
G75*
G02*
X23515000Y-5800000I15000J0D01*
G01*
X9425000Y-14955000D02*
X9425000Y-14995000D01*
X9405000Y-14975000D02*
X9445000Y-14975000D01*
X9425000Y-15155000D02*
X9425000Y-15195000D01*
X9405000Y-15175000D02*
X9445000Y-15175000D01*
X9625000Y-15030000D02*
X9625000Y-15070000D01*
X9605000Y-15050000D02*
X9645000Y-15050000D01*
X10050000Y-15030000D02*
X10050000Y-15070000D01*
X10030000Y-15050000D02*
X10070000Y-15050000D01*
X15309000Y-14755000D02*
X15309000Y-14795000D01*
X15289000Y-14775000D02*
X15329000Y-14775000D01*
X22675000Y-11955000D02*
X22675000Y-11995000D01*
X22655000Y-11975000D02*
X22695000Y-11975000D01*
X8041284Y-13945284D02*
X8041284Y-13888715D01*
X7984715Y-13888715D01*
X7984715Y-13945284D01*
X8041284Y-13945284D01*
X8041284Y-14199284D02*
X8041284Y-14142715D01*
X7984715Y-14142715D01*
X7984715Y-14199284D01*
X8041284Y-14199284D01*
X8041284Y-14453284D02*
X8041284Y-14396715D01*
X7984715Y-14396715D01*
X7984715Y-14453284D01*
X8041284Y-14453284D01*
X8041284Y-14707284D02*
X8041284Y-14650715D01*
X7984715Y-14650715D01*
X7984715Y-14707284D01*
X8041284Y-14707284D01*
X8803285Y-13945284D02*
X8803285Y-13888715D01*
X8746716Y-13888715D01*
X8746716Y-13945284D01*
X8803285Y-13945284D01*
X8803285Y-14199284D02*
X8803285Y-14142715D01*
X8746716Y-14142715D01*
X8746716Y-14199284D01*
X8803285Y-14199284D01*
X8803285Y-14453284D02*
X8803285Y-14396715D01*
X8746716Y-14396715D01*
X8746716Y-14453284D01*
X8803285Y-14453284D01*
X8803285Y-14707284D02*
X8803285Y-14650715D01*
X8746716Y-14650715D01*
X8746716Y-14707284D01*
X8803285Y-14707284D01*
X9653285Y-13628284D02*
X9653285Y-13571715D01*
X9596716Y-13571715D01*
X9596716Y-13628284D01*
X9653285Y-13628284D01*
X9903285Y-13628284D02*
X9903285Y-13571715D01*
X9846716Y-13571715D01*
X9846716Y-13628284D01*
X9903285Y-13628284D01*
X10078285Y-14028284D02*
X10078285Y-13971715D01*
X10021716Y-13971715D01*
X10021716Y-14028284D01*
X10078285Y-14028284D01*
X10328285Y-14028284D02*
X10328285Y-13971715D01*
X10271716Y-13971715D01*
X10271716Y-14028284D01*
X10328285Y-14028284D01*
X10678285Y-13103284D02*
X10678285Y-13046715D01*
X10621716Y-13046715D01*
X10621716Y-13103284D01*
X10678285Y-13103284D01*
X10928285Y-13103284D02*
X10928285Y-13046715D01*
X10871716Y-13046715D01*
X10871716Y-13103284D01*
X10928285Y-13103284D01*
X7959000Y-9644500D02*
X8006500Y-9597000D01*
X7959000Y-9549500D01*
X7911500Y-9597000D01*
X7959000Y-9644500D01*
X7959000Y-9894500D02*
X8006500Y-9847000D01*
X7959000Y-9799500D01*
X7911500Y-9847000D01*
X7959000Y-9894500D01*
X7959000Y-10144500D02*
X8006500Y-10097000D01*
X7959000Y-10049500D01*
X7911500Y-10097000D01*
X7959000Y-10144500D01*
X7959000Y-10394500D02*
X8006500Y-10347000D01*
X7959000Y-10299500D01*
X7911500Y-10347000D01*
X7959000Y-10394500D01*
X7990000Y-15484500D02*
X8037500Y-15437000D01*
X7990000Y-15389500D01*
X7942500Y-15437000D01*
X7990000Y-15484500D01*
X8240000Y-15484500D02*
X8287500Y-15437000D01*
X8240000Y-15389500D01*
X8192500Y-15437000D01*
X8240000Y-15484500D01*
X8490000Y-15484500D02*
X8537500Y-15437000D01*
X8490000Y-15389500D01*
X8442500Y-15437000D01*
X8490000Y-15484500D01*
X12475000Y-14743750D02*
X12522500Y-14696250D01*
X12475000Y-14648750D01*
X12427500Y-14696250D01*
X12475000Y-14743750D01*
X12475000Y-14943750D02*
X12522500Y-14896250D01*
X12475000Y-14848750D01*
X12427500Y-14896250D01*
X12475000Y-14943750D01*
X12725000Y-14743750D02*
X12772500Y-14696250D01*
X12725000Y-14648750D01*
X12677500Y-14696250D01*
X12725000Y-14743750D01*
X12725000Y-14943750D02*
X12772500Y-14896250D01*
X12725000Y-14848750D01*
X12677500Y-14896250D01*
X12725000Y-14943750D01*
X15700000Y-15047500D02*
X15747500Y-15000000D01*
X15700000Y-14952500D01*
X15652500Y-15000000D01*
X15700000Y-15047500D01*
X15950000Y-15047500D02*
X15997500Y-15000000D01*
X15950000Y-14952500D01*
X15902500Y-15000000D01*
X15950000Y-15047500D01*
X16200000Y-15047500D02*
X16247500Y-15000000D01*
X16200000Y-14952500D01*
X16152500Y-15000000D01*
X16200000Y-15047500D01*
X23600000Y-9922500D02*
X23647500Y-9875000D01*
X23600000Y-9827500D01*
X23552500Y-9875000D01*
X23600000Y-9922500D01*
X23600000Y-10172500D02*
X23647500Y-10125000D01*
X23600000Y-10077500D01*
X23552500Y-10125000D01*
X23600000Y-10172500D01*
X23600000Y-10422500D02*
X23647500Y-10375000D01*
X23600000Y-10327500D01*
X23552500Y-10375000D01*
X23600000Y-10422500D01*
X23650000Y-8472500D02*
X23697500Y-8425000D01*
X23650000Y-8377500D01*
X23602500Y-8425000D01*
X23650000Y-8472500D01*
X23650000Y-8722500D02*
X23697500Y-8675000D01*
X23650000Y-8627500D01*
X23602500Y-8675000D01*
X23650000Y-8722500D01*
X23650000Y-8972500D02*
X23697500Y-8925000D01*
X23650000Y-8877500D01*
X23602500Y-8925000D01*
X23650000Y-8972500D01*
X23650000Y-9222500D02*
X23697500Y-9175000D01*
X23650000Y-9127500D01*
X23602500Y-9175000D01*
X23650000Y-9222500D01*
X23675000Y-11147500D02*
X23722500Y-11100000D01*
X23675000Y-11052500D01*
X23627500Y-11100000D01*
X23675000Y-11147500D01*
X23675000Y-11397500D02*
X23722500Y-11350000D01*
X23675000Y-11302500D01*
X23627500Y-11350000D01*
X23675000Y-11397500D01*
X23675000Y-11647500D02*
X23722500Y-11600000D01*
X23675000Y-11552500D01*
X23627500Y-11600000D01*
X23675000Y-11647500D01*
X8100000Y-11400000D02*
X8200000Y-11500000D01*
X8200000Y-11400000D02*
X8100000Y-11500000D01*
X8200000Y-11450000D02*
G75*
G02*
X8100000Y-11450000I-50000J0D01*
G01*
X8100000Y-11450000D02*
G75*
G02*
X8200000Y-11450000I50000J0D01*
G01*
X8100000Y-11654000D02*
X8200000Y-11754000D01*
X8200000Y-11654000D02*
X8100000Y-11754000D01*
X8200000Y-11704000D02*
G75*
G02*
X8100000Y-11704000I-50000J0D01*
G01*
X8100000Y-11704000D02*
G75*
G02*
X8200000Y-11704000I50000J0D01*
G01*
X8100000Y-11908000D02*
X8200000Y-12008000D01*
X8200000Y-11908000D02*
X8100000Y-12008000D01*
X8200000Y-11958000D02*
G75*
G02*
X8100000Y-11958000I-50000J0D01*
G01*
X8100000Y-11958000D02*
G75*
G02*
X8200000Y-11958000I50000J0D01*
G01*
X8100000Y-12162000D02*
X8200000Y-12262000D01*
X8200000Y-12162000D02*
X8100000Y-12262000D01*
X8200000Y-12212000D02*
G75*
G02*
X8100000Y-12212000I-50000J0D01*
G01*
X8100000Y-12212000D02*
G75*
G02*
X8200000Y-12212000I50000J0D01*
G01*
X8100000Y-12416000D02*
X8200000Y-12516000D01*
X8200000Y-12416000D02*
X8100000Y-12516000D01*
X8200000Y-12466000D02*
G75*
G02*
X8100000Y-12466000I-50000J0D01*
G01*
X8100000Y-12466000D02*
G75*
G02*
X8200000Y-12466000I50000J0D01*
G01*
X8354000Y-11400000D02*
X8454000Y-11500000D01*
X8454000Y-11400000D02*
X8354000Y-11500000D01*
X8454000Y-11450000D02*
G75*
G02*
X8354000Y-11450000I-50000J0D01*
G01*
X8354000Y-11450000D02*
G75*
G02*
X8454000Y-11450000I50000J0D01*
G01*
X8354000Y-11654000D02*
X8454000Y-11754000D01*
X8454000Y-11654000D02*
X8354000Y-11754000D01*
X8454000Y-11704000D02*
G75*
G02*
X8354000Y-11704000I-50000J0D01*
G01*
X8354000Y-11704000D02*
G75*
G02*
X8454000Y-11704000I50000J0D01*
G01*
X8354000Y-11908000D02*
X8454000Y-12008000D01*
X8454000Y-11908000D02*
X8354000Y-12008000D01*
X8454000Y-11958000D02*
G75*
G02*
X8354000Y-11958000I-50000J0D01*
G01*
X8354000Y-11958000D02*
G75*
G02*
X8454000Y-11958000I50000J0D01*
G01*
X8354000Y-12162000D02*
X8454000Y-12262000D01*
X8454000Y-12162000D02*
X8354000Y-12262000D01*
X8454000Y-12212000D02*
G75*
G02*
X8354000Y-12212000I-50000J0D01*
G01*
X8354000Y-12212000D02*
G75*
G02*
X8454000Y-12212000I50000J0D01*
G01*
X8354000Y-12416000D02*
X8454000Y-12516000D01*
X8454000Y-12416000D02*
X8354000Y-12516000D01*
X8454000Y-12466000D02*
G75*
G02*
X8354000Y-12466000I-50000J0D01*
G01*
X8354000Y-12466000D02*
G75*
G02*
X8454000Y-12466000I50000J0D01*
G01*
X9058750Y-11275000D02*
X9158750Y-11375000D01*
X9158750Y-11275000D02*
X9058750Y-11375000D01*
X9158750Y-11325000D02*
G75*
G02*
X9058750Y-11325000I-50000J0D01*
G01*
X9058750Y-11325000D02*
G75*
G02*
X9158750Y-11325000I50000J0D01*
G01*
X9558750Y-11275000D02*
X9658750Y-11375000D01*
X9658750Y-11275000D02*
X9558750Y-11375000D01*
X9658750Y-11325000D02*
G75*
G02*
X9558750Y-11325000I-50000J0D01*
G01*
X9558750Y-11325000D02*
G75*
G02*
X9658750Y-11325000I50000J0D01*
G01*
X10729250Y-14750000D02*
X10829250Y-14850000D01*
X10829250Y-14750000D02*
X10729250Y-14850000D01*
X10829250Y-14800000D02*
G75*
G02*
X10729250Y-14800000I-50000J0D01*
G01*
X10729250Y-14800000D02*
G75*
G02*
X10829250Y-14800000I50000J0D01*
G01*
X10679250Y-14850000D02*
X10879250Y-14850000D01*
X10879250Y-14750000D02*
G75*
G02*
X10879250Y-14850000I0J-50000D01*
G01*
X10879250Y-14750000D02*
X10679250Y-14750000D01*
X10679250Y-14750000D02*
G75*
G03*
X10679250Y-14850000I0J-50000D01*
G01*
X10729250Y-15350000D02*
X10829250Y-15450000D01*
X10829250Y-15350000D02*
X10729250Y-15450000D01*
X10829250Y-15400000D02*
G75*
G02*
X10729250Y-15400000I-50000J0D01*
G01*
X10729250Y-15400000D02*
G75*
G02*
X10829250Y-15400000I50000J0D01*
G01*
X10679250Y-15450000D02*
X10879250Y-15450000D01*
X10879250Y-15350000D02*
G75*
G02*
X10879250Y-15450000I0J-50000D01*
G01*
X10879250Y-15350000D02*
X10679250Y-15350000D01*
X10679250Y-15350000D02*
G75*
G03*
X10679250Y-15450000I0J-50000D01*
G01*
X11199250Y-15050000D02*
X11299250Y-15150000D01*
X11299250Y-15050000D02*
X11199250Y-15150000D01*
X11299250Y-15100000D02*
G75*
G02*
X11199250Y-15100000I-50000J0D01*
G01*
X11199250Y-15100000D02*
G75*
G02*
X11299250Y-15100000I50000J0D01*
G01*
X11299250Y-15200000D02*
X11299250Y-15000000D01*
X11199250Y-15000000D02*
G75*
G02*
X11299250Y-15000000I50000J0D01*
G01*
X11199250Y-15000000D02*
X11199250Y-15200000D01*
X11199250Y-15200000D02*
G75*
G03*
X11299250Y-15200000I50000J0D01*
G01*
X11294000Y-13001000D02*
X11394000Y-13101000D01*
X11394000Y-13001000D02*
X11294000Y-13101000D01*
X11394000Y-13051000D02*
G75*
G02*
X11294000Y-13051000I-50000J0D01*
G01*
X11294000Y-13051000D02*
G75*
G02*
X11394000Y-13051000I50000J0D01*
G01*
X11548000Y-13001000D02*
X11648000Y-13101000D01*
X11648000Y-13001000D02*
X11548000Y-13101000D01*
X11648000Y-13051000D02*
G75*
G02*
X11548000Y-13051000I-50000J0D01*
G01*
X11548000Y-13051000D02*
G75*
G02*
X11648000Y-13051000I50000J0D01*
G01*
X19709000Y-13550000D02*
X19809000Y-13650000D01*
X19809000Y-13550000D02*
X19709000Y-13650000D01*
X19809000Y-13600000D02*
G75*
G02*
X19709000Y-13600000I-50000J0D01*
G01*
X19709000Y-13600000D02*
G75*
G02*
X19809000Y-13600000I50000J0D01*
G01*
X19709000Y-13804000D02*
X19809000Y-13904000D01*
X19809000Y-13804000D02*
X19709000Y-13904000D01*
X19809000Y-13854000D02*
G75*
G02*
X19709000Y-13854000I-50000J0D01*
G01*
X19709000Y-13854000D02*
G75*
G02*
X19809000Y-13854000I50000J0D01*
G01*
X19963000Y-13550000D02*
X20063000Y-13650000D01*
X20063000Y-13550000D02*
X19963000Y-13650000D01*
X20063000Y-13600000D02*
G75*
G02*
X19963000Y-13600000I-50000J0D01*
G01*
X19963000Y-13600000D02*
G75*
G02*
X20063000Y-13600000I50000J0D01*
G01*
X19963000Y-13804000D02*
X20063000Y-13904000D01*
X20063000Y-13804000D02*
X19963000Y-13904000D01*
X20063000Y-13854000D02*
G75*
G02*
X19963000Y-13854000I-50000J0D01*
G01*
X19963000Y-13854000D02*
G75*
G02*
X20063000Y-13854000I50000J0D01*
G01*
X20217000Y-13550000D02*
X20317000Y-13650000D01*
X20317000Y-13550000D02*
X20217000Y-13650000D01*
X20317000Y-13600000D02*
G75*
G02*
X20217000Y-13600000I-50000J0D01*
G01*
X20217000Y-13600000D02*
G75*
G02*
X20317000Y-13600000I50000J0D01*
G01*
X20217000Y-13804000D02*
X20317000Y-13904000D01*
X20317000Y-13804000D02*
X20217000Y-13904000D01*
X20317000Y-13854000D02*
G75*
G02*
X20217000Y-13854000I-50000J0D01*
G01*
X20217000Y-13854000D02*
G75*
G02*
X20317000Y-13854000I50000J0D01*
G01*
X20471000Y-13550000D02*
X20571000Y-13650000D01*
X20571000Y-13550000D02*
X20471000Y-13650000D01*
X20571000Y-13600000D02*
G75*
G02*
X20471000Y-13600000I-50000J0D01*
G01*
X20471000Y-13600000D02*
G75*
G02*
X20571000Y-13600000I50000J0D01*
G01*
X20471000Y-13804000D02*
X20571000Y-13904000D01*
X20571000Y-13804000D02*
X20471000Y-13904000D01*
X20571000Y-13854000D02*
G75*
G02*
X20471000Y-13854000I-50000J0D01*
G01*
X20471000Y-13854000D02*
G75*
G02*
X20571000Y-13854000I50000J0D01*
G01*
X20725000Y-13550000D02*
X20825000Y-13650000D01*
X20825000Y-13550000D02*
X20725000Y-13650000D01*
X20825000Y-13600000D02*
G75*
G02*
X20725000Y-13600000I-50000J0D01*
G01*
X20725000Y-13600000D02*
G75*
G02*
X20825000Y-13600000I50000J0D01*
G01*
X20725000Y-13804000D02*
X20825000Y-13904000D01*
X20825000Y-13804000D02*
X20725000Y-13904000D01*
X20825000Y-13854000D02*
G75*
G02*
X20725000Y-13854000I-50000J0D01*
G01*
X20725000Y-13854000D02*
G75*
G02*
X20825000Y-13854000I50000J0D01*
G01*
X20979000Y-13550000D02*
X21079000Y-13650000D01*
X21079000Y-13550000D02*
X20979000Y-13650000D01*
X21079000Y-13600000D02*
G75*
G02*
X20979000Y-13600000I-50000J0D01*
G01*
X20979000Y-13600000D02*
G75*
G02*
X21079000Y-13600000I50000J0D01*
G01*
X20979000Y-13804000D02*
X21079000Y-13904000D01*
X21079000Y-13804000D02*
X20979000Y-13904000D01*
X21079000Y-13854000D02*
G75*
G02*
X20979000Y-13854000I-50000J0D01*
G01*
X20979000Y-13854000D02*
G75*
G02*
X21079000Y-13854000I50000J0D01*
G01*
X21233000Y-13550000D02*
X21333000Y-13650000D01*
X21333000Y-13550000D02*
X21233000Y-13650000D01*
X21333000Y-13600000D02*
G75*
G02*
X21233000Y-13600000I-50000J0D01*
G01*
X21233000Y-13600000D02*
G75*
G02*
X21333000Y-13600000I50000J0D01*
G01*
X21233000Y-13804000D02*
X21333000Y-13904000D01*
X21333000Y-13804000D02*
X21233000Y-13904000D01*
X21333000Y-13854000D02*
G75*
G02*
X21233000Y-13854000I-50000J0D01*
G01*
X21233000Y-13854000D02*
G75*
G02*
X21333000Y-13854000I50000J0D01*
G01*
X21487000Y-13550000D02*
X21587000Y-13650000D01*
X21587000Y-13550000D02*
X21487000Y-13650000D01*
X21587000Y-13600000D02*
G75*
G02*
X21487000Y-13600000I-50000J0D01*
G01*
X21487000Y-13600000D02*
G75*
G02*
X21587000Y-13600000I50000J0D01*
G01*
X21487000Y-13804000D02*
X21587000Y-13904000D01*
X21587000Y-13804000D02*
X21487000Y-13904000D01*
X21587000Y-13854000D02*
G75*
G02*
X21487000Y-13854000I-50000J0D01*
G01*
X21487000Y-13854000D02*
G75*
G02*
X21587000Y-13854000I50000J0D01*
G01*
X21741000Y-13550000D02*
X21841000Y-13650000D01*
X21841000Y-13550000D02*
X21741000Y-13650000D01*
X21841000Y-13600000D02*
G75*
G02*
X21741000Y-13600000I-50000J0D01*
G01*
X21741000Y-13600000D02*
G75*
G02*
X21841000Y-13600000I50000J0D01*
G01*
X21741000Y-13804000D02*
X21841000Y-13904000D01*
X21841000Y-13804000D02*
X21741000Y-13904000D01*
X21841000Y-13854000D02*
G75*
G02*
X21741000Y-13854000I-50000J0D01*
G01*
X21741000Y-13854000D02*
G75*
G02*
X21841000Y-13854000I50000J0D01*
G01*
X21995000Y-13550000D02*
X22095000Y-13650000D01*
X22095000Y-13550000D02*
X21995000Y-13650000D01*
X22095000Y-13600000D02*
G75*
G02*
X21995000Y-13600000I-50000J0D01*
G01*
X21995000Y-13600000D02*
G75*
G02*
X22095000Y-13600000I50000J0D01*
G01*
X21995000Y-13804000D02*
X22095000Y-13904000D01*
X22095000Y-13804000D02*
X21995000Y-13904000D01*
X22095000Y-13854000D02*
G75*
G02*
X21995000Y-13854000I-50000J0D01*
G01*
X21995000Y-13854000D02*
G75*
G02*
X22095000Y-13854000I50000J0D01*
G01*
X23625000Y-12250000D02*
X23725000Y-12350000D01*
X23725000Y-12250000D02*
X23625000Y-12350000D01*
X23725000Y-12300000D02*
G75*
G02*
X23625000Y-12300000I-50000J0D01*
G01*
X23625000Y-12300000D02*
G75*
G02*
X23725000Y-12300000I50000J0D01*
G01*
X23625000Y-12500000D02*
X23725000Y-12600000D01*
X23725000Y-12500000D02*
X23625000Y-12600000D01*
X23725000Y-12550000D02*
G75*
G02*
X23625000Y-12550000I-50000J0D01*
G01*
X23625000Y-12550000D02*
G75*
G02*
X23725000Y-12550000I50000J0D01*
G01*
X23625000Y-13200000D02*
X23725000Y-13300000D01*
X23725000Y-13200000D02*
X23625000Y-13300000D01*
X23725000Y-13250000D02*
G75*
G02*
X23625000Y-13250000I-50000J0D01*
G01*
X23625000Y-13250000D02*
G75*
G02*
X23725000Y-13250000I50000J0D01*
G01*
X23625000Y-13450000D02*
X23725000Y-13550000D01*
X23725000Y-13450000D02*
X23625000Y-13550000D01*
X23725000Y-13500000D02*
G75*
G02*
X23625000Y-13500000I-50000J0D01*
G01*
X23625000Y-13500000D02*
G75*
G02*
X23725000Y-13500000I50000J0D01*
G01*
X23650000Y-14125000D02*
X23750000Y-14225000D01*
X23750000Y-14125000D02*
X23650000Y-14225000D01*
X23750000Y-14175000D02*
G75*
G02*
X23650000Y-14175000I-50000J0D01*
G01*
X23650000Y-14175000D02*
G75*
G02*
X23750000Y-14175000I50000J0D01*
G01*
X23650000Y-14375000D02*
X23750000Y-14475000D01*
X23750000Y-14375000D02*
X23650000Y-14475000D01*
X23750000Y-14425000D02*
G75*
G02*
X23650000Y-14425000I-50000J0D01*
G01*
X23650000Y-14425000D02*
G75*
G02*
X23750000Y-14425000I50000J0D01*
G01*
X23650000Y-15050000D02*
X23750000Y-15150000D01*
X23750000Y-15050000D02*
X23650000Y-15150000D01*
X23750000Y-15100000D02*
G75*
G02*
X23650000Y-15100000I-50000J0D01*
G01*
X23650000Y-15100000D02*
G75*
G02*
X23750000Y-15100000I50000J0D01*
G01*
X23650000Y-15300000D02*
X23750000Y-15400000D01*
X23750000Y-15300000D02*
X23650000Y-15400000D01*
X23750000Y-15350000D02*
G75*
G02*
X23650000Y-15350000I-50000J0D01*
G01*
X23650000Y-15350000D02*
G75*
G02*
X23750000Y-15350000I50000J0D01*
G01*
D13*
X17485000Y-15210000D02*
X17615000Y-15340000D01*
X17615000Y-15210000D02*
X17485000Y-15340000D01*
X17550000Y-15210000D02*
X17550000Y-15340000D01*
X17485000Y-15275000D02*
X17615000Y-15275000D01*
X18135000Y-15210000D02*
X18265000Y-15340000D01*
X18265000Y-15210000D02*
X18135000Y-15340000D01*
X18200000Y-15210000D02*
X18200000Y-15340000D01*
X18135000Y-15275000D02*
X18265000Y-15275000D01*
X18710000Y-15210000D02*
X18840000Y-15340000D01*
X18840000Y-15210000D02*
X18710000Y-15340000D01*
X18775000Y-15210000D02*
X18775000Y-15340000D01*
X18710000Y-15275000D02*
X18840000Y-15275000D01*
X19360000Y-15210000D02*
X19490000Y-15340000D01*
X19490000Y-15210000D02*
X19360000Y-15340000D01*
X19425000Y-15210000D02*
X19425000Y-15340000D01*
X19360000Y-15275000D02*
X19490000Y-15275000D01*
X19985000Y-15210000D02*
X20115000Y-15340000D01*
X20115000Y-15210000D02*
X19985000Y-15340000D01*
X20050000Y-15210000D02*
X20050000Y-15340000D01*
X19985000Y-15275000D02*
X20115000Y-15275000D01*
X20635000Y-15210000D02*
X20765000Y-15340000D01*
X20765000Y-15210000D02*
X20635000Y-15340000D01*
X20700000Y-15210000D02*
X20700000Y-15340000D01*
X20635000Y-15275000D02*
X20765000Y-15275000D01*
X21235000Y-15210000D02*
X21365000Y-15340000D01*
X21365000Y-15210000D02*
X21235000Y-15340000D01*
X21300000Y-15210000D02*
X21300000Y-15340000D01*
X21235000Y-15275000D02*
X21365000Y-15275000D01*
X21885000Y-15210000D02*
X22015000Y-15340000D01*
X22015000Y-15210000D02*
X21885000Y-15340000D01*
X21950000Y-15210000D02*
X21950000Y-15340000D01*
X21885000Y-15275000D02*
X22015000Y-15275000D01*
D14*
X11885000Y-15067250D02*
X12115000Y-15297250D01*
X12115000Y-15067250D02*
X11885000Y-15297250D01*
X12081318Y-15263568D02*
X12081318Y-15100932D01*
X11918682Y-15100932D01*
X11918682Y-15263568D01*
X12081318Y-15263568D01*
X13085000Y-15067250D02*
X13315000Y-15297250D01*
X13315000Y-15067250D02*
X13085000Y-15297250D01*
X13281318Y-15263568D02*
X13281318Y-15100932D01*
X13118682Y-15100932D01*
X13118682Y-15263568D01*
X13281318Y-15263568D01*
D11*
X7858277Y-16001484D02*
X7858277Y-15801484D01*
X7858277Y-15801484D02*
X7905896Y-15801484D01*
X7905896Y-15801484D02*
X7934467Y-15811008D01*
X7934467Y-15811008D02*
X7953515Y-15830055D01*
X7953515Y-15830055D02*
X7963039Y-15849103D01*
X7963039Y-15849103D02*
X7972562Y-15887198D01*
X7972562Y-15887198D02*
X7972562Y-15915769D01*
X7972562Y-15915769D02*
X7963039Y-15953865D01*
X7963039Y-15953865D02*
X7953515Y-15972912D01*
X7953515Y-15972912D02*
X7934467Y-15991960D01*
X7934467Y-15991960D02*
X7905896Y-16001484D01*
X7905896Y-16001484D02*
X7858277Y-16001484D01*
X8058277Y-16001484D02*
X8058277Y-15868150D01*
X8058277Y-15906246D02*
X8067801Y-15887198D01*
X8067801Y-15887198D02*
X8077324Y-15877674D01*
X8077324Y-15877674D02*
X8096372Y-15868150D01*
X8096372Y-15868150D02*
X8115420Y-15868150D01*
X8182086Y-16001484D02*
X8182086Y-15868150D01*
X8182086Y-15801484D02*
X8172562Y-15811008D01*
X8172562Y-15811008D02*
X8182086Y-15820531D01*
X8182086Y-15820531D02*
X8191610Y-15811008D01*
X8191610Y-15811008D02*
X8182086Y-15801484D01*
X8182086Y-15801484D02*
X8182086Y-15820531D01*
X8305896Y-16001484D02*
X8286848Y-15991960D01*
X8286848Y-15991960D02*
X8277324Y-15972912D01*
X8277324Y-15972912D02*
X8277324Y-15801484D01*
X8410658Y-16001484D02*
X8391610Y-15991960D01*
X8391610Y-15991960D02*
X8382086Y-15972912D01*
X8382086Y-15972912D02*
X8382086Y-15801484D01*
X8639229Y-16001484D02*
X8639229Y-15801484D01*
X8639229Y-15801484D02*
X8705896Y-15944341D01*
X8705896Y-15944341D02*
X8772563Y-15801484D01*
X8772563Y-15801484D02*
X8772563Y-16001484D01*
X8953515Y-16001484D02*
X8953515Y-15896722D01*
X8953515Y-15896722D02*
X8943991Y-15877674D01*
X8943991Y-15877674D02*
X8924944Y-15868150D01*
X8924944Y-15868150D02*
X8886848Y-15868150D01*
X8886848Y-15868150D02*
X8867801Y-15877674D01*
X8953515Y-15991960D02*
X8934467Y-16001484D01*
X8934467Y-16001484D02*
X8886848Y-16001484D01*
X8886848Y-16001484D02*
X8867801Y-15991960D01*
X8867801Y-15991960D02*
X8858277Y-15972912D01*
X8858277Y-15972912D02*
X8858277Y-15953865D01*
X8858277Y-15953865D02*
X8867801Y-15934817D01*
X8867801Y-15934817D02*
X8886848Y-15925293D01*
X8886848Y-15925293D02*
X8934467Y-15925293D01*
X8934467Y-15925293D02*
X8953515Y-15915769D01*
X9048753Y-15868150D02*
X9048753Y-16068150D01*
X9048753Y-15877674D02*
X9067801Y-15868150D01*
X9067801Y-15868150D02*
X9105896Y-15868150D01*
X9105896Y-15868150D02*
X9124944Y-15877674D01*
X9124944Y-15877674D02*
X9134467Y-15887198D01*
X9134467Y-15887198D02*
X9143991Y-15906246D01*
X9143991Y-15906246D02*
X9143991Y-15963388D01*
X9143991Y-15963388D02*
X9134467Y-15982436D01*
X9134467Y-15982436D02*
X9124944Y-15991960D01*
X9124944Y-15991960D02*
X9105896Y-16001484D01*
X9105896Y-16001484D02*
X9067801Y-16001484D01*
X9067801Y-16001484D02*
X9048753Y-15991960D01*
X9229705Y-15982436D02*
X9239229Y-15991960D01*
X9239229Y-15991960D02*
X9229705Y-16001484D01*
X9229705Y-16001484D02*
X9220182Y-15991960D01*
X9220182Y-15991960D02*
X9229705Y-15982436D01*
X9229705Y-15982436D02*
X9229705Y-16001484D01*
X9229705Y-15877674D02*
X9239229Y-15887198D01*
X9239229Y-15887198D02*
X9229705Y-15896722D01*
X9229705Y-15896722D02*
X9220182Y-15887198D01*
X9220182Y-15887198D02*
X9229705Y-15877674D01*
X9229705Y-15877674D02*
X9229705Y-15896722D01*
D12*
X7577500Y-16320000D02*
X7597500Y-16340000D01*
X7597500Y-16320000D02*
X7577500Y-16340000D01*
D11*
X7896372Y-16221484D02*
X7915420Y-16221484D01*
X7915420Y-16221484D02*
X7934467Y-16231008D01*
X7934467Y-16231008D02*
X7943991Y-16240531D01*
X7943991Y-16240531D02*
X7953515Y-16259579D01*
X7953515Y-16259579D02*
X7963039Y-16297674D01*
X7963039Y-16297674D02*
X7963039Y-16345293D01*
X7963039Y-16345293D02*
X7953515Y-16383388D01*
X7953515Y-16383388D02*
X7943991Y-16402436D01*
X7943991Y-16402436D02*
X7934467Y-16411960D01*
X7934467Y-16411960D02*
X7915420Y-16421484D01*
X7915420Y-16421484D02*
X7896372Y-16421484D01*
X7896372Y-16421484D02*
X7877324Y-16411960D01*
X7877324Y-16411960D02*
X7867801Y-16402436D01*
X7867801Y-16402436D02*
X7858277Y-16383388D01*
X7858277Y-16383388D02*
X7848753Y-16345293D01*
X7848753Y-16345293D02*
X7848753Y-16297674D01*
X7848753Y-16297674D02*
X7858277Y-16259579D01*
X7858277Y-16259579D02*
X7867801Y-16240531D01*
X7867801Y-16240531D02*
X7877324Y-16231008D01*
X7877324Y-16231008D02*
X7896372Y-16221484D01*
X8048753Y-16402436D02*
X8058277Y-16411960D01*
X8058277Y-16411960D02*
X8048753Y-16421484D01*
X8048753Y-16421484D02*
X8039229Y-16411960D01*
X8039229Y-16411960D02*
X8048753Y-16402436D01*
X8048753Y-16402436D02*
X8048753Y-16421484D01*
X8134467Y-16240531D02*
X8143991Y-16231008D01*
X8143991Y-16231008D02*
X8163039Y-16221484D01*
X8163039Y-16221484D02*
X8210658Y-16221484D01*
X8210658Y-16221484D02*
X8229705Y-16231008D01*
X8229705Y-16231008D02*
X8239229Y-16240531D01*
X8239229Y-16240531D02*
X8248753Y-16259579D01*
X8248753Y-16259579D02*
X8248753Y-16278627D01*
X8248753Y-16278627D02*
X8239229Y-16307198D01*
X8239229Y-16307198D02*
X8124943Y-16421484D01*
X8124943Y-16421484D02*
X8248753Y-16421484D01*
X8372562Y-16221484D02*
X8391610Y-16221484D01*
X8391610Y-16221484D02*
X8410658Y-16231008D01*
X8410658Y-16231008D02*
X8420182Y-16240531D01*
X8420182Y-16240531D02*
X8429705Y-16259579D01*
X8429705Y-16259579D02*
X8439229Y-16297674D01*
X8439229Y-16297674D02*
X8439229Y-16345293D01*
X8439229Y-16345293D02*
X8429705Y-16383388D01*
X8429705Y-16383388D02*
X8420182Y-16402436D01*
X8420182Y-16402436D02*
X8410658Y-16411960D01*
X8410658Y-16411960D02*
X8391610Y-16421484D01*
X8391610Y-16421484D02*
X8372562Y-16421484D01*
X8372562Y-16421484D02*
X8353515Y-16411960D01*
X8353515Y-16411960D02*
X8343991Y-16402436D01*
X8343991Y-16402436D02*
X8334467Y-16383388D01*
X8334467Y-16383388D02*
X8324943Y-16345293D01*
X8324943Y-16345293D02*
X8324943Y-16297674D01*
X8324943Y-16297674D02*
X8334467Y-16259579D01*
X8334467Y-16259579D02*
X8343991Y-16240531D01*
X8343991Y-16240531D02*
X8353515Y-16231008D01*
X8353515Y-16231008D02*
X8372562Y-16221484D01*
X8563039Y-16221484D02*
X8582086Y-16221484D01*
X8582086Y-16221484D02*
X8601134Y-16231008D01*
X8601134Y-16231008D02*
X8610658Y-16240531D01*
X8610658Y-16240531D02*
X8620182Y-16259579D01*
X8620182Y-16259579D02*
X8629705Y-16297674D01*
X8629705Y-16297674D02*
X8629705Y-16345293D01*
X8629705Y-16345293D02*
X8620182Y-16383388D01*
X8620182Y-16383388D02*
X8610658Y-16402436D01*
X8610658Y-16402436D02*
X8601134Y-16411960D01*
X8601134Y-16411960D02*
X8582086Y-16421484D01*
X8582086Y-16421484D02*
X8563039Y-16421484D01*
X8563039Y-16421484D02*
X8543991Y-16411960D01*
X8543991Y-16411960D02*
X8534467Y-16402436D01*
X8534467Y-16402436D02*
X8524944Y-16383388D01*
X8524944Y-16383388D02*
X8515420Y-16345293D01*
X8515420Y-16345293D02*
X8515420Y-16297674D01*
X8515420Y-16297674D02*
X8524944Y-16259579D01*
X8524944Y-16259579D02*
X8534467Y-16240531D01*
X8534467Y-16240531D02*
X8543991Y-16231008D01*
X8543991Y-16231008D02*
X8563039Y-16221484D01*
X8715420Y-16421484D02*
X8715420Y-16288150D01*
X8715420Y-16307198D02*
X8724944Y-16297674D01*
X8724944Y-16297674D02*
X8743991Y-16288150D01*
X8743991Y-16288150D02*
X8772563Y-16288150D01*
X8772563Y-16288150D02*
X8791610Y-16297674D01*
X8791610Y-16297674D02*
X8801134Y-16316722D01*
X8801134Y-16316722D02*
X8801134Y-16421484D01*
X8801134Y-16316722D02*
X8810658Y-16297674D01*
X8810658Y-16297674D02*
X8829705Y-16288150D01*
X8829705Y-16288150D02*
X8858277Y-16288150D01*
X8858277Y-16288150D02*
X8877325Y-16297674D01*
X8877325Y-16297674D02*
X8886848Y-16316722D01*
X8886848Y-16316722D02*
X8886848Y-16421484D01*
X8982086Y-16421484D02*
X8982086Y-16288150D01*
X8982086Y-16307198D02*
X8991610Y-16297674D01*
X8991610Y-16297674D02*
X9010658Y-16288150D01*
X9010658Y-16288150D02*
X9039229Y-16288150D01*
X9039229Y-16288150D02*
X9058277Y-16297674D01*
X9058277Y-16297674D02*
X9067801Y-16316722D01*
X9067801Y-16316722D02*
X9067801Y-16421484D01*
X9067801Y-16316722D02*
X9077325Y-16297674D01*
X9077325Y-16297674D02*
X9096372Y-16288150D01*
X9096372Y-16288150D02*
X9124944Y-16288150D01*
X9124944Y-16288150D02*
X9143991Y-16297674D01*
X9143991Y-16297674D02*
X9153515Y-16316722D01*
X9153515Y-16316722D02*
X9153515Y-16421484D01*
X9543991Y-16211960D02*
X9372563Y-16469103D01*
X9801134Y-16221484D02*
X9820182Y-16221484D01*
X9820182Y-16221484D02*
X9839229Y-16231008D01*
X9839229Y-16231008D02*
X9848753Y-16240531D01*
X9848753Y-16240531D02*
X9858277Y-16259579D01*
X9858277Y-16259579D02*
X9867801Y-16297674D01*
X9867801Y-16297674D02*
X9867801Y-16345293D01*
X9867801Y-16345293D02*
X9858277Y-16383388D01*
X9858277Y-16383388D02*
X9848753Y-16402436D01*
X9848753Y-16402436D02*
X9839229Y-16411960D01*
X9839229Y-16411960D02*
X9820182Y-16421484D01*
X9820182Y-16421484D02*
X9801134Y-16421484D01*
X9801134Y-16421484D02*
X9782087Y-16411960D01*
X9782087Y-16411960D02*
X9772563Y-16402436D01*
X9772563Y-16402436D02*
X9763039Y-16383388D01*
X9763039Y-16383388D02*
X9753515Y-16345293D01*
X9753515Y-16345293D02*
X9753515Y-16297674D01*
X9753515Y-16297674D02*
X9763039Y-16259579D01*
X9763039Y-16259579D02*
X9772563Y-16240531D01*
X9772563Y-16240531D02*
X9782087Y-16231008D01*
X9782087Y-16231008D02*
X9801134Y-16221484D01*
X9953515Y-16402436D02*
X9963039Y-16411960D01*
X9963039Y-16411960D02*
X9953515Y-16421484D01*
X9953515Y-16421484D02*
X9943991Y-16411960D01*
X9943991Y-16411960D02*
X9953515Y-16402436D01*
X9953515Y-16402436D02*
X9953515Y-16421484D01*
X10086848Y-16221484D02*
X10105896Y-16221484D01*
X10105896Y-16221484D02*
X10124944Y-16231008D01*
X10124944Y-16231008D02*
X10134468Y-16240531D01*
X10134468Y-16240531D02*
X10143991Y-16259579D01*
X10143991Y-16259579D02*
X10153515Y-16297674D01*
X10153515Y-16297674D02*
X10153515Y-16345293D01*
X10153515Y-16345293D02*
X10143991Y-16383388D01*
X10143991Y-16383388D02*
X10134468Y-16402436D01*
X10134468Y-16402436D02*
X10124944Y-16411960D01*
X10124944Y-16411960D02*
X10105896Y-16421484D01*
X10105896Y-16421484D02*
X10086848Y-16421484D01*
X10086848Y-16421484D02*
X10067801Y-16411960D01*
X10067801Y-16411960D02*
X10058277Y-16402436D01*
X10058277Y-16402436D02*
X10048753Y-16383388D01*
X10048753Y-16383388D02*
X10039229Y-16345293D01*
X10039229Y-16345293D02*
X10039229Y-16297674D01*
X10039229Y-16297674D02*
X10048753Y-16259579D01*
X10048753Y-16259579D02*
X10058277Y-16240531D01*
X10058277Y-16240531D02*
X10067801Y-16231008D01*
X10067801Y-16231008D02*
X10086848Y-16221484D01*
X10277325Y-16221484D02*
X10296372Y-16221484D01*
X10296372Y-16221484D02*
X10315420Y-16231008D01*
X10315420Y-16231008D02*
X10324944Y-16240531D01*
X10324944Y-16240531D02*
X10334468Y-16259579D01*
X10334468Y-16259579D02*
X10343991Y-16297674D01*
X10343991Y-16297674D02*
X10343991Y-16345293D01*
X10343991Y-16345293D02*
X10334468Y-16383388D01*
X10334468Y-16383388D02*
X10324944Y-16402436D01*
X10324944Y-16402436D02*
X10315420Y-16411960D01*
X10315420Y-16411960D02*
X10296372Y-16421484D01*
X10296372Y-16421484D02*
X10277325Y-16421484D01*
X10277325Y-16421484D02*
X10258277Y-16411960D01*
X10258277Y-16411960D02*
X10248753Y-16402436D01*
X10248753Y-16402436D02*
X10239229Y-16383388D01*
X10239229Y-16383388D02*
X10229706Y-16345293D01*
X10229706Y-16345293D02*
X10229706Y-16297674D01*
X10229706Y-16297674D02*
X10239229Y-16259579D01*
X10239229Y-16259579D02*
X10248753Y-16240531D01*
X10248753Y-16240531D02*
X10258277Y-16231008D01*
X10258277Y-16231008D02*
X10277325Y-16221484D01*
X10410658Y-16221484D02*
X10543991Y-16221484D01*
X10543991Y-16221484D02*
X10458277Y-16421484D01*
X10629706Y-16421484D02*
X10667801Y-16421484D01*
X10667801Y-16421484D02*
X10686849Y-16411960D01*
X10686849Y-16411960D02*
X10696372Y-16402436D01*
X10696372Y-16402436D02*
X10715420Y-16373865D01*
X10715420Y-16373865D02*
X10724944Y-16335769D01*
X10724944Y-16335769D02*
X10724944Y-16259579D01*
X10724944Y-16259579D02*
X10715420Y-16240531D01*
X10715420Y-16240531D02*
X10705896Y-16231008D01*
X10705896Y-16231008D02*
X10686849Y-16221484D01*
X10686849Y-16221484D02*
X10648753Y-16221484D01*
X10648753Y-16221484D02*
X10629706Y-16231008D01*
X10629706Y-16231008D02*
X10620182Y-16240531D01*
X10620182Y-16240531D02*
X10610658Y-16259579D01*
X10610658Y-16259579D02*
X10610658Y-16307198D01*
X10610658Y-16307198D02*
X10620182Y-16326246D01*
X10620182Y-16326246D02*
X10629706Y-16335769D01*
X10629706Y-16335769D02*
X10648753Y-16345293D01*
X10648753Y-16345293D02*
X10686849Y-16345293D01*
X10686849Y-16345293D02*
X10705896Y-16335769D01*
X10705896Y-16335769D02*
X10715420Y-16326246D01*
X10715420Y-16326246D02*
X10724944Y-16307198D01*
X10801134Y-16221484D02*
X10801134Y-16259579D01*
X10877325Y-16221484D02*
X10877325Y-16259579D01*
X11172563Y-16497674D02*
X11163039Y-16488150D01*
X11163039Y-16488150D02*
X11143991Y-16459579D01*
X11143991Y-16459579D02*
X11134468Y-16440531D01*
X11134468Y-16440531D02*
X11124944Y-16411960D01*
X11124944Y-16411960D02*
X11115420Y-16364341D01*
X11115420Y-16364341D02*
X11115420Y-16326246D01*
X11115420Y-16326246D02*
X11124944Y-16278627D01*
X11124944Y-16278627D02*
X11134468Y-16250055D01*
X11134468Y-16250055D02*
X11143991Y-16231008D01*
X11143991Y-16231008D02*
X11163039Y-16202436D01*
X11163039Y-16202436D02*
X11172563Y-16192912D01*
X11343991Y-16221484D02*
X11248753Y-16221484D01*
X11248753Y-16221484D02*
X11239229Y-16316722D01*
X11239229Y-16316722D02*
X11248753Y-16307198D01*
X11248753Y-16307198D02*
X11267801Y-16297674D01*
X11267801Y-16297674D02*
X11315420Y-16297674D01*
X11315420Y-16297674D02*
X11334468Y-16307198D01*
X11334468Y-16307198D02*
X11343991Y-16316722D01*
X11343991Y-16316722D02*
X11353515Y-16335769D01*
X11353515Y-16335769D02*
X11353515Y-16383388D01*
X11353515Y-16383388D02*
X11343991Y-16402436D01*
X11343991Y-16402436D02*
X11334468Y-16411960D01*
X11334468Y-16411960D02*
X11315420Y-16421484D01*
X11315420Y-16421484D02*
X11267801Y-16421484D01*
X11267801Y-16421484D02*
X11248753Y-16411960D01*
X11248753Y-16411960D02*
X11239229Y-16402436D01*
X11420182Y-16221484D02*
X11553515Y-16221484D01*
X11553515Y-16221484D02*
X11467801Y-16421484D01*
X11620182Y-16240531D02*
X11629706Y-16231008D01*
X11629706Y-16231008D02*
X11648753Y-16221484D01*
X11648753Y-16221484D02*
X11696372Y-16221484D01*
X11696372Y-16221484D02*
X11715420Y-16231008D01*
X11715420Y-16231008D02*
X11724944Y-16240531D01*
X11724944Y-16240531D02*
X11734468Y-16259579D01*
X11734468Y-16259579D02*
X11734468Y-16278627D01*
X11734468Y-16278627D02*
X11724944Y-16307198D01*
X11724944Y-16307198D02*
X11610658Y-16421484D01*
X11610658Y-16421484D02*
X11734468Y-16421484D01*
X11972563Y-16421484D02*
X11972563Y-16221484D01*
X12058277Y-16421484D02*
X12058277Y-16316722D01*
X12058277Y-16316722D02*
X12048753Y-16297674D01*
X12048753Y-16297674D02*
X12029706Y-16288150D01*
X12029706Y-16288150D02*
X12001134Y-16288150D01*
X12001134Y-16288150D02*
X11982087Y-16297674D01*
X11982087Y-16297674D02*
X11972563Y-16307198D01*
X12182087Y-16421484D02*
X12163039Y-16411960D01*
X12163039Y-16411960D02*
X12153515Y-16402436D01*
X12153515Y-16402436D02*
X12143991Y-16383388D01*
X12143991Y-16383388D02*
X12143991Y-16326246D01*
X12143991Y-16326246D02*
X12153515Y-16307198D01*
X12153515Y-16307198D02*
X12163039Y-16297674D01*
X12163039Y-16297674D02*
X12182087Y-16288150D01*
X12182087Y-16288150D02*
X12210658Y-16288150D01*
X12210658Y-16288150D02*
X12229706Y-16297674D01*
X12229706Y-16297674D02*
X12239230Y-16307198D01*
X12239230Y-16307198D02*
X12248753Y-16326246D01*
X12248753Y-16326246D02*
X12248753Y-16383388D01*
X12248753Y-16383388D02*
X12239230Y-16402436D01*
X12239230Y-16402436D02*
X12229706Y-16411960D01*
X12229706Y-16411960D02*
X12210658Y-16421484D01*
X12210658Y-16421484D02*
X12182087Y-16421484D01*
X12363039Y-16421484D02*
X12343991Y-16411960D01*
X12343991Y-16411960D02*
X12334468Y-16392912D01*
X12334468Y-16392912D02*
X12334468Y-16221484D01*
X12515420Y-16411960D02*
X12496372Y-16421484D01*
X12496372Y-16421484D02*
X12458277Y-16421484D01*
X12458277Y-16421484D02*
X12439230Y-16411960D01*
X12439230Y-16411960D02*
X12429706Y-16392912D01*
X12429706Y-16392912D02*
X12429706Y-16316722D01*
X12429706Y-16316722D02*
X12439230Y-16297674D01*
X12439230Y-16297674D02*
X12458277Y-16288150D01*
X12458277Y-16288150D02*
X12496372Y-16288150D01*
X12496372Y-16288150D02*
X12515420Y-16297674D01*
X12515420Y-16297674D02*
X12524944Y-16316722D01*
X12524944Y-16316722D02*
X12524944Y-16335769D01*
X12524944Y-16335769D02*
X12429706Y-16354817D01*
X12601134Y-16411960D02*
X12620182Y-16421484D01*
X12620182Y-16421484D02*
X12658277Y-16421484D01*
X12658277Y-16421484D02*
X12677325Y-16411960D01*
X12677325Y-16411960D02*
X12686849Y-16392912D01*
X12686849Y-16392912D02*
X12686849Y-16383388D01*
X12686849Y-16383388D02*
X12677325Y-16364341D01*
X12677325Y-16364341D02*
X12658277Y-16354817D01*
X12658277Y-16354817D02*
X12629706Y-16354817D01*
X12629706Y-16354817D02*
X12610658Y-16345293D01*
X12610658Y-16345293D02*
X12601134Y-16326246D01*
X12601134Y-16326246D02*
X12601134Y-16316722D01*
X12601134Y-16316722D02*
X12610658Y-16297674D01*
X12610658Y-16297674D02*
X12629706Y-16288150D01*
X12629706Y-16288150D02*
X12658277Y-16288150D01*
X12658277Y-16288150D02*
X12677325Y-16297674D01*
X12753515Y-16497674D02*
X12763039Y-16488150D01*
X12763039Y-16488150D02*
X12782087Y-16459579D01*
X12782087Y-16459579D02*
X12791611Y-16440531D01*
X12791611Y-16440531D02*
X12801134Y-16411960D01*
X12801134Y-16411960D02*
X12810658Y-16364341D01*
X12810658Y-16364341D02*
X12810658Y-16326246D01*
X12810658Y-16326246D02*
X12801134Y-16278627D01*
X12801134Y-16278627D02*
X12791611Y-16250055D01*
X12791611Y-16250055D02*
X12782087Y-16231008D01*
X12782087Y-16231008D02*
X12763039Y-16202436D01*
X12763039Y-16202436D02*
X12753515Y-16192912D01*
D12*
X7597500Y-16594000D02*
G75*
G02*
X7567500Y-16594000I-15000J0D01*
G01*
X7567500Y-16594000D02*
G75*
G02*
X7597500Y-16594000I15000J0D01*
G01*
D11*
X7896372Y-16485484D02*
X7915420Y-16485484D01*
X7915420Y-16485484D02*
X7934467Y-16495008D01*
X7934467Y-16495008D02*
X7943991Y-16504531D01*
X7943991Y-16504531D02*
X7953515Y-16523579D01*
X7953515Y-16523579D02*
X7963039Y-16561674D01*
X7963039Y-16561674D02*
X7963039Y-16609293D01*
X7963039Y-16609293D02*
X7953515Y-16647388D01*
X7953515Y-16647388D02*
X7943991Y-16666436D01*
X7943991Y-16666436D02*
X7934467Y-16675960D01*
X7934467Y-16675960D02*
X7915420Y-16685484D01*
X7915420Y-16685484D02*
X7896372Y-16685484D01*
X7896372Y-16685484D02*
X7877324Y-16675960D01*
X7877324Y-16675960D02*
X7867801Y-16666436D01*
X7867801Y-16666436D02*
X7858277Y-16647388D01*
X7858277Y-16647388D02*
X7848753Y-16609293D01*
X7848753Y-16609293D02*
X7848753Y-16561674D01*
X7848753Y-16561674D02*
X7858277Y-16523579D01*
X7858277Y-16523579D02*
X7867801Y-16504531D01*
X7867801Y-16504531D02*
X7877324Y-16495008D01*
X7877324Y-16495008D02*
X7896372Y-16485484D01*
X8048753Y-16666436D02*
X8058277Y-16675960D01*
X8058277Y-16675960D02*
X8048753Y-16685484D01*
X8048753Y-16685484D02*
X8039229Y-16675960D01*
X8039229Y-16675960D02*
X8048753Y-16666436D01*
X8048753Y-16666436D02*
X8048753Y-16685484D01*
X8124943Y-16485484D02*
X8248753Y-16485484D01*
X8248753Y-16485484D02*
X8182086Y-16561674D01*
X8182086Y-16561674D02*
X8210658Y-16561674D01*
X8210658Y-16561674D02*
X8229705Y-16571198D01*
X8229705Y-16571198D02*
X8239229Y-16580722D01*
X8239229Y-16580722D02*
X8248753Y-16599769D01*
X8248753Y-16599769D02*
X8248753Y-16647388D01*
X8248753Y-16647388D02*
X8239229Y-16666436D01*
X8239229Y-16666436D02*
X8229705Y-16675960D01*
X8229705Y-16675960D02*
X8210658Y-16685484D01*
X8210658Y-16685484D02*
X8153515Y-16685484D01*
X8153515Y-16685484D02*
X8134467Y-16675960D01*
X8134467Y-16675960D02*
X8124943Y-16666436D01*
X8372562Y-16485484D02*
X8391610Y-16485484D01*
X8391610Y-16485484D02*
X8410658Y-16495008D01*
X8410658Y-16495008D02*
X8420182Y-16504531D01*
X8420182Y-16504531D02*
X8429705Y-16523579D01*
X8429705Y-16523579D02*
X8439229Y-16561674D01*
X8439229Y-16561674D02*
X8439229Y-16609293D01*
X8439229Y-16609293D02*
X8429705Y-16647388D01*
X8429705Y-16647388D02*
X8420182Y-16666436D01*
X8420182Y-16666436D02*
X8410658Y-16675960D01*
X8410658Y-16675960D02*
X8391610Y-16685484D01*
X8391610Y-16685484D02*
X8372562Y-16685484D01*
X8372562Y-16685484D02*
X8353515Y-16675960D01*
X8353515Y-16675960D02*
X8343991Y-16666436D01*
X8343991Y-16666436D02*
X8334467Y-16647388D01*
X8334467Y-16647388D02*
X8324943Y-16609293D01*
X8324943Y-16609293D02*
X8324943Y-16561674D01*
X8324943Y-16561674D02*
X8334467Y-16523579D01*
X8334467Y-16523579D02*
X8343991Y-16504531D01*
X8343991Y-16504531D02*
X8353515Y-16495008D01*
X8353515Y-16495008D02*
X8372562Y-16485484D01*
X8563039Y-16485484D02*
X8582086Y-16485484D01*
X8582086Y-16485484D02*
X8601134Y-16495008D01*
X8601134Y-16495008D02*
X8610658Y-16504531D01*
X8610658Y-16504531D02*
X8620182Y-16523579D01*
X8620182Y-16523579D02*
X8629705Y-16561674D01*
X8629705Y-16561674D02*
X8629705Y-16609293D01*
X8629705Y-16609293D02*
X8620182Y-16647388D01*
X8620182Y-16647388D02*
X8610658Y-16666436D01*
X8610658Y-16666436D02*
X8601134Y-16675960D01*
X8601134Y-16675960D02*
X8582086Y-16685484D01*
X8582086Y-16685484D02*
X8563039Y-16685484D01*
X8563039Y-16685484D02*
X8543991Y-16675960D01*
X8543991Y-16675960D02*
X8534467Y-16666436D01*
X8534467Y-16666436D02*
X8524944Y-16647388D01*
X8524944Y-16647388D02*
X8515420Y-16609293D01*
X8515420Y-16609293D02*
X8515420Y-16561674D01*
X8515420Y-16561674D02*
X8524944Y-16523579D01*
X8524944Y-16523579D02*
X8534467Y-16504531D01*
X8534467Y-16504531D02*
X8543991Y-16495008D01*
X8543991Y-16495008D02*
X8563039Y-16485484D01*
X8715420Y-16685484D02*
X8715420Y-16552150D01*
X8715420Y-16571198D02*
X8724944Y-16561674D01*
X8724944Y-16561674D02*
X8743991Y-16552150D01*
X8743991Y-16552150D02*
X8772563Y-16552150D01*
X8772563Y-16552150D02*
X8791610Y-16561674D01*
X8791610Y-16561674D02*
X8801134Y-16580722D01*
X8801134Y-16580722D02*
X8801134Y-16685484D01*
X8801134Y-16580722D02*
X8810658Y-16561674D01*
X8810658Y-16561674D02*
X8829705Y-16552150D01*
X8829705Y-16552150D02*
X8858277Y-16552150D01*
X8858277Y-16552150D02*
X8877325Y-16561674D01*
X8877325Y-16561674D02*
X8886848Y-16580722D01*
X8886848Y-16580722D02*
X8886848Y-16685484D01*
X8982086Y-16685484D02*
X8982086Y-16552150D01*
X8982086Y-16571198D02*
X8991610Y-16561674D01*
X8991610Y-16561674D02*
X9010658Y-16552150D01*
X9010658Y-16552150D02*
X9039229Y-16552150D01*
X9039229Y-16552150D02*
X9058277Y-16561674D01*
X9058277Y-16561674D02*
X9067801Y-16580722D01*
X9067801Y-16580722D02*
X9067801Y-16685484D01*
X9067801Y-16580722D02*
X9077325Y-16561674D01*
X9077325Y-16561674D02*
X9096372Y-16552150D01*
X9096372Y-16552150D02*
X9124944Y-16552150D01*
X9124944Y-16552150D02*
X9143991Y-16561674D01*
X9143991Y-16561674D02*
X9153515Y-16580722D01*
X9153515Y-16580722D02*
X9153515Y-16685484D01*
X9543991Y-16475960D02*
X9372563Y-16733103D01*
X9801134Y-16485484D02*
X9820182Y-16485484D01*
X9820182Y-16485484D02*
X9839229Y-16495008D01*
X9839229Y-16495008D02*
X9848753Y-16504531D01*
X9848753Y-16504531D02*
X9858277Y-16523579D01*
X9858277Y-16523579D02*
X9867801Y-16561674D01*
X9867801Y-16561674D02*
X9867801Y-16609293D01*
X9867801Y-16609293D02*
X9858277Y-16647388D01*
X9858277Y-16647388D02*
X9848753Y-16666436D01*
X9848753Y-16666436D02*
X9839229Y-16675960D01*
X9839229Y-16675960D02*
X9820182Y-16685484D01*
X9820182Y-16685484D02*
X9801134Y-16685484D01*
X9801134Y-16685484D02*
X9782087Y-16675960D01*
X9782087Y-16675960D02*
X9772563Y-16666436D01*
X9772563Y-16666436D02*
X9763039Y-16647388D01*
X9763039Y-16647388D02*
X9753515Y-16609293D01*
X9753515Y-16609293D02*
X9753515Y-16561674D01*
X9753515Y-16561674D02*
X9763039Y-16523579D01*
X9763039Y-16523579D02*
X9772563Y-16504531D01*
X9772563Y-16504531D02*
X9782087Y-16495008D01*
X9782087Y-16495008D02*
X9801134Y-16485484D01*
X9953515Y-16666436D02*
X9963039Y-16675960D01*
X9963039Y-16675960D02*
X9953515Y-16685484D01*
X9953515Y-16685484D02*
X9943991Y-16675960D01*
X9943991Y-16675960D02*
X9953515Y-16666436D01*
X9953515Y-16666436D02*
X9953515Y-16685484D01*
X10086848Y-16485484D02*
X10105896Y-16485484D01*
X10105896Y-16485484D02*
X10124944Y-16495008D01*
X10124944Y-16495008D02*
X10134468Y-16504531D01*
X10134468Y-16504531D02*
X10143991Y-16523579D01*
X10143991Y-16523579D02*
X10153515Y-16561674D01*
X10153515Y-16561674D02*
X10153515Y-16609293D01*
X10153515Y-16609293D02*
X10143991Y-16647388D01*
X10143991Y-16647388D02*
X10134468Y-16666436D01*
X10134468Y-16666436D02*
X10124944Y-16675960D01*
X10124944Y-16675960D02*
X10105896Y-16685484D01*
X10105896Y-16685484D02*
X10086848Y-16685484D01*
X10086848Y-16685484D02*
X10067801Y-16675960D01*
X10067801Y-16675960D02*
X10058277Y-16666436D01*
X10058277Y-16666436D02*
X10048753Y-16647388D01*
X10048753Y-16647388D02*
X10039229Y-16609293D01*
X10039229Y-16609293D02*
X10039229Y-16561674D01*
X10039229Y-16561674D02*
X10048753Y-16523579D01*
X10048753Y-16523579D02*
X10058277Y-16504531D01*
X10058277Y-16504531D02*
X10067801Y-16495008D01*
X10067801Y-16495008D02*
X10086848Y-16485484D01*
X10343991Y-16685484D02*
X10229706Y-16685484D01*
X10286848Y-16685484D02*
X10286848Y-16485484D01*
X10286848Y-16485484D02*
X10267801Y-16514055D01*
X10267801Y-16514055D02*
X10248753Y-16533103D01*
X10248753Y-16533103D02*
X10229706Y-16542627D01*
X10534468Y-16685484D02*
X10420182Y-16685484D01*
X10477325Y-16685484D02*
X10477325Y-16485484D01*
X10477325Y-16485484D02*
X10458277Y-16514055D01*
X10458277Y-16514055D02*
X10439229Y-16533103D01*
X10439229Y-16533103D02*
X10420182Y-16542627D01*
X10648753Y-16571198D02*
X10629706Y-16561674D01*
X10629706Y-16561674D02*
X10620182Y-16552150D01*
X10620182Y-16552150D02*
X10610658Y-16533103D01*
X10610658Y-16533103D02*
X10610658Y-16523579D01*
X10610658Y-16523579D02*
X10620182Y-16504531D01*
X10620182Y-16504531D02*
X10629706Y-16495008D01*
X10629706Y-16495008D02*
X10648753Y-16485484D01*
X10648753Y-16485484D02*
X10686849Y-16485484D01*
X10686849Y-16485484D02*
X10705896Y-16495008D01*
X10705896Y-16495008D02*
X10715420Y-16504531D01*
X10715420Y-16504531D02*
X10724944Y-16523579D01*
X10724944Y-16523579D02*
X10724944Y-16533103D01*
X10724944Y-16533103D02*
X10715420Y-16552150D01*
X10715420Y-16552150D02*
X10705896Y-16561674D01*
X10705896Y-16561674D02*
X10686849Y-16571198D01*
X10686849Y-16571198D02*
X10648753Y-16571198D01*
X10648753Y-16571198D02*
X10629706Y-16580722D01*
X10629706Y-16580722D02*
X10620182Y-16590246D01*
X10620182Y-16590246D02*
X10610658Y-16609293D01*
X10610658Y-16609293D02*
X10610658Y-16647388D01*
X10610658Y-16647388D02*
X10620182Y-16666436D01*
X10620182Y-16666436D02*
X10629706Y-16675960D01*
X10629706Y-16675960D02*
X10648753Y-16685484D01*
X10648753Y-16685484D02*
X10686849Y-16685484D01*
X10686849Y-16685484D02*
X10705896Y-16675960D01*
X10705896Y-16675960D02*
X10715420Y-16666436D01*
X10715420Y-16666436D02*
X10724944Y-16647388D01*
X10724944Y-16647388D02*
X10724944Y-16609293D01*
X10724944Y-16609293D02*
X10715420Y-16590246D01*
X10715420Y-16590246D02*
X10705896Y-16580722D01*
X10705896Y-16580722D02*
X10686849Y-16571198D01*
X10801134Y-16485484D02*
X10801134Y-16523579D01*
X10877325Y-16485484D02*
X10877325Y-16523579D01*
X11172563Y-16761674D02*
X11163039Y-16752150D01*
X11163039Y-16752150D02*
X11143991Y-16723579D01*
X11143991Y-16723579D02*
X11134468Y-16704531D01*
X11134468Y-16704531D02*
X11124944Y-16675960D01*
X11124944Y-16675960D02*
X11115420Y-16628341D01*
X11115420Y-16628341D02*
X11115420Y-16590246D01*
X11115420Y-16590246D02*
X11124944Y-16542627D01*
X11124944Y-16542627D02*
X11134468Y-16514055D01*
X11134468Y-16514055D02*
X11143991Y-16495008D01*
X11143991Y-16495008D02*
X11163039Y-16466436D01*
X11163039Y-16466436D02*
X11172563Y-16456912D01*
X11229706Y-16485484D02*
X11353515Y-16485484D01*
X11353515Y-16485484D02*
X11286848Y-16561674D01*
X11286848Y-16561674D02*
X11315420Y-16561674D01*
X11315420Y-16561674D02*
X11334468Y-16571198D01*
X11334468Y-16571198D02*
X11343991Y-16580722D01*
X11343991Y-16580722D02*
X11353515Y-16599769D01*
X11353515Y-16599769D02*
X11353515Y-16647388D01*
X11353515Y-16647388D02*
X11343991Y-16666436D01*
X11343991Y-16666436D02*
X11334468Y-16675960D01*
X11334468Y-16675960D02*
X11315420Y-16685484D01*
X11315420Y-16685484D02*
X11258277Y-16685484D01*
X11258277Y-16685484D02*
X11239229Y-16675960D01*
X11239229Y-16675960D02*
X11229706Y-16666436D01*
X11477325Y-16485484D02*
X11496372Y-16485484D01*
X11496372Y-16485484D02*
X11515420Y-16495008D01*
X11515420Y-16495008D02*
X11524944Y-16504531D01*
X11524944Y-16504531D02*
X11534468Y-16523579D01*
X11534468Y-16523579D02*
X11543991Y-16561674D01*
X11543991Y-16561674D02*
X11543991Y-16609293D01*
X11543991Y-16609293D02*
X11534468Y-16647388D01*
X11534468Y-16647388D02*
X11524944Y-16666436D01*
X11524944Y-16666436D02*
X11515420Y-16675960D01*
X11515420Y-16675960D02*
X11496372Y-16685484D01*
X11496372Y-16685484D02*
X11477325Y-16685484D01*
X11477325Y-16685484D02*
X11458277Y-16675960D01*
X11458277Y-16675960D02*
X11448753Y-16666436D01*
X11448753Y-16666436D02*
X11439229Y-16647388D01*
X11439229Y-16647388D02*
X11429706Y-16609293D01*
X11429706Y-16609293D02*
X11429706Y-16561674D01*
X11429706Y-16561674D02*
X11439229Y-16523579D01*
X11439229Y-16523579D02*
X11448753Y-16504531D01*
X11448753Y-16504531D02*
X11458277Y-16495008D01*
X11458277Y-16495008D02*
X11477325Y-16485484D01*
X11782087Y-16685484D02*
X11782087Y-16485484D01*
X11867801Y-16685484D02*
X11867801Y-16580722D01*
X11867801Y-16580722D02*
X11858277Y-16561674D01*
X11858277Y-16561674D02*
X11839230Y-16552150D01*
X11839230Y-16552150D02*
X11810658Y-16552150D01*
X11810658Y-16552150D02*
X11791610Y-16561674D01*
X11791610Y-16561674D02*
X11782087Y-16571198D01*
X11991610Y-16685484D02*
X11972563Y-16675960D01*
X11972563Y-16675960D02*
X11963039Y-16666436D01*
X11963039Y-16666436D02*
X11953515Y-16647388D01*
X11953515Y-16647388D02*
X11953515Y-16590246D01*
X11953515Y-16590246D02*
X11963039Y-16571198D01*
X11963039Y-16571198D02*
X11972563Y-16561674D01*
X11972563Y-16561674D02*
X11991610Y-16552150D01*
X11991610Y-16552150D02*
X12020182Y-16552150D01*
X12020182Y-16552150D02*
X12039230Y-16561674D01*
X12039230Y-16561674D02*
X12048753Y-16571198D01*
X12048753Y-16571198D02*
X12058277Y-16590246D01*
X12058277Y-16590246D02*
X12058277Y-16647388D01*
X12058277Y-16647388D02*
X12048753Y-16666436D01*
X12048753Y-16666436D02*
X12039230Y-16675960D01*
X12039230Y-16675960D02*
X12020182Y-16685484D01*
X12020182Y-16685484D02*
X11991610Y-16685484D01*
X12172563Y-16685484D02*
X12153515Y-16675960D01*
X12153515Y-16675960D02*
X12143991Y-16656912D01*
X12143991Y-16656912D02*
X12143991Y-16485484D01*
X12324944Y-16675960D02*
X12305896Y-16685484D01*
X12305896Y-16685484D02*
X12267801Y-16685484D01*
X12267801Y-16685484D02*
X12248753Y-16675960D01*
X12248753Y-16675960D02*
X12239230Y-16656912D01*
X12239230Y-16656912D02*
X12239230Y-16580722D01*
X12239230Y-16580722D02*
X12248753Y-16561674D01*
X12248753Y-16561674D02*
X12267801Y-16552150D01*
X12267801Y-16552150D02*
X12305896Y-16552150D01*
X12305896Y-16552150D02*
X12324944Y-16561674D01*
X12324944Y-16561674D02*
X12334468Y-16580722D01*
X12334468Y-16580722D02*
X12334468Y-16599769D01*
X12334468Y-16599769D02*
X12239230Y-16618817D01*
X12410658Y-16675960D02*
X12429706Y-16685484D01*
X12429706Y-16685484D02*
X12467801Y-16685484D01*
X12467801Y-16685484D02*
X12486849Y-16675960D01*
X12486849Y-16675960D02*
X12496372Y-16656912D01*
X12496372Y-16656912D02*
X12496372Y-16647388D01*
X12496372Y-16647388D02*
X12486849Y-16628341D01*
X12486849Y-16628341D02*
X12467801Y-16618817D01*
X12467801Y-16618817D02*
X12439230Y-16618817D01*
X12439230Y-16618817D02*
X12420182Y-16609293D01*
X12420182Y-16609293D02*
X12410658Y-16590246D01*
X12410658Y-16590246D02*
X12410658Y-16580722D01*
X12410658Y-16580722D02*
X12420182Y-16561674D01*
X12420182Y-16561674D02*
X12439230Y-16552150D01*
X12439230Y-16552150D02*
X12467801Y-16552150D01*
X12467801Y-16552150D02*
X12486849Y-16561674D01*
X12563039Y-16761674D02*
X12572563Y-16752150D01*
X12572563Y-16752150D02*
X12591611Y-16723579D01*
X12591611Y-16723579D02*
X12601134Y-16704531D01*
X12601134Y-16704531D02*
X12610658Y-16675960D01*
X12610658Y-16675960D02*
X12620182Y-16628341D01*
X12620182Y-16628341D02*
X12620182Y-16590246D01*
X12620182Y-16590246D02*
X12610658Y-16542627D01*
X12610658Y-16542627D02*
X12601134Y-16514055D01*
X12601134Y-16514055D02*
X12591611Y-16495008D01*
X12591611Y-16495008D02*
X12572563Y-16466436D01*
X12572563Y-16466436D02*
X12563039Y-16456912D01*
D12*
X7577500Y-16838000D02*
X7577500Y-16878000D01*
X7557500Y-16858000D02*
X7597500Y-16858000D01*
D11*
X7896372Y-16749484D02*
X7915420Y-16749484D01*
X7915420Y-16749484D02*
X7934467Y-16759008D01*
X7934467Y-16759008D02*
X7943991Y-16768531D01*
X7943991Y-16768531D02*
X7953515Y-16787579D01*
X7953515Y-16787579D02*
X7963039Y-16825674D01*
X7963039Y-16825674D02*
X7963039Y-16873293D01*
X7963039Y-16873293D02*
X7953515Y-16911389D01*
X7953515Y-16911389D02*
X7943991Y-16930436D01*
X7943991Y-16930436D02*
X7934467Y-16939960D01*
X7934467Y-16939960D02*
X7915420Y-16949484D01*
X7915420Y-16949484D02*
X7896372Y-16949484D01*
X7896372Y-16949484D02*
X7877324Y-16939960D01*
X7877324Y-16939960D02*
X7867801Y-16930436D01*
X7867801Y-16930436D02*
X7858277Y-16911389D01*
X7858277Y-16911389D02*
X7848753Y-16873293D01*
X7848753Y-16873293D02*
X7848753Y-16825674D01*
X7848753Y-16825674D02*
X7858277Y-16787579D01*
X7858277Y-16787579D02*
X7867801Y-16768531D01*
X7867801Y-16768531D02*
X7877324Y-16759008D01*
X7877324Y-16759008D02*
X7896372Y-16749484D01*
X8048753Y-16930436D02*
X8058277Y-16939960D01*
X8058277Y-16939960D02*
X8048753Y-16949484D01*
X8048753Y-16949484D02*
X8039229Y-16939960D01*
X8039229Y-16939960D02*
X8048753Y-16930436D01*
X8048753Y-16930436D02*
X8048753Y-16949484D01*
X8229705Y-16816150D02*
X8229705Y-16949484D01*
X8182086Y-16739960D02*
X8134467Y-16882817D01*
X8134467Y-16882817D02*
X8258277Y-16882817D01*
X8372562Y-16749484D02*
X8391610Y-16749484D01*
X8391610Y-16749484D02*
X8410658Y-16759008D01*
X8410658Y-16759008D02*
X8420182Y-16768531D01*
X8420182Y-16768531D02*
X8429705Y-16787579D01*
X8429705Y-16787579D02*
X8439229Y-16825674D01*
X8439229Y-16825674D02*
X8439229Y-16873293D01*
X8439229Y-16873293D02*
X8429705Y-16911389D01*
X8429705Y-16911389D02*
X8420182Y-16930436D01*
X8420182Y-16930436D02*
X8410658Y-16939960D01*
X8410658Y-16939960D02*
X8391610Y-16949484D01*
X8391610Y-16949484D02*
X8372562Y-16949484D01*
X8372562Y-16949484D02*
X8353515Y-16939960D01*
X8353515Y-16939960D02*
X8343991Y-16930436D01*
X8343991Y-16930436D02*
X8334467Y-16911389D01*
X8334467Y-16911389D02*
X8324943Y-16873293D01*
X8324943Y-16873293D02*
X8324943Y-16825674D01*
X8324943Y-16825674D02*
X8334467Y-16787579D01*
X8334467Y-16787579D02*
X8343991Y-16768531D01*
X8343991Y-16768531D02*
X8353515Y-16759008D01*
X8353515Y-16759008D02*
X8372562Y-16749484D01*
X8563039Y-16749484D02*
X8582086Y-16749484D01*
X8582086Y-16749484D02*
X8601134Y-16759008D01*
X8601134Y-16759008D02*
X8610658Y-16768531D01*
X8610658Y-16768531D02*
X8620182Y-16787579D01*
X8620182Y-16787579D02*
X8629705Y-16825674D01*
X8629705Y-16825674D02*
X8629705Y-16873293D01*
X8629705Y-16873293D02*
X8620182Y-16911389D01*
X8620182Y-16911389D02*
X8610658Y-16930436D01*
X8610658Y-16930436D02*
X8601134Y-16939960D01*
X8601134Y-16939960D02*
X8582086Y-16949484D01*
X8582086Y-16949484D02*
X8563039Y-16949484D01*
X8563039Y-16949484D02*
X8543991Y-16939960D01*
X8543991Y-16939960D02*
X8534467Y-16930436D01*
X8534467Y-16930436D02*
X8524944Y-16911389D01*
X8524944Y-16911389D02*
X8515420Y-16873293D01*
X8515420Y-16873293D02*
X8515420Y-16825674D01*
X8515420Y-16825674D02*
X8524944Y-16787579D01*
X8524944Y-16787579D02*
X8534467Y-16768531D01*
X8534467Y-16768531D02*
X8543991Y-16759008D01*
X8543991Y-16759008D02*
X8563039Y-16749484D01*
X8715420Y-16949484D02*
X8715420Y-16816150D01*
X8715420Y-16835198D02*
X8724944Y-16825674D01*
X8724944Y-16825674D02*
X8743991Y-16816150D01*
X8743991Y-16816150D02*
X8772563Y-16816150D01*
X8772563Y-16816150D02*
X8791610Y-16825674D01*
X8791610Y-16825674D02*
X8801134Y-16844722D01*
X8801134Y-16844722D02*
X8801134Y-16949484D01*
X8801134Y-16844722D02*
X8810658Y-16825674D01*
X8810658Y-16825674D02*
X8829705Y-16816150D01*
X8829705Y-16816150D02*
X8858277Y-16816150D01*
X8858277Y-16816150D02*
X8877325Y-16825674D01*
X8877325Y-16825674D02*
X8886848Y-16844722D01*
X8886848Y-16844722D02*
X8886848Y-16949484D01*
X8982086Y-16949484D02*
X8982086Y-16816150D01*
X8982086Y-16835198D02*
X8991610Y-16825674D01*
X8991610Y-16825674D02*
X9010658Y-16816150D01*
X9010658Y-16816150D02*
X9039229Y-16816150D01*
X9039229Y-16816150D02*
X9058277Y-16825674D01*
X9058277Y-16825674D02*
X9067801Y-16844722D01*
X9067801Y-16844722D02*
X9067801Y-16949484D01*
X9067801Y-16844722D02*
X9077325Y-16825674D01*
X9077325Y-16825674D02*
X9096372Y-16816150D01*
X9096372Y-16816150D02*
X9124944Y-16816150D01*
X9124944Y-16816150D02*
X9143991Y-16825674D01*
X9143991Y-16825674D02*
X9153515Y-16844722D01*
X9153515Y-16844722D02*
X9153515Y-16949484D01*
X9543991Y-16739960D02*
X9372563Y-16997103D01*
X9801134Y-16749484D02*
X9820182Y-16749484D01*
X9820182Y-16749484D02*
X9839229Y-16759008D01*
X9839229Y-16759008D02*
X9848753Y-16768531D01*
X9848753Y-16768531D02*
X9858277Y-16787579D01*
X9858277Y-16787579D02*
X9867801Y-16825674D01*
X9867801Y-16825674D02*
X9867801Y-16873293D01*
X9867801Y-16873293D02*
X9858277Y-16911389D01*
X9858277Y-16911389D02*
X9848753Y-16930436D01*
X9848753Y-16930436D02*
X9839229Y-16939960D01*
X9839229Y-16939960D02*
X9820182Y-16949484D01*
X9820182Y-16949484D02*
X9801134Y-16949484D01*
X9801134Y-16949484D02*
X9782087Y-16939960D01*
X9782087Y-16939960D02*
X9772563Y-16930436D01*
X9772563Y-16930436D02*
X9763039Y-16911389D01*
X9763039Y-16911389D02*
X9753515Y-16873293D01*
X9753515Y-16873293D02*
X9753515Y-16825674D01*
X9753515Y-16825674D02*
X9763039Y-16787579D01*
X9763039Y-16787579D02*
X9772563Y-16768531D01*
X9772563Y-16768531D02*
X9782087Y-16759008D01*
X9782087Y-16759008D02*
X9801134Y-16749484D01*
X9953515Y-16930436D02*
X9963039Y-16939960D01*
X9963039Y-16939960D02*
X9953515Y-16949484D01*
X9953515Y-16949484D02*
X9943991Y-16939960D01*
X9943991Y-16939960D02*
X9953515Y-16930436D01*
X9953515Y-16930436D02*
X9953515Y-16949484D01*
X10086848Y-16749484D02*
X10105896Y-16749484D01*
X10105896Y-16749484D02*
X10124944Y-16759008D01*
X10124944Y-16759008D02*
X10134468Y-16768531D01*
X10134468Y-16768531D02*
X10143991Y-16787579D01*
X10143991Y-16787579D02*
X10153515Y-16825674D01*
X10153515Y-16825674D02*
X10153515Y-16873293D01*
X10153515Y-16873293D02*
X10143991Y-16911389D01*
X10143991Y-16911389D02*
X10134468Y-16930436D01*
X10134468Y-16930436D02*
X10124944Y-16939960D01*
X10124944Y-16939960D02*
X10105896Y-16949484D01*
X10105896Y-16949484D02*
X10086848Y-16949484D01*
X10086848Y-16949484D02*
X10067801Y-16939960D01*
X10067801Y-16939960D02*
X10058277Y-16930436D01*
X10058277Y-16930436D02*
X10048753Y-16911389D01*
X10048753Y-16911389D02*
X10039229Y-16873293D01*
X10039229Y-16873293D02*
X10039229Y-16825674D01*
X10039229Y-16825674D02*
X10048753Y-16787579D01*
X10048753Y-16787579D02*
X10058277Y-16768531D01*
X10058277Y-16768531D02*
X10067801Y-16759008D01*
X10067801Y-16759008D02*
X10086848Y-16749484D01*
X10343991Y-16949484D02*
X10229706Y-16949484D01*
X10286848Y-16949484D02*
X10286848Y-16749484D01*
X10286848Y-16749484D02*
X10267801Y-16778055D01*
X10267801Y-16778055D02*
X10248753Y-16797103D01*
X10248753Y-16797103D02*
X10229706Y-16806627D01*
X10524944Y-16749484D02*
X10429706Y-16749484D01*
X10429706Y-16749484D02*
X10420182Y-16844722D01*
X10420182Y-16844722D02*
X10429706Y-16835198D01*
X10429706Y-16835198D02*
X10448753Y-16825674D01*
X10448753Y-16825674D02*
X10496372Y-16825674D01*
X10496372Y-16825674D02*
X10515420Y-16835198D01*
X10515420Y-16835198D02*
X10524944Y-16844722D01*
X10524944Y-16844722D02*
X10534468Y-16863770D01*
X10534468Y-16863770D02*
X10534468Y-16911389D01*
X10534468Y-16911389D02*
X10524944Y-16930436D01*
X10524944Y-16930436D02*
X10515420Y-16939960D01*
X10515420Y-16939960D02*
X10496372Y-16949484D01*
X10496372Y-16949484D02*
X10448753Y-16949484D01*
X10448753Y-16949484D02*
X10429706Y-16939960D01*
X10429706Y-16939960D02*
X10420182Y-16930436D01*
X10601134Y-16749484D02*
X10734468Y-16749484D01*
X10734468Y-16749484D02*
X10648753Y-16949484D01*
X10801134Y-16749484D02*
X10801134Y-16787579D01*
X10877325Y-16749484D02*
X10877325Y-16787579D01*
X11172563Y-17025674D02*
X11163039Y-17016150D01*
X11163039Y-17016150D02*
X11143991Y-16987579D01*
X11143991Y-16987579D02*
X11134468Y-16968531D01*
X11134468Y-16968531D02*
X11124944Y-16939960D01*
X11124944Y-16939960D02*
X11115420Y-16892341D01*
X11115420Y-16892341D02*
X11115420Y-16854246D01*
X11115420Y-16854246D02*
X11124944Y-16806627D01*
X11124944Y-16806627D02*
X11134468Y-16778055D01*
X11134468Y-16778055D02*
X11143991Y-16759008D01*
X11143991Y-16759008D02*
X11163039Y-16730436D01*
X11163039Y-16730436D02*
X11172563Y-16720912D01*
X11334468Y-16749484D02*
X11296372Y-16749484D01*
X11296372Y-16749484D02*
X11277325Y-16759008D01*
X11277325Y-16759008D02*
X11267801Y-16768531D01*
X11267801Y-16768531D02*
X11248753Y-16797103D01*
X11248753Y-16797103D02*
X11239229Y-16835198D01*
X11239229Y-16835198D02*
X11239229Y-16911389D01*
X11239229Y-16911389D02*
X11248753Y-16930436D01*
X11248753Y-16930436D02*
X11258277Y-16939960D01*
X11258277Y-16939960D02*
X11277325Y-16949484D01*
X11277325Y-16949484D02*
X11315420Y-16949484D01*
X11315420Y-16949484D02*
X11334468Y-16939960D01*
X11334468Y-16939960D02*
X11343991Y-16930436D01*
X11343991Y-16930436D02*
X11353515Y-16911389D01*
X11353515Y-16911389D02*
X11353515Y-16863770D01*
X11353515Y-16863770D02*
X11343991Y-16844722D01*
X11343991Y-16844722D02*
X11334468Y-16835198D01*
X11334468Y-16835198D02*
X11315420Y-16825674D01*
X11315420Y-16825674D02*
X11277325Y-16825674D01*
X11277325Y-16825674D02*
X11258277Y-16835198D01*
X11258277Y-16835198D02*
X11248753Y-16844722D01*
X11248753Y-16844722D02*
X11239229Y-16863770D01*
X11591610Y-16949484D02*
X11591610Y-16749484D01*
X11677325Y-16949484D02*
X11677325Y-16844722D01*
X11677325Y-16844722D02*
X11667801Y-16825674D01*
X11667801Y-16825674D02*
X11648753Y-16816150D01*
X11648753Y-16816150D02*
X11620182Y-16816150D01*
X11620182Y-16816150D02*
X11601134Y-16825674D01*
X11601134Y-16825674D02*
X11591610Y-16835198D01*
X11801134Y-16949484D02*
X11782087Y-16939960D01*
X11782087Y-16939960D02*
X11772563Y-16930436D01*
X11772563Y-16930436D02*
X11763039Y-16911389D01*
X11763039Y-16911389D02*
X11763039Y-16854246D01*
X11763039Y-16854246D02*
X11772563Y-16835198D01*
X11772563Y-16835198D02*
X11782087Y-16825674D01*
X11782087Y-16825674D02*
X11801134Y-16816150D01*
X11801134Y-16816150D02*
X11829706Y-16816150D01*
X11829706Y-16816150D02*
X11848753Y-16825674D01*
X11848753Y-16825674D02*
X11858277Y-16835198D01*
X11858277Y-16835198D02*
X11867801Y-16854246D01*
X11867801Y-16854246D02*
X11867801Y-16911389D01*
X11867801Y-16911389D02*
X11858277Y-16930436D01*
X11858277Y-16930436D02*
X11848753Y-16939960D01*
X11848753Y-16939960D02*
X11829706Y-16949484D01*
X11829706Y-16949484D02*
X11801134Y-16949484D01*
X11982087Y-16949484D02*
X11963039Y-16939960D01*
X11963039Y-16939960D02*
X11953515Y-16920912D01*
X11953515Y-16920912D02*
X11953515Y-16749484D01*
X12134468Y-16939960D02*
X12115420Y-16949484D01*
X12115420Y-16949484D02*
X12077325Y-16949484D01*
X12077325Y-16949484D02*
X12058277Y-16939960D01*
X12058277Y-16939960D02*
X12048753Y-16920912D01*
X12048753Y-16920912D02*
X12048753Y-16844722D01*
X12048753Y-16844722D02*
X12058277Y-16825674D01*
X12058277Y-16825674D02*
X12077325Y-16816150D01*
X12077325Y-16816150D02*
X12115420Y-16816150D01*
X12115420Y-16816150D02*
X12134468Y-16825674D01*
X12134468Y-16825674D02*
X12143991Y-16844722D01*
X12143991Y-16844722D02*
X12143991Y-16863770D01*
X12143991Y-16863770D02*
X12048753Y-16882817D01*
X12220182Y-16939960D02*
X12239230Y-16949484D01*
X12239230Y-16949484D02*
X12277325Y-16949484D01*
X12277325Y-16949484D02*
X12296372Y-16939960D01*
X12296372Y-16939960D02*
X12305896Y-16920912D01*
X12305896Y-16920912D02*
X12305896Y-16911389D01*
X12305896Y-16911389D02*
X12296372Y-16892341D01*
X12296372Y-16892341D02*
X12277325Y-16882817D01*
X12277325Y-16882817D02*
X12248753Y-16882817D01*
X12248753Y-16882817D02*
X12229706Y-16873293D01*
X12229706Y-16873293D02*
X12220182Y-16854246D01*
X12220182Y-16854246D02*
X12220182Y-16844722D01*
X12220182Y-16844722D02*
X12229706Y-16825674D01*
X12229706Y-16825674D02*
X12248753Y-16816150D01*
X12248753Y-16816150D02*
X12277325Y-16816150D01*
X12277325Y-16816150D02*
X12296372Y-16825674D01*
X12372563Y-17025674D02*
X12382087Y-17016150D01*
X12382087Y-17016150D02*
X12401134Y-16987579D01*
X12401134Y-16987579D02*
X12410658Y-16968531D01*
X12410658Y-16968531D02*
X12420182Y-16939960D01*
X12420182Y-16939960D02*
X12429706Y-16892341D01*
X12429706Y-16892341D02*
X12429706Y-16854246D01*
X12429706Y-16854246D02*
X12420182Y-16806627D01*
X12420182Y-16806627D02*
X12410658Y-16778055D01*
X12410658Y-16778055D02*
X12401134Y-16759008D01*
X12401134Y-16759008D02*
X12382087Y-16730436D01*
X12382087Y-16730436D02*
X12372563Y-16720912D01*
D12*
X7585784Y-17150285D02*
X7585784Y-17093716D01*
X7529215Y-17093716D01*
X7529215Y-17150285D01*
X7585784Y-17150285D01*
D11*
X7896372Y-17013484D02*
X7915420Y-17013484D01*
X7915420Y-17013484D02*
X7934467Y-17023008D01*
X7934467Y-17023008D02*
X7943991Y-17032531D01*
X7943991Y-17032531D02*
X7953515Y-17051579D01*
X7953515Y-17051579D02*
X7963039Y-17089674D01*
X7963039Y-17089674D02*
X7963039Y-17137293D01*
X7963039Y-17137293D02*
X7953515Y-17175389D01*
X7953515Y-17175389D02*
X7943991Y-17194436D01*
X7943991Y-17194436D02*
X7934467Y-17203960D01*
X7934467Y-17203960D02*
X7915420Y-17213484D01*
X7915420Y-17213484D02*
X7896372Y-17213484D01*
X7896372Y-17213484D02*
X7877324Y-17203960D01*
X7877324Y-17203960D02*
X7867801Y-17194436D01*
X7867801Y-17194436D02*
X7858277Y-17175389D01*
X7858277Y-17175389D02*
X7848753Y-17137293D01*
X7848753Y-17137293D02*
X7848753Y-17089674D01*
X7848753Y-17089674D02*
X7858277Y-17051579D01*
X7858277Y-17051579D02*
X7867801Y-17032531D01*
X7867801Y-17032531D02*
X7877324Y-17023008D01*
X7877324Y-17023008D02*
X7896372Y-17013484D01*
X8048753Y-17194436D02*
X8058277Y-17203960D01*
X8058277Y-17203960D02*
X8048753Y-17213484D01*
X8048753Y-17213484D02*
X8039229Y-17203960D01*
X8039229Y-17203960D02*
X8048753Y-17194436D01*
X8048753Y-17194436D02*
X8048753Y-17213484D01*
X8172562Y-17099198D02*
X8153515Y-17089674D01*
X8153515Y-17089674D02*
X8143991Y-17080150D01*
X8143991Y-17080150D02*
X8134467Y-17061103D01*
X8134467Y-17061103D02*
X8134467Y-17051579D01*
X8134467Y-17051579D02*
X8143991Y-17032531D01*
X8143991Y-17032531D02*
X8153515Y-17023008D01*
X8153515Y-17023008D02*
X8172562Y-17013484D01*
X8172562Y-17013484D02*
X8210658Y-17013484D01*
X8210658Y-17013484D02*
X8229705Y-17023008D01*
X8229705Y-17023008D02*
X8239229Y-17032531D01*
X8239229Y-17032531D02*
X8248753Y-17051579D01*
X8248753Y-17051579D02*
X8248753Y-17061103D01*
X8248753Y-17061103D02*
X8239229Y-17080150D01*
X8239229Y-17080150D02*
X8229705Y-17089674D01*
X8229705Y-17089674D02*
X8210658Y-17099198D01*
X8210658Y-17099198D02*
X8172562Y-17099198D01*
X8172562Y-17099198D02*
X8153515Y-17108722D01*
X8153515Y-17108722D02*
X8143991Y-17118246D01*
X8143991Y-17118246D02*
X8134467Y-17137293D01*
X8134467Y-17137293D02*
X8134467Y-17175389D01*
X8134467Y-17175389D02*
X8143991Y-17194436D01*
X8143991Y-17194436D02*
X8153515Y-17203960D01*
X8153515Y-17203960D02*
X8172562Y-17213484D01*
X8172562Y-17213484D02*
X8210658Y-17213484D01*
X8210658Y-17213484D02*
X8229705Y-17203960D01*
X8229705Y-17203960D02*
X8239229Y-17194436D01*
X8239229Y-17194436D02*
X8248753Y-17175389D01*
X8248753Y-17175389D02*
X8248753Y-17137293D01*
X8248753Y-17137293D02*
X8239229Y-17118246D01*
X8239229Y-17118246D02*
X8229705Y-17108722D01*
X8229705Y-17108722D02*
X8210658Y-17099198D01*
X8372562Y-17013484D02*
X8391610Y-17013484D01*
X8391610Y-17013484D02*
X8410658Y-17023008D01*
X8410658Y-17023008D02*
X8420182Y-17032531D01*
X8420182Y-17032531D02*
X8429705Y-17051579D01*
X8429705Y-17051579D02*
X8439229Y-17089674D01*
X8439229Y-17089674D02*
X8439229Y-17137293D01*
X8439229Y-17137293D02*
X8429705Y-17175389D01*
X8429705Y-17175389D02*
X8420182Y-17194436D01*
X8420182Y-17194436D02*
X8410658Y-17203960D01*
X8410658Y-17203960D02*
X8391610Y-17213484D01*
X8391610Y-17213484D02*
X8372562Y-17213484D01*
X8372562Y-17213484D02*
X8353515Y-17203960D01*
X8353515Y-17203960D02*
X8343991Y-17194436D01*
X8343991Y-17194436D02*
X8334467Y-17175389D01*
X8334467Y-17175389D02*
X8324943Y-17137293D01*
X8324943Y-17137293D02*
X8324943Y-17089674D01*
X8324943Y-17089674D02*
X8334467Y-17051579D01*
X8334467Y-17051579D02*
X8343991Y-17032531D01*
X8343991Y-17032531D02*
X8353515Y-17023008D01*
X8353515Y-17023008D02*
X8372562Y-17013484D01*
X8563039Y-17013484D02*
X8582086Y-17013484D01*
X8582086Y-17013484D02*
X8601134Y-17023008D01*
X8601134Y-17023008D02*
X8610658Y-17032531D01*
X8610658Y-17032531D02*
X8620182Y-17051579D01*
X8620182Y-17051579D02*
X8629705Y-17089674D01*
X8629705Y-17089674D02*
X8629705Y-17137293D01*
X8629705Y-17137293D02*
X8620182Y-17175389D01*
X8620182Y-17175389D02*
X8610658Y-17194436D01*
X8610658Y-17194436D02*
X8601134Y-17203960D01*
X8601134Y-17203960D02*
X8582086Y-17213484D01*
X8582086Y-17213484D02*
X8563039Y-17213484D01*
X8563039Y-17213484D02*
X8543991Y-17203960D01*
X8543991Y-17203960D02*
X8534467Y-17194436D01*
X8534467Y-17194436D02*
X8524944Y-17175389D01*
X8524944Y-17175389D02*
X8515420Y-17137293D01*
X8515420Y-17137293D02*
X8515420Y-17089674D01*
X8515420Y-17089674D02*
X8524944Y-17051579D01*
X8524944Y-17051579D02*
X8534467Y-17032531D01*
X8534467Y-17032531D02*
X8543991Y-17023008D01*
X8543991Y-17023008D02*
X8563039Y-17013484D01*
X8715420Y-17213484D02*
X8715420Y-17080150D01*
X8715420Y-17099198D02*
X8724944Y-17089674D01*
X8724944Y-17089674D02*
X8743991Y-17080150D01*
X8743991Y-17080150D02*
X8772563Y-17080150D01*
X8772563Y-17080150D02*
X8791610Y-17089674D01*
X8791610Y-17089674D02*
X8801134Y-17108722D01*
X8801134Y-17108722D02*
X8801134Y-17213484D01*
X8801134Y-17108722D02*
X8810658Y-17089674D01*
X8810658Y-17089674D02*
X8829705Y-17080150D01*
X8829705Y-17080150D02*
X8858277Y-17080150D01*
X8858277Y-17080150D02*
X8877325Y-17089674D01*
X8877325Y-17089674D02*
X8886848Y-17108722D01*
X8886848Y-17108722D02*
X8886848Y-17213484D01*
X8982086Y-17213484D02*
X8982086Y-17080150D01*
X8982086Y-17099198D02*
X8991610Y-17089674D01*
X8991610Y-17089674D02*
X9010658Y-17080150D01*
X9010658Y-17080150D02*
X9039229Y-17080150D01*
X9039229Y-17080150D02*
X9058277Y-17089674D01*
X9058277Y-17089674D02*
X9067801Y-17108722D01*
X9067801Y-17108722D02*
X9067801Y-17213484D01*
X9067801Y-17108722D02*
X9077325Y-17089674D01*
X9077325Y-17089674D02*
X9096372Y-17080150D01*
X9096372Y-17080150D02*
X9124944Y-17080150D01*
X9124944Y-17080150D02*
X9143991Y-17089674D01*
X9143991Y-17089674D02*
X9153515Y-17108722D01*
X9153515Y-17108722D02*
X9153515Y-17213484D01*
X9543991Y-17003960D02*
X9372563Y-17261103D01*
X9801134Y-17013484D02*
X9820182Y-17013484D01*
X9820182Y-17013484D02*
X9839229Y-17023008D01*
X9839229Y-17023008D02*
X9848753Y-17032531D01*
X9848753Y-17032531D02*
X9858277Y-17051579D01*
X9858277Y-17051579D02*
X9867801Y-17089674D01*
X9867801Y-17089674D02*
X9867801Y-17137293D01*
X9867801Y-17137293D02*
X9858277Y-17175389D01*
X9858277Y-17175389D02*
X9848753Y-17194436D01*
X9848753Y-17194436D02*
X9839229Y-17203960D01*
X9839229Y-17203960D02*
X9820182Y-17213484D01*
X9820182Y-17213484D02*
X9801134Y-17213484D01*
X9801134Y-17213484D02*
X9782087Y-17203960D01*
X9782087Y-17203960D02*
X9772563Y-17194436D01*
X9772563Y-17194436D02*
X9763039Y-17175389D01*
X9763039Y-17175389D02*
X9753515Y-17137293D01*
X9753515Y-17137293D02*
X9753515Y-17089674D01*
X9753515Y-17089674D02*
X9763039Y-17051579D01*
X9763039Y-17051579D02*
X9772563Y-17032531D01*
X9772563Y-17032531D02*
X9782087Y-17023008D01*
X9782087Y-17023008D02*
X9801134Y-17013484D01*
X9953515Y-17194436D02*
X9963039Y-17203960D01*
X9963039Y-17203960D02*
X9953515Y-17213484D01*
X9953515Y-17213484D02*
X9943991Y-17203960D01*
X9943991Y-17203960D02*
X9953515Y-17194436D01*
X9953515Y-17194436D02*
X9953515Y-17213484D01*
X10086848Y-17013484D02*
X10105896Y-17013484D01*
X10105896Y-17013484D02*
X10124944Y-17023008D01*
X10124944Y-17023008D02*
X10134468Y-17032531D01*
X10134468Y-17032531D02*
X10143991Y-17051579D01*
X10143991Y-17051579D02*
X10153515Y-17089674D01*
X10153515Y-17089674D02*
X10153515Y-17137293D01*
X10153515Y-17137293D02*
X10143991Y-17175389D01*
X10143991Y-17175389D02*
X10134468Y-17194436D01*
X10134468Y-17194436D02*
X10124944Y-17203960D01*
X10124944Y-17203960D02*
X10105896Y-17213484D01*
X10105896Y-17213484D02*
X10086848Y-17213484D01*
X10086848Y-17213484D02*
X10067801Y-17203960D01*
X10067801Y-17203960D02*
X10058277Y-17194436D01*
X10058277Y-17194436D02*
X10048753Y-17175389D01*
X10048753Y-17175389D02*
X10039229Y-17137293D01*
X10039229Y-17137293D02*
X10039229Y-17089674D01*
X10039229Y-17089674D02*
X10048753Y-17051579D01*
X10048753Y-17051579D02*
X10058277Y-17032531D01*
X10058277Y-17032531D02*
X10067801Y-17023008D01*
X10067801Y-17023008D02*
X10086848Y-17013484D01*
X10220182Y-17013484D02*
X10343991Y-17013484D01*
X10343991Y-17013484D02*
X10277325Y-17089674D01*
X10277325Y-17089674D02*
X10305896Y-17089674D01*
X10305896Y-17089674D02*
X10324944Y-17099198D01*
X10324944Y-17099198D02*
X10334468Y-17108722D01*
X10334468Y-17108722D02*
X10343991Y-17127770D01*
X10343991Y-17127770D02*
X10343991Y-17175389D01*
X10343991Y-17175389D02*
X10334468Y-17194436D01*
X10334468Y-17194436D02*
X10324944Y-17203960D01*
X10324944Y-17203960D02*
X10305896Y-17213484D01*
X10305896Y-17213484D02*
X10248753Y-17213484D01*
X10248753Y-17213484D02*
X10229706Y-17203960D01*
X10229706Y-17203960D02*
X10220182Y-17194436D01*
X10534468Y-17213484D02*
X10420182Y-17213484D01*
X10477325Y-17213484D02*
X10477325Y-17013484D01*
X10477325Y-17013484D02*
X10458277Y-17042055D01*
X10458277Y-17042055D02*
X10439229Y-17061103D01*
X10439229Y-17061103D02*
X10420182Y-17070627D01*
X10715420Y-17013484D02*
X10620182Y-17013484D01*
X10620182Y-17013484D02*
X10610658Y-17108722D01*
X10610658Y-17108722D02*
X10620182Y-17099198D01*
X10620182Y-17099198D02*
X10639229Y-17089674D01*
X10639229Y-17089674D02*
X10686849Y-17089674D01*
X10686849Y-17089674D02*
X10705896Y-17099198D01*
X10705896Y-17099198D02*
X10715420Y-17108722D01*
X10715420Y-17108722D02*
X10724944Y-17127770D01*
X10724944Y-17127770D02*
X10724944Y-17175389D01*
X10724944Y-17175389D02*
X10715420Y-17194436D01*
X10715420Y-17194436D02*
X10705896Y-17203960D01*
X10705896Y-17203960D02*
X10686849Y-17213484D01*
X10686849Y-17213484D02*
X10639229Y-17213484D01*
X10639229Y-17213484D02*
X10620182Y-17203960D01*
X10620182Y-17203960D02*
X10610658Y-17194436D01*
X10801134Y-17013484D02*
X10801134Y-17051579D01*
X10877325Y-17013484D02*
X10877325Y-17051579D01*
X11172563Y-17289674D02*
X11163039Y-17280150D01*
X11163039Y-17280150D02*
X11143991Y-17251579D01*
X11143991Y-17251579D02*
X11134468Y-17232531D01*
X11134468Y-17232531D02*
X11124944Y-17203960D01*
X11124944Y-17203960D02*
X11115420Y-17156341D01*
X11115420Y-17156341D02*
X11115420Y-17118246D01*
X11115420Y-17118246D02*
X11124944Y-17070627D01*
X11124944Y-17070627D02*
X11134468Y-17042055D01*
X11134468Y-17042055D02*
X11143991Y-17023008D01*
X11143991Y-17023008D02*
X11163039Y-16994436D01*
X11163039Y-16994436D02*
X11172563Y-16984912D01*
X11353515Y-17213484D02*
X11239229Y-17213484D01*
X11296372Y-17213484D02*
X11296372Y-17013484D01*
X11296372Y-17013484D02*
X11277325Y-17042055D01*
X11277325Y-17042055D02*
X11258277Y-17061103D01*
X11258277Y-17061103D02*
X11239229Y-17070627D01*
X11524944Y-17080150D02*
X11524944Y-17213484D01*
X11477325Y-17003960D02*
X11429706Y-17146817D01*
X11429706Y-17146817D02*
X11553515Y-17146817D01*
X11782087Y-17213484D02*
X11782087Y-17013484D01*
X11867801Y-17213484D02*
X11867801Y-17108722D01*
X11867801Y-17108722D02*
X11858277Y-17089674D01*
X11858277Y-17089674D02*
X11839230Y-17080150D01*
X11839230Y-17080150D02*
X11810658Y-17080150D01*
X11810658Y-17080150D02*
X11791610Y-17089674D01*
X11791610Y-17089674D02*
X11782087Y-17099198D01*
X11991610Y-17213484D02*
X11972563Y-17203960D01*
X11972563Y-17203960D02*
X11963039Y-17194436D01*
X11963039Y-17194436D02*
X11953515Y-17175389D01*
X11953515Y-17175389D02*
X11953515Y-17118246D01*
X11953515Y-17118246D02*
X11963039Y-17099198D01*
X11963039Y-17099198D02*
X11972563Y-17089674D01*
X11972563Y-17089674D02*
X11991610Y-17080150D01*
X11991610Y-17080150D02*
X12020182Y-17080150D01*
X12020182Y-17080150D02*
X12039230Y-17089674D01*
X12039230Y-17089674D02*
X12048753Y-17099198D01*
X12048753Y-17099198D02*
X12058277Y-17118246D01*
X12058277Y-17118246D02*
X12058277Y-17175389D01*
X12058277Y-17175389D02*
X12048753Y-17194436D01*
X12048753Y-17194436D02*
X12039230Y-17203960D01*
X12039230Y-17203960D02*
X12020182Y-17213484D01*
X12020182Y-17213484D02*
X11991610Y-17213484D01*
X12172563Y-17213484D02*
X12153515Y-17203960D01*
X12153515Y-17203960D02*
X12143991Y-17184912D01*
X12143991Y-17184912D02*
X12143991Y-17013484D01*
X12324944Y-17203960D02*
X12305896Y-17213484D01*
X12305896Y-17213484D02*
X12267801Y-17213484D01*
X12267801Y-17213484D02*
X12248753Y-17203960D01*
X12248753Y-17203960D02*
X12239230Y-17184912D01*
X12239230Y-17184912D02*
X12239230Y-17108722D01*
X12239230Y-17108722D02*
X12248753Y-17089674D01*
X12248753Y-17089674D02*
X12267801Y-17080150D01*
X12267801Y-17080150D02*
X12305896Y-17080150D01*
X12305896Y-17080150D02*
X12324944Y-17089674D01*
X12324944Y-17089674D02*
X12334468Y-17108722D01*
X12334468Y-17108722D02*
X12334468Y-17127770D01*
X12334468Y-17127770D02*
X12239230Y-17146817D01*
X12410658Y-17203960D02*
X12429706Y-17213484D01*
X12429706Y-17213484D02*
X12467801Y-17213484D01*
X12467801Y-17213484D02*
X12486849Y-17203960D01*
X12486849Y-17203960D02*
X12496372Y-17184912D01*
X12496372Y-17184912D02*
X12496372Y-17175389D01*
X12496372Y-17175389D02*
X12486849Y-17156341D01*
X12486849Y-17156341D02*
X12467801Y-17146817D01*
X12467801Y-17146817D02*
X12439230Y-17146817D01*
X12439230Y-17146817D02*
X12420182Y-17137293D01*
X12420182Y-17137293D02*
X12410658Y-17118246D01*
X12410658Y-17118246D02*
X12410658Y-17108722D01*
X12410658Y-17108722D02*
X12420182Y-17089674D01*
X12420182Y-17089674D02*
X12439230Y-17080150D01*
X12439230Y-17080150D02*
X12467801Y-17080150D01*
X12467801Y-17080150D02*
X12486849Y-17089674D01*
X12563039Y-17289674D02*
X12572563Y-17280150D01*
X12572563Y-17280150D02*
X12591611Y-17251579D01*
X12591611Y-17251579D02*
X12601134Y-17232531D01*
X12601134Y-17232531D02*
X12610658Y-17203960D01*
X12610658Y-17203960D02*
X12620182Y-17156341D01*
X12620182Y-17156341D02*
X12620182Y-17118246D01*
X12620182Y-17118246D02*
X12610658Y-17070627D01*
X12610658Y-17070627D02*
X12601134Y-17042055D01*
X12601134Y-17042055D02*
X12591611Y-17023008D01*
X12591611Y-17023008D02*
X12572563Y-16994436D01*
X12572563Y-16994436D02*
X12563039Y-16984912D01*
D12*
X7550000Y-17433500D02*
X7597500Y-17386000D01*
X7550000Y-17338500D01*
X7502500Y-17386000D01*
X7550000Y-17433500D01*
D11*
X7896372Y-17277484D02*
X7915420Y-17277484D01*
X7915420Y-17277484D02*
X7934467Y-17287008D01*
X7934467Y-17287008D02*
X7943991Y-17296531D01*
X7943991Y-17296531D02*
X7953515Y-17315579D01*
X7953515Y-17315579D02*
X7963039Y-17353674D01*
X7963039Y-17353674D02*
X7963039Y-17401293D01*
X7963039Y-17401293D02*
X7953515Y-17439389D01*
X7953515Y-17439389D02*
X7943991Y-17458436D01*
X7943991Y-17458436D02*
X7934467Y-17467960D01*
X7934467Y-17467960D02*
X7915420Y-17477484D01*
X7915420Y-17477484D02*
X7896372Y-17477484D01*
X7896372Y-17477484D02*
X7877324Y-17467960D01*
X7877324Y-17467960D02*
X7867801Y-17458436D01*
X7867801Y-17458436D02*
X7858277Y-17439389D01*
X7858277Y-17439389D02*
X7848753Y-17401293D01*
X7848753Y-17401293D02*
X7848753Y-17353674D01*
X7848753Y-17353674D02*
X7858277Y-17315579D01*
X7858277Y-17315579D02*
X7867801Y-17296531D01*
X7867801Y-17296531D02*
X7877324Y-17287008D01*
X7877324Y-17287008D02*
X7896372Y-17277484D01*
X8048753Y-17458436D02*
X8058277Y-17467960D01*
X8058277Y-17467960D02*
X8048753Y-17477484D01*
X8048753Y-17477484D02*
X8039229Y-17467960D01*
X8039229Y-17467960D02*
X8048753Y-17458436D01*
X8048753Y-17458436D02*
X8048753Y-17477484D01*
X8153515Y-17477484D02*
X8191610Y-17477484D01*
X8191610Y-17477484D02*
X8210658Y-17467960D01*
X8210658Y-17467960D02*
X8220182Y-17458436D01*
X8220182Y-17458436D02*
X8239229Y-17429865D01*
X8239229Y-17429865D02*
X8248753Y-17391770D01*
X8248753Y-17391770D02*
X8248753Y-17315579D01*
X8248753Y-17315579D02*
X8239229Y-17296531D01*
X8239229Y-17296531D02*
X8229705Y-17287008D01*
X8229705Y-17287008D02*
X8210658Y-17277484D01*
X8210658Y-17277484D02*
X8172562Y-17277484D01*
X8172562Y-17277484D02*
X8153515Y-17287008D01*
X8153515Y-17287008D02*
X8143991Y-17296531D01*
X8143991Y-17296531D02*
X8134467Y-17315579D01*
X8134467Y-17315579D02*
X8134467Y-17363198D01*
X8134467Y-17363198D02*
X8143991Y-17382246D01*
X8143991Y-17382246D02*
X8153515Y-17391770D01*
X8153515Y-17391770D02*
X8172562Y-17401293D01*
X8172562Y-17401293D02*
X8210658Y-17401293D01*
X8210658Y-17401293D02*
X8229705Y-17391770D01*
X8229705Y-17391770D02*
X8239229Y-17382246D01*
X8239229Y-17382246D02*
X8248753Y-17363198D01*
X8429705Y-17277484D02*
X8334467Y-17277484D01*
X8334467Y-17277484D02*
X8324943Y-17372722D01*
X8324943Y-17372722D02*
X8334467Y-17363198D01*
X8334467Y-17363198D02*
X8353515Y-17353674D01*
X8353515Y-17353674D02*
X8401134Y-17353674D01*
X8401134Y-17353674D02*
X8420182Y-17363198D01*
X8420182Y-17363198D02*
X8429705Y-17372722D01*
X8429705Y-17372722D02*
X8439229Y-17391770D01*
X8439229Y-17391770D02*
X8439229Y-17439389D01*
X8439229Y-17439389D02*
X8429705Y-17458436D01*
X8429705Y-17458436D02*
X8420182Y-17467960D01*
X8420182Y-17467960D02*
X8401134Y-17477484D01*
X8401134Y-17477484D02*
X8353515Y-17477484D01*
X8353515Y-17477484D02*
X8334467Y-17467960D01*
X8334467Y-17467960D02*
X8324943Y-17458436D01*
X8563039Y-17277484D02*
X8582086Y-17277484D01*
X8582086Y-17277484D02*
X8601134Y-17287008D01*
X8601134Y-17287008D02*
X8610658Y-17296531D01*
X8610658Y-17296531D02*
X8620182Y-17315579D01*
X8620182Y-17315579D02*
X8629705Y-17353674D01*
X8629705Y-17353674D02*
X8629705Y-17401293D01*
X8629705Y-17401293D02*
X8620182Y-17439389D01*
X8620182Y-17439389D02*
X8610658Y-17458436D01*
X8610658Y-17458436D02*
X8601134Y-17467960D01*
X8601134Y-17467960D02*
X8582086Y-17477484D01*
X8582086Y-17477484D02*
X8563039Y-17477484D01*
X8563039Y-17477484D02*
X8543991Y-17467960D01*
X8543991Y-17467960D02*
X8534467Y-17458436D01*
X8534467Y-17458436D02*
X8524944Y-17439389D01*
X8524944Y-17439389D02*
X8515420Y-17401293D01*
X8515420Y-17401293D02*
X8515420Y-17353674D01*
X8515420Y-17353674D02*
X8524944Y-17315579D01*
X8524944Y-17315579D02*
X8534467Y-17296531D01*
X8534467Y-17296531D02*
X8543991Y-17287008D01*
X8543991Y-17287008D02*
X8563039Y-17277484D01*
X8715420Y-17477484D02*
X8715420Y-17344150D01*
X8715420Y-17363198D02*
X8724944Y-17353674D01*
X8724944Y-17353674D02*
X8743991Y-17344150D01*
X8743991Y-17344150D02*
X8772563Y-17344150D01*
X8772563Y-17344150D02*
X8791610Y-17353674D01*
X8791610Y-17353674D02*
X8801134Y-17372722D01*
X8801134Y-17372722D02*
X8801134Y-17477484D01*
X8801134Y-17372722D02*
X8810658Y-17353674D01*
X8810658Y-17353674D02*
X8829705Y-17344150D01*
X8829705Y-17344150D02*
X8858277Y-17344150D01*
X8858277Y-17344150D02*
X8877325Y-17353674D01*
X8877325Y-17353674D02*
X8886848Y-17372722D01*
X8886848Y-17372722D02*
X8886848Y-17477484D01*
X8982086Y-17477484D02*
X8982086Y-17344150D01*
X8982086Y-17363198D02*
X8991610Y-17353674D01*
X8991610Y-17353674D02*
X9010658Y-17344150D01*
X9010658Y-17344150D02*
X9039229Y-17344150D01*
X9039229Y-17344150D02*
X9058277Y-17353674D01*
X9058277Y-17353674D02*
X9067801Y-17372722D01*
X9067801Y-17372722D02*
X9067801Y-17477484D01*
X9067801Y-17372722D02*
X9077325Y-17353674D01*
X9077325Y-17353674D02*
X9096372Y-17344150D01*
X9096372Y-17344150D02*
X9124944Y-17344150D01*
X9124944Y-17344150D02*
X9143991Y-17353674D01*
X9143991Y-17353674D02*
X9153515Y-17372722D01*
X9153515Y-17372722D02*
X9153515Y-17477484D01*
X9543991Y-17267960D02*
X9372563Y-17525103D01*
X9801134Y-17277484D02*
X9820182Y-17277484D01*
X9820182Y-17277484D02*
X9839229Y-17287008D01*
X9839229Y-17287008D02*
X9848753Y-17296531D01*
X9848753Y-17296531D02*
X9858277Y-17315579D01*
X9858277Y-17315579D02*
X9867801Y-17353674D01*
X9867801Y-17353674D02*
X9867801Y-17401293D01*
X9867801Y-17401293D02*
X9858277Y-17439389D01*
X9858277Y-17439389D02*
X9848753Y-17458436D01*
X9848753Y-17458436D02*
X9839229Y-17467960D01*
X9839229Y-17467960D02*
X9820182Y-17477484D01*
X9820182Y-17477484D02*
X9801134Y-17477484D01*
X9801134Y-17477484D02*
X9782087Y-17467960D01*
X9782087Y-17467960D02*
X9772563Y-17458436D01*
X9772563Y-17458436D02*
X9763039Y-17439389D01*
X9763039Y-17439389D02*
X9753515Y-17401293D01*
X9753515Y-17401293D02*
X9753515Y-17353674D01*
X9753515Y-17353674D02*
X9763039Y-17315579D01*
X9763039Y-17315579D02*
X9772563Y-17296531D01*
X9772563Y-17296531D02*
X9782087Y-17287008D01*
X9782087Y-17287008D02*
X9801134Y-17277484D01*
X9953515Y-17458436D02*
X9963039Y-17467960D01*
X9963039Y-17467960D02*
X9953515Y-17477484D01*
X9953515Y-17477484D02*
X9943991Y-17467960D01*
X9943991Y-17467960D02*
X9953515Y-17458436D01*
X9953515Y-17458436D02*
X9953515Y-17477484D01*
X10086848Y-17277484D02*
X10105896Y-17277484D01*
X10105896Y-17277484D02*
X10124944Y-17287008D01*
X10124944Y-17287008D02*
X10134468Y-17296531D01*
X10134468Y-17296531D02*
X10143991Y-17315579D01*
X10143991Y-17315579D02*
X10153515Y-17353674D01*
X10153515Y-17353674D02*
X10153515Y-17401293D01*
X10153515Y-17401293D02*
X10143991Y-17439389D01*
X10143991Y-17439389D02*
X10134468Y-17458436D01*
X10134468Y-17458436D02*
X10124944Y-17467960D01*
X10124944Y-17467960D02*
X10105896Y-17477484D01*
X10105896Y-17477484D02*
X10086848Y-17477484D01*
X10086848Y-17477484D02*
X10067801Y-17467960D01*
X10067801Y-17467960D02*
X10058277Y-17458436D01*
X10058277Y-17458436D02*
X10048753Y-17439389D01*
X10048753Y-17439389D02*
X10039229Y-17401293D01*
X10039229Y-17401293D02*
X10039229Y-17353674D01*
X10039229Y-17353674D02*
X10048753Y-17315579D01*
X10048753Y-17315579D02*
X10058277Y-17296531D01*
X10058277Y-17296531D02*
X10067801Y-17287008D01*
X10067801Y-17287008D02*
X10086848Y-17277484D01*
X10220182Y-17277484D02*
X10343991Y-17277484D01*
X10343991Y-17277484D02*
X10277325Y-17353674D01*
X10277325Y-17353674D02*
X10305896Y-17353674D01*
X10305896Y-17353674D02*
X10324944Y-17363198D01*
X10324944Y-17363198D02*
X10334468Y-17372722D01*
X10334468Y-17372722D02*
X10343991Y-17391770D01*
X10343991Y-17391770D02*
X10343991Y-17439389D01*
X10343991Y-17439389D02*
X10334468Y-17458436D01*
X10334468Y-17458436D02*
X10324944Y-17467960D01*
X10324944Y-17467960D02*
X10305896Y-17477484D01*
X10305896Y-17477484D02*
X10248753Y-17477484D01*
X10248753Y-17477484D02*
X10229706Y-17467960D01*
X10229706Y-17467960D02*
X10220182Y-17458436D01*
X10410658Y-17277484D02*
X10543991Y-17277484D01*
X10543991Y-17277484D02*
X10458277Y-17477484D01*
X10705896Y-17344150D02*
X10705896Y-17477484D01*
X10658277Y-17267960D02*
X10610658Y-17410817D01*
X10610658Y-17410817D02*
X10734468Y-17410817D01*
X10801134Y-17277484D02*
X10801134Y-17315579D01*
X10877325Y-17277484D02*
X10877325Y-17315579D01*
X11172563Y-17553674D02*
X11163039Y-17544150D01*
X11163039Y-17544150D02*
X11143991Y-17515579D01*
X11143991Y-17515579D02*
X11134468Y-17496531D01*
X11134468Y-17496531D02*
X11124944Y-17467960D01*
X11124944Y-17467960D02*
X11115420Y-17420341D01*
X11115420Y-17420341D02*
X11115420Y-17382246D01*
X11115420Y-17382246D02*
X11124944Y-17334627D01*
X11124944Y-17334627D02*
X11134468Y-17306055D01*
X11134468Y-17306055D02*
X11143991Y-17287008D01*
X11143991Y-17287008D02*
X11163039Y-17258436D01*
X11163039Y-17258436D02*
X11172563Y-17248912D01*
X11239229Y-17296531D02*
X11248753Y-17287008D01*
X11248753Y-17287008D02*
X11267801Y-17277484D01*
X11267801Y-17277484D02*
X11315420Y-17277484D01*
X11315420Y-17277484D02*
X11334468Y-17287008D01*
X11334468Y-17287008D02*
X11343991Y-17296531D01*
X11343991Y-17296531D02*
X11353515Y-17315579D01*
X11353515Y-17315579D02*
X11353515Y-17334627D01*
X11353515Y-17334627D02*
X11343991Y-17363198D01*
X11343991Y-17363198D02*
X11229706Y-17477484D01*
X11229706Y-17477484D02*
X11353515Y-17477484D01*
X11524944Y-17344150D02*
X11524944Y-17477484D01*
X11477325Y-17267960D02*
X11429706Y-17410817D01*
X11429706Y-17410817D02*
X11553515Y-17410817D01*
X11782087Y-17477484D02*
X11782087Y-17277484D01*
X11867801Y-17477484D02*
X11867801Y-17372722D01*
X11867801Y-17372722D02*
X11858277Y-17353674D01*
X11858277Y-17353674D02*
X11839230Y-17344150D01*
X11839230Y-17344150D02*
X11810658Y-17344150D01*
X11810658Y-17344150D02*
X11791610Y-17353674D01*
X11791610Y-17353674D02*
X11782087Y-17363198D01*
X11991610Y-17477484D02*
X11972563Y-17467960D01*
X11972563Y-17467960D02*
X11963039Y-17458436D01*
X11963039Y-17458436D02*
X11953515Y-17439389D01*
X11953515Y-17439389D02*
X11953515Y-17382246D01*
X11953515Y-17382246D02*
X11963039Y-17363198D01*
X11963039Y-17363198D02*
X11972563Y-17353674D01*
X11972563Y-17353674D02*
X11991610Y-17344150D01*
X11991610Y-17344150D02*
X12020182Y-17344150D01*
X12020182Y-17344150D02*
X12039230Y-17353674D01*
X12039230Y-17353674D02*
X12048753Y-17363198D01*
X12048753Y-17363198D02*
X12058277Y-17382246D01*
X12058277Y-17382246D02*
X12058277Y-17439389D01*
X12058277Y-17439389D02*
X12048753Y-17458436D01*
X12048753Y-17458436D02*
X12039230Y-17467960D01*
X12039230Y-17467960D02*
X12020182Y-17477484D01*
X12020182Y-17477484D02*
X11991610Y-17477484D01*
X12172563Y-17477484D02*
X12153515Y-17467960D01*
X12153515Y-17467960D02*
X12143991Y-17448912D01*
X12143991Y-17448912D02*
X12143991Y-17277484D01*
X12324944Y-17467960D02*
X12305896Y-17477484D01*
X12305896Y-17477484D02*
X12267801Y-17477484D01*
X12267801Y-17477484D02*
X12248753Y-17467960D01*
X12248753Y-17467960D02*
X12239230Y-17448912D01*
X12239230Y-17448912D02*
X12239230Y-17372722D01*
X12239230Y-17372722D02*
X12248753Y-17353674D01*
X12248753Y-17353674D02*
X12267801Y-17344150D01*
X12267801Y-17344150D02*
X12305896Y-17344150D01*
X12305896Y-17344150D02*
X12324944Y-17353674D01*
X12324944Y-17353674D02*
X12334468Y-17372722D01*
X12334468Y-17372722D02*
X12334468Y-17391770D01*
X12334468Y-17391770D02*
X12239230Y-17410817D01*
X12410658Y-17467960D02*
X12429706Y-17477484D01*
X12429706Y-17477484D02*
X12467801Y-17477484D01*
X12467801Y-17477484D02*
X12486849Y-17467960D01*
X12486849Y-17467960D02*
X12496372Y-17448912D01*
X12496372Y-17448912D02*
X12496372Y-17439389D01*
X12496372Y-17439389D02*
X12486849Y-17420341D01*
X12486849Y-17420341D02*
X12467801Y-17410817D01*
X12467801Y-17410817D02*
X12439230Y-17410817D01*
X12439230Y-17410817D02*
X12420182Y-17401293D01*
X12420182Y-17401293D02*
X12410658Y-17382246D01*
X12410658Y-17382246D02*
X12410658Y-17372722D01*
X12410658Y-17372722D02*
X12420182Y-17353674D01*
X12420182Y-17353674D02*
X12439230Y-17344150D01*
X12439230Y-17344150D02*
X12467801Y-17344150D01*
X12467801Y-17344150D02*
X12486849Y-17353674D01*
X12563039Y-17553674D02*
X12572563Y-17544150D01*
X12572563Y-17544150D02*
X12591611Y-17515579D01*
X12591611Y-17515579D02*
X12601134Y-17496531D01*
X12601134Y-17496531D02*
X12610658Y-17467960D01*
X12610658Y-17467960D02*
X12620182Y-17420341D01*
X12620182Y-17420341D02*
X12620182Y-17382246D01*
X12620182Y-17382246D02*
X12610658Y-17334627D01*
X12610658Y-17334627D02*
X12601134Y-17306055D01*
X12601134Y-17306055D02*
X12591611Y-17287008D01*
X12591611Y-17287008D02*
X12572563Y-17258436D01*
X12572563Y-17258436D02*
X12563039Y-17248912D01*
D12*
X7497500Y-17600000D02*
X7597500Y-17700000D01*
X7597500Y-17600000D02*
X7497500Y-17700000D01*
X7597500Y-17650000D02*
G75*
G02*
X7497500Y-17650000I-50000J0D01*
G01*
X7497500Y-17650000D02*
G75*
G02*
X7597500Y-17650000I50000J0D01*
G01*
D11*
X7963039Y-17741484D02*
X7848753Y-17741484D01*
X7905896Y-17741484D02*
X7905896Y-17541484D01*
X7905896Y-17541484D02*
X7886848Y-17570055D01*
X7886848Y-17570055D02*
X7867801Y-17589103D01*
X7867801Y-17589103D02*
X7848753Y-17598627D01*
X8048753Y-17722436D02*
X8058277Y-17731960D01*
X8058277Y-17731960D02*
X8048753Y-17741484D01*
X8048753Y-17741484D02*
X8039229Y-17731960D01*
X8039229Y-17731960D02*
X8048753Y-17722436D01*
X8048753Y-17722436D02*
X8048753Y-17741484D01*
X8182086Y-17541484D02*
X8201134Y-17541484D01*
X8201134Y-17541484D02*
X8220182Y-17551008D01*
X8220182Y-17551008D02*
X8229705Y-17560531D01*
X8229705Y-17560531D02*
X8239229Y-17579579D01*
X8239229Y-17579579D02*
X8248753Y-17617674D01*
X8248753Y-17617674D02*
X8248753Y-17665293D01*
X8248753Y-17665293D02*
X8239229Y-17703389D01*
X8239229Y-17703389D02*
X8229705Y-17722436D01*
X8229705Y-17722436D02*
X8220182Y-17731960D01*
X8220182Y-17731960D02*
X8201134Y-17741484D01*
X8201134Y-17741484D02*
X8182086Y-17741484D01*
X8182086Y-17741484D02*
X8163039Y-17731960D01*
X8163039Y-17731960D02*
X8153515Y-17722436D01*
X8153515Y-17722436D02*
X8143991Y-17703389D01*
X8143991Y-17703389D02*
X8134467Y-17665293D01*
X8134467Y-17665293D02*
X8134467Y-17617674D01*
X8134467Y-17617674D02*
X8143991Y-17579579D01*
X8143991Y-17579579D02*
X8153515Y-17560531D01*
X8153515Y-17560531D02*
X8163039Y-17551008D01*
X8163039Y-17551008D02*
X8182086Y-17541484D01*
X8372562Y-17541484D02*
X8391610Y-17541484D01*
X8391610Y-17541484D02*
X8410658Y-17551008D01*
X8410658Y-17551008D02*
X8420182Y-17560531D01*
X8420182Y-17560531D02*
X8429705Y-17579579D01*
X8429705Y-17579579D02*
X8439229Y-17617674D01*
X8439229Y-17617674D02*
X8439229Y-17665293D01*
X8439229Y-17665293D02*
X8429705Y-17703389D01*
X8429705Y-17703389D02*
X8420182Y-17722436D01*
X8420182Y-17722436D02*
X8410658Y-17731960D01*
X8410658Y-17731960D02*
X8391610Y-17741484D01*
X8391610Y-17741484D02*
X8372562Y-17741484D01*
X8372562Y-17741484D02*
X8353515Y-17731960D01*
X8353515Y-17731960D02*
X8343991Y-17722436D01*
X8343991Y-17722436D02*
X8334467Y-17703389D01*
X8334467Y-17703389D02*
X8324943Y-17665293D01*
X8324943Y-17665293D02*
X8324943Y-17617674D01*
X8324943Y-17617674D02*
X8334467Y-17579579D01*
X8334467Y-17579579D02*
X8343991Y-17560531D01*
X8343991Y-17560531D02*
X8353515Y-17551008D01*
X8353515Y-17551008D02*
X8372562Y-17541484D01*
X8563039Y-17541484D02*
X8582086Y-17541484D01*
X8582086Y-17541484D02*
X8601134Y-17551008D01*
X8601134Y-17551008D02*
X8610658Y-17560531D01*
X8610658Y-17560531D02*
X8620182Y-17579579D01*
X8620182Y-17579579D02*
X8629705Y-17617674D01*
X8629705Y-17617674D02*
X8629705Y-17665293D01*
X8629705Y-17665293D02*
X8620182Y-17703389D01*
X8620182Y-17703389D02*
X8610658Y-17722436D01*
X8610658Y-17722436D02*
X8601134Y-17731960D01*
X8601134Y-17731960D02*
X8582086Y-17741484D01*
X8582086Y-17741484D02*
X8563039Y-17741484D01*
X8563039Y-17741484D02*
X8543991Y-17731960D01*
X8543991Y-17731960D02*
X8534467Y-17722436D01*
X8534467Y-17722436D02*
X8524944Y-17703389D01*
X8524944Y-17703389D02*
X8515420Y-17665293D01*
X8515420Y-17665293D02*
X8515420Y-17617674D01*
X8515420Y-17617674D02*
X8524944Y-17579579D01*
X8524944Y-17579579D02*
X8534467Y-17560531D01*
X8534467Y-17560531D02*
X8543991Y-17551008D01*
X8543991Y-17551008D02*
X8563039Y-17541484D01*
X8715420Y-17741484D02*
X8715420Y-17608150D01*
X8715420Y-17627198D02*
X8724944Y-17617674D01*
X8724944Y-17617674D02*
X8743991Y-17608150D01*
X8743991Y-17608150D02*
X8772563Y-17608150D01*
X8772563Y-17608150D02*
X8791610Y-17617674D01*
X8791610Y-17617674D02*
X8801134Y-17636722D01*
X8801134Y-17636722D02*
X8801134Y-17741484D01*
X8801134Y-17636722D02*
X8810658Y-17617674D01*
X8810658Y-17617674D02*
X8829705Y-17608150D01*
X8829705Y-17608150D02*
X8858277Y-17608150D01*
X8858277Y-17608150D02*
X8877325Y-17617674D01*
X8877325Y-17617674D02*
X8886848Y-17636722D01*
X8886848Y-17636722D02*
X8886848Y-17741484D01*
X8982086Y-17741484D02*
X8982086Y-17608150D01*
X8982086Y-17627198D02*
X8991610Y-17617674D01*
X8991610Y-17617674D02*
X9010658Y-17608150D01*
X9010658Y-17608150D02*
X9039229Y-17608150D01*
X9039229Y-17608150D02*
X9058277Y-17617674D01*
X9058277Y-17617674D02*
X9067801Y-17636722D01*
X9067801Y-17636722D02*
X9067801Y-17741484D01*
X9067801Y-17636722D02*
X9077325Y-17617674D01*
X9077325Y-17617674D02*
X9096372Y-17608150D01*
X9096372Y-17608150D02*
X9124944Y-17608150D01*
X9124944Y-17608150D02*
X9143991Y-17617674D01*
X9143991Y-17617674D02*
X9153515Y-17636722D01*
X9153515Y-17636722D02*
X9153515Y-17741484D01*
X9543991Y-17531960D02*
X9372563Y-17789103D01*
X9801134Y-17541484D02*
X9820182Y-17541484D01*
X9820182Y-17541484D02*
X9839229Y-17551008D01*
X9839229Y-17551008D02*
X9848753Y-17560531D01*
X9848753Y-17560531D02*
X9858277Y-17579579D01*
X9858277Y-17579579D02*
X9867801Y-17617674D01*
X9867801Y-17617674D02*
X9867801Y-17665293D01*
X9867801Y-17665293D02*
X9858277Y-17703389D01*
X9858277Y-17703389D02*
X9848753Y-17722436D01*
X9848753Y-17722436D02*
X9839229Y-17731960D01*
X9839229Y-17731960D02*
X9820182Y-17741484D01*
X9820182Y-17741484D02*
X9801134Y-17741484D01*
X9801134Y-17741484D02*
X9782087Y-17731960D01*
X9782087Y-17731960D02*
X9772563Y-17722436D01*
X9772563Y-17722436D02*
X9763039Y-17703389D01*
X9763039Y-17703389D02*
X9753515Y-17665293D01*
X9753515Y-17665293D02*
X9753515Y-17617674D01*
X9753515Y-17617674D02*
X9763039Y-17579579D01*
X9763039Y-17579579D02*
X9772563Y-17560531D01*
X9772563Y-17560531D02*
X9782087Y-17551008D01*
X9782087Y-17551008D02*
X9801134Y-17541484D01*
X9953515Y-17722436D02*
X9963039Y-17731960D01*
X9963039Y-17731960D02*
X9953515Y-17741484D01*
X9953515Y-17741484D02*
X9943991Y-17731960D01*
X9943991Y-17731960D02*
X9953515Y-17722436D01*
X9953515Y-17722436D02*
X9953515Y-17741484D01*
X10086848Y-17541484D02*
X10105896Y-17541484D01*
X10105896Y-17541484D02*
X10124944Y-17551008D01*
X10124944Y-17551008D02*
X10134468Y-17560531D01*
X10134468Y-17560531D02*
X10143991Y-17579579D01*
X10143991Y-17579579D02*
X10153515Y-17617674D01*
X10153515Y-17617674D02*
X10153515Y-17665293D01*
X10153515Y-17665293D02*
X10143991Y-17703389D01*
X10143991Y-17703389D02*
X10134468Y-17722436D01*
X10134468Y-17722436D02*
X10124944Y-17731960D01*
X10124944Y-17731960D02*
X10105896Y-17741484D01*
X10105896Y-17741484D02*
X10086848Y-17741484D01*
X10086848Y-17741484D02*
X10067801Y-17731960D01*
X10067801Y-17731960D02*
X10058277Y-17722436D01*
X10058277Y-17722436D02*
X10048753Y-17703389D01*
X10048753Y-17703389D02*
X10039229Y-17665293D01*
X10039229Y-17665293D02*
X10039229Y-17617674D01*
X10039229Y-17617674D02*
X10048753Y-17579579D01*
X10048753Y-17579579D02*
X10058277Y-17560531D01*
X10058277Y-17560531D02*
X10067801Y-17551008D01*
X10067801Y-17551008D02*
X10086848Y-17541484D01*
X10220182Y-17541484D02*
X10343991Y-17541484D01*
X10343991Y-17541484D02*
X10277325Y-17617674D01*
X10277325Y-17617674D02*
X10305896Y-17617674D01*
X10305896Y-17617674D02*
X10324944Y-17627198D01*
X10324944Y-17627198D02*
X10334468Y-17636722D01*
X10334468Y-17636722D02*
X10343991Y-17655770D01*
X10343991Y-17655770D02*
X10343991Y-17703389D01*
X10343991Y-17703389D02*
X10334468Y-17722436D01*
X10334468Y-17722436D02*
X10324944Y-17731960D01*
X10324944Y-17731960D02*
X10305896Y-17741484D01*
X10305896Y-17741484D02*
X10248753Y-17741484D01*
X10248753Y-17741484D02*
X10229706Y-17731960D01*
X10229706Y-17731960D02*
X10220182Y-17722436D01*
X10439229Y-17741484D02*
X10477325Y-17741484D01*
X10477325Y-17741484D02*
X10496372Y-17731960D01*
X10496372Y-17731960D02*
X10505896Y-17722436D01*
X10505896Y-17722436D02*
X10524944Y-17693865D01*
X10524944Y-17693865D02*
X10534468Y-17655770D01*
X10534468Y-17655770D02*
X10534468Y-17579579D01*
X10534468Y-17579579D02*
X10524944Y-17560531D01*
X10524944Y-17560531D02*
X10515420Y-17551008D01*
X10515420Y-17551008D02*
X10496372Y-17541484D01*
X10496372Y-17541484D02*
X10458277Y-17541484D01*
X10458277Y-17541484D02*
X10439229Y-17551008D01*
X10439229Y-17551008D02*
X10429706Y-17560531D01*
X10429706Y-17560531D02*
X10420182Y-17579579D01*
X10420182Y-17579579D02*
X10420182Y-17627198D01*
X10420182Y-17627198D02*
X10429706Y-17646246D01*
X10429706Y-17646246D02*
X10439229Y-17655770D01*
X10439229Y-17655770D02*
X10458277Y-17665293D01*
X10458277Y-17665293D02*
X10496372Y-17665293D01*
X10496372Y-17665293D02*
X10515420Y-17655770D01*
X10515420Y-17655770D02*
X10524944Y-17646246D01*
X10524944Y-17646246D02*
X10534468Y-17627198D01*
X10705896Y-17608150D02*
X10705896Y-17741484D01*
X10658277Y-17531960D02*
X10610658Y-17674817D01*
X10610658Y-17674817D02*
X10734468Y-17674817D01*
X10801134Y-17541484D02*
X10801134Y-17579579D01*
X10877325Y-17541484D02*
X10877325Y-17579579D01*
X11172563Y-17817674D02*
X11163039Y-17808150D01*
X11163039Y-17808150D02*
X11143991Y-17779579D01*
X11143991Y-17779579D02*
X11134468Y-17760531D01*
X11134468Y-17760531D02*
X11124944Y-17731960D01*
X11124944Y-17731960D02*
X11115420Y-17684341D01*
X11115420Y-17684341D02*
X11115420Y-17646246D01*
X11115420Y-17646246D02*
X11124944Y-17598627D01*
X11124944Y-17598627D02*
X11134468Y-17570055D01*
X11134468Y-17570055D02*
X11143991Y-17551008D01*
X11143991Y-17551008D02*
X11163039Y-17522436D01*
X11163039Y-17522436D02*
X11172563Y-17512912D01*
X11334468Y-17608150D02*
X11334468Y-17741484D01*
X11286848Y-17531960D02*
X11239229Y-17674817D01*
X11239229Y-17674817D02*
X11363039Y-17674817D01*
X11429706Y-17560531D02*
X11439229Y-17551008D01*
X11439229Y-17551008D02*
X11458277Y-17541484D01*
X11458277Y-17541484D02*
X11505896Y-17541484D01*
X11505896Y-17541484D02*
X11524944Y-17551008D01*
X11524944Y-17551008D02*
X11534468Y-17560531D01*
X11534468Y-17560531D02*
X11543991Y-17579579D01*
X11543991Y-17579579D02*
X11543991Y-17598627D01*
X11543991Y-17598627D02*
X11534468Y-17627198D01*
X11534468Y-17627198D02*
X11420182Y-17741484D01*
X11420182Y-17741484D02*
X11543991Y-17741484D01*
X11782087Y-17741484D02*
X11782087Y-17541484D01*
X11867801Y-17741484D02*
X11867801Y-17636722D01*
X11867801Y-17636722D02*
X11858277Y-17617674D01*
X11858277Y-17617674D02*
X11839230Y-17608150D01*
X11839230Y-17608150D02*
X11810658Y-17608150D01*
X11810658Y-17608150D02*
X11791610Y-17617674D01*
X11791610Y-17617674D02*
X11782087Y-17627198D01*
X11991610Y-17741484D02*
X11972563Y-17731960D01*
X11972563Y-17731960D02*
X11963039Y-17722436D01*
X11963039Y-17722436D02*
X11953515Y-17703389D01*
X11953515Y-17703389D02*
X11953515Y-17646246D01*
X11953515Y-17646246D02*
X11963039Y-17627198D01*
X11963039Y-17627198D02*
X11972563Y-17617674D01*
X11972563Y-17617674D02*
X11991610Y-17608150D01*
X11991610Y-17608150D02*
X12020182Y-17608150D01*
X12020182Y-17608150D02*
X12039230Y-17617674D01*
X12039230Y-17617674D02*
X12048753Y-17627198D01*
X12048753Y-17627198D02*
X12058277Y-17646246D01*
X12058277Y-17646246D02*
X12058277Y-17703389D01*
X12058277Y-17703389D02*
X12048753Y-17722436D01*
X12048753Y-17722436D02*
X12039230Y-17731960D01*
X12039230Y-17731960D02*
X12020182Y-17741484D01*
X12020182Y-17741484D02*
X11991610Y-17741484D01*
X12172563Y-17741484D02*
X12153515Y-17731960D01*
X12153515Y-17731960D02*
X12143991Y-17712912D01*
X12143991Y-17712912D02*
X12143991Y-17541484D01*
X12324944Y-17731960D02*
X12305896Y-17741484D01*
X12305896Y-17741484D02*
X12267801Y-17741484D01*
X12267801Y-17741484D02*
X12248753Y-17731960D01*
X12248753Y-17731960D02*
X12239230Y-17712912D01*
X12239230Y-17712912D02*
X12239230Y-17636722D01*
X12239230Y-17636722D02*
X12248753Y-17617674D01*
X12248753Y-17617674D02*
X12267801Y-17608150D01*
X12267801Y-17608150D02*
X12305896Y-17608150D01*
X12305896Y-17608150D02*
X12324944Y-17617674D01*
X12324944Y-17617674D02*
X12334468Y-17636722D01*
X12334468Y-17636722D02*
X12334468Y-17655770D01*
X12334468Y-17655770D02*
X12239230Y-17674817D01*
X12410658Y-17731960D02*
X12429706Y-17741484D01*
X12429706Y-17741484D02*
X12467801Y-17741484D01*
X12467801Y-17741484D02*
X12486849Y-17731960D01*
X12486849Y-17731960D02*
X12496372Y-17712912D01*
X12496372Y-17712912D02*
X12496372Y-17703389D01*
X12496372Y-17703389D02*
X12486849Y-17684341D01*
X12486849Y-17684341D02*
X12467801Y-17674817D01*
X12467801Y-17674817D02*
X12439230Y-17674817D01*
X12439230Y-17674817D02*
X12420182Y-17665293D01*
X12420182Y-17665293D02*
X12410658Y-17646246D01*
X12410658Y-17646246D02*
X12410658Y-17636722D01*
X12410658Y-17636722D02*
X12420182Y-17617674D01*
X12420182Y-17617674D02*
X12439230Y-17608150D01*
X12439230Y-17608150D02*
X12467801Y-17608150D01*
X12467801Y-17608150D02*
X12486849Y-17617674D01*
X12734468Y-17665293D02*
X12886849Y-17665293D01*
X12810658Y-17741484D02*
X12810658Y-17589103D01*
X13115420Y-17541484D02*
X13239230Y-17541484D01*
X13239230Y-17541484D02*
X13172563Y-17617674D01*
X13172563Y-17617674D02*
X13201134Y-17617674D01*
X13201134Y-17617674D02*
X13220182Y-17627198D01*
X13220182Y-17627198D02*
X13229706Y-17636722D01*
X13229706Y-17636722D02*
X13239230Y-17655770D01*
X13239230Y-17655770D02*
X13239230Y-17703389D01*
X13239230Y-17703389D02*
X13229706Y-17722436D01*
X13229706Y-17722436D02*
X13220182Y-17731960D01*
X13220182Y-17731960D02*
X13201134Y-17741484D01*
X13201134Y-17741484D02*
X13143992Y-17741484D01*
X13143992Y-17741484D02*
X13124944Y-17731960D01*
X13124944Y-17731960D02*
X13115420Y-17722436D01*
X13467801Y-17731960D02*
X13486849Y-17741484D01*
X13486849Y-17741484D02*
X13524944Y-17741484D01*
X13524944Y-17741484D02*
X13543992Y-17731960D01*
X13543992Y-17731960D02*
X13553515Y-17712912D01*
X13553515Y-17712912D02*
X13553515Y-17703389D01*
X13553515Y-17703389D02*
X13543992Y-17684341D01*
X13543992Y-17684341D02*
X13524944Y-17674817D01*
X13524944Y-17674817D02*
X13496373Y-17674817D01*
X13496373Y-17674817D02*
X13477325Y-17665293D01*
X13477325Y-17665293D02*
X13467801Y-17646246D01*
X13467801Y-17646246D02*
X13467801Y-17636722D01*
X13467801Y-17636722D02*
X13477325Y-17617674D01*
X13477325Y-17617674D02*
X13496373Y-17608150D01*
X13496373Y-17608150D02*
X13524944Y-17608150D01*
X13524944Y-17608150D02*
X13543992Y-17617674D01*
X13667801Y-17741484D02*
X13648754Y-17731960D01*
X13648754Y-17731960D02*
X13639230Y-17712912D01*
X13639230Y-17712912D02*
X13639230Y-17541484D01*
X13772563Y-17741484D02*
X13753515Y-17731960D01*
X13753515Y-17731960D02*
X13743992Y-17722436D01*
X13743992Y-17722436D02*
X13734468Y-17703389D01*
X13734468Y-17703389D02*
X13734468Y-17646246D01*
X13734468Y-17646246D02*
X13743992Y-17627198D01*
X13743992Y-17627198D02*
X13753515Y-17617674D01*
X13753515Y-17617674D02*
X13772563Y-17608150D01*
X13772563Y-17608150D02*
X13801135Y-17608150D01*
X13801135Y-17608150D02*
X13820182Y-17617674D01*
X13820182Y-17617674D02*
X13829706Y-17627198D01*
X13829706Y-17627198D02*
X13839230Y-17646246D01*
X13839230Y-17646246D02*
X13839230Y-17703389D01*
X13839230Y-17703389D02*
X13829706Y-17722436D01*
X13829706Y-17722436D02*
X13820182Y-17731960D01*
X13820182Y-17731960D02*
X13801135Y-17741484D01*
X13801135Y-17741484D02*
X13772563Y-17741484D01*
X13896373Y-17608150D02*
X13972563Y-17608150D01*
X13924944Y-17541484D02*
X13924944Y-17712912D01*
X13924944Y-17712912D02*
X13934468Y-17731960D01*
X13934468Y-17731960D02*
X13953515Y-17741484D01*
X13953515Y-17741484D02*
X13972563Y-17741484D01*
X14029706Y-17731960D02*
X14048754Y-17741484D01*
X14048754Y-17741484D02*
X14086849Y-17741484D01*
X14086849Y-17741484D02*
X14105896Y-17731960D01*
X14105896Y-17731960D02*
X14115420Y-17712912D01*
X14115420Y-17712912D02*
X14115420Y-17703389D01*
X14115420Y-17703389D02*
X14105896Y-17684341D01*
X14105896Y-17684341D02*
X14086849Y-17674817D01*
X14086849Y-17674817D02*
X14058277Y-17674817D01*
X14058277Y-17674817D02*
X14039230Y-17665293D01*
X14039230Y-17665293D02*
X14029706Y-17646246D01*
X14029706Y-17646246D02*
X14029706Y-17636722D01*
X14029706Y-17636722D02*
X14039230Y-17617674D01*
X14039230Y-17617674D02*
X14058277Y-17608150D01*
X14058277Y-17608150D02*
X14086849Y-17608150D01*
X14086849Y-17608150D02*
X14105896Y-17617674D01*
X14182087Y-17817674D02*
X14191611Y-17808150D01*
X14191611Y-17808150D02*
X14210658Y-17779579D01*
X14210658Y-17779579D02*
X14220182Y-17760531D01*
X14220182Y-17760531D02*
X14229706Y-17731960D01*
X14229706Y-17731960D02*
X14239230Y-17684341D01*
X14239230Y-17684341D02*
X14239230Y-17646246D01*
X14239230Y-17646246D02*
X14229706Y-17598627D01*
X14229706Y-17598627D02*
X14220182Y-17570055D01*
X14220182Y-17570055D02*
X14210658Y-17551008D01*
X14210658Y-17551008D02*
X14191611Y-17522436D01*
X14191611Y-17522436D02*
X14182087Y-17512912D01*
D13*
X7467500Y-17849000D02*
X7597500Y-17979000D01*
X7597500Y-17849000D02*
X7467500Y-17979000D01*
X7532500Y-17849000D02*
X7532500Y-17979000D01*
X7467500Y-17914000D02*
X7597500Y-17914000D01*
D11*
X7963039Y-18005484D02*
X7848753Y-18005484D01*
X7905896Y-18005484D02*
X7905896Y-17805484D01*
X7905896Y-17805484D02*
X7886848Y-17834055D01*
X7886848Y-17834055D02*
X7867801Y-17853103D01*
X7867801Y-17853103D02*
X7848753Y-17862627D01*
X8048753Y-17986436D02*
X8058277Y-17995960D01*
X8058277Y-17995960D02*
X8048753Y-18005484D01*
X8048753Y-18005484D02*
X8039229Y-17995960D01*
X8039229Y-17995960D02*
X8048753Y-17986436D01*
X8048753Y-17986436D02*
X8048753Y-18005484D01*
X8124943Y-17805484D02*
X8248753Y-17805484D01*
X8248753Y-17805484D02*
X8182086Y-17881674D01*
X8182086Y-17881674D02*
X8210658Y-17881674D01*
X8210658Y-17881674D02*
X8229705Y-17891198D01*
X8229705Y-17891198D02*
X8239229Y-17900722D01*
X8239229Y-17900722D02*
X8248753Y-17919770D01*
X8248753Y-17919770D02*
X8248753Y-17967389D01*
X8248753Y-17967389D02*
X8239229Y-17986436D01*
X8239229Y-17986436D02*
X8229705Y-17995960D01*
X8229705Y-17995960D02*
X8210658Y-18005484D01*
X8210658Y-18005484D02*
X8153515Y-18005484D01*
X8153515Y-18005484D02*
X8134467Y-17995960D01*
X8134467Y-17995960D02*
X8124943Y-17986436D01*
X8372562Y-17805484D02*
X8391610Y-17805484D01*
X8391610Y-17805484D02*
X8410658Y-17815008D01*
X8410658Y-17815008D02*
X8420182Y-17824531D01*
X8420182Y-17824531D02*
X8429705Y-17843579D01*
X8429705Y-17843579D02*
X8439229Y-17881674D01*
X8439229Y-17881674D02*
X8439229Y-17929293D01*
X8439229Y-17929293D02*
X8429705Y-17967389D01*
X8429705Y-17967389D02*
X8420182Y-17986436D01*
X8420182Y-17986436D02*
X8410658Y-17995960D01*
X8410658Y-17995960D02*
X8391610Y-18005484D01*
X8391610Y-18005484D02*
X8372562Y-18005484D01*
X8372562Y-18005484D02*
X8353515Y-17995960D01*
X8353515Y-17995960D02*
X8343991Y-17986436D01*
X8343991Y-17986436D02*
X8334467Y-17967389D01*
X8334467Y-17967389D02*
X8324943Y-17929293D01*
X8324943Y-17929293D02*
X8324943Y-17881674D01*
X8324943Y-17881674D02*
X8334467Y-17843579D01*
X8334467Y-17843579D02*
X8343991Y-17824531D01*
X8343991Y-17824531D02*
X8353515Y-17815008D01*
X8353515Y-17815008D02*
X8372562Y-17805484D01*
X8563039Y-17805484D02*
X8582086Y-17805484D01*
X8582086Y-17805484D02*
X8601134Y-17815008D01*
X8601134Y-17815008D02*
X8610658Y-17824531D01*
X8610658Y-17824531D02*
X8620182Y-17843579D01*
X8620182Y-17843579D02*
X8629705Y-17881674D01*
X8629705Y-17881674D02*
X8629705Y-17929293D01*
X8629705Y-17929293D02*
X8620182Y-17967389D01*
X8620182Y-17967389D02*
X8610658Y-17986436D01*
X8610658Y-17986436D02*
X8601134Y-17995960D01*
X8601134Y-17995960D02*
X8582086Y-18005484D01*
X8582086Y-18005484D02*
X8563039Y-18005484D01*
X8563039Y-18005484D02*
X8543991Y-17995960D01*
X8543991Y-17995960D02*
X8534467Y-17986436D01*
X8534467Y-17986436D02*
X8524944Y-17967389D01*
X8524944Y-17967389D02*
X8515420Y-17929293D01*
X8515420Y-17929293D02*
X8515420Y-17881674D01*
X8515420Y-17881674D02*
X8524944Y-17843579D01*
X8524944Y-17843579D02*
X8534467Y-17824531D01*
X8534467Y-17824531D02*
X8543991Y-17815008D01*
X8543991Y-17815008D02*
X8563039Y-17805484D01*
X8715420Y-18005484D02*
X8715420Y-17872150D01*
X8715420Y-17891198D02*
X8724944Y-17881674D01*
X8724944Y-17881674D02*
X8743991Y-17872150D01*
X8743991Y-17872150D02*
X8772563Y-17872150D01*
X8772563Y-17872150D02*
X8791610Y-17881674D01*
X8791610Y-17881674D02*
X8801134Y-17900722D01*
X8801134Y-17900722D02*
X8801134Y-18005484D01*
X8801134Y-17900722D02*
X8810658Y-17881674D01*
X8810658Y-17881674D02*
X8829705Y-17872150D01*
X8829705Y-17872150D02*
X8858277Y-17872150D01*
X8858277Y-17872150D02*
X8877325Y-17881674D01*
X8877325Y-17881674D02*
X8886848Y-17900722D01*
X8886848Y-17900722D02*
X8886848Y-18005484D01*
X8982086Y-18005484D02*
X8982086Y-17872150D01*
X8982086Y-17891198D02*
X8991610Y-17881674D01*
X8991610Y-17881674D02*
X9010658Y-17872150D01*
X9010658Y-17872150D02*
X9039229Y-17872150D01*
X9039229Y-17872150D02*
X9058277Y-17881674D01*
X9058277Y-17881674D02*
X9067801Y-17900722D01*
X9067801Y-17900722D02*
X9067801Y-18005484D01*
X9067801Y-17900722D02*
X9077325Y-17881674D01*
X9077325Y-17881674D02*
X9096372Y-17872150D01*
X9096372Y-17872150D02*
X9124944Y-17872150D01*
X9124944Y-17872150D02*
X9143991Y-17881674D01*
X9143991Y-17881674D02*
X9153515Y-17900722D01*
X9153515Y-17900722D02*
X9153515Y-18005484D01*
X9543991Y-17795960D02*
X9372563Y-18053103D01*
X9801134Y-17805484D02*
X9820182Y-17805484D01*
X9820182Y-17805484D02*
X9839229Y-17815008D01*
X9839229Y-17815008D02*
X9848753Y-17824531D01*
X9848753Y-17824531D02*
X9858277Y-17843579D01*
X9858277Y-17843579D02*
X9867801Y-17881674D01*
X9867801Y-17881674D02*
X9867801Y-17929293D01*
X9867801Y-17929293D02*
X9858277Y-17967389D01*
X9858277Y-17967389D02*
X9848753Y-17986436D01*
X9848753Y-17986436D02*
X9839229Y-17995960D01*
X9839229Y-17995960D02*
X9820182Y-18005484D01*
X9820182Y-18005484D02*
X9801134Y-18005484D01*
X9801134Y-18005484D02*
X9782087Y-17995960D01*
X9782087Y-17995960D02*
X9772563Y-17986436D01*
X9772563Y-17986436D02*
X9763039Y-17967389D01*
X9763039Y-17967389D02*
X9753515Y-17929293D01*
X9753515Y-17929293D02*
X9753515Y-17881674D01*
X9753515Y-17881674D02*
X9763039Y-17843579D01*
X9763039Y-17843579D02*
X9772563Y-17824531D01*
X9772563Y-17824531D02*
X9782087Y-17815008D01*
X9782087Y-17815008D02*
X9801134Y-17805484D01*
X9953515Y-17986436D02*
X9963039Y-17995960D01*
X9963039Y-17995960D02*
X9953515Y-18005484D01*
X9953515Y-18005484D02*
X9943991Y-17995960D01*
X9943991Y-17995960D02*
X9953515Y-17986436D01*
X9953515Y-17986436D02*
X9953515Y-18005484D01*
X10086848Y-17805484D02*
X10105896Y-17805484D01*
X10105896Y-17805484D02*
X10124944Y-17815008D01*
X10124944Y-17815008D02*
X10134468Y-17824531D01*
X10134468Y-17824531D02*
X10143991Y-17843579D01*
X10143991Y-17843579D02*
X10153515Y-17881674D01*
X10153515Y-17881674D02*
X10153515Y-17929293D01*
X10153515Y-17929293D02*
X10143991Y-17967389D01*
X10143991Y-17967389D02*
X10134468Y-17986436D01*
X10134468Y-17986436D02*
X10124944Y-17995960D01*
X10124944Y-17995960D02*
X10105896Y-18005484D01*
X10105896Y-18005484D02*
X10086848Y-18005484D01*
X10086848Y-18005484D02*
X10067801Y-17995960D01*
X10067801Y-17995960D02*
X10058277Y-17986436D01*
X10058277Y-17986436D02*
X10048753Y-17967389D01*
X10048753Y-17967389D02*
X10039229Y-17929293D01*
X10039229Y-17929293D02*
X10039229Y-17881674D01*
X10039229Y-17881674D02*
X10048753Y-17843579D01*
X10048753Y-17843579D02*
X10058277Y-17824531D01*
X10058277Y-17824531D02*
X10067801Y-17815008D01*
X10067801Y-17815008D02*
X10086848Y-17805484D01*
X10334468Y-17805484D02*
X10239229Y-17805484D01*
X10239229Y-17805484D02*
X10229706Y-17900722D01*
X10229706Y-17900722D02*
X10239229Y-17891198D01*
X10239229Y-17891198D02*
X10258277Y-17881674D01*
X10258277Y-17881674D02*
X10305896Y-17881674D01*
X10305896Y-17881674D02*
X10324944Y-17891198D01*
X10324944Y-17891198D02*
X10334468Y-17900722D01*
X10334468Y-17900722D02*
X10343991Y-17919770D01*
X10343991Y-17919770D02*
X10343991Y-17967389D01*
X10343991Y-17967389D02*
X10334468Y-17986436D01*
X10334468Y-17986436D02*
X10324944Y-17995960D01*
X10324944Y-17995960D02*
X10305896Y-18005484D01*
X10305896Y-18005484D02*
X10258277Y-18005484D01*
X10258277Y-18005484D02*
X10239229Y-17995960D01*
X10239229Y-17995960D02*
X10229706Y-17986436D01*
X10534468Y-18005484D02*
X10420182Y-18005484D01*
X10477325Y-18005484D02*
X10477325Y-17805484D01*
X10477325Y-17805484D02*
X10458277Y-17834055D01*
X10458277Y-17834055D02*
X10439229Y-17853103D01*
X10439229Y-17853103D02*
X10420182Y-17862627D01*
X10610658Y-17824531D02*
X10620182Y-17815008D01*
X10620182Y-17815008D02*
X10639229Y-17805484D01*
X10639229Y-17805484D02*
X10686849Y-17805484D01*
X10686849Y-17805484D02*
X10705896Y-17815008D01*
X10705896Y-17815008D02*
X10715420Y-17824531D01*
X10715420Y-17824531D02*
X10724944Y-17843579D01*
X10724944Y-17843579D02*
X10724944Y-17862627D01*
X10724944Y-17862627D02*
X10715420Y-17891198D01*
X10715420Y-17891198D02*
X10601134Y-18005484D01*
X10601134Y-18005484D02*
X10724944Y-18005484D01*
X10801134Y-17805484D02*
X10801134Y-17843579D01*
X10877325Y-17805484D02*
X10877325Y-17843579D01*
X11172563Y-18081674D02*
X11163039Y-18072150D01*
X11163039Y-18072150D02*
X11143991Y-18043579D01*
X11143991Y-18043579D02*
X11134468Y-18024531D01*
X11134468Y-18024531D02*
X11124944Y-17995960D01*
X11124944Y-17995960D02*
X11115420Y-17948341D01*
X11115420Y-17948341D02*
X11115420Y-17910246D01*
X11115420Y-17910246D02*
X11124944Y-17862627D01*
X11124944Y-17862627D02*
X11134468Y-17834055D01*
X11134468Y-17834055D02*
X11143991Y-17815008D01*
X11143991Y-17815008D02*
X11163039Y-17786436D01*
X11163039Y-17786436D02*
X11172563Y-17776912D01*
X11277325Y-17891198D02*
X11258277Y-17881674D01*
X11258277Y-17881674D02*
X11248753Y-17872150D01*
X11248753Y-17872150D02*
X11239229Y-17853103D01*
X11239229Y-17853103D02*
X11239229Y-17843579D01*
X11239229Y-17843579D02*
X11248753Y-17824531D01*
X11248753Y-17824531D02*
X11258277Y-17815008D01*
X11258277Y-17815008D02*
X11277325Y-17805484D01*
X11277325Y-17805484D02*
X11315420Y-17805484D01*
X11315420Y-17805484D02*
X11334468Y-17815008D01*
X11334468Y-17815008D02*
X11343991Y-17824531D01*
X11343991Y-17824531D02*
X11353515Y-17843579D01*
X11353515Y-17843579D02*
X11353515Y-17853103D01*
X11353515Y-17853103D02*
X11343991Y-17872150D01*
X11343991Y-17872150D02*
X11334468Y-17881674D01*
X11334468Y-17881674D02*
X11315420Y-17891198D01*
X11315420Y-17891198D02*
X11277325Y-17891198D01*
X11277325Y-17891198D02*
X11258277Y-17900722D01*
X11258277Y-17900722D02*
X11248753Y-17910246D01*
X11248753Y-17910246D02*
X11239229Y-17929293D01*
X11239229Y-17929293D02*
X11239229Y-17967389D01*
X11239229Y-17967389D02*
X11248753Y-17986436D01*
X11248753Y-17986436D02*
X11258277Y-17995960D01*
X11258277Y-17995960D02*
X11277325Y-18005484D01*
X11277325Y-18005484D02*
X11315420Y-18005484D01*
X11315420Y-18005484D02*
X11334468Y-17995960D01*
X11334468Y-17995960D02*
X11343991Y-17986436D01*
X11343991Y-17986436D02*
X11353515Y-17967389D01*
X11353515Y-17967389D02*
X11353515Y-17929293D01*
X11353515Y-17929293D02*
X11343991Y-17910246D01*
X11343991Y-17910246D02*
X11334468Y-17900722D01*
X11334468Y-17900722D02*
X11315420Y-17891198D01*
X11591610Y-18005484D02*
X11591610Y-17805484D01*
X11677325Y-18005484D02*
X11677325Y-17900722D01*
X11677325Y-17900722D02*
X11667801Y-17881674D01*
X11667801Y-17881674D02*
X11648753Y-17872150D01*
X11648753Y-17872150D02*
X11620182Y-17872150D01*
X11620182Y-17872150D02*
X11601134Y-17881674D01*
X11601134Y-17881674D02*
X11591610Y-17891198D01*
X11801134Y-18005484D02*
X11782087Y-17995960D01*
X11782087Y-17995960D02*
X11772563Y-17986436D01*
X11772563Y-17986436D02*
X11763039Y-17967389D01*
X11763039Y-17967389D02*
X11763039Y-17910246D01*
X11763039Y-17910246D02*
X11772563Y-17891198D01*
X11772563Y-17891198D02*
X11782087Y-17881674D01*
X11782087Y-17881674D02*
X11801134Y-17872150D01*
X11801134Y-17872150D02*
X11829706Y-17872150D01*
X11829706Y-17872150D02*
X11848753Y-17881674D01*
X11848753Y-17881674D02*
X11858277Y-17891198D01*
X11858277Y-17891198D02*
X11867801Y-17910246D01*
X11867801Y-17910246D02*
X11867801Y-17967389D01*
X11867801Y-17967389D02*
X11858277Y-17986436D01*
X11858277Y-17986436D02*
X11848753Y-17995960D01*
X11848753Y-17995960D02*
X11829706Y-18005484D01*
X11829706Y-18005484D02*
X11801134Y-18005484D01*
X11982087Y-18005484D02*
X11963039Y-17995960D01*
X11963039Y-17995960D02*
X11953515Y-17976912D01*
X11953515Y-17976912D02*
X11953515Y-17805484D01*
X12134468Y-17995960D02*
X12115420Y-18005484D01*
X12115420Y-18005484D02*
X12077325Y-18005484D01*
X12077325Y-18005484D02*
X12058277Y-17995960D01*
X12058277Y-17995960D02*
X12048753Y-17976912D01*
X12048753Y-17976912D02*
X12048753Y-17900722D01*
X12048753Y-17900722D02*
X12058277Y-17881674D01*
X12058277Y-17881674D02*
X12077325Y-17872150D01*
X12077325Y-17872150D02*
X12115420Y-17872150D01*
X12115420Y-17872150D02*
X12134468Y-17881674D01*
X12134468Y-17881674D02*
X12143991Y-17900722D01*
X12143991Y-17900722D02*
X12143991Y-17919770D01*
X12143991Y-17919770D02*
X12048753Y-17938817D01*
X12220182Y-17995960D02*
X12239230Y-18005484D01*
X12239230Y-18005484D02*
X12277325Y-18005484D01*
X12277325Y-18005484D02*
X12296372Y-17995960D01*
X12296372Y-17995960D02*
X12305896Y-17976912D01*
X12305896Y-17976912D02*
X12305896Y-17967389D01*
X12305896Y-17967389D02*
X12296372Y-17948341D01*
X12296372Y-17948341D02*
X12277325Y-17938817D01*
X12277325Y-17938817D02*
X12248753Y-17938817D01*
X12248753Y-17938817D02*
X12229706Y-17929293D01*
X12229706Y-17929293D02*
X12220182Y-17910246D01*
X12220182Y-17910246D02*
X12220182Y-17900722D01*
X12220182Y-17900722D02*
X12229706Y-17881674D01*
X12229706Y-17881674D02*
X12248753Y-17872150D01*
X12248753Y-17872150D02*
X12277325Y-17872150D01*
X12277325Y-17872150D02*
X12296372Y-17881674D01*
X12372563Y-18081674D02*
X12382087Y-18072150D01*
X12382087Y-18072150D02*
X12401134Y-18043579D01*
X12401134Y-18043579D02*
X12410658Y-18024531D01*
X12410658Y-18024531D02*
X12420182Y-17995960D01*
X12420182Y-17995960D02*
X12429706Y-17948341D01*
X12429706Y-17948341D02*
X12429706Y-17910246D01*
X12429706Y-17910246D02*
X12420182Y-17862627D01*
X12420182Y-17862627D02*
X12410658Y-17834055D01*
X12410658Y-17834055D02*
X12401134Y-17815008D01*
X12401134Y-17815008D02*
X12382087Y-17786436D01*
X12382087Y-17786436D02*
X12372563Y-17776912D01*
X7397500Y-18078000D02*
X7597500Y-18278000D01*
X7597500Y-18078000D02*
X7397500Y-18278000D01*
X7568211Y-18248711D02*
X7568211Y-18107289D01*
X7426789Y-18107289D01*
X7426789Y-18248711D01*
X7568211Y-18248711D01*
X7848753Y-18088531D02*
X7858277Y-18079008D01*
X7858277Y-18079008D02*
X7877324Y-18069484D01*
X7877324Y-18069484D02*
X7924943Y-18069484D01*
X7924943Y-18069484D02*
X7943991Y-18079008D01*
X7943991Y-18079008D02*
X7953515Y-18088531D01*
X7953515Y-18088531D02*
X7963039Y-18107579D01*
X7963039Y-18107579D02*
X7963039Y-18126627D01*
X7963039Y-18126627D02*
X7953515Y-18155198D01*
X7953515Y-18155198D02*
X7839229Y-18269484D01*
X7839229Y-18269484D02*
X7963039Y-18269484D01*
X8048753Y-18250436D02*
X8058277Y-18259960D01*
X8058277Y-18259960D02*
X8048753Y-18269484D01*
X8048753Y-18269484D02*
X8039229Y-18259960D01*
X8039229Y-18259960D02*
X8048753Y-18250436D01*
X8048753Y-18250436D02*
X8048753Y-18269484D01*
X8124943Y-18069484D02*
X8248753Y-18069484D01*
X8248753Y-18069484D02*
X8182086Y-18145674D01*
X8182086Y-18145674D02*
X8210658Y-18145674D01*
X8210658Y-18145674D02*
X8229705Y-18155198D01*
X8229705Y-18155198D02*
X8239229Y-18164722D01*
X8239229Y-18164722D02*
X8248753Y-18183770D01*
X8248753Y-18183770D02*
X8248753Y-18231389D01*
X8248753Y-18231389D02*
X8239229Y-18250436D01*
X8239229Y-18250436D02*
X8229705Y-18259960D01*
X8229705Y-18259960D02*
X8210658Y-18269484D01*
X8210658Y-18269484D02*
X8153515Y-18269484D01*
X8153515Y-18269484D02*
X8134467Y-18259960D01*
X8134467Y-18259960D02*
X8124943Y-18250436D01*
X8372562Y-18069484D02*
X8391610Y-18069484D01*
X8391610Y-18069484D02*
X8410658Y-18079008D01*
X8410658Y-18079008D02*
X8420182Y-18088531D01*
X8420182Y-18088531D02*
X8429705Y-18107579D01*
X8429705Y-18107579D02*
X8439229Y-18145674D01*
X8439229Y-18145674D02*
X8439229Y-18193293D01*
X8439229Y-18193293D02*
X8429705Y-18231389D01*
X8429705Y-18231389D02*
X8420182Y-18250436D01*
X8420182Y-18250436D02*
X8410658Y-18259960D01*
X8410658Y-18259960D02*
X8391610Y-18269484D01*
X8391610Y-18269484D02*
X8372562Y-18269484D01*
X8372562Y-18269484D02*
X8353515Y-18259960D01*
X8353515Y-18259960D02*
X8343991Y-18250436D01*
X8343991Y-18250436D02*
X8334467Y-18231389D01*
X8334467Y-18231389D02*
X8324943Y-18193293D01*
X8324943Y-18193293D02*
X8324943Y-18145674D01*
X8324943Y-18145674D02*
X8334467Y-18107579D01*
X8334467Y-18107579D02*
X8343991Y-18088531D01*
X8343991Y-18088531D02*
X8353515Y-18079008D01*
X8353515Y-18079008D02*
X8372562Y-18069484D01*
X8563039Y-18069484D02*
X8582086Y-18069484D01*
X8582086Y-18069484D02*
X8601134Y-18079008D01*
X8601134Y-18079008D02*
X8610658Y-18088531D01*
X8610658Y-18088531D02*
X8620182Y-18107579D01*
X8620182Y-18107579D02*
X8629705Y-18145674D01*
X8629705Y-18145674D02*
X8629705Y-18193293D01*
X8629705Y-18193293D02*
X8620182Y-18231389D01*
X8620182Y-18231389D02*
X8610658Y-18250436D01*
X8610658Y-18250436D02*
X8601134Y-18259960D01*
X8601134Y-18259960D02*
X8582086Y-18269484D01*
X8582086Y-18269484D02*
X8563039Y-18269484D01*
X8563039Y-18269484D02*
X8543991Y-18259960D01*
X8543991Y-18259960D02*
X8534467Y-18250436D01*
X8534467Y-18250436D02*
X8524944Y-18231389D01*
X8524944Y-18231389D02*
X8515420Y-18193293D01*
X8515420Y-18193293D02*
X8515420Y-18145674D01*
X8515420Y-18145674D02*
X8524944Y-18107579D01*
X8524944Y-18107579D02*
X8534467Y-18088531D01*
X8534467Y-18088531D02*
X8543991Y-18079008D01*
X8543991Y-18079008D02*
X8563039Y-18069484D01*
X8715420Y-18269484D02*
X8715420Y-18136150D01*
X8715420Y-18155198D02*
X8724944Y-18145674D01*
X8724944Y-18145674D02*
X8743991Y-18136150D01*
X8743991Y-18136150D02*
X8772563Y-18136150D01*
X8772563Y-18136150D02*
X8791610Y-18145674D01*
X8791610Y-18145674D02*
X8801134Y-18164722D01*
X8801134Y-18164722D02*
X8801134Y-18269484D01*
X8801134Y-18164722D02*
X8810658Y-18145674D01*
X8810658Y-18145674D02*
X8829705Y-18136150D01*
X8829705Y-18136150D02*
X8858277Y-18136150D01*
X8858277Y-18136150D02*
X8877325Y-18145674D01*
X8877325Y-18145674D02*
X8886848Y-18164722D01*
X8886848Y-18164722D02*
X8886848Y-18269484D01*
X8982086Y-18269484D02*
X8982086Y-18136150D01*
X8982086Y-18155198D02*
X8991610Y-18145674D01*
X8991610Y-18145674D02*
X9010658Y-18136150D01*
X9010658Y-18136150D02*
X9039229Y-18136150D01*
X9039229Y-18136150D02*
X9058277Y-18145674D01*
X9058277Y-18145674D02*
X9067801Y-18164722D01*
X9067801Y-18164722D02*
X9067801Y-18269484D01*
X9067801Y-18164722D02*
X9077325Y-18145674D01*
X9077325Y-18145674D02*
X9096372Y-18136150D01*
X9096372Y-18136150D02*
X9124944Y-18136150D01*
X9124944Y-18136150D02*
X9143991Y-18145674D01*
X9143991Y-18145674D02*
X9153515Y-18164722D01*
X9153515Y-18164722D02*
X9153515Y-18269484D01*
X9543991Y-18059960D02*
X9372563Y-18317103D01*
X9801134Y-18069484D02*
X9820182Y-18069484D01*
X9820182Y-18069484D02*
X9839229Y-18079008D01*
X9839229Y-18079008D02*
X9848753Y-18088531D01*
X9848753Y-18088531D02*
X9858277Y-18107579D01*
X9858277Y-18107579D02*
X9867801Y-18145674D01*
X9867801Y-18145674D02*
X9867801Y-18193293D01*
X9867801Y-18193293D02*
X9858277Y-18231389D01*
X9858277Y-18231389D02*
X9848753Y-18250436D01*
X9848753Y-18250436D02*
X9839229Y-18259960D01*
X9839229Y-18259960D02*
X9820182Y-18269484D01*
X9820182Y-18269484D02*
X9801134Y-18269484D01*
X9801134Y-18269484D02*
X9782087Y-18259960D01*
X9782087Y-18259960D02*
X9772563Y-18250436D01*
X9772563Y-18250436D02*
X9763039Y-18231389D01*
X9763039Y-18231389D02*
X9753515Y-18193293D01*
X9753515Y-18193293D02*
X9753515Y-18145674D01*
X9753515Y-18145674D02*
X9763039Y-18107579D01*
X9763039Y-18107579D02*
X9772563Y-18088531D01*
X9772563Y-18088531D02*
X9782087Y-18079008D01*
X9782087Y-18079008D02*
X9801134Y-18069484D01*
X9953515Y-18250436D02*
X9963039Y-18259960D01*
X9963039Y-18259960D02*
X9953515Y-18269484D01*
X9953515Y-18269484D02*
X9943991Y-18259960D01*
X9943991Y-18259960D02*
X9953515Y-18250436D01*
X9953515Y-18250436D02*
X9953515Y-18269484D01*
X10086848Y-18069484D02*
X10105896Y-18069484D01*
X10105896Y-18069484D02*
X10124944Y-18079008D01*
X10124944Y-18079008D02*
X10134468Y-18088531D01*
X10134468Y-18088531D02*
X10143991Y-18107579D01*
X10143991Y-18107579D02*
X10153515Y-18145674D01*
X10153515Y-18145674D02*
X10153515Y-18193293D01*
X10153515Y-18193293D02*
X10143991Y-18231389D01*
X10143991Y-18231389D02*
X10134468Y-18250436D01*
X10134468Y-18250436D02*
X10124944Y-18259960D01*
X10124944Y-18259960D02*
X10105896Y-18269484D01*
X10105896Y-18269484D02*
X10086848Y-18269484D01*
X10086848Y-18269484D02*
X10067801Y-18259960D01*
X10067801Y-18259960D02*
X10058277Y-18250436D01*
X10058277Y-18250436D02*
X10048753Y-18231389D01*
X10048753Y-18231389D02*
X10039229Y-18193293D01*
X10039229Y-18193293D02*
X10039229Y-18145674D01*
X10039229Y-18145674D02*
X10048753Y-18107579D01*
X10048753Y-18107579D02*
X10058277Y-18088531D01*
X10058277Y-18088531D02*
X10067801Y-18079008D01*
X10067801Y-18079008D02*
X10086848Y-18069484D01*
X10248753Y-18269484D02*
X10286848Y-18269484D01*
X10286848Y-18269484D02*
X10305896Y-18259960D01*
X10305896Y-18259960D02*
X10315420Y-18250436D01*
X10315420Y-18250436D02*
X10334468Y-18221865D01*
X10334468Y-18221865D02*
X10343991Y-18183770D01*
X10343991Y-18183770D02*
X10343991Y-18107579D01*
X10343991Y-18107579D02*
X10334468Y-18088531D01*
X10334468Y-18088531D02*
X10324944Y-18079008D01*
X10324944Y-18079008D02*
X10305896Y-18069484D01*
X10305896Y-18069484D02*
X10267801Y-18069484D01*
X10267801Y-18069484D02*
X10248753Y-18079008D01*
X10248753Y-18079008D02*
X10239229Y-18088531D01*
X10239229Y-18088531D02*
X10229706Y-18107579D01*
X10229706Y-18107579D02*
X10229706Y-18155198D01*
X10229706Y-18155198D02*
X10239229Y-18174246D01*
X10239229Y-18174246D02*
X10248753Y-18183770D01*
X10248753Y-18183770D02*
X10267801Y-18193293D01*
X10267801Y-18193293D02*
X10305896Y-18193293D01*
X10305896Y-18193293D02*
X10324944Y-18183770D01*
X10324944Y-18183770D02*
X10334468Y-18174246D01*
X10334468Y-18174246D02*
X10343991Y-18155198D01*
X10467801Y-18069484D02*
X10486849Y-18069484D01*
X10486849Y-18069484D02*
X10505896Y-18079008D01*
X10505896Y-18079008D02*
X10515420Y-18088531D01*
X10515420Y-18088531D02*
X10524944Y-18107579D01*
X10524944Y-18107579D02*
X10534468Y-18145674D01*
X10534468Y-18145674D02*
X10534468Y-18193293D01*
X10534468Y-18193293D02*
X10524944Y-18231389D01*
X10524944Y-18231389D02*
X10515420Y-18250436D01*
X10515420Y-18250436D02*
X10505896Y-18259960D01*
X10505896Y-18259960D02*
X10486849Y-18269484D01*
X10486849Y-18269484D02*
X10467801Y-18269484D01*
X10467801Y-18269484D02*
X10448753Y-18259960D01*
X10448753Y-18259960D02*
X10439229Y-18250436D01*
X10439229Y-18250436D02*
X10429706Y-18231389D01*
X10429706Y-18231389D02*
X10420182Y-18193293D01*
X10420182Y-18193293D02*
X10420182Y-18145674D01*
X10420182Y-18145674D02*
X10429706Y-18107579D01*
X10429706Y-18107579D02*
X10439229Y-18088531D01*
X10439229Y-18088531D02*
X10448753Y-18079008D01*
X10448753Y-18079008D02*
X10467801Y-18069484D01*
X10705896Y-18069484D02*
X10667801Y-18069484D01*
X10667801Y-18069484D02*
X10648753Y-18079008D01*
X10648753Y-18079008D02*
X10639229Y-18088531D01*
X10639229Y-18088531D02*
X10620182Y-18117103D01*
X10620182Y-18117103D02*
X10610658Y-18155198D01*
X10610658Y-18155198D02*
X10610658Y-18231389D01*
X10610658Y-18231389D02*
X10620182Y-18250436D01*
X10620182Y-18250436D02*
X10629706Y-18259960D01*
X10629706Y-18259960D02*
X10648753Y-18269484D01*
X10648753Y-18269484D02*
X10686849Y-18269484D01*
X10686849Y-18269484D02*
X10705896Y-18259960D01*
X10705896Y-18259960D02*
X10715420Y-18250436D01*
X10715420Y-18250436D02*
X10724944Y-18231389D01*
X10724944Y-18231389D02*
X10724944Y-18183770D01*
X10724944Y-18183770D02*
X10715420Y-18164722D01*
X10715420Y-18164722D02*
X10705896Y-18155198D01*
X10705896Y-18155198D02*
X10686849Y-18145674D01*
X10686849Y-18145674D02*
X10648753Y-18145674D01*
X10648753Y-18145674D02*
X10629706Y-18155198D01*
X10629706Y-18155198D02*
X10620182Y-18164722D01*
X10620182Y-18164722D02*
X10610658Y-18183770D01*
X10801134Y-18069484D02*
X10801134Y-18107579D01*
X10877325Y-18069484D02*
X10877325Y-18107579D01*
X11172563Y-18345674D02*
X11163039Y-18336150D01*
X11163039Y-18336150D02*
X11143991Y-18307579D01*
X11143991Y-18307579D02*
X11134468Y-18288531D01*
X11134468Y-18288531D02*
X11124944Y-18259960D01*
X11124944Y-18259960D02*
X11115420Y-18212341D01*
X11115420Y-18212341D02*
X11115420Y-18174246D01*
X11115420Y-18174246D02*
X11124944Y-18126627D01*
X11124944Y-18126627D02*
X11134468Y-18098055D01*
X11134468Y-18098055D02*
X11143991Y-18079008D01*
X11143991Y-18079008D02*
X11163039Y-18050436D01*
X11163039Y-18050436D02*
X11172563Y-18040912D01*
X11239229Y-18088531D02*
X11248753Y-18079008D01*
X11248753Y-18079008D02*
X11267801Y-18069484D01*
X11267801Y-18069484D02*
X11315420Y-18069484D01*
X11315420Y-18069484D02*
X11334468Y-18079008D01*
X11334468Y-18079008D02*
X11343991Y-18088531D01*
X11343991Y-18088531D02*
X11353515Y-18107579D01*
X11353515Y-18107579D02*
X11353515Y-18126627D01*
X11353515Y-18126627D02*
X11343991Y-18155198D01*
X11343991Y-18155198D02*
X11229706Y-18269484D01*
X11229706Y-18269484D02*
X11353515Y-18269484D01*
X11591610Y-18269484D02*
X11591610Y-18069484D01*
X11677325Y-18269484D02*
X11677325Y-18164722D01*
X11677325Y-18164722D02*
X11667801Y-18145674D01*
X11667801Y-18145674D02*
X11648753Y-18136150D01*
X11648753Y-18136150D02*
X11620182Y-18136150D01*
X11620182Y-18136150D02*
X11601134Y-18145674D01*
X11601134Y-18145674D02*
X11591610Y-18155198D01*
X11801134Y-18269484D02*
X11782087Y-18259960D01*
X11782087Y-18259960D02*
X11772563Y-18250436D01*
X11772563Y-18250436D02*
X11763039Y-18231389D01*
X11763039Y-18231389D02*
X11763039Y-18174246D01*
X11763039Y-18174246D02*
X11772563Y-18155198D01*
X11772563Y-18155198D02*
X11782087Y-18145674D01*
X11782087Y-18145674D02*
X11801134Y-18136150D01*
X11801134Y-18136150D02*
X11829706Y-18136150D01*
X11829706Y-18136150D02*
X11848753Y-18145674D01*
X11848753Y-18145674D02*
X11858277Y-18155198D01*
X11858277Y-18155198D02*
X11867801Y-18174246D01*
X11867801Y-18174246D02*
X11867801Y-18231389D01*
X11867801Y-18231389D02*
X11858277Y-18250436D01*
X11858277Y-18250436D02*
X11848753Y-18259960D01*
X11848753Y-18259960D02*
X11829706Y-18269484D01*
X11829706Y-18269484D02*
X11801134Y-18269484D01*
X11982087Y-18269484D02*
X11963039Y-18259960D01*
X11963039Y-18259960D02*
X11953515Y-18240912D01*
X11953515Y-18240912D02*
X11953515Y-18069484D01*
X12134468Y-18259960D02*
X12115420Y-18269484D01*
X12115420Y-18269484D02*
X12077325Y-18269484D01*
X12077325Y-18269484D02*
X12058277Y-18259960D01*
X12058277Y-18259960D02*
X12048753Y-18240912D01*
X12048753Y-18240912D02*
X12048753Y-18164722D01*
X12048753Y-18164722D02*
X12058277Y-18145674D01*
X12058277Y-18145674D02*
X12077325Y-18136150D01*
X12077325Y-18136150D02*
X12115420Y-18136150D01*
X12115420Y-18136150D02*
X12134468Y-18145674D01*
X12134468Y-18145674D02*
X12143991Y-18164722D01*
X12143991Y-18164722D02*
X12143991Y-18183770D01*
X12143991Y-18183770D02*
X12048753Y-18202817D01*
X12220182Y-18259960D02*
X12239230Y-18269484D01*
X12239230Y-18269484D02*
X12277325Y-18269484D01*
X12277325Y-18269484D02*
X12296372Y-18259960D01*
X12296372Y-18259960D02*
X12305896Y-18240912D01*
X12305896Y-18240912D02*
X12305896Y-18231389D01*
X12305896Y-18231389D02*
X12296372Y-18212341D01*
X12296372Y-18212341D02*
X12277325Y-18202817D01*
X12277325Y-18202817D02*
X12248753Y-18202817D01*
X12248753Y-18202817D02*
X12229706Y-18193293D01*
X12229706Y-18193293D02*
X12220182Y-18174246D01*
X12220182Y-18174246D02*
X12220182Y-18164722D01*
X12220182Y-18164722D02*
X12229706Y-18145674D01*
X12229706Y-18145674D02*
X12248753Y-18136150D01*
X12248753Y-18136150D02*
X12277325Y-18136150D01*
X12277325Y-18136150D02*
X12296372Y-18145674D01*
X12372563Y-18345674D02*
X12382087Y-18336150D01*
X12382087Y-18336150D02*
X12401134Y-18307579D01*
X12401134Y-18307579D02*
X12410658Y-18288531D01*
X12410658Y-18288531D02*
X12420182Y-18259960D01*
X12420182Y-18259960D02*
X12429706Y-18212341D01*
X12429706Y-18212341D02*
X12429706Y-18174246D01*
X12429706Y-18174246D02*
X12420182Y-18126627D01*
X12420182Y-18126627D02*
X12410658Y-18098055D01*
X12410658Y-18098055D02*
X12401134Y-18079008D01*
X12401134Y-18079008D02*
X12382087Y-18050436D01*
X12382087Y-18050436D02*
X12372563Y-18040912D01*
M02*
