%TF.GenerationSoftware,KiCad,Pcbnew,9.0.6*%
%TF.CreationDate,2025-11-19T13:11:46-05:00*%
%TF.ProjectId,kicad,6b696361-642e-46b6-9963-61645f706362,rev?*%
%TF.SameCoordinates,Original*%
%TF.FileFunction,Soldermask,Top*%
%TF.FilePolarity,Negative*%
%FSLAX46Y46*%
G04 Gerber Fmt 4.6, Leading zero omitted, Abs format (unit mm)*
G04 Created by KiCad (PCBNEW 9.0.6) date 2025-11-19 13:11:46*
%MOMM*%
%LPD*%
G01*
G04 APERTURE LIST*
G04 Aperture macros list*
%AMRoundRect*
0 Rectangle with rounded corners*
0 $1 Rounding radius*
0 $2 $3 $4 $5 $6 $7 $8 $9 X,Y pos of 4 corners*
0 Add a 4 corners polygon primitive as box body*
4,1,4,$2,$3,$4,$5,$6,$7,$8,$9,$2,$3,0*
0 Add four circle primitives for the rounded corners*
1,1,$1+$1,$2,$3*
1,1,$1+$1,$4,$5*
1,1,$1+$1,$6,$7*
1,1,$1+$1,$8,$9*
0 Add four rect primitives between the rounded corners*
20,1,$1+$1,$2,$3,$4,$5,0*
20,1,$1+$1,$4,$5,$6,$7,0*
20,1,$1+$1,$6,$7,$8,$9,0*
20,1,$1+$1,$8,$9,$2,$3,0*%
G04 Aperture macros list end*
%ADD10RoundRect,0.250000X0.600000X0.725000X-0.600000X0.725000X-0.600000X-0.725000X0.600000X-0.725000X0*%
%ADD11O,1.700000X1.950000*%
%ADD12RoundRect,0.250000X0.725000X-0.600000X0.725000X0.600000X-0.725000X0.600000X-0.725000X-0.600000X0*%
%ADD13O,1.950000X1.700000*%
%ADD14R,0.900000X0.240000*%
%ADD15R,0.240000X0.900000*%
%ADD16R,2.900000X1.000000*%
%ADD17RoundRect,0.140000X0.140000X0.170000X-0.140000X0.170000X-0.140000X-0.170000X0.140000X-0.170000X0*%
%ADD18RoundRect,0.075000X0.075000X-0.662500X0.075000X0.662500X-0.075000X0.662500X-0.075000X-0.662500X0*%
%ADD19RoundRect,0.135000X-0.135000X-0.185000X0.135000X-0.185000X0.135000X0.185000X-0.135000X0.185000X0*%
%ADD20RoundRect,0.150000X0.587500X0.150000X-0.587500X0.150000X-0.587500X-0.150000X0.587500X-0.150000X0*%
%ADD21RoundRect,0.250000X-0.725000X0.600000X-0.725000X-0.600000X0.725000X-0.600000X0.725000X0.600000X0*%
%ADD22RoundRect,0.140000X-0.140000X-0.170000X0.140000X-0.170000X0.140000X0.170000X-0.140000X0.170000X0*%
%ADD23RoundRect,0.140000X-0.170000X0.140000X-0.170000X-0.140000X0.170000X-0.140000X0.170000X0.140000X0*%
%ADD24RoundRect,0.140000X0.170000X-0.140000X0.170000X0.140000X-0.170000X0.140000X-0.170000X-0.140000X0*%
%ADD25RoundRect,0.135000X0.185000X-0.135000X0.185000X0.135000X-0.185000X0.135000X-0.185000X-0.135000X0*%
%ADD26RoundRect,0.135000X0.135000X0.185000X-0.135000X0.185000X-0.135000X-0.185000X0.135000X-0.185000X0*%
%ADD27R,2.250000X2.250000*%
%ADD28C,2.250000*%
%ADD29RoundRect,0.250000X0.600000X0.600000X-0.600000X0.600000X-0.600000X-0.600000X0.600000X-0.600000X0*%
%ADD30C,1.700000*%
%ADD31RoundRect,0.225000X0.225000X0.250000X-0.225000X0.250000X-0.225000X-0.250000X0.225000X-0.250000X0*%
%ADD32RoundRect,0.135000X-0.185000X0.135000X-0.185000X-0.135000X0.185000X-0.135000X0.185000X0.135000X0*%
%ADD33RoundRect,0.225000X-0.225000X-0.250000X0.225000X-0.250000X0.225000X0.250000X-0.225000X0.250000X0*%
%ADD34R,1.000000X2.900000*%
%ADD35RoundRect,0.250000X0.250000X0.475000X-0.250000X0.475000X-0.250000X-0.475000X0.250000X-0.475000X0*%
%ADD36R,3.500000X3.500000*%
%ADD37RoundRect,0.750000X1.000000X-0.750000X1.000000X0.750000X-1.000000X0.750000X-1.000000X-0.750000X0*%
%ADD38RoundRect,0.875000X0.875000X-0.875000X0.875000X0.875000X-0.875000X0.875000X-0.875000X-0.875000X0*%
%ADD39RoundRect,0.218750X-0.256250X0.218750X-0.256250X-0.218750X0.256250X-0.218750X0.256250X0.218750X0*%
%ADD40RoundRect,0.250000X-0.475000X0.250000X-0.475000X-0.250000X0.475000X-0.250000X0.475000X0.250000X0*%
%ADD41RoundRect,0.250000X-0.750000X0.600000X-0.750000X-0.600000X0.750000X-0.600000X0.750000X0.600000X0*%
%ADD42O,2.000000X1.700000*%
%ADD43RoundRect,0.075000X0.725000X0.075000X-0.725000X0.075000X-0.725000X-0.075000X0.725000X-0.075000X0*%
%ADD44RoundRect,0.075000X0.075000X0.725000X-0.075000X0.725000X-0.075000X-0.725000X0.075000X-0.725000X0*%
%ADD45RoundRect,0.250000X-0.550000X-0.550000X0.550000X-0.550000X0.550000X0.550000X-0.550000X0.550000X0*%
%ADD46C,1.600000*%
%ADD47RoundRect,0.137500X-0.137500X0.600000X-0.137500X-0.600000X0.137500X-0.600000X0.137500X0.600000X0*%
%ADD48RoundRect,0.137500X-0.600000X0.137500X-0.600000X-0.137500X0.600000X-0.137500X0.600000X0.137500X0*%
%ADD49RoundRect,0.250000X0.260000X-2.250000X0.260000X2.250000X-0.260000X2.250000X-0.260000X-2.250000X0*%
%ADD50R,1.700000X1.700000*%
%ADD51R,0.450000X1.750000*%
%ADD52RoundRect,0.375000X0.625000X0.375000X-0.625000X0.375000X-0.625000X-0.375000X0.625000X-0.375000X0*%
%ADD53RoundRect,0.500000X0.500000X1.400000X-0.500000X1.400000X-0.500000X-1.400000X0.500000X-1.400000X0*%
%ADD54RoundRect,0.250000X-0.250000X-0.475000X0.250000X-0.475000X0.250000X0.475000X-0.250000X0.475000X0*%
%ADD55RoundRect,0.250000X-1.750000X-1.000000X1.750000X-1.000000X1.750000X1.000000X-1.750000X1.000000X0*%
%ADD56RoundRect,0.218750X0.256250X-0.218750X0.256250X0.218750X-0.256250X0.218750X-0.256250X-0.218750X0*%
%ADD57RoundRect,0.250000X-0.800000X-0.650000X0.800000X-0.650000X0.800000X0.650000X-0.800000X0.650000X0*%
%ADD58RoundRect,0.250000X0.600000X-0.600000X0.600000X0.600000X-0.600000X0.600000X-0.600000X-0.600000X0*%
%ADD59R,1.600000X1.600000*%
%ADD60C,4.000000*%
%ADD61RoundRect,0.225000X-0.250000X0.225000X-0.250000X-0.225000X0.250000X-0.225000X0.250000X0.225000X0*%
%ADD62RoundRect,0.218750X0.218750X0.256250X-0.218750X0.256250X-0.218750X-0.256250X0.218750X-0.256250X0*%
%ADD63C,0.500000*%
%ADD64C,0.600000*%
%ADD65C,1.000000*%
G04 APERTURE END LIST*
D10*
%TO.C,ATUART1*%
X84900000Y-154370000D03*
D11*
X82400000Y-154370000D03*
X79900000Y-154370000D03*
%TD*%
D12*
%TO.C,LCD1*%
X79590000Y-103470000D03*
D13*
X79590000Y-100970000D03*
X79590000Y-98470000D03*
X79590000Y-95970000D03*
%TD*%
D14*
%TO.C,U13*%
X195010000Y-112300000D03*
D15*
X195560000Y-113350000D03*
X196060000Y-113350000D03*
X196560000Y-113350000D03*
X197060000Y-113350000D03*
X197560000Y-113350000D03*
X198060000Y-113350000D03*
X198560000Y-113350000D03*
X199060000Y-113350000D03*
D14*
X199610000Y-112300000D03*
X199610000Y-111800000D03*
D15*
X199060000Y-110750000D03*
X198560000Y-110750000D03*
X198060000Y-110750000D03*
X197560000Y-110750000D03*
X197060000Y-110750000D03*
X196560000Y-110750000D03*
X196060000Y-110750000D03*
X195560000Y-110750000D03*
D14*
X195010000Y-111800000D03*
D16*
X197310000Y-112050000D03*
%TD*%
D17*
%TO.C,C15*%
X185560000Y-130200000D03*
X184600000Y-130200000D03*
%TD*%
D18*
%TO.C,U16*%
X111850000Y-88312500D03*
X112350000Y-88312500D03*
X112850000Y-88312500D03*
X113350000Y-88312500D03*
X113850000Y-88312500D03*
X114350000Y-88312500D03*
X114850000Y-88312500D03*
X115350000Y-88312500D03*
X115850000Y-88312500D03*
X116350000Y-88312500D03*
X116850000Y-88312500D03*
X117350000Y-88312500D03*
X117850000Y-88312500D03*
X118350000Y-88312500D03*
X118850000Y-88312500D03*
X119350000Y-88312500D03*
X119850000Y-88312500D03*
X120350000Y-88312500D03*
X120850000Y-88312500D03*
X121350000Y-88312500D03*
X121850000Y-88312500D03*
X122350000Y-88312500D03*
X122850000Y-88312500D03*
X123350000Y-88312500D03*
X123350000Y-80887500D03*
X122850000Y-80887500D03*
X122350000Y-80887500D03*
X121850000Y-80887500D03*
X121350000Y-80887500D03*
X120850000Y-80887500D03*
X120350000Y-80887500D03*
X119850000Y-80887500D03*
X119350000Y-80887500D03*
X118850000Y-80887500D03*
X118350000Y-80887500D03*
X117850000Y-80887500D03*
X117350000Y-80887500D03*
X116850000Y-80887500D03*
X116350000Y-80887500D03*
X115850000Y-80887500D03*
X115350000Y-80887500D03*
X114850000Y-80887500D03*
X114350000Y-80887500D03*
X113850000Y-80887500D03*
X113350000Y-80887500D03*
X112850000Y-80887500D03*
X112350000Y-80887500D03*
X111850000Y-80887500D03*
%TD*%
D19*
%TO.C,R13*%
X232230000Y-145750000D03*
X233250000Y-145750000D03*
%TD*%
D20*
%TO.C,Q1*%
X231000000Y-144250000D03*
X231000000Y-142350000D03*
X229125000Y-143300000D03*
%TD*%
D21*
%TO.C,SPEAKER1*%
X236750000Y-111000000D03*
D13*
X236750000Y-113500000D03*
X236750000Y-116000000D03*
%TD*%
D22*
%TO.C,C3*%
X173840000Y-124200000D03*
X174800000Y-124200000D03*
%TD*%
D23*
%TO.C,C22*%
X95337500Y-109620000D03*
X95337500Y-110580000D03*
%TD*%
D24*
%TO.C,C23*%
X90337500Y-110580000D03*
X90337500Y-109620000D03*
%TD*%
D22*
%TO.C,C30*%
X201540000Y-110750000D03*
X202500000Y-110750000D03*
%TD*%
D20*
%TO.C,Q4*%
X230750000Y-125250000D03*
X230750000Y-123350000D03*
X228875000Y-124300000D03*
%TD*%
D25*
%TO.C,R38*%
X116000000Y-135020000D03*
X116000000Y-134000000D03*
%TD*%
D24*
%TO.C,C63*%
X125500000Y-144210000D03*
X125500000Y-143250000D03*
%TD*%
D26*
%TO.C,R21*%
X152000000Y-21400000D03*
X150980000Y-21400000D03*
%TD*%
D27*
%TO.C,STRESET1*%
X213000000Y-152750000D03*
D28*
X219500000Y-152750000D03*
%TD*%
D27*
%TO.C,FRESET1*%
X187750000Y-152750000D03*
D28*
X194250000Y-152750000D03*
%TD*%
D18*
%TO.C,U20*%
X111400000Y-50825000D03*
X111900000Y-50825000D03*
X112400000Y-50825000D03*
X112900000Y-50825000D03*
X113400000Y-50825000D03*
X113900000Y-50825000D03*
X114400000Y-50825000D03*
X114900000Y-50825000D03*
X115400000Y-50825000D03*
X115900000Y-50825000D03*
X116400000Y-50825000D03*
X116900000Y-50825000D03*
X117400000Y-50825000D03*
X117900000Y-50825000D03*
X118400000Y-50825000D03*
X118900000Y-50825000D03*
X119400000Y-50825000D03*
X119900000Y-50825000D03*
X120400000Y-50825000D03*
X120900000Y-50825000D03*
X121400000Y-50825000D03*
X121900000Y-50825000D03*
X122400000Y-50825000D03*
X122900000Y-50825000D03*
X122900000Y-43400000D03*
X122400000Y-43400000D03*
X121900000Y-43400000D03*
X121400000Y-43400000D03*
X120900000Y-43400000D03*
X120400000Y-43400000D03*
X119900000Y-43400000D03*
X119400000Y-43400000D03*
X118900000Y-43400000D03*
X118400000Y-43400000D03*
X117900000Y-43400000D03*
X117400000Y-43400000D03*
X116900000Y-43400000D03*
X116400000Y-43400000D03*
X115900000Y-43400000D03*
X115400000Y-43400000D03*
X114900000Y-43400000D03*
X114400000Y-43400000D03*
X113900000Y-43400000D03*
X113400000Y-43400000D03*
X112900000Y-43400000D03*
X112400000Y-43400000D03*
X111900000Y-43400000D03*
X111400000Y-43400000D03*
%TD*%
D19*
%TO.C,R18*%
X104980000Y-123500000D03*
X106000000Y-123500000D03*
%TD*%
D29*
%TO.C,USBASP1*%
X84040000Y-124660000D03*
D30*
X81500000Y-124660000D03*
X84040000Y-122120000D03*
X81500000Y-122120000D03*
X84040000Y-119580000D03*
X81500000Y-119580000D03*
X84040000Y-117040000D03*
X81500000Y-117040000D03*
X84040000Y-114500000D03*
X81500000Y-114500000D03*
%TD*%
D17*
%TO.C,C1*%
X176200000Y-143800000D03*
X175240000Y-143800000D03*
%TD*%
D21*
%TO.C,J2*%
X236500000Y-84250000D03*
D13*
X236500000Y-86750000D03*
X236500000Y-89250000D03*
X236500000Y-91750000D03*
%TD*%
D19*
%TO.C,R29*%
X149580000Y-78800000D03*
X150600000Y-78800000D03*
%TD*%
%TO.C,R33*%
X140980000Y-140250000D03*
X142000000Y-140250000D03*
%TD*%
D14*
%TO.C,U9*%
X141300000Y-112050000D03*
D15*
X141850000Y-113100000D03*
X142350000Y-113100000D03*
X142850000Y-113100000D03*
X143350000Y-113100000D03*
X143850000Y-113100000D03*
X144350000Y-113100000D03*
X144850000Y-113100000D03*
X145350000Y-113100000D03*
D14*
X145900000Y-112050000D03*
X145900000Y-111550000D03*
D15*
X145350000Y-110500000D03*
X144850000Y-110500000D03*
X144350000Y-110500000D03*
X143850000Y-110500000D03*
X143350000Y-110500000D03*
X142850000Y-110500000D03*
X142350000Y-110500000D03*
X141850000Y-110500000D03*
D14*
X141300000Y-111550000D03*
D16*
X143600000Y-111800000D03*
%TD*%
D26*
%TO.C,R7*%
X231750000Y-98750000D03*
X230730000Y-98750000D03*
%TD*%
D22*
%TO.C,C67*%
X144290000Y-152500000D03*
X145250000Y-152500000D03*
%TD*%
D31*
%TO.C,C46*%
X95750000Y-142500000D03*
X94200000Y-142500000D03*
%TD*%
D32*
%TO.C,R10*%
X90000000Y-120750000D03*
X90000000Y-121770000D03*
%TD*%
D27*
%TO.C,BOOT0*%
X175500000Y-152750000D03*
D28*
X182000000Y-152750000D03*
%TD*%
D33*
%TO.C,C65*%
X143950000Y-154500000D03*
X145500000Y-154500000D03*
%TD*%
D18*
%TO.C,U19*%
X83250000Y-50912500D03*
X83750000Y-50912500D03*
X84250000Y-50912500D03*
X84750000Y-50912500D03*
X85250000Y-50912500D03*
X85750000Y-50912500D03*
X86250000Y-50912500D03*
X86750000Y-50912500D03*
X87250000Y-50912500D03*
X87750000Y-50912500D03*
X88250000Y-50912500D03*
X88750000Y-50912500D03*
X89250000Y-50912500D03*
X89750000Y-50912500D03*
X90250000Y-50912500D03*
X90750000Y-50912500D03*
X91250000Y-50912500D03*
X91750000Y-50912500D03*
X92250000Y-50912500D03*
X92750000Y-50912500D03*
X93250000Y-50912500D03*
X93750000Y-50912500D03*
X94250000Y-50912500D03*
X94750000Y-50912500D03*
X94750000Y-43487500D03*
X94250000Y-43487500D03*
X93750000Y-43487500D03*
X93250000Y-43487500D03*
X92750000Y-43487500D03*
X92250000Y-43487500D03*
X91750000Y-43487500D03*
X91250000Y-43487500D03*
X90750000Y-43487500D03*
X90250000Y-43487500D03*
X89750000Y-43487500D03*
X89250000Y-43487500D03*
X88750000Y-43487500D03*
X88250000Y-43487500D03*
X87750000Y-43487500D03*
X87250000Y-43487500D03*
X86750000Y-43487500D03*
X86250000Y-43487500D03*
X85750000Y-43487500D03*
X85250000Y-43487500D03*
X84750000Y-43487500D03*
X84250000Y-43487500D03*
X83750000Y-43487500D03*
X83250000Y-43487500D03*
%TD*%
D15*
%TO.C,U5*%
X117300000Y-141300000D03*
D14*
X118350000Y-140750000D03*
X118350000Y-140250000D03*
X118350000Y-139750000D03*
X118350000Y-139250000D03*
X118350000Y-138750000D03*
X118350000Y-138250000D03*
X118350000Y-137750000D03*
X118350000Y-137250000D03*
D15*
X117300000Y-136700000D03*
X116800000Y-136700000D03*
D14*
X115750000Y-137250000D03*
X115750000Y-137750000D03*
X115750000Y-138250000D03*
X115750000Y-138750000D03*
X115750000Y-139250000D03*
X115750000Y-139750000D03*
X115750000Y-140250000D03*
X115750000Y-140750000D03*
D15*
X116800000Y-141300000D03*
D34*
X117050000Y-139000000D03*
%TD*%
D35*
%TO.C,C62*%
X91630000Y-155500000D03*
X89730000Y-155500000D03*
%TD*%
D26*
%TO.C,R17*%
X232510000Y-55000000D03*
X231490000Y-55000000D03*
%TD*%
D18*
%TO.C,U15*%
X190400000Y-88625000D03*
X190900000Y-88625000D03*
X191400000Y-88625000D03*
X191900000Y-88625000D03*
X192400000Y-88625000D03*
X192900000Y-88625000D03*
X193400000Y-88625000D03*
X193900000Y-88625000D03*
X194400000Y-88625000D03*
X194900000Y-88625000D03*
X195400000Y-88625000D03*
X195900000Y-88625000D03*
X196400000Y-88625000D03*
X196900000Y-88625000D03*
X197400000Y-88625000D03*
X197900000Y-88625000D03*
X198400000Y-88625000D03*
X198900000Y-88625000D03*
X199400000Y-88625000D03*
X199900000Y-88625000D03*
X200400000Y-88625000D03*
X200900000Y-88625000D03*
X201400000Y-88625000D03*
X201900000Y-88625000D03*
X201900000Y-81200000D03*
X201400000Y-81200000D03*
X200900000Y-81200000D03*
X200400000Y-81200000D03*
X199900000Y-81200000D03*
X199400000Y-81200000D03*
X198900000Y-81200000D03*
X198400000Y-81200000D03*
X197900000Y-81200000D03*
X197400000Y-81200000D03*
X196900000Y-81200000D03*
X196400000Y-81200000D03*
X195900000Y-81200000D03*
X195400000Y-81200000D03*
X194900000Y-81200000D03*
X194400000Y-81200000D03*
X193900000Y-81200000D03*
X193400000Y-81200000D03*
X192900000Y-81200000D03*
X192400000Y-81200000D03*
X191900000Y-81200000D03*
X191400000Y-81200000D03*
X190900000Y-81200000D03*
X190400000Y-81200000D03*
%TD*%
D19*
%TO.C,R25*%
X109240000Y-80750000D03*
X110260000Y-80750000D03*
%TD*%
D26*
%TO.C,R6*%
X231760000Y-91750000D03*
X230740000Y-91750000D03*
%TD*%
D18*
%TO.C,U18*%
X216250000Y-88912500D03*
X216750000Y-88912500D03*
X217250000Y-88912500D03*
X217750000Y-88912500D03*
X218250000Y-88912500D03*
X218750000Y-88912500D03*
X219250000Y-88912500D03*
X219750000Y-88912500D03*
X220250000Y-88912500D03*
X220750000Y-88912500D03*
X221250000Y-88912500D03*
X221750000Y-88912500D03*
X222250000Y-88912500D03*
X222750000Y-88912500D03*
X223250000Y-88912500D03*
X223750000Y-88912500D03*
X224250000Y-88912500D03*
X224750000Y-88912500D03*
X225250000Y-88912500D03*
X225750000Y-88912500D03*
X226250000Y-88912500D03*
X226750000Y-88912500D03*
X227250000Y-88912500D03*
X227750000Y-88912500D03*
X227750000Y-81487500D03*
X227250000Y-81487500D03*
X226750000Y-81487500D03*
X226250000Y-81487500D03*
X225750000Y-81487500D03*
X225250000Y-81487500D03*
X224750000Y-81487500D03*
X224250000Y-81487500D03*
X223750000Y-81487500D03*
X223250000Y-81487500D03*
X222750000Y-81487500D03*
X222250000Y-81487500D03*
X221750000Y-81487500D03*
X221250000Y-81487500D03*
X220750000Y-81487500D03*
X220250000Y-81487500D03*
X219750000Y-81487500D03*
X219250000Y-81487500D03*
X218750000Y-81487500D03*
X218250000Y-81487500D03*
X217750000Y-81487500D03*
X217250000Y-81487500D03*
X216750000Y-81487500D03*
X216250000Y-81487500D03*
%TD*%
D36*
%TO.C,J15*%
X107792500Y-148000000D03*
D37*
X107792500Y-154000000D03*
D38*
X112492500Y-151000000D03*
%TD*%
D23*
%TO.C,C14*%
X77000000Y-145540000D03*
X77000000Y-146500000D03*
%TD*%
%TO.C,C42*%
X155250000Y-113290000D03*
X155250000Y-114250000D03*
%TD*%
D19*
%TO.C,R35*%
X149180000Y-45600000D03*
X150200000Y-45600000D03*
%TD*%
D24*
%TO.C,C56*%
X120500000Y-109960000D03*
X120500000Y-109000000D03*
%TD*%
D23*
%TO.C,C31*%
X191750000Y-113750000D03*
X191750000Y-114710000D03*
%TD*%
D14*
%TO.C,U10*%
X158250000Y-112200000D03*
D15*
X158800000Y-113250000D03*
X159300000Y-113250000D03*
X159800000Y-113250000D03*
X160300000Y-113250000D03*
X160800000Y-113250000D03*
X161300000Y-113250000D03*
X161800000Y-113250000D03*
X162300000Y-113250000D03*
D14*
X162850000Y-112200000D03*
X162850000Y-111700000D03*
D15*
X162300000Y-110650000D03*
X161800000Y-110650000D03*
X161300000Y-110650000D03*
X160800000Y-110650000D03*
X160300000Y-110650000D03*
X159800000Y-110650000D03*
X159300000Y-110650000D03*
X158800000Y-110650000D03*
D14*
X158250000Y-111700000D03*
D16*
X160550000Y-111950000D03*
%TD*%
D22*
%TO.C,C9*%
X174440000Y-145000000D03*
X175400000Y-145000000D03*
%TD*%
D39*
%TO.C,FRX1*%
X158500000Y-153250000D03*
X158500000Y-154825000D03*
%TD*%
D24*
%TO.C,C33*%
X192750000Y-111710000D03*
X192750000Y-110750000D03*
%TD*%
D40*
%TO.C,C48*%
X101000000Y-144100000D03*
X101000000Y-146000000D03*
%TD*%
D22*
%TO.C,C12*%
X184640000Y-137000000D03*
X185600000Y-137000000D03*
%TD*%
D25*
%TO.C,R23*%
X235400000Y-35420000D03*
X235400000Y-34400000D03*
%TD*%
D19*
%TO.C,R22*%
X155400000Y-21400000D03*
X156420000Y-21400000D03*
%TD*%
D41*
%TO.C,V_2*%
X237000000Y-141750000D03*
D42*
X237000000Y-144250000D03*
%TD*%
D23*
%TO.C,C5*%
X179000000Y-135020000D03*
X179000000Y-135980000D03*
%TD*%
D19*
%TO.C,R42*%
X149230000Y-113000000D03*
X150250000Y-113000000D03*
%TD*%
D23*
%TO.C,C37*%
X173750000Y-112790000D03*
X173750000Y-113750000D03*
%TD*%
D22*
%TO.C,C4*%
X90750000Y-141750000D03*
X91710000Y-141750000D03*
%TD*%
D43*
%TO.C,U6*%
X176675000Y-140200000D03*
X176675000Y-139700000D03*
X176675000Y-139200000D03*
X176675000Y-138700000D03*
X176675000Y-138200000D03*
X176675000Y-137700000D03*
X176675000Y-137200000D03*
X176675000Y-136700000D03*
X176675000Y-136200000D03*
X176675000Y-135700000D03*
X176675000Y-135200000D03*
X176675000Y-134700000D03*
X176675000Y-134200000D03*
X176675000Y-133700000D03*
X176675000Y-133200000D03*
X176675000Y-132700000D03*
X176675000Y-132200000D03*
X176675000Y-131700000D03*
X176675000Y-131200000D03*
X176675000Y-130700000D03*
X176675000Y-130200000D03*
X176675000Y-129700000D03*
X176675000Y-129200000D03*
X176675000Y-128700000D03*
X176675000Y-128200000D03*
D44*
X175000000Y-126525000D03*
X174500000Y-126525000D03*
X174000000Y-126525000D03*
X173500000Y-126525000D03*
X173000000Y-126525000D03*
X172500000Y-126525000D03*
X172000000Y-126525000D03*
X171500000Y-126525000D03*
X171000000Y-126525000D03*
X170500000Y-126525000D03*
X170000000Y-126525000D03*
X169500000Y-126525000D03*
X169000000Y-126525000D03*
X168500000Y-126525000D03*
X168000000Y-126525000D03*
X167500000Y-126525000D03*
X167000000Y-126525000D03*
X166500000Y-126525000D03*
X166000000Y-126525000D03*
X165500000Y-126525000D03*
X165000000Y-126525000D03*
X164500000Y-126525000D03*
X164000000Y-126525000D03*
X163500000Y-126525000D03*
X163000000Y-126525000D03*
D43*
X161325000Y-128200000D03*
X161325000Y-128700000D03*
X161325000Y-129200000D03*
X161325000Y-129700000D03*
X161325000Y-130200000D03*
X161325000Y-130700000D03*
X161325000Y-131200000D03*
X161325000Y-131700000D03*
X161325000Y-132200000D03*
X161325000Y-132700000D03*
X161325000Y-133200000D03*
X161325000Y-133700000D03*
X161325000Y-134200000D03*
X161325000Y-134700000D03*
X161325000Y-135200000D03*
X161325000Y-135700000D03*
X161325000Y-136200000D03*
X161325000Y-136700000D03*
X161325000Y-137200000D03*
X161325000Y-137700000D03*
X161325000Y-138200000D03*
X161325000Y-138700000D03*
X161325000Y-139200000D03*
X161325000Y-139700000D03*
X161325000Y-140200000D03*
D44*
X163000000Y-141875000D03*
X163500000Y-141875000D03*
X164000000Y-141875000D03*
X164500000Y-141875000D03*
X165000000Y-141875000D03*
X165500000Y-141875000D03*
X166000000Y-141875000D03*
X166500000Y-141875000D03*
X167000000Y-141875000D03*
X167500000Y-141875000D03*
X168000000Y-141875000D03*
X168500000Y-141875000D03*
X169000000Y-141875000D03*
X169500000Y-141875000D03*
X170000000Y-141875000D03*
X170500000Y-141875000D03*
X171000000Y-141875000D03*
X171500000Y-141875000D03*
X172000000Y-141875000D03*
X172500000Y-141875000D03*
X173000000Y-141875000D03*
X173500000Y-141875000D03*
X174000000Y-141875000D03*
X174500000Y-141875000D03*
X175000000Y-141875000D03*
%TD*%
D23*
%TO.C,C43*%
X122000000Y-112790000D03*
X122000000Y-113750000D03*
%TD*%
D32*
%TO.C,R34*%
X166250000Y-153730000D03*
X166250000Y-154750000D03*
%TD*%
D45*
%TO.C,23A1024/23LC1*%
X80130000Y-139170000D03*
D46*
X80130000Y-141710000D03*
X80130000Y-144250000D03*
X80130000Y-146790000D03*
X87750000Y-146790000D03*
X87750000Y-144250000D03*
X87750000Y-141710000D03*
X87750000Y-139170000D03*
%TD*%
D23*
%TO.C,C32*%
X193000000Y-113540000D03*
X193000000Y-114500000D03*
%TD*%
D32*
%TO.C,R24*%
X235400000Y-38180000D03*
X235400000Y-39200000D03*
%TD*%
D24*
%TO.C,C44*%
X97500000Y-144460000D03*
X97500000Y-143500000D03*
%TD*%
D41*
%TO.C,V_4*%
X236750000Y-132500000D03*
D42*
X236750000Y-135000000D03*
%TD*%
D22*
%TO.C,C2*%
X162000000Y-124200000D03*
X162960000Y-124200000D03*
%TD*%
%TO.C,C66*%
X147290000Y-139500000D03*
X148250000Y-139500000D03*
%TD*%
D47*
%TO.C,U7*%
X99800000Y-118837500D03*
X99000000Y-118837500D03*
X98200000Y-118837500D03*
X97400000Y-118837500D03*
X96600000Y-118837500D03*
X95800000Y-118837500D03*
X95000000Y-118837500D03*
X94200000Y-118837500D03*
D48*
X92837500Y-120200000D03*
X92837500Y-121000000D03*
X92837500Y-121800000D03*
X92837500Y-122600000D03*
X92837500Y-123400000D03*
X92837500Y-124200000D03*
X92837500Y-125000000D03*
X92837500Y-125800000D03*
D47*
X94200000Y-127162500D03*
X95000000Y-127162500D03*
X95800000Y-127162500D03*
X96600000Y-127162500D03*
X97400000Y-127162500D03*
X98200000Y-127162500D03*
X99000000Y-127162500D03*
X99800000Y-127162500D03*
D48*
X101162500Y-125800000D03*
X101162500Y-125000000D03*
X101162500Y-124200000D03*
X101162500Y-123400000D03*
X101162500Y-122600000D03*
X101162500Y-121800000D03*
X101162500Y-121000000D03*
X101162500Y-120200000D03*
%TD*%
D10*
%TO.C,STUART1*%
X162000000Y-150000000D03*
D11*
X159500000Y-150000000D03*
X157000000Y-150000000D03*
%TD*%
D23*
%TO.C,C18*%
X94250000Y-130020000D03*
X94250000Y-130980000D03*
%TD*%
D19*
%TO.C,R39*%
X202480000Y-113250000D03*
X203500000Y-113250000D03*
%TD*%
D24*
%TO.C,C45*%
X138000000Y-110710000D03*
X138000000Y-109750000D03*
%TD*%
%TO.C,C39*%
X155000000Y-111460000D03*
X155000000Y-110500000D03*
%TD*%
D49*
%TO.C,GRID4*%
X170680000Y-31600000D03*
X170680000Y-24000000D03*
X173220000Y-31600000D03*
X173220000Y-24000000D03*
X175760000Y-31600000D03*
X175760000Y-24000000D03*
X178300000Y-31600000D03*
X178300000Y-24000000D03*
X180840000Y-31600000D03*
X180840000Y-24000000D03*
X183380000Y-31600000D03*
X183380000Y-24000000D03*
X185920000Y-31600000D03*
X185920000Y-24000000D03*
X188460000Y-31600000D03*
X188460000Y-24000000D03*
X191000000Y-31600000D03*
X191000000Y-24000000D03*
X193540000Y-31600000D03*
X193540000Y-24000000D03*
X196080000Y-31600000D03*
X196080000Y-24000000D03*
X198620000Y-31600000D03*
X198620000Y-24000000D03*
X201160000Y-31600000D03*
X201160000Y-24000000D03*
X203700000Y-31600000D03*
X203700000Y-24000000D03*
X206240000Y-31600000D03*
X206240000Y-24000000D03*
X208780000Y-31600000D03*
X208780000Y-24000000D03*
X211320000Y-31600000D03*
X211320000Y-24000000D03*
X213860000Y-31600000D03*
X213860000Y-24000000D03*
X216400000Y-31600000D03*
X216400000Y-24000000D03*
X218940000Y-31600000D03*
X218940000Y-24000000D03*
X221480000Y-31600000D03*
X221480000Y-24000000D03*
X224020000Y-31600000D03*
X224020000Y-24000000D03*
X226560000Y-31600000D03*
X226560000Y-24000000D03*
X229100000Y-31600000D03*
X229100000Y-24000000D03*
X231640000Y-31600000D03*
X231640000Y-24000000D03*
%TD*%
D26*
%TO.C,R8*%
X231770000Y-101250000D03*
X230750000Y-101250000D03*
%TD*%
D32*
%TO.C,R30*%
X154500000Y-153490000D03*
X154500000Y-154510000D03*
%TD*%
D39*
%TO.C,FTX1*%
X152500000Y-153250000D03*
X152500000Y-154825000D03*
%TD*%
D50*
%TO.C,J5*%
X113440000Y-130510000D03*
D30*
X115980000Y-130510000D03*
%TD*%
D19*
%TO.C,R40*%
X184740000Y-113250000D03*
X185760000Y-113250000D03*
%TD*%
%TO.C,R28*%
X183990000Y-155000000D03*
X185010000Y-155000000D03*
%TD*%
D24*
%TO.C,C53*%
X102000000Y-110710000D03*
X102000000Y-109750000D03*
%TD*%
D14*
%TO.C,U8*%
X123950000Y-111950000D03*
D15*
X124500000Y-113000000D03*
X125000000Y-113000000D03*
X125500000Y-113000000D03*
X126000000Y-113000000D03*
X126500000Y-113000000D03*
X127000000Y-113000000D03*
X127500000Y-113000000D03*
X128000000Y-113000000D03*
D14*
X128550000Y-111950000D03*
X128550000Y-111450000D03*
D15*
X128000000Y-110400000D03*
X127500000Y-110400000D03*
X127000000Y-110400000D03*
X126500000Y-110400000D03*
X126000000Y-110400000D03*
X125500000Y-110400000D03*
X125000000Y-110400000D03*
X124500000Y-110400000D03*
D14*
X123950000Y-111450000D03*
D16*
X126250000Y-111700000D03*
%TD*%
D41*
%TO.C,V_3*%
X236750000Y-123000000D03*
D42*
X236750000Y-125500000D03*
%TD*%
D51*
%TO.C,U3*%
X150550000Y-142550000D03*
X149900000Y-142550000D03*
X149250000Y-142550000D03*
X148600000Y-142550000D03*
X147950000Y-142550000D03*
X147300000Y-142550000D03*
X146650000Y-142550000D03*
X146000000Y-142550000D03*
X145350000Y-142550000D03*
X144700000Y-142550000D03*
X144050000Y-142550000D03*
X143400000Y-142550000D03*
X142750000Y-142550000D03*
X142100000Y-142550000D03*
X142100000Y-149750000D03*
X142750000Y-149750000D03*
X143400000Y-149750000D03*
X144050000Y-149750000D03*
X144700000Y-149750000D03*
X145350000Y-149750000D03*
X146000000Y-149750000D03*
X146650000Y-149750000D03*
X147300000Y-149750000D03*
X147950000Y-149750000D03*
X148600000Y-149750000D03*
X149250000Y-149750000D03*
X149900000Y-149750000D03*
X150550000Y-149750000D03*
%TD*%
D23*
%TO.C,C51*%
X102000000Y-113540000D03*
X102000000Y-114500000D03*
%TD*%
%TO.C,C38*%
X175000000Y-112790000D03*
X175000000Y-113750000D03*
%TD*%
D22*
%TO.C,C16*%
X87250000Y-135000000D03*
X88210000Y-135000000D03*
%TD*%
D19*
%TO.C,R44*%
X111730000Y-110750000D03*
X112750000Y-110750000D03*
%TD*%
D52*
%TO.C,U12*%
X98650000Y-152800000D03*
X98650000Y-150500000D03*
D53*
X92350000Y-150500000D03*
D52*
X98650000Y-148200000D03*
%TD*%
D49*
%TO.C,GRID1*%
X82640000Y-68200000D03*
X82640000Y-60600000D03*
X85180000Y-68200000D03*
X85180000Y-60600000D03*
X87720000Y-68200000D03*
X87720000Y-60600000D03*
X90260000Y-68200000D03*
X90260000Y-60600000D03*
X92800000Y-68200000D03*
X92800000Y-60600000D03*
X95340000Y-68200000D03*
X95340000Y-60600000D03*
X97880000Y-68200000D03*
X97880000Y-60600000D03*
X100420000Y-68200000D03*
X100420000Y-60600000D03*
X102960000Y-68200000D03*
X102960000Y-60600000D03*
X105500000Y-68200000D03*
X105500000Y-60600000D03*
X108040000Y-68200000D03*
X108040000Y-60600000D03*
X110580000Y-68200000D03*
X110580000Y-60600000D03*
X113120000Y-68200000D03*
X113120000Y-60600000D03*
X115660000Y-68200000D03*
X115660000Y-60600000D03*
X118200000Y-68200000D03*
X118200000Y-60600000D03*
X120740000Y-68200000D03*
X120740000Y-60600000D03*
X123280000Y-68200000D03*
X123280000Y-60600000D03*
X125820000Y-68200000D03*
X125820000Y-60600000D03*
X128360000Y-68200000D03*
X128360000Y-60600000D03*
X130900000Y-68200000D03*
X130900000Y-60600000D03*
X133440000Y-68200000D03*
X133440000Y-60600000D03*
X135980000Y-68200000D03*
X135980000Y-60600000D03*
X138520000Y-68200000D03*
X138520000Y-60600000D03*
X141060000Y-68200000D03*
X141060000Y-60600000D03*
X143600000Y-68200000D03*
X143600000Y-60600000D03*
%TD*%
D54*
%TO.C,C61*%
X91050000Y-138000000D03*
X92950000Y-138000000D03*
%TD*%
D23*
%TO.C,C13*%
X179600000Y-130240000D03*
X179600000Y-131200000D03*
%TD*%
D49*
%TO.C,GRID2*%
X170400000Y-67600000D03*
X170400000Y-60000000D03*
X172940000Y-67600000D03*
X172940000Y-60000000D03*
X175480000Y-67600000D03*
X175480000Y-60000000D03*
X178020000Y-67600000D03*
X178020000Y-60000000D03*
X180560000Y-67600000D03*
X180560000Y-60000000D03*
X183100000Y-67600000D03*
X183100000Y-60000000D03*
X185640000Y-67600000D03*
X185640000Y-60000000D03*
X188180000Y-67600000D03*
X188180000Y-60000000D03*
X190720000Y-67600000D03*
X190720000Y-60000000D03*
X193260000Y-67600000D03*
X193260000Y-60000000D03*
X195800000Y-67600000D03*
X195800000Y-60000000D03*
X198340000Y-67600000D03*
X198340000Y-60000000D03*
X200880000Y-67600000D03*
X200880000Y-60000000D03*
X203420000Y-67600000D03*
X203420000Y-60000000D03*
X205960000Y-67600000D03*
X205960000Y-60000000D03*
X208500000Y-67600000D03*
X208500000Y-60000000D03*
X211040000Y-67600000D03*
X211040000Y-60000000D03*
X213580000Y-67600000D03*
X213580000Y-60000000D03*
X216120000Y-67600000D03*
X216120000Y-60000000D03*
X218660000Y-67600000D03*
X218660000Y-60000000D03*
X221200000Y-67600000D03*
X221200000Y-60000000D03*
X223740000Y-67600000D03*
X223740000Y-60000000D03*
X226280000Y-67600000D03*
X226280000Y-60000000D03*
X228820000Y-67600000D03*
X228820000Y-60000000D03*
X231360000Y-67600000D03*
X231360000Y-60000000D03*
%TD*%
D22*
%TO.C,C26*%
X148040000Y-110500000D03*
X149000000Y-110500000D03*
%TD*%
D18*
%TO.C,U17*%
X152450000Y-88312500D03*
X152950000Y-88312500D03*
X153450000Y-88312500D03*
X153950000Y-88312500D03*
X154450000Y-88312500D03*
X154950000Y-88312500D03*
X155450000Y-88312500D03*
X155950000Y-88312500D03*
X156450000Y-88312500D03*
X156950000Y-88312500D03*
X157450000Y-88312500D03*
X157950000Y-88312500D03*
X158450000Y-88312500D03*
X158950000Y-88312500D03*
X159450000Y-88312500D03*
X159950000Y-88312500D03*
X160450000Y-88312500D03*
X160950000Y-88312500D03*
X161450000Y-88312500D03*
X161950000Y-88312500D03*
X162450000Y-88312500D03*
X162950000Y-88312500D03*
X163450000Y-88312500D03*
X163950000Y-88312500D03*
X163950000Y-80887500D03*
X163450000Y-80887500D03*
X162950000Y-80887500D03*
X162450000Y-80887500D03*
X161950000Y-80887500D03*
X161450000Y-80887500D03*
X160950000Y-80887500D03*
X160450000Y-80887500D03*
X159950000Y-80887500D03*
X159450000Y-80887500D03*
X158950000Y-80887500D03*
X158450000Y-80887500D03*
X157950000Y-80887500D03*
X157450000Y-80887500D03*
X156950000Y-80887500D03*
X156450000Y-80887500D03*
X155950000Y-80887500D03*
X155450000Y-80887500D03*
X154950000Y-80887500D03*
X154450000Y-80887500D03*
X153950000Y-80887500D03*
X153450000Y-80887500D03*
X152950000Y-80887500D03*
X152450000Y-80887500D03*
%TD*%
D12*
%TO.C,J3*%
X236000000Y-103750000D03*
D13*
X236000000Y-101250000D03*
X236000000Y-98750000D03*
%TD*%
D24*
%TO.C,C64*%
X142500000Y-153960000D03*
X142500000Y-153000000D03*
%TD*%
D55*
%TO.C,C4322*%
X127750000Y-130000000D03*
X135750000Y-130000000D03*
%TD*%
D22*
%TO.C,C10*%
X179440000Y-137800000D03*
X180400000Y-137800000D03*
%TD*%
D14*
%TO.C,U1*%
X104400000Y-112000000D03*
D15*
X104950000Y-113050000D03*
X105450000Y-113050000D03*
X105950000Y-113050000D03*
X106450000Y-113050000D03*
X106950000Y-113050000D03*
X107450000Y-113050000D03*
X107950000Y-113050000D03*
X108450000Y-113050000D03*
D14*
X109000000Y-112000000D03*
X109000000Y-111500000D03*
D15*
X108450000Y-110450000D03*
X107950000Y-110450000D03*
X107450000Y-110450000D03*
X106950000Y-110450000D03*
X106450000Y-110450000D03*
X105950000Y-110450000D03*
X105450000Y-110450000D03*
X104950000Y-110450000D03*
D14*
X104400000Y-111500000D03*
D16*
X106700000Y-111750000D03*
%TD*%
D56*
%TO.C,PWR1*%
X164250000Y-154787500D03*
X164250000Y-153212500D03*
%TD*%
D19*
%TO.C,R12*%
X231980000Y-155250000D03*
X233000000Y-155250000D03*
%TD*%
D23*
%TO.C,C50*%
X100500000Y-113790000D03*
X100500000Y-114750000D03*
%TD*%
D22*
%TO.C,C6*%
X174440000Y-146200000D03*
X175400000Y-146200000D03*
%TD*%
D49*
%TO.C,GRID3*%
X83680000Y-31600000D03*
X83680000Y-24000000D03*
X86220000Y-31600000D03*
X86220000Y-24000000D03*
X88760000Y-31600000D03*
X88760000Y-24000000D03*
X91300000Y-31600000D03*
X91300000Y-24000000D03*
X93840000Y-31600000D03*
X93840000Y-24000000D03*
X96380000Y-31600000D03*
X96380000Y-24000000D03*
X98920000Y-31600000D03*
X98920000Y-24000000D03*
X101460000Y-31600000D03*
X101460000Y-24000000D03*
X104000000Y-31600000D03*
X104000000Y-24000000D03*
X106540000Y-31600000D03*
X106540000Y-24000000D03*
X109080000Y-31600000D03*
X109080000Y-24000000D03*
X111620000Y-31600000D03*
X111620000Y-24000000D03*
X114160000Y-31600000D03*
X114160000Y-24000000D03*
X116700000Y-31600000D03*
X116700000Y-24000000D03*
X119240000Y-31600000D03*
X119240000Y-24000000D03*
X121780000Y-31600000D03*
X121780000Y-24000000D03*
X124320000Y-31600000D03*
X124320000Y-24000000D03*
X126860000Y-31600000D03*
X126860000Y-24000000D03*
X129400000Y-31600000D03*
X129400000Y-24000000D03*
X131940000Y-31600000D03*
X131940000Y-24000000D03*
X134480000Y-31600000D03*
X134480000Y-24000000D03*
X137020000Y-31600000D03*
X137020000Y-24000000D03*
X139560000Y-31600000D03*
X139560000Y-24000000D03*
X142100000Y-31600000D03*
X142100000Y-24000000D03*
X144640000Y-31600000D03*
X144640000Y-24000000D03*
%TD*%
D18*
%TO.C,U14*%
X83250000Y-88512500D03*
X83750000Y-88512500D03*
X84250000Y-88512500D03*
X84750000Y-88512500D03*
X85250000Y-88512500D03*
X85750000Y-88512500D03*
X86250000Y-88512500D03*
X86750000Y-88512500D03*
X87250000Y-88512500D03*
X87750000Y-88512500D03*
X88250000Y-88512500D03*
X88750000Y-88512500D03*
X89250000Y-88512500D03*
X89750000Y-88512500D03*
X90250000Y-88512500D03*
X90750000Y-88512500D03*
X91250000Y-88512500D03*
X91750000Y-88512500D03*
X92250000Y-88512500D03*
X92750000Y-88512500D03*
X93250000Y-88512500D03*
X93750000Y-88512500D03*
X94250000Y-88512500D03*
X94750000Y-88512500D03*
X94750000Y-81087500D03*
X94250000Y-81087500D03*
X93750000Y-81087500D03*
X93250000Y-81087500D03*
X92750000Y-81087500D03*
X92250000Y-81087500D03*
X91750000Y-81087500D03*
X91250000Y-81087500D03*
X90750000Y-81087500D03*
X90250000Y-81087500D03*
X89750000Y-81087500D03*
X89250000Y-81087500D03*
X88750000Y-81087500D03*
X88250000Y-81087500D03*
X87750000Y-81087500D03*
X87250000Y-81087500D03*
X86750000Y-81087500D03*
X86250000Y-81087500D03*
X85750000Y-81087500D03*
X85250000Y-81087500D03*
X84750000Y-81087500D03*
X84250000Y-81087500D03*
X83750000Y-81087500D03*
X83250000Y-81087500D03*
%TD*%
D24*
%TO.C,C35*%
X173750000Y-111460000D03*
X173750000Y-110500000D03*
%TD*%
D26*
%TO.C,R5*%
X231750000Y-89250000D03*
X230730000Y-89250000D03*
%TD*%
D17*
%TO.C,C11*%
X158360000Y-139200000D03*
X157400000Y-139200000D03*
%TD*%
D19*
%TO.C,R43*%
X131480000Y-111250000D03*
X132500000Y-111250000D03*
%TD*%
D24*
%TO.C,C57*%
X139250000Y-110710000D03*
X139250000Y-109750000D03*
%TD*%
D26*
%TO.C,R26*%
X138750000Y-149000000D03*
X137730000Y-149000000D03*
%TD*%
D57*
%TO.C,Y1*%
X183700000Y-134700000D03*
X186600000Y-134700000D03*
X186600000Y-132400000D03*
X183700000Y-132400000D03*
%TD*%
D23*
%TO.C,C59*%
X139250000Y-112750000D03*
X139250000Y-113710000D03*
%TD*%
D26*
%TO.C,R9*%
X231750000Y-103750000D03*
X230730000Y-103750000D03*
%TD*%
D31*
%TO.C,C47*%
X95615000Y-155500000D03*
X94065000Y-155500000D03*
%TD*%
D25*
%TO.C,R27*%
X138750000Y-151770000D03*
X138750000Y-150750000D03*
%TD*%
D26*
%TO.C,R2*%
X181820000Y-129400000D03*
X180800000Y-129400000D03*
%TD*%
D19*
%TO.C,R15*%
X231980000Y-127250000D03*
X233000000Y-127250000D03*
%TD*%
D24*
%TO.C,C60*%
X122000000Y-144250000D03*
X122000000Y-143290000D03*
%TD*%
D19*
%TO.C,R14*%
X231480000Y-137000000D03*
X232500000Y-137000000D03*
%TD*%
D46*
%TO.C,220UF1*%
X96250000Y-136000000D03*
X98750000Y-136000000D03*
%TD*%
D27*
%TO.C,ATRESET1*%
X200500000Y-152750000D03*
D28*
X207000000Y-152750000D03*
%TD*%
D19*
%TO.C,R32*%
X80290000Y-45000000D03*
X81310000Y-45000000D03*
%TD*%
D24*
%TO.C,C52*%
X100500000Y-110710000D03*
X100500000Y-109750000D03*
%TD*%
D20*
%TO.C,Q3*%
X230937500Y-134950000D03*
X230937500Y-133050000D03*
X229062500Y-134000000D03*
%TD*%
D19*
%TO.C,R20*%
X153580000Y-60800000D03*
X154600000Y-60800000D03*
%TD*%
D25*
%TO.C,R11*%
X88750000Y-123020000D03*
X88750000Y-122000000D03*
%TD*%
D22*
%TO.C,C19*%
X96020000Y-116750000D03*
X96980000Y-116750000D03*
%TD*%
D26*
%TO.C,R19*%
X151420000Y-60800000D03*
X150400000Y-60800000D03*
%TD*%
D23*
%TO.C,C55*%
X156500000Y-113290000D03*
X156500000Y-114250000D03*
%TD*%
D18*
%TO.C,U22*%
X190450000Y-51112500D03*
X190950000Y-51112500D03*
X191450000Y-51112500D03*
X191950000Y-51112500D03*
X192450000Y-51112500D03*
X192950000Y-51112500D03*
X193450000Y-51112500D03*
X193950000Y-51112500D03*
X194450000Y-51112500D03*
X194950000Y-51112500D03*
X195450000Y-51112500D03*
X195950000Y-51112500D03*
X196450000Y-51112500D03*
X196950000Y-51112500D03*
X197450000Y-51112500D03*
X197950000Y-51112500D03*
X198450000Y-51112500D03*
X198950000Y-51112500D03*
X199450000Y-51112500D03*
X199950000Y-51112500D03*
X200450000Y-51112500D03*
X200950000Y-51112500D03*
X201450000Y-51112500D03*
X201950000Y-51112500D03*
X201950000Y-43687500D03*
X201450000Y-43687500D03*
X200950000Y-43687500D03*
X200450000Y-43687500D03*
X199950000Y-43687500D03*
X199450000Y-43687500D03*
X198950000Y-43687500D03*
X198450000Y-43687500D03*
X197950000Y-43687500D03*
X197450000Y-43687500D03*
X196950000Y-43687500D03*
X196450000Y-43687500D03*
X195950000Y-43687500D03*
X195450000Y-43687500D03*
X194950000Y-43687500D03*
X194450000Y-43687500D03*
X193950000Y-43687500D03*
X193450000Y-43687500D03*
X192950000Y-43687500D03*
X192450000Y-43687500D03*
X191950000Y-43687500D03*
X191450000Y-43687500D03*
X190950000Y-43687500D03*
X190450000Y-43687500D03*
%TD*%
D22*
%TO.C,C29*%
X183790000Y-110750000D03*
X184750000Y-110750000D03*
%TD*%
D19*
%TO.C,R16*%
X235670000Y-55000000D03*
X236690000Y-55000000D03*
%TD*%
D30*
%TO.C,Y2*%
X91087500Y-113250000D03*
X96087500Y-113250000D03*
%TD*%
D33*
%TO.C,C28*%
X173650000Y-121800000D03*
X175200000Y-121800000D03*
%TD*%
D58*
%TO.C,JTAG1*%
X197590000Y-138540000D03*
D30*
X197590000Y-136000000D03*
X200130000Y-138540000D03*
X200130000Y-136000000D03*
X202670000Y-138540000D03*
X202670000Y-136000000D03*
X205210000Y-138540000D03*
X205210000Y-136000000D03*
X207750000Y-138540000D03*
X207750000Y-136000000D03*
X210290000Y-138540000D03*
X210290000Y-136000000D03*
X212830000Y-138540000D03*
X212830000Y-136000000D03*
X215370000Y-138540000D03*
X215370000Y-136000000D03*
X217910000Y-138540000D03*
X217910000Y-136000000D03*
X220450000Y-138540000D03*
X220450000Y-136000000D03*
%TD*%
D46*
%TO.C,220UF2*%
X100500000Y-140000000D03*
X103000000Y-140000000D03*
%TD*%
D22*
%TO.C,C27*%
X164790000Y-110500000D03*
X165750000Y-110500000D03*
%TD*%
D25*
%TO.C,R1*%
X220250000Y-148250000D03*
X220250000Y-147230000D03*
%TD*%
D59*
%TO.C,J6*%
X127250000Y-146962500D03*
D46*
X124750000Y-146962500D03*
X124750000Y-148962500D03*
X127250000Y-148962500D03*
D60*
X132000000Y-151822500D03*
X120000000Y-151822500D03*
%TD*%
D24*
%TO.C,C24*%
X130750000Y-109710000D03*
X130750000Y-108750000D03*
%TD*%
D45*
%TO.C,C4321*%
X106500000Y-130750000D03*
D46*
X109000000Y-130750000D03*
%TD*%
D26*
%TO.C,R4*%
X231750000Y-86750000D03*
X230730000Y-86750000D03*
%TD*%
D19*
%TO.C,R41*%
X166230000Y-113000000D03*
X167250000Y-113000000D03*
%TD*%
D23*
%TO.C,C54*%
X138000000Y-112790000D03*
X138000000Y-113750000D03*
%TD*%
D61*
%TO.C,C17*%
X92250000Y-130000000D03*
X92250000Y-131550000D03*
%TD*%
D14*
%TO.C,U11*%
X177100000Y-112050000D03*
D15*
X177650000Y-113100000D03*
X178150000Y-113100000D03*
X178650000Y-113100000D03*
X179150000Y-113100000D03*
X179650000Y-113100000D03*
X180150000Y-113100000D03*
X180650000Y-113100000D03*
X181150000Y-113100000D03*
D14*
X181700000Y-112050000D03*
X181700000Y-111550000D03*
D15*
X181150000Y-110500000D03*
X180650000Y-110500000D03*
X180150000Y-110500000D03*
X179650000Y-110500000D03*
X179150000Y-110500000D03*
X178650000Y-110500000D03*
X178150000Y-110500000D03*
X177650000Y-110500000D03*
D14*
X177100000Y-111550000D03*
D16*
X179400000Y-111800000D03*
%TD*%
D24*
%TO.C,C41*%
X156250000Y-111460000D03*
X156250000Y-110500000D03*
%TD*%
%TO.C,C40*%
X158600000Y-141160000D03*
X158600000Y-140200000D03*
%TD*%
D31*
%TO.C,C20*%
X92525000Y-135750000D03*
X90975000Y-135750000D03*
%TD*%
D22*
%TO.C,C25*%
X110790000Y-108750000D03*
X111750000Y-108750000D03*
%TD*%
D62*
%TO.C,FB2*%
X95825000Y-145000000D03*
X94250000Y-145000000D03*
%TD*%
D24*
%TO.C,C49*%
X122000000Y-110210000D03*
X122000000Y-109250000D03*
%TD*%
D26*
%TO.C,R3*%
X231760000Y-84250000D03*
X230740000Y-84250000D03*
%TD*%
D17*
%TO.C,C7*%
X163600000Y-121800000D03*
X162640000Y-121800000D03*
%TD*%
D18*
%TO.C,U21*%
X152050000Y-50912500D03*
X152550000Y-50912500D03*
X153050000Y-50912500D03*
X153550000Y-50912500D03*
X154050000Y-50912500D03*
X154550000Y-50912500D03*
X155050000Y-50912500D03*
X155550000Y-50912500D03*
X156050000Y-50912500D03*
X156550000Y-50912500D03*
X157050000Y-50912500D03*
X157550000Y-50912500D03*
X158050000Y-50912500D03*
X158550000Y-50912500D03*
X159050000Y-50912500D03*
X159550000Y-50912500D03*
X160050000Y-50912500D03*
X160550000Y-50912500D03*
X161050000Y-50912500D03*
X161550000Y-50912500D03*
X162050000Y-50912500D03*
X162550000Y-50912500D03*
X163050000Y-50912500D03*
X163550000Y-50912500D03*
X163550000Y-43487500D03*
X163050000Y-43487500D03*
X162550000Y-43487500D03*
X162050000Y-43487500D03*
X161550000Y-43487500D03*
X161050000Y-43487500D03*
X160550000Y-43487500D03*
X160050000Y-43487500D03*
X159550000Y-43487500D03*
X159050000Y-43487500D03*
X158550000Y-43487500D03*
X158050000Y-43487500D03*
X157550000Y-43487500D03*
X157050000Y-43487500D03*
X156550000Y-43487500D03*
X156050000Y-43487500D03*
X155550000Y-43487500D03*
X155050000Y-43487500D03*
X154550000Y-43487500D03*
X154050000Y-43487500D03*
X153550000Y-43487500D03*
X153050000Y-43487500D03*
X152550000Y-43487500D03*
X152050000Y-43487500D03*
%TD*%
D32*
%TO.C,R31*%
X160500000Y-153730000D03*
X160500000Y-154750000D03*
%TD*%
D20*
%TO.C,Q2*%
X230937500Y-152700000D03*
X230937500Y-150800000D03*
X229062500Y-151750000D03*
%TD*%
D17*
%TO.C,C8*%
X163600000Y-123000000D03*
X162640000Y-123000000D03*
%TD*%
D24*
%TO.C,C34*%
X191250000Y-111710000D03*
X191250000Y-110750000D03*
%TD*%
D23*
%TO.C,C58*%
X120750000Y-112790000D03*
X120750000Y-113750000D03*
%TD*%
D22*
%TO.C,C21*%
X96770000Y-129750000D03*
X97730000Y-129750000D03*
%TD*%
D41*
%TO.C,V_1*%
X237000000Y-151000000D03*
D42*
X237000000Y-153500000D03*
%TD*%
D24*
%TO.C,C36*%
X174960000Y-111460000D03*
X174960000Y-110500000D03*
%TD*%
D18*
%TO.C,U23*%
X215300000Y-51225000D03*
X215800000Y-51225000D03*
X216300000Y-51225000D03*
X216800000Y-51225000D03*
X217300000Y-51225000D03*
X217800000Y-51225000D03*
X218300000Y-51225000D03*
X218800000Y-51225000D03*
X219300000Y-51225000D03*
X219800000Y-51225000D03*
X220300000Y-51225000D03*
X220800000Y-51225000D03*
X221300000Y-51225000D03*
X221800000Y-51225000D03*
X222300000Y-51225000D03*
X222800000Y-51225000D03*
X223300000Y-51225000D03*
X223800000Y-51225000D03*
X224300000Y-51225000D03*
X224800000Y-51225000D03*
X225300000Y-51225000D03*
X225800000Y-51225000D03*
X226300000Y-51225000D03*
X226800000Y-51225000D03*
X226800000Y-43800000D03*
X226300000Y-43800000D03*
X225800000Y-43800000D03*
X225300000Y-43800000D03*
X224800000Y-43800000D03*
X224300000Y-43800000D03*
X223800000Y-43800000D03*
X223300000Y-43800000D03*
X222800000Y-43800000D03*
X222300000Y-43800000D03*
X221800000Y-43800000D03*
X221300000Y-43800000D03*
X220800000Y-43800000D03*
X220300000Y-43800000D03*
X219800000Y-43800000D03*
X219300000Y-43800000D03*
X218800000Y-43800000D03*
X218300000Y-43800000D03*
X217800000Y-43800000D03*
X217300000Y-43800000D03*
X216800000Y-43800000D03*
X216300000Y-43800000D03*
X215800000Y-43800000D03*
X215300000Y-43800000D03*
%TD*%
D63*
X89100000Y-153950000D03*
X92940000Y-155740000D03*
X103040000Y-121420000D03*
X103327817Y-122799999D03*
X99720000Y-123250000D03*
X99720000Y-124090000D03*
X162920000Y-139590000D03*
X198420000Y-90250000D03*
X157600000Y-24600000D03*
X205200000Y-81800000D03*
X205200000Y-100600000D03*
X174000000Y-136800000D03*
X150400000Y-81400000D03*
X204000000Y-87800000D03*
X204200000Y-101200000D03*
X172200000Y-135600000D03*
X233400000Y-38200000D03*
X208200000Y-81600000D03*
X205400000Y-98800000D03*
X164400000Y-120400000D03*
X216000000Y-105000000D03*
X218800000Y-113800000D03*
X222600000Y-120200000D03*
X216800000Y-129200000D03*
X209600000Y-52200000D03*
X209600000Y-81000000D03*
X217000000Y-107200000D03*
X218229120Y-114493062D03*
X222000000Y-120800000D03*
X216600000Y-128400000D03*
X212600000Y-44400000D03*
X208800000Y-81000000D03*
X216800000Y-108000000D03*
X217600000Y-114800000D03*
X221200000Y-121200000D03*
X216200000Y-127600000D03*
X163800000Y-68200000D03*
X176200000Y-81400000D03*
X216000000Y-109000000D03*
X217000000Y-115400000D03*
X220400000Y-121600000D03*
X215200000Y-127600000D03*
D64*
X235000000Y-58000000D03*
X216400000Y-116000000D03*
X219400000Y-122400000D03*
X214200000Y-127600000D03*
X180200000Y-139000000D03*
D63*
X160500000Y-49000000D03*
X120250000Y-108000000D03*
X156000000Y-90153000D03*
X119850000Y-82150000D03*
X91750000Y-98750000D03*
X153000000Y-111000000D03*
X158013909Y-85236091D03*
X194000000Y-82750000D03*
X186750000Y-111000000D03*
X198250000Y-48750000D03*
X150500000Y-110750000D03*
X186750000Y-137250000D03*
X160000000Y-45500000D03*
X110750000Y-113000000D03*
X87000000Y-103250000D03*
X154750000Y-49000000D03*
X114500000Y-45250000D03*
X90750000Y-45500000D03*
X189750000Y-111000000D03*
X190250000Y-115000000D03*
X138750000Y-153000000D03*
X201000000Y-113000000D03*
X90500000Y-131250000D03*
X233000000Y-29500000D03*
X146000000Y-139750000D03*
X137500000Y-108500000D03*
X98587500Y-116150000D03*
X183250000Y-112750000D03*
X193750000Y-90250000D03*
X112750000Y-108750000D03*
D64*
X97219669Y-142530331D03*
D63*
X155000000Y-61750000D03*
X85450000Y-82472401D03*
X203750000Y-110750000D03*
X149000000Y-151500000D03*
D64*
X142500000Y-155000000D03*
D63*
X91750000Y-49000000D03*
X91087500Y-108600000D03*
X119250000Y-45250000D03*
X166750000Y-152750000D03*
X232500000Y-71750000D03*
X137000000Y-115000000D03*
X130500000Y-112750000D03*
X224250000Y-83000000D03*
X155000000Y-45750000D03*
X219000000Y-45500000D03*
X172000000Y-114000000D03*
X198750000Y-45750000D03*
X167500000Y-110750000D03*
X146250000Y-29250000D03*
X146250000Y-147750000D03*
X123000000Y-143500000D03*
X218250000Y-49000000D03*
X193500000Y-45750000D03*
X236750000Y-56000000D03*
X147750000Y-113000000D03*
X161750000Y-121250000D03*
X224300000Y-90250000D03*
D64*
X93500000Y-141250000D03*
D63*
X94500000Y-138000000D03*
X86250000Y-134750000D03*
X114750000Y-133500000D03*
X115500000Y-82250000D03*
X119000000Y-49250000D03*
X86250000Y-49000000D03*
X153750000Y-115000000D03*
X91500000Y-82750000D03*
X183500000Y-130500000D03*
X98250000Y-131000000D03*
X156000000Y-82250000D03*
X116262017Y-95349999D03*
D64*
X156250000Y-139250000D03*
D63*
X125000000Y-128000000D03*
X186000000Y-155250000D03*
X198500000Y-82750000D03*
X171500000Y-110750000D03*
X157750000Y-21750000D03*
X101750000Y-142750000D03*
X176500000Y-146250000D03*
X114500000Y-48500000D03*
X223500000Y-45500000D03*
X223500000Y-49500000D03*
X86250000Y-45500000D03*
X99750000Y-116000000D03*
X219306659Y-86693341D03*
X193500000Y-48500000D03*
X119500000Y-114750000D03*
X119800000Y-86750000D03*
X131250000Y-107750000D03*
X219500000Y-83000000D03*
X181500000Y-138500000D03*
X150000000Y-72500000D03*
X181380000Y-136000000D03*
X235000000Y-40500000D03*
X126750000Y-143250000D03*
X175500000Y-120250000D03*
X100000000Y-108250000D03*
X164500000Y-113000000D03*
X94837500Y-108850000D03*
X160550000Y-82250000D03*
X89750000Y-125750000D03*
X84250000Y-128250000D03*
X85000000Y-130750000D03*
X88750000Y-127500000D03*
X90500000Y-129500000D03*
X90750000Y-123250000D03*
X87750000Y-131750000D03*
X85750000Y-130500000D03*
X229750000Y-86500000D03*
X172750000Y-122750000D03*
X172250000Y-113000000D03*
X140500000Y-114750000D03*
X190000000Y-114250000D03*
D64*
X157500000Y-141000000D03*
D63*
X229250000Y-88750000D03*
X158000000Y-114750000D03*
X161000000Y-123750000D03*
D65*
X100500000Y-150500000D03*
D63*
X121144473Y-141050000D03*
X80500000Y-46000000D03*
X220750000Y-146000000D03*
D64*
X150250000Y-80000000D03*
D63*
X148250000Y-45500000D03*
X121000000Y-111750000D03*
D65*
X96250000Y-150500000D03*
D64*
X231000000Y-105750000D03*
D63*
X177250000Y-144250000D03*
X119500000Y-113000000D03*
D65*
X94250000Y-149750000D03*
D64*
X106000000Y-79750000D03*
D63*
X181000000Y-135250000D03*
X99750000Y-113000000D03*
X230000000Y-92750000D03*
X229750000Y-84500000D03*
D65*
X94250000Y-151750000D03*
D63*
X186750000Y-130250000D03*
X181500000Y-132750000D03*
X171250000Y-138000000D03*
X126500000Y-140750000D03*
X155000000Y-139000000D03*
X100000000Y-142000000D03*
X131125000Y-139375000D03*
X97950000Y-145750000D03*
X119750000Y-111000000D03*
D65*
X153090000Y-147750000D03*
D63*
X97000000Y-50250000D03*
X103000000Y-109500000D03*
X107250000Y-123000000D03*
X153000000Y-112500000D03*
X139750000Y-140750000D03*
X96500000Y-115750000D03*
D64*
X197000000Y-49250000D03*
D63*
X155500000Y-153000000D03*
X117500000Y-49000000D03*
X223500000Y-87000000D03*
X171500000Y-112250000D03*
X159500000Y-90153000D03*
X148500000Y-144500000D03*
X90763909Y-99986091D03*
X197300000Y-90250000D03*
X133000000Y-128000000D03*
D65*
X226750000Y-119750000D03*
D63*
X158500000Y-49250000D03*
X145000000Y-147500000D03*
X95750000Y-129000000D03*
X136500000Y-111500000D03*
X90250000Y-119500000D03*
X189750000Y-113000000D03*
X221750000Y-49000000D03*
X113750000Y-141500000D03*
X118513909Y-86486091D03*
X163000000Y-130030000D03*
X121500000Y-139148000D03*
X122630000Y-140940000D03*
X163000000Y-129260000D03*
X123359570Y-140139712D03*
X163000000Y-128390000D03*
X163406868Y-127820385D03*
X123240000Y-139450000D03*
X179500000Y-133450000D03*
X167013909Y-148236091D03*
X163250000Y-144500000D03*
X193000000Y-148250000D03*
X168750000Y-149550000D03*
X199000000Y-149250000D03*
X202250000Y-146000000D03*
X161500000Y-144000000D03*
X167500000Y-149000000D03*
X162500000Y-144250000D03*
X197500000Y-148750000D03*
X230000000Y-147000000D03*
X179750000Y-125750000D03*
X227750000Y-144750000D03*
X149250000Y-123500000D03*
X131750000Y-123500000D03*
X111500000Y-125000000D03*
X119500000Y-123500000D03*
X138250000Y-123500000D03*
X150250000Y-124250000D03*
X111500000Y-126000000D03*
X132500000Y-124250000D03*
X119500000Y-124250000D03*
X180500000Y-126750000D03*
X139000000Y-124250000D03*
X163500000Y-120250000D03*
X136500000Y-121750000D03*
X230500000Y-138000000D03*
X117500000Y-122000000D03*
X129750000Y-121750000D03*
X190250000Y-122000000D03*
X111500000Y-123500000D03*
X227250000Y-131750000D03*
X147500000Y-121750000D03*
X152750000Y-120500000D03*
X148500000Y-122750000D03*
X118500000Y-122750000D03*
X137500000Y-122750000D03*
X130750000Y-122750000D03*
X230000000Y-128000000D03*
X178750000Y-125000000D03*
X111500000Y-124250000D03*
X219000000Y-125000000D03*
X173250000Y-132750000D03*
X174000000Y-132500000D03*
X174750000Y-132000000D03*
X180750000Y-132000000D03*
X172500000Y-133250000D03*
X227250000Y-102000000D03*
X211260000Y-127540000D03*
X212940000Y-127530000D03*
X86500000Y-129500000D03*
X139500000Y-156000000D03*
X105500000Y-124400000D03*
X172000000Y-145250000D03*
X138250000Y-134500000D03*
X172000000Y-136500000D03*
X123250000Y-135750000D03*
X142750000Y-134750000D03*
X168800000Y-130400000D03*
X193600000Y-118600000D03*
X194400000Y-118800000D03*
X169400000Y-130940000D03*
X191600000Y-116800000D03*
X166195000Y-130805000D03*
X170200000Y-130620000D03*
X195200000Y-119000000D03*
X192800000Y-118000000D03*
X167800000Y-131000000D03*
X170800000Y-131200000D03*
X196000000Y-119200000D03*
X191200000Y-116200000D03*
X165580000Y-130420000D03*
D64*
X169750000Y-140000000D03*
X159500000Y-144500000D03*
X165450735Y-149049265D03*
X168500000Y-143750000D03*
D63*
X192200000Y-117400000D03*
X167080000Y-130740000D03*
D64*
X166000000Y-150000000D03*
X168500000Y-144750000D03*
X170500000Y-139250000D03*
X147750000Y-140750000D03*
D63*
X153000000Y-119000000D03*
X162500000Y-118500000D03*
X231000000Y-112500000D03*
X135250000Y-119750000D03*
X128250000Y-119750000D03*
X145500000Y-119750000D03*
X201000000Y-120500000D03*
X117250000Y-119750000D03*
X107500000Y-119750000D03*
X229750000Y-110250000D03*
X147000000Y-121000000D03*
X95000000Y-122250000D03*
X117500000Y-121000000D03*
X163000000Y-119500000D03*
X152250000Y-119750000D03*
X129250000Y-121000000D03*
X189500000Y-121250000D03*
X136000000Y-121000000D03*
X82000000Y-55000000D03*
X81000000Y-83600000D03*
X105800000Y-92800000D03*
X158200000Y-56000000D03*
X171600000Y-86800000D03*
X157200000Y-82800000D03*
X154400000Y-57600000D03*
X80400000Y-54600000D03*
X173200000Y-87000000D03*
X148400000Y-81600000D03*
X80000000Y-85400000D03*
X107400000Y-94000000D03*
X160000000Y-56000000D03*
X158600000Y-82800000D03*
X83400000Y-55400000D03*
X82200000Y-80800000D03*
X169600000Y-86800000D03*
X103200000Y-91600000D03*
X170800000Y-86600000D03*
X81600000Y-82800000D03*
X104600000Y-92200000D03*
X82664081Y-55221360D03*
X159200000Y-56000000D03*
X158000000Y-83400000D03*
X84200000Y-55400000D03*
X161000000Y-55800000D03*
X168800000Y-86600000D03*
X159400000Y-83400000D03*
X102000000Y-91000000D03*
X82800000Y-79400000D03*
X102800000Y-90400000D03*
X85200000Y-55200000D03*
X160000000Y-82800000D03*
X161200000Y-56600000D03*
X83600000Y-83400000D03*
X167800000Y-86400000D03*
X154200000Y-59000000D03*
X80800000Y-85000000D03*
X81200000Y-54800000D03*
X106800000Y-93400000D03*
X149000000Y-80800000D03*
X172400000Y-86800000D03*
X147800000Y-80800000D03*
X154400000Y-56600000D03*
X81600000Y-52600000D03*
X108000000Y-94800000D03*
X173200000Y-88200000D03*
X79400000Y-84800000D03*
D64*
X189050000Y-81200000D03*
X204000000Y-81250000D03*
X151250000Y-80000000D03*
X168000000Y-80000000D03*
X78500000Y-79000000D03*
X106000000Y-82250000D03*
X128250000Y-79750000D03*
X105750000Y-77750000D03*
D63*
X86600000Y-82800000D03*
X185800000Y-84800000D03*
X186200000Y-55000000D03*
X185400000Y-105000000D03*
X87400000Y-56600000D03*
X90464081Y-56821360D03*
X188800000Y-103400000D03*
X188400000Y-84200000D03*
X89000000Y-83000000D03*
X188800000Y-56600000D03*
X184600000Y-105400000D03*
X186400000Y-53800000D03*
X86600000Y-56600000D03*
X185200000Y-85600000D03*
X86000000Y-83200000D03*
X89800000Y-56600000D03*
X187800000Y-104000000D03*
X187600000Y-83200000D03*
X88400000Y-83400000D03*
X188400000Y-56000000D03*
X187400000Y-56000000D03*
X87800000Y-82800000D03*
X187000000Y-83600000D03*
X89000000Y-56600000D03*
X186800000Y-104200000D03*
X186000000Y-104600000D03*
X186400000Y-84200000D03*
X187000000Y-55200000D03*
X87200000Y-83200000D03*
X88200000Y-56600000D03*
X85800000Y-56400000D03*
X166200000Y-85400000D03*
X101800000Y-89000000D03*
X162000000Y-83400000D03*
X163000000Y-57200000D03*
X85301356Y-83156438D03*
X162200000Y-56600000D03*
X167000000Y-86200000D03*
X101600000Y-89800000D03*
X84400000Y-83032900D03*
X161200000Y-83200000D03*
X86200000Y-55200000D03*
X196200000Y-56400000D03*
X195800000Y-100600000D03*
X108000000Y-83600000D03*
X195400000Y-83400000D03*
X108800000Y-54400000D03*
X191600000Y-56000000D03*
X90200000Y-83000000D03*
X191400000Y-82800000D03*
X190600000Y-102800000D03*
X92400000Y-56600000D03*
X194600000Y-83400000D03*
X195000000Y-56400000D03*
X194600000Y-101200000D03*
X107400000Y-84200000D03*
X108864081Y-53621360D03*
X193200000Y-56000000D03*
X192600000Y-83000000D03*
X92200000Y-84000000D03*
X192600000Y-102000000D03*
X94200000Y-56800000D03*
X190800000Y-56400000D03*
X189600000Y-103000000D03*
X91600000Y-56600000D03*
X190800000Y-83400000D03*
X89600000Y-82600000D03*
X108800000Y-55200000D03*
X196800000Y-100200000D03*
X108600000Y-83200000D03*
X197400000Y-56400000D03*
X196000000Y-83000000D03*
X191600000Y-102400000D03*
X192400000Y-56000000D03*
X192000000Y-83400000D03*
X90800000Y-83400000D03*
X93200000Y-56600000D03*
X106800000Y-84800000D03*
X193600000Y-101600000D03*
X193246157Y-82730768D03*
X108200000Y-53400000D03*
X194200000Y-56000000D03*
X111600000Y-83000000D03*
X201800000Y-55800000D03*
X201200000Y-98400000D03*
X201000000Y-83800000D03*
X112800000Y-56000000D03*
X197800000Y-100000000D03*
X109800000Y-55200000D03*
X198600000Y-56400000D03*
X196800000Y-83200000D03*
X109200000Y-82800000D03*
X197600000Y-83200000D03*
X199800000Y-56400000D03*
X198800000Y-99600000D03*
X109800000Y-82400000D03*
X110600000Y-55400000D03*
X110950000Y-83570000D03*
X200535919Y-98621360D03*
X112000000Y-56000000D03*
X201200000Y-56400000D03*
X200000000Y-84200000D03*
X211200000Y-84400000D03*
X114000000Y-82400000D03*
X214400000Y-97200000D03*
X212000000Y-55000000D03*
X115000000Y-56600000D03*
X213800000Y-97600000D03*
X210600000Y-84800000D03*
X114000000Y-56800000D03*
X212000000Y-54200000D03*
X113200000Y-82400000D03*
X111000000Y-56000000D03*
X110400000Y-83000000D03*
X199800000Y-99200000D03*
X200600000Y-55800000D03*
X199200000Y-83800000D03*
X202400000Y-98400000D03*
X112400000Y-83000000D03*
X113800000Y-56000000D03*
X201800000Y-83600000D03*
X202600000Y-55200000D03*
X214400000Y-56600000D03*
X213600000Y-82400000D03*
X216800000Y-95400000D03*
X117800000Y-83200000D03*
X118400000Y-57000000D03*
X215400000Y-56600000D03*
X119400000Y-57000000D03*
X217400000Y-94959000D03*
X214200000Y-81800000D03*
X118464081Y-82978640D03*
X212351000Y-83449000D03*
X116200000Y-82800000D03*
X215600000Y-96200000D03*
X117400000Y-56200000D03*
X212800000Y-56200000D03*
X213000000Y-83000000D03*
X117000000Y-83000000D03*
X213400000Y-56600000D03*
X216200000Y-95800000D03*
X117600000Y-57000000D03*
X216400000Y-83000000D03*
X218400000Y-56200000D03*
X123000000Y-55600000D03*
X220400000Y-94800000D03*
X121200000Y-83200000D03*
X215000000Y-96800000D03*
X114800000Y-82600000D03*
X116000000Y-56600000D03*
X212600000Y-55400000D03*
X211800000Y-84000000D03*
X215400000Y-80600000D03*
X121600000Y-56800000D03*
X217400000Y-56200000D03*
X120400000Y-83600000D03*
X219600000Y-94800000D03*
X214800000Y-81400000D03*
X218400000Y-94800000D03*
X119200000Y-83400000D03*
X120400000Y-57000000D03*
X216200000Y-56600000D03*
X223310384Y-94910384D03*
X144400000Y-82600000D03*
X151200000Y-55000000D03*
X222800000Y-55800000D03*
X222800000Y-83800000D03*
X222000000Y-56200000D03*
X222000000Y-84000000D03*
X150600000Y-54400000D03*
X143800000Y-83000000D03*
X222626200Y-94762411D03*
X225800000Y-84200000D03*
X152400000Y-56600000D03*
X146200000Y-82400000D03*
X225800000Y-55600000D03*
X225800000Y-94800000D03*
X224100000Y-94900000D03*
X223400000Y-83400000D03*
X145000000Y-83800000D03*
X223600000Y-55200000D03*
X152200000Y-55000000D03*
X221927456Y-94804355D03*
X221200000Y-55000000D03*
X149800000Y-53800000D03*
X143200000Y-83400000D03*
X221000000Y-83600000D03*
X147000000Y-81800000D03*
X153200000Y-56800000D03*
X226400000Y-54400000D03*
X226800000Y-83600000D03*
X221200000Y-94800000D03*
X149200000Y-53200000D03*
X220400000Y-84000000D03*
X220400000Y-55600000D03*
X142600000Y-83800000D03*
X225000000Y-94800000D03*
X152200000Y-55800000D03*
X224800000Y-83800000D03*
X224800000Y-55200000D03*
X145600000Y-83000000D03*
X99000000Y-125500000D03*
X99000000Y-130750000D03*
X123500000Y-138800000D03*
X120750000Y-137000000D03*
X169250000Y-147000000D03*
X168000000Y-146250000D03*
X126250000Y-139750000D03*
X172750000Y-144500000D03*
X99750000Y-131250000D03*
X98450000Y-124500000D03*
X124125000Y-136875000D03*
X137750000Y-135250000D03*
X172000000Y-137500000D03*
X141500000Y-135500000D03*
X104250000Y-131000000D03*
X104000000Y-121500000D03*
X154750000Y-143250000D03*
X170750000Y-144500000D03*
X156750000Y-143250000D03*
X128900000Y-141000000D03*
X123138909Y-138050000D03*
X151250000Y-153250000D03*
X144750000Y-144500000D03*
X140000000Y-148500000D03*
M02*
