%TF.GenerationSoftware,KiCad,Pcbnew,9.0.4*%
%TF.CreationDate,2025-11-15T22:12:19-05:00*%
%TF.ProjectId,KICAD,4b494341-442e-46b6-9963-61645f706362,rev?*%
%TF.SameCoordinates,Original*%
%TF.FileFunction,Drillmap*%
%TF.FilePolarity,Positive*%
%FSLAX45Y45*%
G04 Gerber Fmt 4.5, Leading zero omitted, Abs format (unit mm)*
G04 Created by KiCad (PCBNEW 9.0.4) date 2025-11-15 22:12:19*
%MOMM*%
%LPD*%
G01*
G04 APERTURE LIST*
%ADD10C,0.050000*%
%ADD11C,0.200000*%
%ADD12C,0.100000*%
G04 APERTURE END LIST*
D10*
X78000000Y-24025000D02*
X78000000Y-62401000D01*
X46822000Y-24025000D02*
X78000000Y-24025000D01*
X46822000Y-62403000D02*
X46822000Y-24025000D01*
X78000000Y-62401000D02*
X46822000Y-62403000D01*
D11*
D12*
X53900000Y-24200000D02*
X54000000Y-24300000D01*
X54000000Y-24200000D02*
X53900000Y-24300000D01*
X53900000Y-24700000D02*
X54000000Y-24800000D01*
X54000000Y-24700000D02*
X53900000Y-24800000D01*
D11*
X47080277Y-62716984D02*
X47080277Y-62516984D01*
X47080277Y-62516984D02*
X47127896Y-62516984D01*
X47127896Y-62516984D02*
X47156467Y-62526508D01*
X47156467Y-62526508D02*
X47175515Y-62545555D01*
X47175515Y-62545555D02*
X47185039Y-62564603D01*
X47185039Y-62564603D02*
X47194562Y-62602698D01*
X47194562Y-62602698D02*
X47194562Y-62631269D01*
X47194562Y-62631269D02*
X47185039Y-62669365D01*
X47185039Y-62669365D02*
X47175515Y-62688412D01*
X47175515Y-62688412D02*
X47156467Y-62707460D01*
X47156467Y-62707460D02*
X47127896Y-62716984D01*
X47127896Y-62716984D02*
X47080277Y-62716984D01*
X47280277Y-62716984D02*
X47280277Y-62583650D01*
X47280277Y-62621746D02*
X47289801Y-62602698D01*
X47289801Y-62602698D02*
X47299324Y-62593174D01*
X47299324Y-62593174D02*
X47318372Y-62583650D01*
X47318372Y-62583650D02*
X47337420Y-62583650D01*
X47404086Y-62716984D02*
X47404086Y-62583650D01*
X47404086Y-62516984D02*
X47394562Y-62526508D01*
X47394562Y-62526508D02*
X47404086Y-62536031D01*
X47404086Y-62536031D02*
X47413610Y-62526508D01*
X47413610Y-62526508D02*
X47404086Y-62516984D01*
X47404086Y-62516984D02*
X47404086Y-62536031D01*
X47527896Y-62716984D02*
X47508848Y-62707460D01*
X47508848Y-62707460D02*
X47499324Y-62688412D01*
X47499324Y-62688412D02*
X47499324Y-62516984D01*
X47632658Y-62716984D02*
X47613610Y-62707460D01*
X47613610Y-62707460D02*
X47604086Y-62688412D01*
X47604086Y-62688412D02*
X47604086Y-62516984D01*
X47861229Y-62716984D02*
X47861229Y-62516984D01*
X47861229Y-62516984D02*
X47927896Y-62659841D01*
X47927896Y-62659841D02*
X47994562Y-62516984D01*
X47994562Y-62516984D02*
X47994562Y-62716984D01*
X48175515Y-62716984D02*
X48175515Y-62612222D01*
X48175515Y-62612222D02*
X48165991Y-62593174D01*
X48165991Y-62593174D02*
X48146943Y-62583650D01*
X48146943Y-62583650D02*
X48108848Y-62583650D01*
X48108848Y-62583650D02*
X48089801Y-62593174D01*
X48175515Y-62707460D02*
X48156467Y-62716984D01*
X48156467Y-62716984D02*
X48108848Y-62716984D01*
X48108848Y-62716984D02*
X48089801Y-62707460D01*
X48089801Y-62707460D02*
X48080277Y-62688412D01*
X48080277Y-62688412D02*
X48080277Y-62669365D01*
X48080277Y-62669365D02*
X48089801Y-62650317D01*
X48089801Y-62650317D02*
X48108848Y-62640793D01*
X48108848Y-62640793D02*
X48156467Y-62640793D01*
X48156467Y-62640793D02*
X48175515Y-62631269D01*
X48270753Y-62583650D02*
X48270753Y-62783650D01*
X48270753Y-62593174D02*
X48289801Y-62583650D01*
X48289801Y-62583650D02*
X48327896Y-62583650D01*
X48327896Y-62583650D02*
X48346943Y-62593174D01*
X48346943Y-62593174D02*
X48356467Y-62602698D01*
X48356467Y-62602698D02*
X48365991Y-62621746D01*
X48365991Y-62621746D02*
X48365991Y-62678888D01*
X48365991Y-62678888D02*
X48356467Y-62697936D01*
X48356467Y-62697936D02*
X48346943Y-62707460D01*
X48346943Y-62707460D02*
X48327896Y-62716984D01*
X48327896Y-62716984D02*
X48289801Y-62716984D01*
X48289801Y-62716984D02*
X48270753Y-62707460D01*
X48451705Y-62697936D02*
X48461229Y-62707460D01*
X48461229Y-62707460D02*
X48451705Y-62716984D01*
X48451705Y-62716984D02*
X48442182Y-62707460D01*
X48442182Y-62707460D02*
X48451705Y-62697936D01*
X48451705Y-62697936D02*
X48451705Y-62716984D01*
X48451705Y-62593174D02*
X48461229Y-62602698D01*
X48461229Y-62602698D02*
X48451705Y-62612222D01*
X48451705Y-62612222D02*
X48442182Y-62602698D01*
X48442182Y-62602698D02*
X48451705Y-62593174D01*
X48451705Y-62593174D02*
X48451705Y-62612222D01*
D12*
X46719500Y-62995500D02*
X46819500Y-63095500D01*
X46819500Y-62995500D02*
X46719500Y-63095500D01*
D11*
X47185039Y-63136984D02*
X47070753Y-63136984D01*
X47127896Y-63136984D02*
X47127896Y-62936984D01*
X47127896Y-62936984D02*
X47108848Y-62965555D01*
X47108848Y-62965555D02*
X47089801Y-62984603D01*
X47089801Y-62984603D02*
X47070753Y-62994127D01*
X47270753Y-63117936D02*
X47280277Y-63127460D01*
X47280277Y-63127460D02*
X47270753Y-63136984D01*
X47270753Y-63136984D02*
X47261229Y-63127460D01*
X47261229Y-63127460D02*
X47270753Y-63117936D01*
X47270753Y-63117936D02*
X47270753Y-63136984D01*
X47404086Y-62936984D02*
X47423134Y-62936984D01*
X47423134Y-62936984D02*
X47442182Y-62946508D01*
X47442182Y-62946508D02*
X47451705Y-62956031D01*
X47451705Y-62956031D02*
X47461229Y-62975079D01*
X47461229Y-62975079D02*
X47470753Y-63013174D01*
X47470753Y-63013174D02*
X47470753Y-63060793D01*
X47470753Y-63060793D02*
X47461229Y-63098888D01*
X47461229Y-63098888D02*
X47451705Y-63117936D01*
X47451705Y-63117936D02*
X47442182Y-63127460D01*
X47442182Y-63127460D02*
X47423134Y-63136984D01*
X47423134Y-63136984D02*
X47404086Y-63136984D01*
X47404086Y-63136984D02*
X47385039Y-63127460D01*
X47385039Y-63127460D02*
X47375515Y-63117936D01*
X47375515Y-63117936D02*
X47365991Y-63098888D01*
X47365991Y-63098888D02*
X47356467Y-63060793D01*
X47356467Y-63060793D02*
X47356467Y-63013174D01*
X47356467Y-63013174D02*
X47365991Y-62975079D01*
X47365991Y-62975079D02*
X47375515Y-62956031D01*
X47375515Y-62956031D02*
X47385039Y-62946508D01*
X47385039Y-62946508D02*
X47404086Y-62936984D01*
X47594562Y-62936984D02*
X47613610Y-62936984D01*
X47613610Y-62936984D02*
X47632658Y-62946508D01*
X47632658Y-62946508D02*
X47642182Y-62956031D01*
X47642182Y-62956031D02*
X47651705Y-62975079D01*
X47651705Y-62975079D02*
X47661229Y-63013174D01*
X47661229Y-63013174D02*
X47661229Y-63060793D01*
X47661229Y-63060793D02*
X47651705Y-63098888D01*
X47651705Y-63098888D02*
X47642182Y-63117936D01*
X47642182Y-63117936D02*
X47632658Y-63127460D01*
X47632658Y-63127460D02*
X47613610Y-63136984D01*
X47613610Y-63136984D02*
X47594562Y-63136984D01*
X47594562Y-63136984D02*
X47575515Y-63127460D01*
X47575515Y-63127460D02*
X47565991Y-63117936D01*
X47565991Y-63117936D02*
X47556467Y-63098888D01*
X47556467Y-63098888D02*
X47546943Y-63060793D01*
X47546943Y-63060793D02*
X47546943Y-63013174D01*
X47546943Y-63013174D02*
X47556467Y-62975079D01*
X47556467Y-62975079D02*
X47565991Y-62956031D01*
X47565991Y-62956031D02*
X47575515Y-62946508D01*
X47575515Y-62946508D02*
X47594562Y-62936984D01*
X47785039Y-62936984D02*
X47804086Y-62936984D01*
X47804086Y-62936984D02*
X47823134Y-62946508D01*
X47823134Y-62946508D02*
X47832658Y-62956031D01*
X47832658Y-62956031D02*
X47842182Y-62975079D01*
X47842182Y-62975079D02*
X47851705Y-63013174D01*
X47851705Y-63013174D02*
X47851705Y-63060793D01*
X47851705Y-63060793D02*
X47842182Y-63098888D01*
X47842182Y-63098888D02*
X47832658Y-63117936D01*
X47832658Y-63117936D02*
X47823134Y-63127460D01*
X47823134Y-63127460D02*
X47804086Y-63136984D01*
X47804086Y-63136984D02*
X47785039Y-63136984D01*
X47785039Y-63136984D02*
X47765991Y-63127460D01*
X47765991Y-63127460D02*
X47756467Y-63117936D01*
X47756467Y-63117936D02*
X47746943Y-63098888D01*
X47746943Y-63098888D02*
X47737420Y-63060793D01*
X47737420Y-63060793D02*
X47737420Y-63013174D01*
X47737420Y-63013174D02*
X47746943Y-62975079D01*
X47746943Y-62975079D02*
X47756467Y-62956031D01*
X47756467Y-62956031D02*
X47765991Y-62946508D01*
X47765991Y-62946508D02*
X47785039Y-62936984D01*
X47937420Y-63136984D02*
X47937420Y-63003650D01*
X47937420Y-63022698D02*
X47946943Y-63013174D01*
X47946943Y-63013174D02*
X47965991Y-63003650D01*
X47965991Y-63003650D02*
X47994563Y-63003650D01*
X47994563Y-63003650D02*
X48013610Y-63013174D01*
X48013610Y-63013174D02*
X48023134Y-63032222D01*
X48023134Y-63032222D02*
X48023134Y-63136984D01*
X48023134Y-63032222D02*
X48032658Y-63013174D01*
X48032658Y-63013174D02*
X48051705Y-63003650D01*
X48051705Y-63003650D02*
X48080277Y-63003650D01*
X48080277Y-63003650D02*
X48099324Y-63013174D01*
X48099324Y-63013174D02*
X48108848Y-63032222D01*
X48108848Y-63032222D02*
X48108848Y-63136984D01*
X48204086Y-63136984D02*
X48204086Y-63003650D01*
X48204086Y-63022698D02*
X48213610Y-63013174D01*
X48213610Y-63013174D02*
X48232658Y-63003650D01*
X48232658Y-63003650D02*
X48261229Y-63003650D01*
X48261229Y-63003650D02*
X48280277Y-63013174D01*
X48280277Y-63013174D02*
X48289801Y-63032222D01*
X48289801Y-63032222D02*
X48289801Y-63136984D01*
X48289801Y-63032222D02*
X48299324Y-63013174D01*
X48299324Y-63013174D02*
X48318372Y-63003650D01*
X48318372Y-63003650D02*
X48346943Y-63003650D01*
X48346943Y-63003650D02*
X48365991Y-63013174D01*
X48365991Y-63013174D02*
X48375515Y-63032222D01*
X48375515Y-63032222D02*
X48375515Y-63136984D01*
X48765991Y-62927460D02*
X48594563Y-63184603D01*
X49023134Y-62936984D02*
X49042182Y-62936984D01*
X49042182Y-62936984D02*
X49061229Y-62946508D01*
X49061229Y-62946508D02*
X49070753Y-62956031D01*
X49070753Y-62956031D02*
X49080277Y-62975079D01*
X49080277Y-62975079D02*
X49089801Y-63013174D01*
X49089801Y-63013174D02*
X49089801Y-63060793D01*
X49089801Y-63060793D02*
X49080277Y-63098888D01*
X49080277Y-63098888D02*
X49070753Y-63117936D01*
X49070753Y-63117936D02*
X49061229Y-63127460D01*
X49061229Y-63127460D02*
X49042182Y-63136984D01*
X49042182Y-63136984D02*
X49023134Y-63136984D01*
X49023134Y-63136984D02*
X49004086Y-63127460D01*
X49004086Y-63127460D02*
X48994563Y-63117936D01*
X48994563Y-63117936D02*
X48985039Y-63098888D01*
X48985039Y-63098888D02*
X48975515Y-63060793D01*
X48975515Y-63060793D02*
X48975515Y-63013174D01*
X48975515Y-63013174D02*
X48985039Y-62975079D01*
X48985039Y-62975079D02*
X48994563Y-62956031D01*
X48994563Y-62956031D02*
X49004086Y-62946508D01*
X49004086Y-62946508D02*
X49023134Y-62936984D01*
X49175515Y-63117936D02*
X49185039Y-63127460D01*
X49185039Y-63127460D02*
X49175515Y-63136984D01*
X49175515Y-63136984D02*
X49165991Y-63127460D01*
X49165991Y-63127460D02*
X49175515Y-63117936D01*
X49175515Y-63117936D02*
X49175515Y-63136984D01*
X49308848Y-62936984D02*
X49327896Y-62936984D01*
X49327896Y-62936984D02*
X49346944Y-62946508D01*
X49346944Y-62946508D02*
X49356467Y-62956031D01*
X49356467Y-62956031D02*
X49365991Y-62975079D01*
X49365991Y-62975079D02*
X49375515Y-63013174D01*
X49375515Y-63013174D02*
X49375515Y-63060793D01*
X49375515Y-63060793D02*
X49365991Y-63098888D01*
X49365991Y-63098888D02*
X49356467Y-63117936D01*
X49356467Y-63117936D02*
X49346944Y-63127460D01*
X49346944Y-63127460D02*
X49327896Y-63136984D01*
X49327896Y-63136984D02*
X49308848Y-63136984D01*
X49308848Y-63136984D02*
X49289801Y-63127460D01*
X49289801Y-63127460D02*
X49280277Y-63117936D01*
X49280277Y-63117936D02*
X49270753Y-63098888D01*
X49270753Y-63098888D02*
X49261229Y-63060793D01*
X49261229Y-63060793D02*
X49261229Y-63013174D01*
X49261229Y-63013174D02*
X49270753Y-62975079D01*
X49270753Y-62975079D02*
X49280277Y-62956031D01*
X49280277Y-62956031D02*
X49289801Y-62946508D01*
X49289801Y-62946508D02*
X49308848Y-62936984D01*
X49442182Y-62936984D02*
X49565991Y-62936984D01*
X49565991Y-62936984D02*
X49499325Y-63013174D01*
X49499325Y-63013174D02*
X49527896Y-63013174D01*
X49527896Y-63013174D02*
X49546944Y-63022698D01*
X49546944Y-63022698D02*
X49556467Y-63032222D01*
X49556467Y-63032222D02*
X49565991Y-63051269D01*
X49565991Y-63051269D02*
X49565991Y-63098888D01*
X49565991Y-63098888D02*
X49556467Y-63117936D01*
X49556467Y-63117936D02*
X49546944Y-63127460D01*
X49546944Y-63127460D02*
X49527896Y-63136984D01*
X49527896Y-63136984D02*
X49470753Y-63136984D01*
X49470753Y-63136984D02*
X49451706Y-63127460D01*
X49451706Y-63127460D02*
X49442182Y-63117936D01*
X49661229Y-63136984D02*
X49699325Y-63136984D01*
X49699325Y-63136984D02*
X49718372Y-63127460D01*
X49718372Y-63127460D02*
X49727896Y-63117936D01*
X49727896Y-63117936D02*
X49746944Y-63089365D01*
X49746944Y-63089365D02*
X49756467Y-63051269D01*
X49756467Y-63051269D02*
X49756467Y-62975079D01*
X49756467Y-62975079D02*
X49746944Y-62956031D01*
X49746944Y-62956031D02*
X49737420Y-62946508D01*
X49737420Y-62946508D02*
X49718372Y-62936984D01*
X49718372Y-62936984D02*
X49680277Y-62936984D01*
X49680277Y-62936984D02*
X49661229Y-62946508D01*
X49661229Y-62946508D02*
X49651706Y-62956031D01*
X49651706Y-62956031D02*
X49642182Y-62975079D01*
X49642182Y-62975079D02*
X49642182Y-63022698D01*
X49642182Y-63022698D02*
X49651706Y-63041746D01*
X49651706Y-63041746D02*
X49661229Y-63051269D01*
X49661229Y-63051269D02*
X49680277Y-63060793D01*
X49680277Y-63060793D02*
X49718372Y-63060793D01*
X49718372Y-63060793D02*
X49737420Y-63051269D01*
X49737420Y-63051269D02*
X49746944Y-63041746D01*
X49746944Y-63041746D02*
X49756467Y-63022698D01*
X49927896Y-63003650D02*
X49927896Y-63136984D01*
X49880277Y-62927460D02*
X49832658Y-63070317D01*
X49832658Y-63070317D02*
X49956467Y-63070317D01*
X50023134Y-62936984D02*
X50023134Y-62975079D01*
X50099325Y-62936984D02*
X50099325Y-62975079D01*
X50394563Y-63213174D02*
X50385039Y-63203650D01*
X50385039Y-63203650D02*
X50365991Y-63175079D01*
X50365991Y-63175079D02*
X50356468Y-63156031D01*
X50356468Y-63156031D02*
X50346944Y-63127460D01*
X50346944Y-63127460D02*
X50337420Y-63079841D01*
X50337420Y-63079841D02*
X50337420Y-63041746D01*
X50337420Y-63041746D02*
X50346944Y-62994127D01*
X50346944Y-62994127D02*
X50356468Y-62965555D01*
X50356468Y-62965555D02*
X50365991Y-62946508D01*
X50365991Y-62946508D02*
X50385039Y-62917936D01*
X50385039Y-62917936D02*
X50394563Y-62908412D01*
X50461229Y-62956031D02*
X50470753Y-62946508D01*
X50470753Y-62946508D02*
X50489801Y-62936984D01*
X50489801Y-62936984D02*
X50537420Y-62936984D01*
X50537420Y-62936984D02*
X50556468Y-62946508D01*
X50556468Y-62946508D02*
X50565991Y-62956031D01*
X50565991Y-62956031D02*
X50575515Y-62975079D01*
X50575515Y-62975079D02*
X50575515Y-62994127D01*
X50575515Y-62994127D02*
X50565991Y-63022698D01*
X50565991Y-63022698D02*
X50451706Y-63136984D01*
X50451706Y-63136984D02*
X50575515Y-63136984D01*
X50813610Y-63136984D02*
X50813610Y-62936984D01*
X50899325Y-63136984D02*
X50899325Y-63032222D01*
X50899325Y-63032222D02*
X50889801Y-63013174D01*
X50889801Y-63013174D02*
X50870753Y-63003650D01*
X50870753Y-63003650D02*
X50842182Y-63003650D01*
X50842182Y-63003650D02*
X50823134Y-63013174D01*
X50823134Y-63013174D02*
X50813610Y-63022698D01*
X51023134Y-63136984D02*
X51004087Y-63127460D01*
X51004087Y-63127460D02*
X50994563Y-63117936D01*
X50994563Y-63117936D02*
X50985039Y-63098888D01*
X50985039Y-63098888D02*
X50985039Y-63041746D01*
X50985039Y-63041746D02*
X50994563Y-63022698D01*
X50994563Y-63022698D02*
X51004087Y-63013174D01*
X51004087Y-63013174D02*
X51023134Y-63003650D01*
X51023134Y-63003650D02*
X51051706Y-63003650D01*
X51051706Y-63003650D02*
X51070753Y-63013174D01*
X51070753Y-63013174D02*
X51080277Y-63022698D01*
X51080277Y-63022698D02*
X51089801Y-63041746D01*
X51089801Y-63041746D02*
X51089801Y-63098888D01*
X51089801Y-63098888D02*
X51080277Y-63117936D01*
X51080277Y-63117936D02*
X51070753Y-63127460D01*
X51070753Y-63127460D02*
X51051706Y-63136984D01*
X51051706Y-63136984D02*
X51023134Y-63136984D01*
X51204087Y-63136984D02*
X51185039Y-63127460D01*
X51185039Y-63127460D02*
X51175515Y-63108412D01*
X51175515Y-63108412D02*
X51175515Y-62936984D01*
X51356468Y-63127460D02*
X51337420Y-63136984D01*
X51337420Y-63136984D02*
X51299325Y-63136984D01*
X51299325Y-63136984D02*
X51280277Y-63127460D01*
X51280277Y-63127460D02*
X51270753Y-63108412D01*
X51270753Y-63108412D02*
X51270753Y-63032222D01*
X51270753Y-63032222D02*
X51280277Y-63013174D01*
X51280277Y-63013174D02*
X51299325Y-63003650D01*
X51299325Y-63003650D02*
X51337420Y-63003650D01*
X51337420Y-63003650D02*
X51356468Y-63013174D01*
X51356468Y-63013174D02*
X51365991Y-63032222D01*
X51365991Y-63032222D02*
X51365991Y-63051269D01*
X51365991Y-63051269D02*
X51270753Y-63070317D01*
X51442182Y-63127460D02*
X51461230Y-63136984D01*
X51461230Y-63136984D02*
X51499325Y-63136984D01*
X51499325Y-63136984D02*
X51518372Y-63127460D01*
X51518372Y-63127460D02*
X51527896Y-63108412D01*
X51527896Y-63108412D02*
X51527896Y-63098888D01*
X51527896Y-63098888D02*
X51518372Y-63079841D01*
X51518372Y-63079841D02*
X51499325Y-63070317D01*
X51499325Y-63070317D02*
X51470753Y-63070317D01*
X51470753Y-63070317D02*
X51451706Y-63060793D01*
X51451706Y-63060793D02*
X51442182Y-63041746D01*
X51442182Y-63041746D02*
X51442182Y-63032222D01*
X51442182Y-63032222D02*
X51451706Y-63013174D01*
X51451706Y-63013174D02*
X51470753Y-63003650D01*
X51470753Y-63003650D02*
X51499325Y-63003650D01*
X51499325Y-63003650D02*
X51518372Y-63013174D01*
X51594563Y-63213174D02*
X51604087Y-63203650D01*
X51604087Y-63203650D02*
X51623134Y-63175079D01*
X51623134Y-63175079D02*
X51632658Y-63156031D01*
X51632658Y-63156031D02*
X51642182Y-63127460D01*
X51642182Y-63127460D02*
X51651706Y-63079841D01*
X51651706Y-63079841D02*
X51651706Y-63041746D01*
X51651706Y-63041746D02*
X51642182Y-62994127D01*
X51642182Y-62994127D02*
X51632658Y-62965555D01*
X51632658Y-62965555D02*
X51623134Y-62946508D01*
X51623134Y-62946508D02*
X51604087Y-62917936D01*
X51604087Y-62917936D02*
X51594563Y-62908412D01*
X51956468Y-63213174D02*
X51946944Y-63203650D01*
X51946944Y-63203650D02*
X51927896Y-63175079D01*
X51927896Y-63175079D02*
X51918372Y-63156031D01*
X51918372Y-63156031D02*
X51908849Y-63127460D01*
X51908849Y-63127460D02*
X51899325Y-63079841D01*
X51899325Y-63079841D02*
X51899325Y-63041746D01*
X51899325Y-63041746D02*
X51908849Y-62994127D01*
X51908849Y-62994127D02*
X51918372Y-62965555D01*
X51918372Y-62965555D02*
X51927896Y-62946508D01*
X51927896Y-62946508D02*
X51946944Y-62917936D01*
X51946944Y-62917936D02*
X51956468Y-62908412D01*
X52032658Y-63003650D02*
X52032658Y-63136984D01*
X52032658Y-63022698D02*
X52042182Y-63013174D01*
X52042182Y-63013174D02*
X52061230Y-63003650D01*
X52061230Y-63003650D02*
X52089801Y-63003650D01*
X52089801Y-63003650D02*
X52108849Y-63013174D01*
X52108849Y-63013174D02*
X52118372Y-63032222D01*
X52118372Y-63032222D02*
X52118372Y-63136984D01*
X52242182Y-63136984D02*
X52223134Y-63127460D01*
X52223134Y-63127460D02*
X52213611Y-63117936D01*
X52213611Y-63117936D02*
X52204087Y-63098888D01*
X52204087Y-63098888D02*
X52204087Y-63041746D01*
X52204087Y-63041746D02*
X52213611Y-63022698D01*
X52213611Y-63022698D02*
X52223134Y-63013174D01*
X52223134Y-63013174D02*
X52242182Y-63003650D01*
X52242182Y-63003650D02*
X52270753Y-63003650D01*
X52270753Y-63003650D02*
X52289801Y-63013174D01*
X52289801Y-63013174D02*
X52299325Y-63022698D01*
X52299325Y-63022698D02*
X52308849Y-63041746D01*
X52308849Y-63041746D02*
X52308849Y-63098888D01*
X52308849Y-63098888D02*
X52299325Y-63117936D01*
X52299325Y-63117936D02*
X52289801Y-63127460D01*
X52289801Y-63127460D02*
X52270753Y-63136984D01*
X52270753Y-63136984D02*
X52242182Y-63136984D01*
X52365992Y-63003650D02*
X52442182Y-63003650D01*
X52394563Y-62936984D02*
X52394563Y-63108412D01*
X52394563Y-63108412D02*
X52404087Y-63127460D01*
X52404087Y-63127460D02*
X52423134Y-63136984D01*
X52423134Y-63136984D02*
X52442182Y-63136984D01*
X52661230Y-63003650D02*
X52661230Y-63203650D01*
X52661230Y-63013174D02*
X52680277Y-63003650D01*
X52680277Y-63003650D02*
X52718373Y-63003650D01*
X52718373Y-63003650D02*
X52737420Y-63013174D01*
X52737420Y-63013174D02*
X52746944Y-63022698D01*
X52746944Y-63022698D02*
X52756468Y-63041746D01*
X52756468Y-63041746D02*
X52756468Y-63098888D01*
X52756468Y-63098888D02*
X52746944Y-63117936D01*
X52746944Y-63117936D02*
X52737420Y-63127460D01*
X52737420Y-63127460D02*
X52718373Y-63136984D01*
X52718373Y-63136984D02*
X52680277Y-63136984D01*
X52680277Y-63136984D02*
X52661230Y-63127460D01*
X52870753Y-63136984D02*
X52851706Y-63127460D01*
X52851706Y-63127460D02*
X52842182Y-63108412D01*
X52842182Y-63108412D02*
X52842182Y-62936984D01*
X53032658Y-63136984D02*
X53032658Y-63032222D01*
X53032658Y-63032222D02*
X53023134Y-63013174D01*
X53023134Y-63013174D02*
X53004087Y-63003650D01*
X53004087Y-63003650D02*
X52965992Y-63003650D01*
X52965992Y-63003650D02*
X52946944Y-63013174D01*
X53032658Y-63127460D02*
X53013611Y-63136984D01*
X53013611Y-63136984D02*
X52965992Y-63136984D01*
X52965992Y-63136984D02*
X52946944Y-63127460D01*
X52946944Y-63127460D02*
X52937420Y-63108412D01*
X52937420Y-63108412D02*
X52937420Y-63089365D01*
X52937420Y-63089365D02*
X52946944Y-63070317D01*
X52946944Y-63070317D02*
X52965992Y-63060793D01*
X52965992Y-63060793D02*
X53013611Y-63060793D01*
X53013611Y-63060793D02*
X53032658Y-63051269D01*
X53099325Y-63003650D02*
X53175515Y-63003650D01*
X53127896Y-62936984D02*
X53127896Y-63108412D01*
X53127896Y-63108412D02*
X53137420Y-63127460D01*
X53137420Y-63127460D02*
X53156468Y-63136984D01*
X53156468Y-63136984D02*
X53175515Y-63136984D01*
X53318373Y-63127460D02*
X53299325Y-63136984D01*
X53299325Y-63136984D02*
X53261230Y-63136984D01*
X53261230Y-63136984D02*
X53242182Y-63127460D01*
X53242182Y-63127460D02*
X53232658Y-63108412D01*
X53232658Y-63108412D02*
X53232658Y-63032222D01*
X53232658Y-63032222D02*
X53242182Y-63013174D01*
X53242182Y-63013174D02*
X53261230Y-63003650D01*
X53261230Y-63003650D02*
X53299325Y-63003650D01*
X53299325Y-63003650D02*
X53318373Y-63013174D01*
X53318373Y-63013174D02*
X53327896Y-63032222D01*
X53327896Y-63032222D02*
X53327896Y-63051269D01*
X53327896Y-63051269D02*
X53232658Y-63070317D01*
X53499325Y-63136984D02*
X53499325Y-62936984D01*
X53499325Y-63127460D02*
X53480277Y-63136984D01*
X53480277Y-63136984D02*
X53442182Y-63136984D01*
X53442182Y-63136984D02*
X53423134Y-63127460D01*
X53423134Y-63127460D02*
X53413611Y-63117936D01*
X53413611Y-63117936D02*
X53404087Y-63098888D01*
X53404087Y-63098888D02*
X53404087Y-63041746D01*
X53404087Y-63041746D02*
X53413611Y-63022698D01*
X53413611Y-63022698D02*
X53423134Y-63013174D01*
X53423134Y-63013174D02*
X53442182Y-63003650D01*
X53442182Y-63003650D02*
X53480277Y-63003650D01*
X53480277Y-63003650D02*
X53499325Y-63013174D01*
X53575515Y-63213174D02*
X53585039Y-63203650D01*
X53585039Y-63203650D02*
X53604087Y-63175079D01*
X53604087Y-63175079D02*
X53613611Y-63156031D01*
X53613611Y-63156031D02*
X53623134Y-63127460D01*
X53623134Y-63127460D02*
X53632658Y-63079841D01*
X53632658Y-63079841D02*
X53632658Y-63041746D01*
X53632658Y-63041746D02*
X53623134Y-62994127D01*
X53623134Y-62994127D02*
X53613611Y-62965555D01*
X53613611Y-62965555D02*
X53604087Y-62946508D01*
X53604087Y-62946508D02*
X53585039Y-62917936D01*
X53585039Y-62917936D02*
X53575515Y-62908412D01*
M02*
