M48
; DRILL file {KiCad 9.0.4} date 2025-11-15T22:12:19-0500
; FORMAT={-:-/ absolute / metric / decimal}
; #@! TF.CreationDate,2025-11-15T22:12:19-05:00
; #@! TF.GenerationSoftware,Kicad,Pcbnew,9.0.4
; #@! TF.FileFunction,Plated,1,2,PTH
FMAT,2
METRIC
; #@! TA.AperFunction,Plated,PTH,ViaDrill
T1C0.400
%
G90
G05
T1
X469.6Y-619.8
X469.75Y-292.0
X470.5Y-299.75
X470.83Y-307.75
X470.83Y-315.75
X471.0Y-313.2
X471.2Y-297.0
X471.25Y-321.4
X471.25Y-324.25
X471.25Y-361.75
X471.25Y-369.5
X471.25Y-377.5
X471.25Y-380.0
X471.25Y-385.5
X471.25Y-409.25
X471.25Y-425.75
X471.25Y-433.75
X471.25Y-457.75
X471.25Y-481.5
X471.25Y-489.5
X471.25Y-513.5
X471.25Y-521.75
X471.25Y-537.5
X471.25Y-545.5
X471.25Y-561.5
X471.38Y-539.48
X471.39Y-531.58
X471.4Y-241.6
X471.4Y-257.6
X471.4Y-265.2
X471.4Y-273.8
X471.4Y-281.6
X471.4Y-289.6
X471.4Y-305.2
X471.4Y-337.4
X471.5Y-332.0
X471.5Y-339.75
X471.5Y-348.25
X471.5Y-353.25
X471.5Y-356.0
X471.5Y-364.0
X471.5Y-394.0
X471.5Y-401.75
X471.5Y-417.75
X471.5Y-441.75
X471.5Y-449.5
X471.5Y-465.75
X471.5Y-473.75
X471.5Y-497.75
X471.5Y-505.5
X471.5Y-529.5
X471.5Y-553.75
X471.5Y-569.5
X471.5Y-577.5
X471.5Y-585.75
X471.5Y-593.5
X471.5Y-601.5
X471.5Y-609.75
X471.6Y-249.8
X471.6Y-329.2
X471.6Y-345.6
X471.67Y-499.54
X471.75Y-371.75
X472.0Y-523.52
X472.0Y-604.0
X472.08Y-459.71
X472.14Y-595.5
X472.17Y-467.98
X472.71Y-403.98
X474.07Y-553.6
X474.07Y-569.85
X474.26Y-585.904
X474.262Y-441.715
X474.319Y-609.846
X474.32Y-241.6
X474.32Y-249.85
X474.32Y-257.6
X474.32Y-265.6
X474.32Y-273.85
X474.32Y-281.6
X474.32Y-385.85
X474.32Y-393.6
X474.32Y-409.85
X474.32Y-417.85
X474.32Y-425.85
X474.32Y-433.6
X474.32Y-449.85
X474.32Y-473.85
X474.32Y-481.85
X474.32Y-489.85
X474.32Y-505.85
X474.32Y-513.85
X474.32Y-545.6
X474.32Y-561.85
X474.32Y-577.6
X474.32Y-617.85
X477.83Y-523.67
X477.91Y-595.79
X477.94Y-395.03
X478.09Y-467.85
X478.2Y-605.4
X478.27Y-531.28
X478.48Y-387.84
X478.76Y-539.66
X478.93Y-499.3
X480.57Y-553.6
X480.57Y-569.85
X480.76Y-585.904
X480.762Y-441.715
X480.819Y-609.846
X480.82Y-241.6
X480.82Y-249.85
X480.82Y-257.6
X480.82Y-401.6
X480.82Y-409.85
X480.82Y-417.85
X480.82Y-425.85
X480.82Y-433.6
X480.82Y-449.85
X480.82Y-457.85
X480.82Y-473.85
X480.82Y-481.85
X480.82Y-489.85
X480.82Y-505.85
X480.82Y-513.85
X480.82Y-545.6
X480.82Y-561.85
X480.82Y-577.6
X480.82Y-617.85
X481.0Y-273.25
X481.1Y-265.43
X483.2Y-419.68
X483.35Y-427.62
X483.59Y-443.21
X483.66Y-435.38
X484.31Y-499.38
X484.6Y-605.4
X484.9Y-531.23
X484.95Y-523.59
X485.18Y-451.49
X487.07Y-553.6
X487.07Y-569.85
X487.26Y-585.904
X487.319Y-609.846
X487.32Y-241.6
X487.32Y-249.85
X487.32Y-257.6
X487.32Y-465.85
X487.32Y-473.85
X487.32Y-481.85
X487.32Y-489.85
X487.32Y-505.85
X487.32Y-513.85
X487.32Y-537.6
X487.32Y-545.6
X487.32Y-561.85
X487.32Y-577.6
X487.32Y-593.6
X487.32Y-617.85
X487.58Y-265.51
X487.75Y-273.25
X489.94Y-547.31
X490.8Y-595.0
X491.29Y-572.93
X491.64Y-532.18
X491.69Y-540.36
X493.57Y-553.6
X493.76Y-585.904
X493.819Y-609.846
X493.82Y-241.6
X493.82Y-249.85
X493.82Y-257.6
X493.82Y-265.6
X493.82Y-561.85
X493.82Y-577.6
X493.82Y-601.6
X493.82Y-617.85
X494.0Y-273.25
X497.5Y-249.5
X500.26Y-585.904
X500.319Y-609.846
X500.32Y-241.6
X500.32Y-257.6
X500.32Y-265.6
X500.32Y-593.6
X500.32Y-601.6
X500.32Y-617.85
X500.75Y-273.25
X506.57Y-553.6
X506.57Y-569.85
X506.75Y-273.25
X506.76Y-585.904
X506.762Y-441.715
X506.819Y-609.846
X506.82Y-241.6
X506.82Y-249.85
X506.82Y-257.6
X506.82Y-265.6
X506.82Y-329.85
X506.82Y-337.6
X506.82Y-345.85
X506.82Y-353.6
X506.82Y-361.6
X506.82Y-369.6
X506.82Y-377.6
X506.82Y-385.85
X506.82Y-393.6
X506.82Y-401.6
X506.82Y-409.85
X506.82Y-417.85
X506.82Y-425.85
X506.82Y-433.6
X506.82Y-449.85
X506.82Y-457.85
X506.82Y-465.85
X506.82Y-473.85
X506.82Y-481.85
X506.82Y-489.85
X506.82Y-497.85
X506.82Y-505.85
X506.82Y-513.85
X506.82Y-521.85
X506.82Y-529.6
X506.82Y-537.6
X506.82Y-545.6
X506.82Y-561.85
X506.82Y-577.6
X506.82Y-593.6
X506.82Y-601.6
X506.82Y-617.85
X509.9Y-325.3
X513.07Y-553.6
X513.07Y-569.85
X513.26Y-585.904
X513.262Y-441.715
X513.319Y-609.846
X513.32Y-241.6
X513.32Y-249.85
X513.32Y-257.6
X513.32Y-329.85
X513.32Y-337.6
X513.32Y-345.85
X513.32Y-353.6
X513.32Y-361.6
X513.32Y-369.6
X513.32Y-377.6
X513.32Y-385.85
X513.32Y-393.6
X513.32Y-401.6
X513.32Y-409.85
X513.32Y-417.85
X513.32Y-425.85
X513.32Y-433.6
X513.32Y-449.85
X513.32Y-457.85
X513.32Y-465.85
X513.32Y-473.85
X513.32Y-481.85
X513.32Y-489.85
X513.32Y-497.85
X513.32Y-505.85
X513.32Y-513.85
X513.32Y-521.85
X513.32Y-529.6
X513.32Y-537.6
X513.32Y-545.6
X513.32Y-561.85
X513.32Y-577.6
X513.32Y-593.6
X513.32Y-601.6
X513.32Y-617.85
X513.75Y-265.25
X513.75Y-273.25
X519.57Y-553.6
X519.57Y-569.85
X519.76Y-585.904
X519.762Y-441.715
X519.819Y-609.846
X519.82Y-241.6
X519.82Y-249.85
X519.82Y-257.6
X519.82Y-329.85
X519.82Y-337.6
X519.82Y-345.85
X519.82Y-353.6
X519.82Y-361.6
X519.82Y-369.6
X519.82Y-377.6
X519.82Y-385.85
X519.82Y-393.6
X519.82Y-401.6
X519.82Y-409.85
X519.82Y-417.85
X519.82Y-425.85
X519.82Y-433.6
X519.82Y-449.85
X519.82Y-457.85
X519.82Y-465.85
X519.82Y-473.85
X519.82Y-481.85
X519.82Y-489.85
X519.82Y-497.85
X519.82Y-505.85
X519.82Y-513.85
X519.82Y-521.85
X519.82Y-529.6
X519.82Y-537.6
X519.82Y-545.6
X519.82Y-561.85
X519.82Y-577.6
X519.82Y-593.6
X519.82Y-601.6
X519.82Y-617.85
X521.75Y-620.25
X522.15Y-244.68
X522.15Y-252.68
X522.15Y-260.68
X522.15Y-268.68
X522.15Y-276.68
X522.15Y-284.68
X522.15Y-292.68
X522.15Y-300.68
X522.15Y-308.68
X522.15Y-316.68
X522.15Y-324.68
X522.15Y-332.68
X522.15Y-340.68
X522.15Y-348.68
X522.15Y-356.68
X522.15Y-364.68
X522.15Y-372.68
X522.15Y-380.68
X522.15Y-388.68
X522.15Y-396.68
X522.15Y-404.68
X522.15Y-412.68
X522.15Y-420.68
X522.15Y-428.68
X522.15Y-436.68
X522.15Y-444.68
X522.15Y-452.68
X522.15Y-460.68
X522.15Y-468.68
X522.15Y-476.68
X522.15Y-484.68
X522.15Y-492.68
X522.15Y-500.68
X522.15Y-508.68
X522.15Y-516.68
X522.15Y-524.68
X522.15Y-532.68
X522.15Y-540.68
X522.15Y-548.68
X522.15Y-556.68
X522.15Y-564.68
X522.15Y-572.68
X522.15Y-580.68
X522.15Y-588.68
X522.15Y-596.68
X522.15Y-604.68
X522.15Y-612.68
X526.07Y-553.6
X526.07Y-569.85
X526.26Y-585.904
X526.262Y-441.715
X526.319Y-609.846
X526.32Y-241.6
X526.32Y-249.85
X526.32Y-257.6
X526.32Y-265.6
X526.32Y-273.85
X526.32Y-281.6
X526.32Y-289.85
X526.32Y-297.6
X526.32Y-305.85
X526.32Y-313.85
X526.32Y-321.85
X526.32Y-329.85
X526.32Y-337.6
X526.32Y-345.85
X526.32Y-353.6
X526.32Y-361.6
X526.32Y-369.6
X526.32Y-377.6
X526.32Y-385.85
X526.32Y-393.6
X526.32Y-401.6
X526.32Y-409.85
X526.32Y-417.85
X526.32Y-425.85
X526.32Y-433.6
X526.32Y-449.85
X526.32Y-457.85
X526.32Y-465.85
X526.32Y-473.85
X526.32Y-481.85
X526.32Y-489.85
X526.32Y-497.85
X526.32Y-505.85
X526.32Y-513.85
X526.32Y-521.85
X526.32Y-529.6
X526.32Y-537.6
X526.32Y-545.6
X526.32Y-561.85
X526.32Y-577.6
X526.32Y-593.6
X526.32Y-601.6
X526.32Y-617.85
X528.0Y-620.25
X528.65Y-244.68
X528.65Y-252.68
X528.65Y-260.68
X528.65Y-276.68
X528.65Y-284.68
X528.65Y-292.68
X528.65Y-300.68
X528.65Y-308.68
X528.65Y-316.68
X528.65Y-332.68
X528.65Y-340.68
X528.65Y-348.68
X528.65Y-356.68
X528.65Y-364.68
X528.65Y-372.68
X528.65Y-396.68
X528.65Y-404.68
X528.65Y-412.68
X528.65Y-420.68
X528.65Y-428.68
X528.65Y-436.68
X528.65Y-460.68
X528.65Y-468.68
X528.65Y-476.68
X528.65Y-484.68
X528.65Y-492.68
X528.65Y-516.68
X528.65Y-524.68
X528.65Y-532.68
X528.65Y-540.68
X528.65Y-548.68
X528.65Y-556.68
X528.65Y-580.68
X528.65Y-588.68
X528.65Y-596.68
X528.65Y-604.68
X528.65Y-612.68
X529.6Y-507.9
X529.61Y-377.69
X529.66Y-385.95
X529.75Y-329.25
X530.0Y-249.5
X530.1Y-499.3
X530.2Y-452.0
X530.25Y-265.5
X530.25Y-321.75
X530.5Y-442.9
X532.57Y-553.6
X532.57Y-569.85
X532.76Y-585.904
X532.819Y-609.846
X532.82Y-241.6
X532.82Y-257.6
X532.82Y-274.75
X532.82Y-281.6
X532.82Y-289.85
X532.82Y-297.6
X532.82Y-305.85
X532.82Y-313.85
X532.82Y-337.6
X532.82Y-345.85
X532.82Y-353.6
X532.82Y-361.6
X532.82Y-369.6
X532.82Y-393.6
X532.82Y-401.6
X532.82Y-409.85
X532.82Y-417.85
X532.82Y-425.85
X532.82Y-433.6
X532.82Y-457.85
X532.82Y-465.85
X532.82Y-473.85
X532.82Y-481.85
X532.82Y-489.85
X532.82Y-513.85
X532.82Y-521.85
X532.82Y-529.6
X532.82Y-537.6
X532.82Y-545.6
X532.82Y-561.85
X532.82Y-577.6
X532.82Y-593.6
X532.82Y-601.6
X532.82Y-617.85
X534.75Y-316.46
X535.25Y-248.0
X535.4Y-252.4
X535.61Y-492.38
X535.86Y-372.45
X535.99Y-436.53
X536.25Y-258.75
X536.28Y-562.65
X536.5Y-241.25
X539.07Y-553.6
X539.07Y-569.85
X539.26Y-585.904
X539.262Y-441.715
X539.319Y-609.846
X539.32Y-249.85
X539.32Y-265.6
X539.32Y-273.85
X539.32Y-281.6
X539.32Y-289.85
X539.32Y-297.6
X539.32Y-305.85
X539.32Y-313.85
X539.32Y-321.85
X539.32Y-329.85
X539.32Y-337.6
X539.32Y-345.85
X539.32Y-353.6
X539.32Y-361.6
X539.32Y-369.6
X539.32Y-377.6
X539.32Y-385.85
X539.32Y-393.6
X539.32Y-401.6
X539.32Y-409.85
X539.32Y-417.85
X539.32Y-425.85
X539.32Y-433.6
X539.32Y-449.85
X539.32Y-457.85
X539.32Y-465.85
X539.32Y-473.85
X539.32Y-481.85
X539.32Y-489.85
X539.32Y-497.85
X539.32Y-505.85
X539.32Y-513.85
X539.32Y-521.85
X539.32Y-529.6
X539.32Y-537.6
X539.32Y-545.6
X539.32Y-561.85
X539.32Y-577.6
X539.32Y-593.6
X539.32Y-601.6
X539.32Y-617.85
X541.0Y-347.5
X541.25Y-275.75
X541.25Y-284.0
X541.25Y-299.5
X541.25Y-307.5
X541.25Y-332.25
X541.25Y-340.0
X541.25Y-355.5
X541.25Y-363.5
X541.25Y-371.5
X541.5Y-291.75
X541.5Y-316.25
X541.5Y-323.75
X543.0Y-621.2
X545.57Y-553.6
X545.57Y-569.85
X545.76Y-585.904
X545.762Y-441.715
X545.819Y-609.846
X545.82Y-241.6
X545.82Y-249.85
X545.82Y-257.6
X545.82Y-377.6
X545.82Y-385.85
X545.82Y-393.6
X545.82Y-401.6
X545.82Y-409.85
X545.82Y-417.85
X545.82Y-425.85
X545.82Y-433.6
X545.82Y-449.85
X545.82Y-457.85
X545.82Y-465.85
X545.82Y-473.85
X545.82Y-481.85
X545.82Y-489.85
X545.82Y-497.85
X545.82Y-505.85
X545.82Y-513.85
X545.82Y-521.85
X545.82Y-529.6
X545.82Y-537.6
X545.82Y-545.6
X545.82Y-561.85
X545.82Y-577.6
X545.82Y-593.6
X545.82Y-601.6
X549.25Y-271.975
X549.25Y-280.0
X549.25Y-288.0
X549.25Y-304.0
X549.25Y-312.0
X549.25Y-320.0
X549.25Y-328.0
X549.25Y-344.0
X549.25Y-352.0
X549.25Y-360.0
X549.25Y-368.0
X549.25Y-384.0
X549.25Y-392.0
X549.25Y-400.0
X549.25Y-408.0
X549.25Y-424.0
X549.25Y-432.0
X549.25Y-440.0
X549.25Y-448.0
X549.25Y-464.0
X549.25Y-472.0
X549.25Y-480.0
X549.25Y-488.0
X549.25Y-504.0
X549.25Y-512.0
X549.25Y-520.0
X549.25Y-528.0
X549.25Y-544.0
X549.25Y-552.0
X549.26Y-262.5
X549.28Y-296.0
X549.28Y-336.0
X549.28Y-376.0
X549.28Y-416.0
X549.28Y-456.0
X549.28Y-496.0
X549.28Y-536.0
X549.28Y-560.0
X549.28Y-568.0
X549.28Y-584.0
X549.28Y-592.0
X549.31Y-576.0
X549.4Y-258.4
X549.5Y-600.0
X549.5Y-608.0
X549.53Y-616.0
X552.07Y-553.6
X552.07Y-569.85
X552.26Y-585.904
X552.262Y-441.715
X552.319Y-609.846
X552.32Y-241.6
X552.32Y-249.85
X552.32Y-265.6
X552.32Y-273.85
X552.32Y-281.6
X552.32Y-289.85
X552.32Y-297.6
X552.32Y-305.85
X552.32Y-313.85
X552.32Y-321.85
X552.32Y-329.85
X552.32Y-337.6
X552.32Y-345.85
X552.32Y-353.6
X552.32Y-361.6
X552.32Y-369.6
X552.32Y-377.6
X552.32Y-385.85
X552.32Y-393.6
X552.32Y-401.6
X552.32Y-409.85
X552.32Y-417.85
X552.32Y-425.85
X552.32Y-433.6
X552.32Y-449.85
X552.32Y-457.85
X552.32Y-465.85
X552.32Y-473.85
X552.32Y-481.85
X552.32Y-489.85
X552.32Y-497.85
X552.32Y-505.85
X552.32Y-513.85
X552.32Y-521.85
X552.32Y-529.6
X552.32Y-537.6
X552.32Y-545.6
X552.32Y-561.85
X552.32Y-577.6
X552.32Y-593.6
X552.32Y-601.6
X552.32Y-617.85
X554.25Y-620.0
X554.65Y-244.68
X554.65Y-252.68
X554.65Y-268.68
X554.65Y-276.68
X554.65Y-284.68
X554.65Y-292.68
X554.65Y-300.68
X554.65Y-308.68
X554.65Y-316.68
X554.65Y-324.68
X554.65Y-332.68
X554.65Y-340.68
X554.65Y-348.68
X554.65Y-356.68
X554.65Y-364.68
X554.65Y-372.68
X554.65Y-380.68
X554.65Y-388.68
X554.65Y-396.68
X554.65Y-404.68
X554.65Y-412.68
X554.65Y-420.68
X554.65Y-428.68
X554.65Y-436.68
X554.65Y-444.68
X554.65Y-452.68
X554.65Y-460.68
X554.65Y-468.68
X554.65Y-476.68
X554.65Y-484.68
X554.65Y-492.68
X554.65Y-500.68
X554.65Y-508.68
X554.65Y-516.68
X554.65Y-524.68
X554.65Y-532.68
X554.65Y-540.68
X554.65Y-548.68
X554.65Y-556.68
X554.65Y-564.68
X554.65Y-572.68
X554.65Y-580.68
X554.65Y-588.68
X554.65Y-596.68
X554.65Y-604.68
X554.65Y-612.68
X556.2Y-257.8
X558.57Y-553.6
X558.57Y-569.85
X558.76Y-585.904
X558.762Y-441.715
X558.819Y-609.846
X558.82Y-241.6
X558.82Y-249.85
X558.82Y-265.6
X558.82Y-273.85
X558.82Y-281.6
X558.82Y-289.85
X558.82Y-297.6
X558.82Y-305.85
X558.82Y-313.85
X558.82Y-321.85
X558.82Y-329.85
X558.82Y-337.6
X558.82Y-345.85
X558.82Y-353.6
X558.82Y-361.6
X558.82Y-369.6
X558.82Y-377.6
X558.82Y-385.85
X558.82Y-393.6
X558.82Y-401.6
X558.82Y-409.85
X558.82Y-417.85
X558.82Y-425.85
X558.82Y-433.6
X558.82Y-449.85
X558.82Y-457.85
X558.82Y-465.85
X558.82Y-473.85
X558.82Y-481.85
X558.82Y-489.85
X558.82Y-497.85
X558.82Y-505.85
X558.82Y-513.85
X558.82Y-521.85
X558.82Y-529.6
X558.82Y-537.6
X558.82Y-545.6
X558.82Y-561.85
X558.82Y-577.6
X558.82Y-593.6
X558.82Y-601.6
X558.82Y-617.85
X560.75Y-620.25
X561.15Y-244.68
X561.15Y-252.68
X561.15Y-268.68
X561.15Y-276.68
X561.15Y-284.68
X561.15Y-292.68
X561.15Y-300.68
X561.15Y-308.68
X561.15Y-316.68
X561.15Y-324.68
X561.15Y-332.68
X561.15Y-340.68
X561.15Y-348.68
X561.15Y-356.68
X561.15Y-364.68
X561.15Y-372.68
X561.15Y-380.68
X561.15Y-388.68
X561.15Y-396.68
X561.15Y-404.68
X561.15Y-412.68
X561.15Y-420.68
X561.15Y-428.68
X561.15Y-436.68
X561.15Y-444.68
X561.15Y-452.68
X561.15Y-460.68
X561.15Y-468.68
X561.15Y-476.68
X561.15Y-484.68
X561.15Y-492.68
X561.15Y-500.68
X561.15Y-508.68
X561.15Y-516.68
X561.15Y-524.68
X561.15Y-532.68
X561.15Y-540.68
X561.15Y-548.68
X561.15Y-556.68
X561.15Y-564.68
X561.15Y-572.68
X561.15Y-580.68
X561.15Y-588.68
X561.15Y-596.68
X561.15Y-604.68
X561.15Y-612.68
X565.07Y-553.6
X565.07Y-569.85
X565.26Y-585.904
X565.262Y-441.715
X565.319Y-609.846
X565.32Y-241.6
X565.32Y-249.85
X565.32Y-257.6
X565.32Y-265.6
X565.32Y-273.85
X565.32Y-281.6
X565.32Y-289.85
X565.32Y-297.6
X565.32Y-305.85
X565.32Y-313.85
X565.32Y-321.85
X565.32Y-329.85
X565.32Y-337.6
X565.32Y-345.85
X565.32Y-353.6
X565.32Y-361.6
X565.32Y-369.6
X565.32Y-377.6
X565.32Y-385.85
X565.32Y-393.6
X565.32Y-401.6
X565.32Y-409.85
X565.32Y-417.85
X565.32Y-425.85
X565.32Y-433.6
X565.32Y-449.85
X565.32Y-457.85
X565.32Y-465.85
X565.32Y-473.85
X565.32Y-481.85
X565.32Y-489.85
X565.32Y-497.85
X565.32Y-505.85
X565.32Y-513.85
X565.32Y-521.85
X565.32Y-529.6
X565.32Y-537.6
X565.32Y-545.6
X565.32Y-561.85
X565.32Y-577.6
X565.32Y-593.6
X565.32Y-601.6
X565.32Y-617.85
X567.25Y-620.0
X567.65Y-244.68
X567.65Y-252.68
X567.65Y-268.68
X567.65Y-276.68
X567.65Y-284.68
X567.65Y-292.68
X567.65Y-300.68
X567.65Y-308.68
X567.65Y-316.68
X567.65Y-324.68
X567.65Y-332.68
X567.65Y-340.68
X567.65Y-348.68
X567.65Y-356.68
X567.65Y-364.68
X567.65Y-372.68
X567.65Y-380.68
X567.65Y-388.68
X567.65Y-396.68
X567.65Y-404.68
X567.65Y-412.68
X567.65Y-420.68
X567.65Y-428.68
X567.65Y-436.68
X567.65Y-444.68
X567.65Y-452.68
X567.65Y-460.68
X567.65Y-468.68
X567.65Y-476.68
X567.65Y-484.68
X567.65Y-492.68
X567.65Y-500.68
X567.65Y-508.68
X567.65Y-516.68
X567.65Y-524.68
X567.65Y-532.68
X567.65Y-540.68
X567.65Y-548.68
X567.65Y-556.68
X567.65Y-564.68
X567.65Y-572.68
X567.65Y-580.68
X567.65Y-588.68
X567.65Y-596.68
X567.65Y-604.68
X567.65Y-612.68
X571.57Y-553.6
X571.57Y-569.85
X571.76Y-585.904
X571.762Y-441.715
X571.819Y-609.846
X571.82Y-241.6
X571.82Y-249.85
X571.82Y-257.6
X571.82Y-265.6
X571.82Y-273.85
X571.82Y-281.6
X571.82Y-289.85
X571.82Y-297.6
X571.82Y-305.85
X571.82Y-313.85
X571.82Y-321.85
X571.82Y-329.85
X571.82Y-337.6
X571.82Y-345.85
X571.82Y-353.6
X571.82Y-361.6
X571.82Y-369.6
X571.82Y-377.6
X571.82Y-385.85
X571.82Y-393.6
X571.82Y-401.6
X571.82Y-409.85
X571.82Y-417.85
X571.82Y-425.85
X571.82Y-433.6
X571.82Y-449.85
X571.82Y-457.85
X571.82Y-465.85
X571.82Y-473.85
X571.82Y-481.85
X571.82Y-489.85
X571.82Y-497.85
X571.82Y-505.85
X571.82Y-513.85
X571.82Y-521.85
X571.82Y-529.6
X571.82Y-537.6
X571.82Y-545.6
X571.82Y-561.85
X571.82Y-577.6
X571.82Y-593.6
X571.82Y-601.6
X571.82Y-617.85
X573.5Y-620.25
X574.15Y-244.68
X574.15Y-252.68
X574.15Y-268.68
X574.15Y-276.68
X574.15Y-284.68
X574.15Y-292.68
X574.15Y-300.68
X574.15Y-308.68
X574.15Y-316.68
X574.15Y-324.68
X574.15Y-332.68
X574.15Y-340.68
X574.15Y-348.68
X574.15Y-356.68
X574.15Y-364.68
X574.15Y-372.68
X574.15Y-380.68
X574.15Y-388.68
X574.15Y-396.68
X574.15Y-404.68
X574.15Y-412.68
X574.15Y-420.68
X574.15Y-428.68
X574.15Y-436.68
X574.15Y-444.68
X574.15Y-452.68
X574.15Y-460.68
X574.15Y-468.68
X574.15Y-476.68
X574.15Y-484.68
X574.15Y-492.68
X574.15Y-500.68
X574.15Y-508.68
X574.15Y-516.68
X574.15Y-524.68
X574.15Y-532.68
X574.15Y-540.68
X574.15Y-548.68
X574.15Y-556.68
X574.15Y-564.68
X574.15Y-572.68
X574.15Y-580.68
X574.15Y-588.68
X574.15Y-596.68
X574.15Y-604.68
X574.15Y-612.68
X578.07Y-553.6
X578.07Y-569.85
X578.26Y-585.904
X578.262Y-441.715
X578.319Y-609.846
X578.32Y-241.6
X578.32Y-249.85
X578.32Y-257.6
X578.32Y-265.6
X578.32Y-273.85
X578.32Y-281.6
X578.32Y-289.85
X578.32Y-297.6
X578.32Y-305.85
X578.32Y-313.85
X578.32Y-321.85
X578.32Y-329.85
X578.32Y-337.6
X578.32Y-345.85
X578.32Y-353.6
X578.32Y-361.6
X578.32Y-369.6
X578.32Y-377.6
X578.32Y-385.85
X578.32Y-393.6
X578.32Y-401.6
X578.32Y-409.85
X578.32Y-417.85
X578.32Y-425.85
X578.32Y-433.6
X578.32Y-449.85
X578.32Y-457.85
X578.32Y-465.85
X578.32Y-473.85
X578.32Y-481.85
X578.32Y-489.85
X578.32Y-497.85
X578.32Y-505.85
X578.32Y-513.85
X578.32Y-521.85
X578.32Y-529.6
X578.32Y-537.6
X578.32Y-545.6
X578.32Y-561.85
X578.32Y-577.6
X578.32Y-593.6
X578.32Y-601.6
X578.32Y-617.85
X580.0Y-620.25
X580.65Y-244.68
X580.65Y-252.68
X580.65Y-268.68
X580.65Y-276.68
X580.65Y-284.68
X580.65Y-292.68
X580.65Y-300.68
X580.65Y-308.68
X580.65Y-316.68
X580.65Y-324.68
X580.65Y-332.68
X580.65Y-340.68
X580.65Y-348.68
X580.65Y-356.68
X580.65Y-364.68
X580.65Y-372.68
X580.65Y-380.68
X580.65Y-388.68
X580.65Y-396.68
X580.65Y-404.68
X580.65Y-412.68
X580.65Y-420.68
X580.65Y-428.68
X580.65Y-436.68
X580.65Y-444.68
X580.65Y-452.68
X580.65Y-460.68
X580.65Y-468.68
X580.65Y-476.68
X580.65Y-484.68
X580.65Y-492.68
X580.65Y-500.68
X580.65Y-508.68
X580.65Y-516.68
X580.65Y-524.68
X580.65Y-532.68
X580.65Y-540.68
X580.65Y-548.68
X580.65Y-556.68
X580.65Y-564.68
X580.65Y-572.68
X580.65Y-580.68
X580.65Y-588.68
X580.65Y-596.68
X580.65Y-604.68
X580.65Y-612.68
X584.57Y-553.6
X584.57Y-569.85
X584.76Y-585.904
X584.762Y-441.715
X584.819Y-609.846
X584.82Y-241.6
X584.82Y-249.85
X584.82Y-257.6
X584.82Y-265.6
X584.82Y-273.85
X584.82Y-281.6
X584.82Y-289.85
X584.82Y-297.6
X584.82Y-305.85
X584.82Y-313.85
X584.82Y-321.85
X584.82Y-329.85
X584.82Y-337.6
X584.82Y-345.85
X584.82Y-353.6
X584.82Y-361.6
X584.82Y-369.6
X584.82Y-377.6
X584.82Y-385.85
X584.82Y-393.6
X584.82Y-401.6
X584.82Y-409.85
X584.82Y-417.85
X584.82Y-425.85
X584.82Y-433.6
X584.82Y-449.85
X584.82Y-457.85
X584.82Y-465.85
X584.82Y-473.85
X584.82Y-481.85
X584.82Y-489.85
X584.82Y-497.85
X584.82Y-505.85
X584.82Y-513.85
X584.82Y-521.85
X584.82Y-529.6
X584.82Y-537.6
X584.82Y-545.6
X584.82Y-561.85
X584.82Y-577.6
X584.82Y-593.6
X584.82Y-601.6
X584.82Y-617.85
X586.75Y-620.25
X587.15Y-244.68
X587.15Y-252.68
X587.15Y-268.68
X587.15Y-276.68
X587.15Y-284.68
X587.15Y-292.68
X587.15Y-300.68
X587.15Y-308.68
X587.15Y-316.68
X587.15Y-324.68
X587.15Y-332.68
X587.15Y-340.68
X587.15Y-348.68
X587.15Y-356.68
X587.15Y-364.68
X587.15Y-372.68
X587.15Y-380.68
X587.15Y-388.68
X587.15Y-396.68
X587.15Y-404.68
X587.15Y-412.68
X587.15Y-420.68
X587.15Y-428.68
X587.15Y-436.68
X587.15Y-444.68
X587.15Y-452.68
X587.15Y-460.68
X587.15Y-468.68
X587.15Y-476.68
X587.15Y-484.68
X587.15Y-492.68
X587.15Y-500.68
X587.15Y-508.68
X587.15Y-516.68
X587.15Y-524.68
X587.15Y-532.68
X587.15Y-540.68
X587.15Y-548.68
X587.15Y-556.68
X587.15Y-564.68
X587.15Y-572.68
X587.15Y-580.68
X587.15Y-588.68
X587.15Y-596.68
X587.15Y-604.68
X587.15Y-612.68
X591.07Y-553.6
X591.07Y-569.85
X591.26Y-585.904
X591.262Y-441.715
X591.319Y-609.846
X591.32Y-241.6
X591.32Y-249.85
X591.32Y-257.6
X591.32Y-265.6
X591.32Y-273.85
X591.32Y-281.6
X591.32Y-289.85
X591.32Y-297.6
X591.32Y-305.85
X591.32Y-313.85
X591.32Y-321.85
X591.32Y-329.85
X591.32Y-337.6
X591.32Y-345.85
X591.32Y-353.6
X591.32Y-361.6
X591.32Y-369.6
X591.32Y-377.6
X591.32Y-385.85
X591.32Y-393.6
X591.32Y-401.6
X591.32Y-409.85
X591.32Y-417.85
X591.32Y-425.85
X591.32Y-433.6
X591.32Y-449.85
X591.32Y-457.85
X591.32Y-465.85
X591.32Y-473.85
X591.32Y-481.85
X591.32Y-489.85
X591.32Y-497.85
X591.32Y-505.85
X591.32Y-513.85
X591.32Y-521.85
X591.32Y-529.6
X591.32Y-537.6
X591.32Y-545.6
X591.32Y-561.85
X591.32Y-577.6
X591.32Y-593.6
X591.32Y-601.6
X591.32Y-617.85
X593.0Y-620.5
X593.05Y-267.46
X593.65Y-244.68
X593.65Y-252.68
X593.65Y-268.68
X593.65Y-276.68
X593.65Y-284.68
X593.65Y-292.68
X593.65Y-300.68
X593.65Y-308.68
X593.65Y-316.68
X593.65Y-324.68
X593.65Y-332.68
X593.65Y-340.68
X593.65Y-348.68
X593.65Y-356.68
X593.65Y-364.68
X593.65Y-372.68
X593.65Y-380.68
X593.65Y-388.68
X593.65Y-396.68
X593.65Y-404.68
X593.65Y-412.68
X593.65Y-420.68
X593.65Y-428.68
X593.65Y-436.68
X593.65Y-444.68
X593.65Y-452.68
X593.65Y-460.68
X593.65Y-468.68
X593.65Y-476.68
X593.65Y-484.68
X593.65Y-492.68
X593.65Y-500.68
X593.65Y-508.68
X593.65Y-516.68
X593.65Y-524.68
X593.65Y-532.68
X593.65Y-540.68
X593.65Y-548.68
X593.65Y-556.68
X593.65Y-564.68
X593.65Y-572.68
X593.65Y-580.68
X593.65Y-588.68
X593.65Y-596.68
X593.65Y-604.68
X593.65Y-612.68
X597.57Y-553.6
X597.57Y-569.85
X597.76Y-585.904
X597.762Y-441.715
X597.819Y-609.846
X597.82Y-241.6
X597.82Y-249.85
X597.82Y-257.6
X597.82Y-273.85
X597.82Y-281.6
X597.82Y-289.85
X597.82Y-297.6
X597.82Y-305.85
X597.82Y-313.85
X597.82Y-321.85
X597.82Y-329.85
X597.82Y-337.6
X597.82Y-345.85
X597.82Y-353.6
X597.82Y-361.6
X597.82Y-369.6
X597.82Y-377.6
X597.82Y-385.85
X597.82Y-393.6
X597.82Y-401.6
X597.82Y-409.85
X597.82Y-417.85
X597.82Y-425.85
X597.82Y-433.6
X597.82Y-449.85
X597.82Y-457.85
X597.82Y-465.85
X597.82Y-473.85
X597.82Y-481.85
X597.82Y-489.85
X597.82Y-497.85
X597.82Y-505.85
X597.82Y-513.85
X597.82Y-521.85
X597.82Y-529.6
X597.82Y-537.6
X597.82Y-545.6
X597.82Y-561.85
X597.82Y-577.6
X597.82Y-593.6
X597.82Y-601.6
X597.82Y-617.85
X598.5Y-333.0
X598.75Y-284.75
X598.75Y-324.75
X598.75Y-341.0
X598.75Y-348.5
X599.0Y-276.75
X599.0Y-292.75
X599.0Y-300.25
X599.0Y-308.0
X599.0Y-356.5
X599.0Y-364.5
X599.0Y-372.5
X599.25Y-316.5
X601.2Y-621.4
X601.5Y-271.975
X601.5Y-280.0
X601.5Y-288.0
X601.5Y-304.0
X601.5Y-312.0
X601.5Y-320.0
X601.5Y-328.0
X601.5Y-344.0
X601.5Y-352.0
X601.5Y-360.0
X601.5Y-368.0
X601.5Y-384.0
X601.5Y-392.0
X601.5Y-400.0
X601.5Y-408.0
X601.5Y-424.0
X601.5Y-432.0
X601.5Y-440.0
X601.5Y-448.0
X601.5Y-472.0
X601.5Y-480.0
X601.5Y-488.0
X601.5Y-504.0
X601.5Y-512.0
X601.5Y-520.0
X601.5Y-528.0
X601.5Y-544.0
X601.5Y-552.0
X601.53Y-264.0
X601.53Y-296.0
X601.53Y-336.0
X601.53Y-376.0
X601.53Y-416.0
X601.53Y-456.0
X601.53Y-496.0
X601.53Y-536.0
X601.53Y-560.0
X601.53Y-568.0
X601.53Y-584.0
X601.53Y-592.0
X601.56Y-576.0
X601.6Y-463.75
X601.75Y-600.0
X601.75Y-608.0
X601.78Y-616.0
X604.07Y-553.6
X604.07Y-569.85
X604.26Y-585.904
X604.262Y-441.715
X604.319Y-609.846
X604.32Y-241.6
X604.32Y-249.85
X604.32Y-257.6
X604.32Y-265.6
X604.32Y-377.6
X604.32Y-385.85
X604.32Y-393.6
X604.32Y-401.6
X604.32Y-409.85
X604.32Y-417.85
X604.32Y-425.85
X604.32Y-433.6
X604.32Y-449.85
X604.32Y-457.85
X604.32Y-465.85
X604.32Y-473.85
X604.32Y-481.85
X604.32Y-489.85
X604.32Y-497.85
X604.32Y-505.85
X604.32Y-513.85
X604.32Y-521.85
X604.32Y-529.6
X604.32Y-537.6
X604.32Y-545.6
X604.32Y-561.85
X604.32Y-577.6
X604.32Y-593.6
X604.32Y-601.6
X606.25Y-620.25
X606.65Y-244.68
X606.65Y-252.68
X606.65Y-260.68
X606.65Y-268.68
X606.65Y-276.68
X606.65Y-284.68
X606.65Y-292.68
X606.65Y-300.68
X606.65Y-308.68
X606.65Y-316.68
X606.65Y-324.68
X606.65Y-332.68
X606.65Y-340.68
X606.65Y-348.68
X606.65Y-356.68
X606.65Y-364.68
X606.65Y-372.68
X606.65Y-380.68
X606.65Y-388.68
X606.65Y-396.68
X606.65Y-404.68
X606.65Y-412.68
X606.65Y-420.68
X606.65Y-428.68
X606.65Y-436.68
X606.65Y-444.68
X606.65Y-452.68
X606.65Y-460.68
X606.65Y-468.68
X606.65Y-476.68
X606.65Y-484.68
X606.65Y-492.68
X606.65Y-500.68
X606.65Y-508.68
X606.65Y-516.68
X606.65Y-524.68
X606.65Y-532.68
X606.65Y-540.68
X606.65Y-548.68
X606.65Y-556.68
X606.65Y-564.68
X606.65Y-572.68
X606.65Y-580.68
X606.65Y-588.68
X606.65Y-596.68
X606.65Y-604.68
X606.65Y-612.68
X610.57Y-553.6
X610.57Y-569.85
X610.76Y-585.904
X610.762Y-441.715
X610.819Y-609.846
X610.82Y-241.6
X610.82Y-249.85
X610.82Y-257.6
X610.82Y-265.6
X610.82Y-273.85
X610.82Y-281.6
X610.82Y-289.85
X610.82Y-297.6
X610.82Y-305.85
X610.82Y-313.85
X610.82Y-321.85
X610.82Y-329.85
X610.82Y-337.6
X610.82Y-345.85
X610.82Y-353.6
X610.82Y-361.6
X610.82Y-369.6
X610.82Y-377.6
X610.82Y-385.85
X610.82Y-393.6
X610.82Y-401.6
X610.82Y-409.85
X610.82Y-417.85
X610.82Y-425.85
X610.82Y-433.6
X610.82Y-449.85
X610.82Y-457.85
X610.82Y-465.85
X610.82Y-473.85
X610.82Y-481.85
X610.82Y-489.85
X610.82Y-497.85
X610.82Y-505.85
X610.82Y-513.85
X610.82Y-521.85
X610.82Y-529.6
X610.82Y-537.6
X610.82Y-545.6
X610.82Y-561.85
X610.82Y-577.6
X610.82Y-593.6
X610.82Y-601.6
X610.82Y-617.85
X612.75Y-620.25
X613.15Y-244.68
X613.15Y-252.68
X613.15Y-260.68
X613.15Y-268.68
X613.15Y-276.68
X613.15Y-284.68
X613.15Y-292.68
X613.15Y-300.68
X613.15Y-308.68
X613.15Y-316.68
X613.15Y-324.68
X613.15Y-332.68
X613.15Y-340.68
X613.15Y-348.68
X613.15Y-356.68
X613.15Y-364.68
X613.15Y-372.68
X613.15Y-380.68
X613.15Y-388.68
X613.15Y-396.68
X613.15Y-404.68
X613.15Y-412.68
X613.15Y-420.68
X613.15Y-428.68
X613.15Y-436.68
X613.15Y-444.68
X613.15Y-452.68
X613.15Y-460.68
X613.15Y-468.68
X613.15Y-476.68
X613.15Y-484.68
X613.15Y-492.68
X613.15Y-500.68
X613.15Y-508.68
X613.15Y-516.68
X613.15Y-524.68
X613.15Y-532.68
X613.15Y-540.68
X613.15Y-548.68
X613.15Y-556.68
X613.15Y-564.68
X613.15Y-572.68
X613.15Y-580.68
X613.15Y-588.68
X613.15Y-596.68
X613.15Y-604.68
X613.15Y-612.68
X617.07Y-553.6
X617.07Y-569.85
X617.26Y-585.904
X617.262Y-441.715
X617.319Y-609.846
X617.32Y-241.6
X617.32Y-249.85
X617.32Y-257.6
X617.32Y-265.6
X617.32Y-273.85
X617.32Y-281.6
X617.32Y-289.85
X617.32Y-297.6
X617.32Y-305.85
X617.32Y-313.85
X617.32Y-321.85
X617.32Y-329.85
X617.32Y-337.6
X617.32Y-345.85
X617.32Y-353.6
X617.32Y-361.6
X617.32Y-369.6
X617.32Y-377.6
X617.32Y-385.85
X617.32Y-393.6
X617.32Y-401.6
X617.32Y-409.85
X617.32Y-417.85
X617.32Y-425.85
X617.32Y-433.6
X617.32Y-449.85
X617.32Y-457.85
X617.32Y-465.85
X617.32Y-473.85
X617.32Y-481.85
X617.32Y-489.85
X617.32Y-497.85
X617.32Y-505.85
X617.32Y-513.85
X617.32Y-521.85
X617.32Y-529.6
X617.32Y-537.6
X617.32Y-545.6
X617.32Y-561.85
X617.32Y-577.6
X617.32Y-593.6
X617.32Y-601.6
X617.32Y-617.85
X619.25Y-620.0
X619.65Y-244.68
X619.65Y-252.68
X619.65Y-260.68
X619.65Y-268.68
X619.65Y-276.68
X619.65Y-284.68
X619.65Y-292.68
X619.65Y-300.68
X619.65Y-308.68
X619.65Y-316.68
X619.65Y-324.68
X619.65Y-332.68
X619.65Y-340.68
X619.65Y-348.68
X619.65Y-356.68
X619.65Y-364.68
X619.65Y-372.68
X619.65Y-380.68
X619.65Y-388.68
X619.65Y-396.68
X619.65Y-404.68
X619.65Y-412.68
X619.65Y-420.68
X619.65Y-428.68
X619.65Y-436.68
X619.65Y-444.68
X619.65Y-452.68
X619.65Y-460.68
X619.65Y-468.68
X619.65Y-476.68
X619.65Y-484.68
X619.65Y-492.68
X619.65Y-500.68
X619.65Y-508.68
X619.65Y-516.68
X619.65Y-524.68
X619.65Y-532.68
X619.65Y-540.68
X619.65Y-548.68
X619.65Y-556.68
X619.65Y-564.68
X619.65Y-572.68
X619.65Y-580.68
X619.65Y-588.68
X619.65Y-596.68
X619.65Y-604.68
X619.65Y-612.68
X621.83Y-243.6
X623.57Y-553.6
X623.57Y-569.85
X623.76Y-585.904
X623.762Y-441.715
X623.819Y-609.846
X623.82Y-241.6
X623.82Y-249.85
X623.82Y-257.6
X623.82Y-265.6
X623.82Y-273.85
X623.82Y-281.6
X623.82Y-289.85
X623.82Y-297.6
X623.82Y-305.85
X623.82Y-313.85
X623.82Y-321.85
X623.82Y-329.85
X623.82Y-337.6
X623.82Y-345.85
X623.82Y-353.6
X623.82Y-361.6
X623.82Y-369.6
X623.82Y-377.6
X623.82Y-385.85
X623.82Y-393.6
X623.82Y-401.6
X623.82Y-409.85
X623.82Y-417.85
X623.82Y-425.85
X623.82Y-433.6
X623.82Y-449.85
X623.82Y-457.85
X623.82Y-465.85
X623.82Y-473.85
X623.82Y-481.85
X623.82Y-489.85
X623.82Y-497.85
X623.82Y-505.85
X623.82Y-513.85
X623.82Y-521.85
X623.82Y-529.6
X623.82Y-537.6
X623.82Y-545.6
X623.82Y-561.85
X623.82Y-577.6
X623.82Y-593.6
X623.82Y-601.6
X623.82Y-617.85
X625.75Y-620.25
X626.15Y-244.68
X626.15Y-252.68
X626.15Y-260.68
X626.15Y-268.68
X626.15Y-276.68
X626.15Y-284.68
X626.15Y-292.68
X626.15Y-300.68
X626.15Y-308.68
X626.15Y-316.68
X626.15Y-324.68
X626.15Y-332.68
X626.15Y-340.68
X626.15Y-348.68
X626.15Y-356.68
X626.15Y-364.68
X626.15Y-372.68
X626.15Y-380.68
X626.15Y-388.68
X626.15Y-396.68
X626.15Y-404.68
X626.15Y-412.68
X626.15Y-420.68
X626.15Y-428.68
X626.15Y-436.68
X626.15Y-444.68
X626.15Y-452.68
X626.15Y-460.68
X626.15Y-468.68
X626.15Y-476.68
X626.15Y-484.68
X626.15Y-492.68
X626.15Y-500.68
X626.15Y-508.68
X626.15Y-516.68
X626.15Y-524.68
X626.15Y-532.68
X626.15Y-540.68
X626.15Y-548.68
X626.15Y-556.68
X626.15Y-564.68
X626.15Y-572.68
X626.15Y-580.68
X626.15Y-588.68
X626.15Y-596.68
X626.15Y-604.68
X626.15Y-612.68
X630.07Y-553.6
X630.07Y-569.85
X630.26Y-585.904
X630.262Y-441.715
X630.319Y-609.846
X630.32Y-241.6
X630.32Y-249.85
X630.32Y-257.6
X630.32Y-265.6
X630.32Y-273.85
X630.32Y-281.6
X630.32Y-289.85
X630.32Y-297.6
X630.32Y-305.85
X630.32Y-313.85
X630.32Y-321.85
X630.32Y-329.85
X630.32Y-337.6
X630.32Y-345.85
X630.32Y-353.6
X630.32Y-361.6
X630.32Y-369.6
X630.32Y-377.6
X630.32Y-385.85
X630.32Y-393.6
X630.32Y-401.6
X630.32Y-409.85
X630.32Y-417.85
X630.32Y-425.85
X630.32Y-433.6
X630.32Y-449.85
X630.32Y-457.85
X630.32Y-465.85
X630.32Y-473.85
X630.32Y-481.85
X630.32Y-489.85
X630.32Y-497.85
X630.32Y-505.85
X630.32Y-513.85
X630.32Y-521.85
X630.32Y-529.6
X630.32Y-537.6
X630.32Y-545.6
X630.32Y-561.85
X630.32Y-577.6
X630.32Y-593.6
X630.32Y-601.6
X630.32Y-617.85
X632.25Y-620.25
X632.65Y-244.68
X632.65Y-252.68
X632.65Y-260.68
X632.65Y-268.68
X632.65Y-276.68
X632.65Y-284.68
X632.65Y-292.68
X632.65Y-300.68
X632.65Y-308.68
X632.65Y-316.68
X632.65Y-324.68
X632.65Y-332.68
X632.65Y-340.68
X632.65Y-348.68
X632.65Y-356.68
X632.65Y-364.68
X632.65Y-372.68
X632.65Y-380.68
X632.65Y-388.68
X632.65Y-396.68
X632.65Y-404.68
X632.65Y-412.68
X632.65Y-420.68
X632.65Y-428.68
X632.65Y-436.68
X632.65Y-444.68
X632.65Y-452.68
X632.65Y-460.68
X632.65Y-468.68
X632.65Y-476.68
X632.65Y-484.68
X632.65Y-492.68
X632.65Y-500.68
X632.65Y-508.68
X632.65Y-516.68
X632.65Y-524.68
X632.65Y-532.68
X632.65Y-540.68
X632.65Y-548.68
X632.65Y-556.68
X632.65Y-564.68
X632.65Y-572.68
X632.65Y-580.68
X632.65Y-588.68
X632.65Y-596.68
X632.65Y-604.68
X632.65Y-612.68
X636.57Y-553.6
X636.57Y-569.85
X636.76Y-585.904
X636.762Y-441.715
X636.819Y-609.846
X636.82Y-241.6
X636.82Y-249.85
X636.82Y-257.6
X636.82Y-265.6
X636.82Y-273.85
X636.82Y-281.6
X636.82Y-289.85
X636.82Y-297.6
X636.82Y-305.85
X636.82Y-313.85
X636.82Y-321.85
X636.82Y-329.85
X636.82Y-337.6
X636.82Y-345.85
X636.82Y-353.6
X636.82Y-361.6
X636.82Y-369.6
X636.82Y-377.6
X636.82Y-385.85
X636.82Y-393.6
X636.82Y-401.6
X636.82Y-409.85
X636.82Y-417.85
X636.82Y-425.85
X636.82Y-433.6
X636.82Y-449.85
X636.82Y-457.85
X636.82Y-465.85
X636.82Y-473.85
X636.82Y-481.85
X636.82Y-489.85
X636.82Y-497.85
X636.82Y-505.85
X636.82Y-513.85
X636.82Y-521.85
X636.82Y-529.6
X636.82Y-537.6
X636.82Y-545.6
X636.82Y-561.85
X636.82Y-577.6
X636.82Y-593.6
X636.82Y-601.6
X636.82Y-617.85
X638.25Y-620.25
X639.15Y-244.68
X639.15Y-252.68
X639.15Y-260.68
X639.15Y-268.68
X639.15Y-276.68
X639.15Y-284.68
X639.15Y-292.68
X639.15Y-300.68
X639.15Y-308.68
X639.15Y-316.68
X639.15Y-324.68
X639.15Y-332.68
X639.15Y-340.68
X639.15Y-348.68
X639.15Y-356.68
X639.15Y-364.68
X639.15Y-372.68
X639.15Y-380.68
X639.15Y-388.68
X639.15Y-396.68
X639.15Y-404.68
X639.15Y-412.68
X639.15Y-420.68
X639.15Y-428.68
X639.15Y-436.68
X639.15Y-444.68
X639.15Y-452.68
X639.15Y-460.68
X639.15Y-468.68
X639.15Y-476.68
X639.15Y-484.68
X639.15Y-492.68
X639.15Y-500.68
X639.15Y-508.68
X639.15Y-516.68
X639.15Y-524.68
X639.15Y-532.68
X639.15Y-540.68
X639.15Y-548.68
X639.15Y-556.68
X639.15Y-564.68
X639.15Y-572.68
X639.15Y-580.68
X639.15Y-588.68
X639.15Y-596.68
X639.15Y-604.68
X639.15Y-612.68
X641.75Y-619.5
X643.07Y-553.6
X643.07Y-569.85
X643.26Y-585.904
X643.262Y-441.715
X643.319Y-609.846
X643.32Y-241.6
X643.32Y-249.85
X643.32Y-257.6
X643.32Y-265.6
X643.32Y-273.85
X643.32Y-281.6
X643.32Y-289.85
X643.32Y-297.6
X643.32Y-305.85
X643.32Y-313.85
X643.32Y-321.85
X643.32Y-329.85
X643.32Y-337.6
X643.32Y-345.85
X643.32Y-353.6
X643.32Y-361.6
X643.32Y-369.6
X643.32Y-377.6
X643.32Y-385.85
X643.32Y-393.6
X643.32Y-401.6
X643.32Y-409.85
X643.32Y-417.85
X643.32Y-425.85
X643.32Y-433.6
X643.32Y-449.85
X643.32Y-457.85
X643.32Y-465.85
X643.32Y-473.85
X643.32Y-481.85
X643.32Y-489.85
X643.32Y-497.85
X643.32Y-505.85
X643.32Y-513.85
X643.32Y-521.85
X643.32Y-529.6
X643.32Y-537.6
X643.32Y-545.6
X643.32Y-561.85
X643.32Y-577.6
X643.32Y-593.6
X643.32Y-601.6
X643.32Y-617.85
X645.0Y-620.25
X645.65Y-244.68
X645.65Y-252.68
X645.65Y-260.68
X645.65Y-268.68
X645.65Y-276.68
X645.65Y-284.68
X645.65Y-292.68
X645.65Y-300.68
X645.65Y-308.68
X645.65Y-316.68
X645.65Y-324.68
X645.65Y-332.68
X645.65Y-340.68
X645.65Y-348.68
X645.65Y-356.68
X645.65Y-364.68
X645.65Y-372.68
X645.65Y-380.68
X645.65Y-388.68
X645.65Y-396.68
X645.65Y-404.68
X645.65Y-412.68
X645.65Y-420.68
X645.65Y-428.68
X645.65Y-436.68
X645.65Y-444.68
X645.65Y-452.68
X645.65Y-460.68
X645.65Y-468.68
X645.65Y-476.68
X645.65Y-484.68
X645.65Y-492.68
X645.65Y-500.68
X645.65Y-508.68
X645.65Y-516.68
X645.65Y-524.68
X645.65Y-532.68
X645.65Y-540.68
X645.65Y-548.68
X645.65Y-556.68
X645.65Y-564.68
X645.65Y-572.68
X645.65Y-580.68
X645.65Y-588.68
X645.65Y-596.68
X645.65Y-604.68
X645.65Y-612.68
X647.0Y-265.75
X648.25Y-619.5
X649.57Y-553.6
X649.57Y-569.85
X649.76Y-585.904
X649.762Y-441.715
X649.819Y-609.846
X649.82Y-241.6
X649.82Y-249.85
X649.82Y-257.6
X649.82Y-273.85
X649.82Y-281.6
X649.82Y-289.85
X649.82Y-297.6
X649.82Y-305.85
X649.82Y-313.85
X649.82Y-321.85
X649.82Y-329.85
X649.82Y-337.6
X649.82Y-345.85
X649.82Y-353.6
X649.82Y-361.6
X649.82Y-369.6
X649.82Y-377.6
X649.82Y-385.85
X649.82Y-393.6
X649.82Y-401.6
X649.82Y-409.85
X649.82Y-417.85
X649.82Y-425.85
X649.82Y-433.6
X649.82Y-449.85
X649.82Y-457.85
X649.82Y-465.85
X649.82Y-473.85
X649.82Y-481.85
X649.82Y-489.85
X649.82Y-497.85
X649.82Y-505.85
X649.82Y-513.85
X649.82Y-521.85
X649.82Y-529.6
X649.82Y-537.6
X649.82Y-545.6
X649.82Y-561.85
X649.82Y-577.6
X649.82Y-593.6
X649.82Y-601.6
X649.82Y-617.85
X650.0Y-263.8
X651.5Y-269.0
X652.5Y-284.25
X652.5Y-332.25
X652.75Y-299.5
X652.75Y-307.25
X653.0Y-345.75
X653.25Y-289.85
X653.25Y-354.0
X653.25Y-370.0
X653.5Y-313.75
X653.5Y-338.25
X653.5Y-361.6
X653.5Y-619.0
X653.75Y-321.75
X654.25Y-275.5
X656.07Y-553.6
X656.07Y-569.85
X656.26Y-585.904
X656.262Y-441.715
X656.319Y-609.846
X656.32Y-241.6
X656.32Y-249.85
X656.32Y-257.6
X656.32Y-377.6
X656.32Y-385.85
X656.32Y-393.6
X656.32Y-401.6
X656.32Y-409.85
X656.32Y-417.85
X656.32Y-425.85
X656.32Y-433.6
X656.32Y-449.85
X656.32Y-457.85
X656.32Y-465.85
X656.32Y-473.85
X656.32Y-481.85
X656.32Y-489.85
X656.32Y-497.85
X656.32Y-505.85
X656.32Y-513.85
X656.32Y-521.85
X656.32Y-529.6
X656.32Y-537.6
X656.32Y-545.6
X656.32Y-561.85
X656.32Y-577.6
X656.32Y-593.6
X656.32Y-601.6
X659.75Y-280.0
X659.75Y-288.0
X659.75Y-304.0
X659.75Y-312.0
X659.75Y-320.0
X659.75Y-328.0
X659.75Y-344.0
X659.75Y-352.0
X659.75Y-360.0
X659.75Y-368.0
X659.75Y-384.0
X659.75Y-392.0
X659.75Y-400.0
X659.75Y-408.0
X659.75Y-424.0
X659.75Y-432.0
X659.75Y-440.0
X659.75Y-448.0
X659.75Y-464.0
X659.75Y-472.0
X659.75Y-480.0
X659.75Y-488.0
X659.75Y-504.0
X659.75Y-512.0
X659.75Y-520.0
X659.75Y-528.0
X659.75Y-544.0
X659.75Y-552.0
X659.78Y-296.0
X659.78Y-336.0
X659.78Y-376.0
X659.78Y-416.0
X659.78Y-456.0
X659.78Y-496.0
X659.78Y-536.0
X659.78Y-560.0
X659.78Y-568.0
X659.78Y-584.0
X659.78Y-592.0
X659.81Y-576.0
X659.925Y-271.8
X660.0Y-600.0
X660.0Y-608.0
X660.03Y-616.0
X662.57Y-553.6
X662.57Y-569.85
X662.76Y-585.904
X662.762Y-441.715
X662.819Y-609.846
X662.82Y-241.6
X662.82Y-249.85
X662.82Y-257.6
X662.82Y-265.6
X662.82Y-273.85
X662.82Y-281.6
X662.82Y-289.85
X662.82Y-297.6
X662.82Y-305.85
X662.82Y-313.85
X662.82Y-321.85
X662.82Y-329.85
X662.82Y-337.6
X662.82Y-345.85
X662.82Y-353.6
X662.82Y-361.6
X662.82Y-369.6
X662.82Y-377.6
X662.82Y-385.85
X662.82Y-393.6
X662.82Y-401.6
X662.82Y-409.85
X662.82Y-417.85
X662.82Y-425.85
X662.82Y-433.6
X662.82Y-449.85
X662.82Y-457.85
X662.82Y-465.85
X662.82Y-473.85
X662.82Y-481.85
X662.82Y-489.85
X662.82Y-497.85
X662.82Y-505.85
X662.82Y-513.85
X662.82Y-521.85
X662.82Y-529.6
X662.82Y-537.6
X662.82Y-545.6
X662.82Y-561.85
X662.82Y-577.6
X662.82Y-593.6
X662.82Y-601.6
X662.82Y-617.85
X664.25Y-620.25
X665.15Y-244.68
X665.15Y-252.68
X665.15Y-260.68
X665.15Y-268.68
X665.15Y-276.68
X665.15Y-284.68
X665.15Y-292.68
X665.15Y-300.68
X665.15Y-308.68
X665.15Y-316.68
X665.15Y-324.68
X665.15Y-332.68
X665.15Y-340.68
X665.15Y-348.68
X665.15Y-356.68
X665.15Y-364.68
X665.15Y-372.68
X665.15Y-380.68
X665.15Y-388.68
X665.15Y-396.68
X665.15Y-404.68
X665.15Y-412.68
X665.15Y-420.68
X665.15Y-428.68
X665.15Y-436.68
X665.15Y-444.68
X665.15Y-452.68
X665.15Y-460.68
X665.15Y-468.68
X665.15Y-476.68
X665.15Y-484.68
X665.15Y-492.68
X665.15Y-500.68
X665.15Y-508.68
X665.15Y-516.68
X665.15Y-524.68
X665.15Y-532.68
X665.15Y-540.68
X665.15Y-548.68
X665.15Y-556.68
X665.15Y-564.68
X665.15Y-572.68
X665.15Y-580.68
X665.15Y-588.68
X665.15Y-596.68
X665.15Y-604.68
X665.15Y-612.68
X667.75Y-619.5
X669.07Y-553.6
X669.07Y-569.85
X669.26Y-585.904
X669.262Y-441.715
X669.319Y-609.846
X669.32Y-241.6
X669.32Y-249.85
X669.32Y-257.6
X669.32Y-265.6
X669.32Y-273.85
X669.32Y-281.6
X669.32Y-289.85
X669.32Y-297.6
X669.32Y-305.85
X669.32Y-313.85
X669.32Y-321.85
X669.32Y-329.85
X669.32Y-337.6
X669.32Y-345.85
X669.32Y-353.6
X669.32Y-361.6
X669.32Y-369.6
X669.32Y-377.6
X669.32Y-385.85
X669.32Y-393.6
X669.32Y-401.6
X669.32Y-409.85
X669.32Y-417.85
X669.32Y-425.85
X669.32Y-433.6
X669.32Y-449.85
X669.32Y-457.85
X669.32Y-465.85
X669.32Y-473.85
X669.32Y-481.85
X669.32Y-489.85
X669.32Y-497.85
X669.32Y-505.85
X669.32Y-513.85
X669.32Y-521.85
X669.32Y-529.6
X669.32Y-537.6
X669.32Y-545.6
X669.32Y-561.85
X669.32Y-577.6
X669.32Y-593.6
X669.32Y-601.6
X669.32Y-617.85
X671.0Y-620.0
X671.65Y-244.68
X671.65Y-252.68
X671.65Y-260.68
X671.65Y-268.68
X671.65Y-276.68
X671.65Y-284.68
X671.65Y-292.68
X671.65Y-300.68
X671.65Y-308.68
X671.65Y-316.68
X671.65Y-324.68
X671.65Y-332.68
X671.65Y-340.68
X671.65Y-348.68
X671.65Y-356.68
X671.65Y-364.68
X671.65Y-372.68
X671.65Y-380.68
X671.65Y-388.68
X671.65Y-396.68
X671.65Y-404.68
X671.65Y-412.68
X671.65Y-420.68
X671.65Y-428.68
X671.65Y-436.68
X671.65Y-444.68
X671.65Y-452.68
X671.65Y-460.68
X671.65Y-468.68
X671.65Y-476.68
X671.65Y-484.68
X671.65Y-492.68
X671.65Y-500.68
X671.65Y-508.68
X671.65Y-516.68
X671.65Y-524.68
X671.65Y-532.68
X671.65Y-540.68
X671.65Y-548.68
X671.65Y-556.68
X671.65Y-564.68
X671.65Y-572.68
X671.65Y-580.68
X671.65Y-588.68
X671.65Y-596.68
X671.65Y-604.68
X671.65Y-612.68
X674.489Y-619.589
X675.57Y-553.6
X675.57Y-569.85
X675.76Y-585.904
X675.762Y-441.715
X675.819Y-609.846
X675.82Y-241.6
X675.82Y-249.85
X675.82Y-257.6
X675.82Y-265.6
X675.82Y-273.85
X675.82Y-281.6
X675.82Y-289.85
X675.82Y-297.6
X675.82Y-305.85
X675.82Y-313.85
X675.82Y-321.85
X675.82Y-329.85
X675.82Y-337.6
X675.82Y-345.85
X675.82Y-353.6
X675.82Y-361.6
X675.82Y-369.6
X675.82Y-377.6
X675.82Y-385.85
X675.82Y-393.6
X675.82Y-401.6
X675.82Y-409.85
X675.82Y-417.85
X675.82Y-425.85
X675.82Y-433.6
X675.82Y-449.85
X675.82Y-457.85
X675.82Y-465.85
X675.82Y-473.85
X675.82Y-481.85
X675.82Y-489.85
X675.82Y-497.85
X675.82Y-505.85
X675.82Y-513.85
X675.82Y-521.85
X675.82Y-529.6
X675.82Y-537.6
X675.82Y-545.6
X675.82Y-561.85
X675.82Y-577.6
X675.82Y-593.6
X675.82Y-601.6
X675.82Y-617.85
X677.75Y-620.25
X678.15Y-244.68
X678.15Y-252.68
X678.15Y-260.68
X678.15Y-268.68
X678.15Y-276.68
X678.15Y-284.68
X678.15Y-292.68
X678.15Y-300.68
X678.15Y-308.68
X678.15Y-316.68
X678.15Y-324.68
X678.15Y-332.68
X678.15Y-340.68
X678.15Y-348.68
X678.15Y-356.68
X678.15Y-364.68
X678.15Y-372.68
X678.15Y-380.68
X678.15Y-388.68
X678.15Y-396.68
X678.15Y-404.68
X678.15Y-412.68
X678.15Y-420.68
X678.15Y-428.68
X678.15Y-436.68
X678.15Y-444.68
X678.15Y-452.68
X678.15Y-460.68
X678.15Y-468.68
X678.15Y-476.68
X678.15Y-484.68
X678.15Y-492.68
X678.15Y-500.68
X678.15Y-508.68
X678.15Y-516.68
X678.15Y-524.68
X678.15Y-532.68
X678.15Y-540.68
X678.15Y-548.68
X678.15Y-556.68
X678.15Y-564.68
X678.15Y-572.68
X678.15Y-580.68
X678.15Y-588.68
X678.15Y-596.68
X678.15Y-604.68
X678.15Y-612.68
X680.5Y-547.5
X681.0Y-619.5
X682.07Y-553.6
X682.07Y-569.85
X682.26Y-585.904
X682.262Y-441.715
X682.319Y-609.846
X682.32Y-241.6
X682.32Y-249.85
X682.32Y-257.6
X682.32Y-265.6
X682.32Y-273.85
X682.32Y-281.6
X682.32Y-289.85
X682.32Y-297.6
X682.32Y-305.85
X682.32Y-313.85
X682.32Y-321.85
X682.32Y-329.85
X682.32Y-337.6
X682.32Y-345.85
X682.32Y-353.6
X682.32Y-361.6
X682.32Y-369.6
X682.32Y-377.6
X682.32Y-385.85
X682.32Y-393.6
X682.32Y-401.6
X682.32Y-409.85
X682.32Y-417.85
X682.32Y-425.85
X682.32Y-433.6
X682.32Y-449.85
X682.32Y-457.85
X682.32Y-465.85
X682.32Y-473.85
X682.32Y-481.85
X682.32Y-489.85
X682.32Y-497.85
X682.32Y-505.85
X682.32Y-513.85
X682.32Y-521.85
X682.32Y-529.6
X682.32Y-537.6
X682.32Y-545.6
X682.32Y-561.85
X682.32Y-577.6
X682.32Y-593.6
X682.32Y-601.6
X682.32Y-617.85
X684.25Y-620.5
X684.65Y-244.68
X684.65Y-252.68
X684.65Y-260.68
X684.65Y-268.68
X684.65Y-276.68
X684.65Y-284.68
X684.65Y-292.68
X684.65Y-300.68
X684.65Y-308.68
X684.65Y-316.68
X684.65Y-324.68
X684.65Y-332.68
X684.65Y-340.68
X684.65Y-348.68
X684.65Y-356.68
X684.65Y-364.68
X684.65Y-372.68
X684.65Y-380.68
X684.65Y-388.68
X684.65Y-396.68
X684.65Y-404.68
X684.65Y-412.68
X684.65Y-420.68
X684.65Y-428.68
X684.65Y-436.68
X684.65Y-444.68
X684.65Y-452.68
X684.65Y-460.68
X684.65Y-468.68
X684.65Y-476.68
X684.65Y-484.68
X684.65Y-492.68
X684.65Y-500.68
X684.65Y-508.68
X684.65Y-516.68
X684.65Y-524.68
X684.65Y-532.68
X684.65Y-540.68
X684.65Y-548.68
X684.65Y-556.68
X684.65Y-564.68
X684.65Y-572.68
X684.65Y-580.68
X684.65Y-588.68
X684.65Y-596.68
X684.65Y-604.68
X684.65Y-612.68
X687.0Y-547.6
X687.5Y-619.25
X688.57Y-553.6
X688.57Y-569.85
X688.76Y-585.904
X688.762Y-441.715
X688.819Y-609.846
X688.82Y-241.6
X688.82Y-249.85
X688.82Y-257.6
X688.82Y-265.6
X688.82Y-273.85
X688.82Y-281.6
X688.82Y-289.85
X688.82Y-297.6
X688.82Y-305.85
X688.82Y-313.85
X688.82Y-321.85
X688.82Y-329.85
X688.82Y-337.6
X688.82Y-345.85
X688.82Y-353.6
X688.82Y-361.6
X688.82Y-369.6
X688.82Y-377.6
X688.82Y-385.85
X688.82Y-393.6
X688.82Y-401.6
X688.82Y-409.85
X688.82Y-417.85
X688.82Y-425.85
X688.82Y-433.6
X688.82Y-449.85
X688.82Y-457.85
X688.82Y-465.85
X688.82Y-473.85
X688.82Y-481.85
X688.82Y-489.85
X688.82Y-497.85
X688.82Y-505.85
X688.82Y-513.85
X688.82Y-521.85
X688.82Y-529.6
X688.82Y-537.6
X688.82Y-545.6
X688.82Y-561.85
X688.82Y-577.6
X688.82Y-593.6
X688.82Y-601.6
X688.82Y-617.85
X690.75Y-620.5
X691.15Y-244.68
X691.15Y-252.68
X691.15Y-260.68
X691.15Y-268.68
X691.15Y-276.68
X691.15Y-284.68
X691.15Y-292.68
X691.15Y-300.68
X691.15Y-308.68
X691.15Y-316.68
X691.15Y-324.68
X691.15Y-332.68
X691.15Y-340.68
X691.15Y-348.68
X691.15Y-356.68
X691.15Y-364.68
X691.15Y-372.68
X691.15Y-380.68
X691.15Y-388.68
X691.15Y-396.68
X691.15Y-404.68
X691.15Y-412.68
X691.15Y-420.68
X691.15Y-428.68
X691.15Y-436.68
X691.15Y-444.68
X691.15Y-452.68
X691.15Y-460.68
X691.15Y-468.68
X691.15Y-476.68
X691.15Y-484.68
X691.15Y-492.68
X691.15Y-500.68
X691.15Y-508.68
X691.15Y-516.68
X691.15Y-524.68
X691.15Y-532.68
X691.15Y-540.68
X691.15Y-548.68
X691.15Y-556.68
X691.15Y-564.68
X691.15Y-572.68
X691.15Y-580.68
X691.15Y-588.68
X691.15Y-596.68
X691.15Y-604.68
X691.15Y-612.68
X692.25Y-265.75
X693.33Y-547.6
X693.989Y-619.589
X695.07Y-553.6
X695.07Y-569.85
X695.26Y-585.904
X695.262Y-441.715
X695.319Y-609.846
X695.32Y-241.6
X695.32Y-249.85
X695.32Y-257.6
X695.32Y-273.85
X695.32Y-281.6
X695.32Y-289.85
X695.32Y-297.6
X695.32Y-305.85
X695.32Y-313.85
X695.32Y-321.85
X695.32Y-329.85
X695.32Y-337.6
X695.32Y-345.85
X695.32Y-353.6
X695.32Y-361.6
X695.32Y-369.6
X695.32Y-377.6
X695.32Y-385.85
X695.32Y-393.6
X695.32Y-401.6
X695.32Y-409.85
X695.32Y-417.85
X695.32Y-425.85
X695.32Y-433.6
X695.32Y-449.85
X695.32Y-457.85
X695.32Y-465.85
X695.32Y-473.85
X695.32Y-481.85
X695.32Y-489.85
X695.32Y-497.85
X695.32Y-505.85
X695.32Y-513.85
X695.32Y-521.85
X695.32Y-529.6
X695.32Y-537.6
X695.32Y-545.6
X695.32Y-561.85
X695.32Y-577.6
X695.32Y-593.6
X695.32Y-601.6
X695.32Y-617.85
X697.0Y-620.25
X697.65Y-244.68
X697.65Y-252.68
X697.65Y-260.68
X697.65Y-268.68
X697.65Y-276.68
X697.65Y-284.68
X697.65Y-292.68
X697.65Y-300.68
X697.65Y-308.68
X697.65Y-316.68
X697.65Y-324.68
X697.65Y-332.68
X697.65Y-340.68
X697.65Y-348.68
X697.65Y-356.68
X697.65Y-364.68
X697.65Y-372.68
X697.65Y-380.68
X697.65Y-388.68
X697.65Y-396.68
X697.65Y-404.68
X697.65Y-412.68
X697.65Y-420.68
X697.65Y-428.68
X697.65Y-436.68
X697.65Y-444.68
X697.65Y-452.68
X697.65Y-460.68
X697.65Y-468.68
X697.65Y-476.68
X697.65Y-484.68
X697.65Y-492.68
X697.65Y-500.68
X697.65Y-508.68
X697.65Y-516.68
X697.65Y-524.68
X697.65Y-532.68
X697.65Y-540.68
X697.65Y-548.68
X697.65Y-556.68
X697.65Y-564.68
X697.65Y-572.68
X697.65Y-580.68
X697.65Y-588.68
X697.65Y-596.68
X697.65Y-604.68
X697.65Y-612.68
X699.83Y-547.6
X700.25Y-619.5
X701.57Y-553.6
X701.57Y-569.85
X701.76Y-585.904
X701.762Y-441.715
X701.819Y-609.846
X701.82Y-241.6
X701.82Y-249.85
X701.82Y-257.6
X701.82Y-273.85
X701.82Y-281.6
X701.82Y-289.85
X701.82Y-297.6
X701.82Y-305.85
X701.82Y-313.85
X701.82Y-321.85
X701.82Y-329.85
X701.82Y-337.6
X701.82Y-345.85
X701.82Y-353.6
X701.82Y-361.6
X701.82Y-369.6
X701.82Y-377.6
X701.82Y-385.85
X701.82Y-393.6
X701.82Y-401.6
X701.82Y-409.85
X701.82Y-417.85
X701.82Y-425.85
X701.82Y-433.6
X701.82Y-449.85
X701.82Y-457.85
X701.82Y-465.85
X701.82Y-473.85
X701.82Y-481.85
X701.82Y-489.85
X701.82Y-497.85
X701.82Y-505.85
X701.82Y-513.85
X701.82Y-521.85
X701.82Y-529.6
X701.82Y-537.6
X701.82Y-545.6
X701.82Y-561.85
X701.82Y-577.6
X701.82Y-593.6
X701.82Y-601.6
X701.82Y-617.85
X703.75Y-276.25
X703.75Y-284.5
X704.0Y-299.5
X704.0Y-307.5
X704.0Y-332.25
X704.0Y-347.75
X704.25Y-291.25
X704.25Y-316.25
X704.25Y-340.0
X704.25Y-355.5
X704.25Y-363.5
X704.25Y-371.5
X704.5Y-323.25
X705.25Y-272.0
X705.75Y-619.25
X708.07Y-553.6
X708.07Y-569.85
X708.26Y-585.904
X708.262Y-441.715
X708.319Y-609.846
X708.32Y-241.6
X708.32Y-249.85
X708.32Y-257.6
X708.32Y-265.6
X708.32Y-377.6
X708.32Y-385.85
X708.32Y-393.6
X708.32Y-401.6
X708.32Y-409.85
X708.32Y-417.85
X708.32Y-425.85
X708.32Y-433.6
X708.32Y-449.85
X708.32Y-457.85
X708.32Y-465.85
X708.32Y-473.85
X708.32Y-481.85
X708.32Y-489.85
X708.32Y-497.85
X708.32Y-505.85
X708.32Y-513.85
X708.32Y-521.85
X708.32Y-529.6
X708.32Y-537.6
X708.32Y-545.6
X708.32Y-561.85
X708.32Y-577.6
X708.32Y-593.6
X708.32Y-601.6
X711.25Y-295.975
X711.25Y-335.975
X711.25Y-375.975
X711.25Y-415.975
X711.25Y-455.975
X711.25Y-495.975
X711.25Y-535.975
X711.28Y-575.975
X711.5Y-279.975
X711.5Y-287.975
X711.5Y-303.975
X711.5Y-319.975
X711.5Y-327.975
X711.5Y-343.975
X711.5Y-359.975
X711.5Y-367.975
X711.5Y-383.975
X711.5Y-399.975
X711.5Y-407.975
X711.5Y-423.975
X711.5Y-439.975
X711.5Y-447.975
X711.5Y-463.975
X711.5Y-479.975
X711.5Y-487.975
X711.5Y-503.975
X711.5Y-519.975
X711.5Y-527.975
X711.5Y-543.975
X711.5Y-615.975
X711.53Y-559.975
X711.53Y-567.975
X711.53Y-583.975
X711.75Y-311.975
X711.75Y-351.975
X711.75Y-391.975
X711.75Y-431.975
X711.75Y-471.975
X711.75Y-511.975
X711.75Y-551.975
X711.75Y-599.975
X711.75Y-607.975
X711.78Y-591.975
X714.57Y-553.6
X714.57Y-569.85
X714.76Y-585.904
X714.762Y-441.715
X714.819Y-609.846
X714.82Y-241.6
X714.82Y-249.85
X714.82Y-257.6
X714.82Y-265.6
X714.82Y-273.85
X714.82Y-281.6
X714.82Y-289.85
X714.82Y-297.6
X714.82Y-305.85
X714.82Y-313.85
X714.82Y-321.85
X714.82Y-329.85
X714.82Y-337.6
X714.82Y-345.85
X714.82Y-353.6
X714.82Y-361.6
X714.82Y-369.6
X714.82Y-377.6
X714.82Y-385.85
X714.82Y-393.6
X714.82Y-401.6
X714.82Y-409.85
X714.82Y-417.85
X714.82Y-425.85
X714.82Y-433.6
X714.82Y-449.85
X714.82Y-457.85
X714.82Y-465.85
X714.82Y-473.85
X714.82Y-481.85
X714.82Y-489.85
X714.82Y-497.85
X714.82Y-505.85
X714.82Y-513.85
X714.82Y-521.85
X714.82Y-529.6
X714.82Y-537.6
X714.82Y-545.6
X714.82Y-561.85
X714.82Y-577.6
X714.82Y-593.6
X714.82Y-601.6
X714.82Y-617.85
X716.75Y-620.5
X717.15Y-244.68
X717.15Y-252.68
X717.15Y-260.68
X717.15Y-268.68
X717.15Y-276.68
X717.15Y-284.68
X717.15Y-292.68
X717.15Y-300.68
X717.15Y-308.68
X717.15Y-316.68
X717.15Y-324.68
X717.15Y-332.68
X717.15Y-340.68
X717.15Y-348.68
X717.15Y-356.68
X717.15Y-364.68
X717.15Y-372.68
X717.15Y-380.68
X717.15Y-388.68
X717.15Y-396.68
X717.15Y-404.68
X717.15Y-412.68
X717.15Y-420.68
X717.15Y-428.68
X717.15Y-436.68
X717.15Y-444.68
X717.15Y-452.68
X717.15Y-460.68
X717.15Y-468.68
X717.15Y-476.68
X717.15Y-484.68
X717.15Y-492.68
X717.15Y-500.68
X717.15Y-508.68
X717.15Y-516.68
X717.15Y-524.68
X717.15Y-532.68
X717.15Y-540.68
X717.15Y-548.68
X717.15Y-556.68
X717.15Y-564.68
X717.15Y-572.68
X717.15Y-580.68
X717.15Y-588.68
X717.15Y-596.68
X717.15Y-604.68
X717.15Y-612.68
X719.33Y-547.6
X719.75Y-619.5
X721.07Y-553.6
X721.07Y-569.85
X721.26Y-585.904
X721.262Y-441.715
X721.319Y-609.846
X721.32Y-241.6
X721.32Y-249.85
X721.32Y-257.6
X721.32Y-265.6
X721.32Y-273.85
X721.32Y-281.6
X721.32Y-289.85
X721.32Y-297.6
X721.32Y-305.85
X721.32Y-313.85
X721.32Y-321.85
X721.32Y-329.85
X721.32Y-337.6
X721.32Y-345.85
X721.32Y-353.6
X721.32Y-361.6
X721.32Y-369.6
X721.32Y-377.6
X721.32Y-385.85
X721.32Y-393.6
X721.32Y-401.6
X721.32Y-409.85
X721.32Y-417.85
X721.32Y-425.85
X721.32Y-433.6
X721.32Y-449.85
X721.32Y-457.85
X721.32Y-465.85
X721.32Y-473.85
X721.32Y-481.85
X721.32Y-489.85
X721.32Y-497.85
X721.32Y-505.85
X721.32Y-513.85
X721.32Y-521.85
X721.32Y-529.6
X721.32Y-537.6
X721.32Y-545.6
X721.32Y-561.85
X721.32Y-577.6
X721.32Y-593.6
X721.32Y-601.6
X721.32Y-617.85
X723.25Y-620.25
X723.65Y-244.68
X723.65Y-252.68
X723.65Y-260.68
X723.65Y-268.68
X723.65Y-276.68
X723.65Y-284.68
X723.65Y-292.68
X723.65Y-300.68
X723.65Y-308.68
X723.65Y-316.68
X723.65Y-324.68
X723.65Y-332.68
X723.65Y-340.68
X723.65Y-348.68
X723.65Y-356.68
X723.65Y-364.68
X723.65Y-372.68
X723.65Y-380.68
X723.65Y-388.68
X723.65Y-396.68
X723.65Y-404.68
X723.65Y-412.68
X723.65Y-420.68
X723.65Y-428.68
X723.65Y-436.68
X723.65Y-444.68
X723.65Y-452.68
X723.65Y-460.68
X723.65Y-468.68
X723.65Y-476.68
X723.65Y-484.68
X723.65Y-492.68
X723.65Y-500.68
X723.65Y-508.68
X723.65Y-516.68
X723.65Y-524.68
X723.65Y-532.68
X723.65Y-540.68
X723.65Y-548.68
X723.65Y-556.68
X723.65Y-564.68
X723.65Y-572.68
X723.65Y-580.68
X723.65Y-588.68
X723.65Y-596.68
X723.65Y-604.68
X723.65Y-612.68
X725.83Y-547.6
X726.25Y-619.6
X727.57Y-553.6
X727.57Y-569.85
X727.76Y-585.904
X727.762Y-441.715
X727.819Y-609.846
X727.82Y-241.6
X727.82Y-249.85
X727.82Y-257.6
X727.82Y-265.6
X727.82Y-273.85
X727.82Y-281.6
X727.82Y-289.85
X727.82Y-297.6
X727.82Y-305.85
X727.82Y-313.85
X727.82Y-321.85
X727.82Y-329.85
X727.82Y-337.6
X727.82Y-345.85
X727.82Y-353.6
X727.82Y-361.6
X727.82Y-369.6
X727.82Y-377.6
X727.82Y-385.85
X727.82Y-393.6
X727.82Y-401.6
X727.82Y-409.85
X727.82Y-417.85
X727.82Y-425.85
X727.82Y-433.6
X727.82Y-449.85
X727.82Y-457.85
X727.82Y-465.85
X727.82Y-473.85
X727.82Y-481.85
X727.82Y-489.85
X727.82Y-497.85
X727.82Y-505.85
X727.82Y-513.85
X727.82Y-521.85
X727.82Y-529.6
X727.82Y-537.6
X727.82Y-545.6
X727.82Y-561.85
X727.82Y-577.6
X727.82Y-593.6
X727.82Y-601.6
X727.82Y-617.85
X729.75Y-620.68
X730.15Y-244.68
X730.15Y-252.68
X730.15Y-260.68
X730.15Y-268.68
X730.15Y-276.68
X730.15Y-284.68
X730.15Y-292.68
X730.15Y-300.68
X730.15Y-308.68
X730.15Y-316.68
X730.15Y-324.68
X730.15Y-332.68
X730.15Y-340.68
X730.15Y-348.68
X730.15Y-356.68
X730.15Y-364.68
X730.15Y-372.68
X730.15Y-380.68
X730.15Y-388.68
X730.15Y-396.68
X730.15Y-404.68
X730.15Y-412.68
X730.15Y-420.68
X730.15Y-428.68
X730.15Y-436.68
X730.15Y-444.68
X730.15Y-452.68
X730.15Y-460.68
X730.15Y-468.68
X730.15Y-476.68
X730.15Y-484.68
X730.15Y-492.68
X730.15Y-500.68
X730.15Y-508.68
X730.15Y-516.68
X730.15Y-524.68
X730.15Y-532.68
X730.15Y-540.68
X730.15Y-548.68
X730.15Y-556.68
X730.15Y-564.68
X730.15Y-572.68
X730.15Y-580.68
X730.15Y-588.68
X730.15Y-596.68
X730.15Y-604.68
X730.15Y-612.68
X732.33Y-547.6
X732.75Y-619.5
X734.07Y-553.6
X734.07Y-569.85
X734.26Y-585.904
X734.262Y-441.715
X734.319Y-609.846
X734.32Y-241.6
X734.32Y-249.85
X734.32Y-257.6
X734.32Y-265.6
X734.32Y-273.85
X734.32Y-281.6
X734.32Y-289.85
X734.32Y-297.6
X734.32Y-305.85
X734.32Y-313.85
X734.32Y-321.85
X734.32Y-329.85
X734.32Y-337.6
X734.32Y-345.85
X734.32Y-353.6
X734.32Y-361.6
X734.32Y-369.6
X734.32Y-377.6
X734.32Y-385.85
X734.32Y-393.6
X734.32Y-401.6
X734.32Y-409.85
X734.32Y-417.85
X734.32Y-425.85
X734.32Y-433.6
X734.32Y-449.85
X734.32Y-457.85
X734.32Y-465.85
X734.32Y-473.85
X734.32Y-481.85
X734.32Y-489.85
X734.32Y-497.85
X734.32Y-505.85
X734.32Y-513.85
X734.32Y-521.85
X734.32Y-529.6
X734.32Y-537.6
X734.32Y-545.6
X734.32Y-561.85
X734.32Y-577.6
X734.32Y-593.6
X734.32Y-601.6
X734.32Y-617.85
X736.25Y-620.5
X736.65Y-244.68
X736.65Y-252.68
X736.65Y-260.68
X736.65Y-268.68
X736.65Y-276.68
X736.65Y-284.68
X736.65Y-292.68
X736.65Y-300.68
X736.65Y-308.68
X736.65Y-316.68
X736.65Y-324.68
X736.65Y-332.68
X736.65Y-340.68
X736.65Y-348.68
X736.65Y-356.68
X736.65Y-364.68
X736.65Y-372.68
X736.65Y-380.68
X736.65Y-388.68
X736.65Y-396.68
X736.65Y-404.68
X736.65Y-412.68
X736.65Y-420.68
X736.65Y-428.68
X736.65Y-436.68
X736.65Y-444.68
X736.65Y-452.68
X736.65Y-460.68
X736.65Y-468.68
X736.65Y-476.68
X736.65Y-484.68
X736.65Y-492.68
X736.65Y-500.68
X736.65Y-508.68
X736.65Y-516.68
X736.65Y-524.68
X736.65Y-532.68
X736.65Y-540.68
X736.65Y-548.68
X736.65Y-556.68
X736.65Y-564.68
X736.65Y-572.68
X736.65Y-580.68
X736.65Y-588.68
X736.65Y-596.68
X736.65Y-604.68
X736.65Y-612.68
X739.25Y-619.5
X740.57Y-553.6
X740.57Y-569.85
X740.76Y-585.904
X740.762Y-441.715
X740.819Y-609.846
X740.82Y-241.6
X740.82Y-249.85
X740.82Y-257.6
X740.82Y-265.6
X740.82Y-273.85
X740.82Y-281.6
X740.82Y-289.85
X740.82Y-297.6
X740.82Y-305.85
X740.82Y-313.85
X740.82Y-321.85
X740.82Y-329.85
X740.82Y-337.6
X740.82Y-345.85
X740.82Y-353.6
X740.82Y-361.6
X740.82Y-369.6
X740.82Y-377.6
X740.82Y-385.85
X740.82Y-393.6
X740.82Y-401.6
X740.82Y-409.85
X740.82Y-417.85
X740.82Y-425.85
X740.82Y-433.6
X740.82Y-449.85
X740.82Y-457.85
X740.82Y-465.85
X740.82Y-473.85
X740.82Y-481.85
X740.82Y-489.85
X740.82Y-497.85
X740.82Y-505.85
X740.82Y-513.85
X740.82Y-521.85
X740.82Y-529.6
X740.82Y-537.6
X740.82Y-545.6
X740.82Y-561.85
X740.82Y-577.6
X740.82Y-593.6
X740.82Y-601.6
X740.82Y-617.85
X742.75Y-620.25
X743.15Y-244.68
X743.15Y-252.68
X743.15Y-260.68
X743.15Y-268.68
X743.15Y-276.68
X743.15Y-284.68
X743.15Y-292.68
X743.15Y-300.68
X743.15Y-308.68
X743.15Y-316.68
X743.15Y-324.68
X743.15Y-332.68
X743.15Y-340.68
X743.15Y-348.68
X743.15Y-356.68
X743.15Y-364.68
X743.15Y-372.68
X743.15Y-380.68
X743.15Y-388.68
X743.15Y-396.68
X743.15Y-404.68
X743.15Y-412.68
X743.15Y-420.68
X743.15Y-428.68
X743.15Y-436.68
X743.15Y-444.68
X743.15Y-452.68
X743.15Y-460.68
X743.15Y-468.68
X743.15Y-476.68
X743.15Y-484.68
X743.15Y-492.68
X743.15Y-500.68
X743.15Y-508.68
X743.15Y-516.68
X743.15Y-524.68
X743.15Y-532.68
X743.15Y-540.68
X743.15Y-548.68
X743.15Y-556.68
X743.15Y-564.68
X743.15Y-572.68
X743.15Y-580.68
X743.15Y-588.68
X743.15Y-596.68
X743.15Y-604.68
X743.15Y-612.68
X745.33Y-547.6
X746.0Y-619.25
X747.07Y-553.6
X747.07Y-569.85
X747.26Y-585.904
X747.262Y-441.715
X747.319Y-609.846
X747.32Y-241.6
X747.32Y-249.85
X747.32Y-257.6
X747.32Y-265.6
X747.32Y-273.85
X747.32Y-281.6
X747.32Y-289.85
X747.32Y-297.6
X747.32Y-305.85
X747.32Y-313.85
X747.32Y-321.85
X747.32Y-329.85
X747.32Y-337.6
X747.32Y-345.85
X747.32Y-353.6
X747.32Y-361.6
X747.32Y-369.6
X747.32Y-377.6
X747.32Y-385.85
X747.32Y-393.6
X747.32Y-401.6
X747.32Y-409.85
X747.32Y-417.85
X747.32Y-425.85
X747.32Y-433.6
X747.32Y-449.85
X747.32Y-457.85
X747.32Y-465.85
X747.32Y-473.85
X747.32Y-481.85
X747.32Y-489.85
X747.32Y-497.85
X747.32Y-505.85
X747.32Y-513.85
X747.32Y-521.85
X747.32Y-529.6
X747.32Y-537.6
X747.32Y-545.6
X747.32Y-561.85
X747.32Y-577.6
X747.32Y-593.6
X747.32Y-601.6
X747.32Y-617.85
X749.65Y-244.68
X749.65Y-252.68
X749.65Y-260.68
X749.65Y-268.68
X749.65Y-276.68
X749.65Y-284.68
X749.65Y-292.68
X749.65Y-300.68
X749.65Y-308.68
X749.65Y-316.68
X749.65Y-324.68
X749.65Y-332.68
X749.65Y-340.68
X749.65Y-348.68
X749.65Y-356.68
X749.65Y-364.68
X749.65Y-372.68
X749.65Y-380.68
X749.65Y-388.68
X749.65Y-396.68
X749.65Y-404.68
X749.65Y-412.68
X749.65Y-420.68
X749.65Y-428.68
X749.65Y-436.68
X749.65Y-444.68
X749.65Y-452.68
X749.65Y-460.68
X749.65Y-468.68
X749.65Y-476.68
X749.65Y-484.68
X749.65Y-492.68
X749.65Y-500.68
X749.65Y-508.68
X749.65Y-516.68
X749.65Y-524.68
X749.65Y-532.68
X749.65Y-540.68
X749.65Y-548.68
X749.65Y-556.68
X749.65Y-564.68
X749.65Y-572.68
X749.65Y-580.68
X749.65Y-588.68
X749.65Y-596.68
X749.65Y-604.68
X749.65Y-612.68
X749.65Y-620.68
X751.83Y-547.6
X751.83Y-619.6
X753.57Y-553.6
X753.57Y-569.85
X753.76Y-585.904
X753.762Y-441.715
X753.819Y-609.846
X753.82Y-241.6
X753.82Y-249.85
X753.82Y-257.6
X753.82Y-265.6
X753.82Y-273.85
X753.82Y-281.6
X753.82Y-289.85
X753.82Y-297.6
X753.82Y-305.85
X753.82Y-313.85
X753.82Y-321.85
X753.82Y-329.85
X753.82Y-337.6
X753.82Y-345.85
X753.82Y-353.6
X753.82Y-361.6
X753.82Y-369.6
X753.82Y-377.6
X753.82Y-385.85
X753.82Y-393.6
X753.82Y-401.6
X753.82Y-409.85
X753.82Y-417.85
X753.82Y-425.85
X753.82Y-433.6
X753.82Y-449.85
X753.82Y-457.85
X753.82Y-465.85
X753.82Y-473.85
X753.82Y-481.85
X753.82Y-489.85
X753.82Y-497.85
X753.82Y-505.85
X753.82Y-513.85
X753.82Y-521.85
X753.82Y-529.6
X753.82Y-537.6
X753.82Y-545.6
X753.82Y-561.85
X753.82Y-577.6
X753.82Y-593.6
X753.82Y-601.6
X753.82Y-617.85
X756.15Y-244.68
X756.15Y-252.68
X756.15Y-260.68
X756.15Y-268.68
X756.15Y-276.68
X756.15Y-284.68
X756.15Y-292.68
X756.15Y-300.68
X756.15Y-308.68
X756.15Y-316.68
X756.15Y-324.68
X756.15Y-332.68
X756.15Y-340.68
X756.15Y-348.68
X756.15Y-356.68
X756.15Y-364.68
X756.15Y-372.68
X756.15Y-380.68
X756.15Y-388.68
X756.15Y-396.68
X756.15Y-404.68
X756.15Y-412.68
X756.15Y-420.68
X756.15Y-428.68
X756.15Y-436.68
X756.15Y-444.68
X756.15Y-452.68
X756.15Y-460.68
X756.15Y-468.68
X756.15Y-476.68
X756.15Y-484.68
X756.15Y-492.68
X756.15Y-500.68
X756.15Y-508.68
X756.15Y-516.68
X756.15Y-524.68
X756.15Y-532.68
X756.15Y-540.68
X756.15Y-548.68
X756.15Y-556.68
X756.15Y-564.68
X756.15Y-572.68
X756.15Y-580.68
X756.15Y-588.68
X756.15Y-596.68
X756.15Y-604.68
X756.15Y-612.68
X756.15Y-620.25
X758.33Y-547.6
X758.5Y-619.6
X760.07Y-553.6
X760.07Y-569.85
X760.26Y-585.904
X760.262Y-441.715
X760.319Y-609.846
X760.32Y-241.6
X760.32Y-249.85
X760.32Y-257.6
X760.32Y-265.6
X760.32Y-273.85
X760.32Y-281.6
X760.32Y-289.85
X760.32Y-297.6
X760.32Y-305.85
X760.32Y-313.85
X760.32Y-321.85
X760.32Y-329.85
X760.32Y-337.6
X760.32Y-345.85
X760.32Y-353.6
X760.32Y-361.6
X760.32Y-369.6
X760.32Y-377.6
X760.32Y-385.85
X760.32Y-393.6
X760.32Y-401.6
X760.32Y-409.85
X760.32Y-417.85
X760.32Y-425.85
X760.32Y-433.6
X760.32Y-449.85
X760.32Y-457.85
X760.32Y-465.85
X760.32Y-473.85
X760.32Y-481.85
X760.32Y-489.85
X760.32Y-497.85
X760.32Y-505.85
X760.32Y-513.85
X760.32Y-521.85
X760.32Y-529.6
X760.32Y-537.6
X760.32Y-545.6
X760.32Y-561.85
X760.32Y-577.6
X760.32Y-593.6
X760.32Y-601.6
X760.32Y-617.85
X762.25Y-620.25
X762.65Y-244.68
X762.65Y-252.68
X762.65Y-260.68
X762.65Y-268.68
X762.65Y-276.68
X762.65Y-284.68
X762.65Y-292.68
X762.65Y-300.68
X762.65Y-308.68
X762.65Y-316.68
X762.65Y-324.68
X762.65Y-332.68
X762.65Y-340.68
X762.65Y-348.68
X762.65Y-356.68
X762.65Y-364.68
X762.65Y-372.68
X762.65Y-380.68
X762.65Y-388.68
X762.65Y-396.68
X762.65Y-404.68
X762.65Y-412.68
X762.65Y-420.68
X762.65Y-428.68
X762.65Y-436.68
X762.65Y-444.68
X762.65Y-452.68
X762.65Y-460.68
X762.65Y-468.68
X762.65Y-476.68
X762.65Y-484.68
X762.65Y-492.68
X762.65Y-500.68
X762.65Y-508.68
X762.65Y-516.68
X762.65Y-524.68
X762.65Y-532.68
X762.65Y-540.68
X762.65Y-548.68
X762.65Y-556.68
X762.65Y-564.68
X762.65Y-572.68
X762.65Y-580.68
X762.65Y-588.68
X762.65Y-596.68
X762.65Y-604.68
X762.65Y-612.68
X764.83Y-547.6
X765.0Y-619.6
X766.57Y-553.6
X766.57Y-569.85
X766.76Y-585.904
X766.762Y-441.715
X766.819Y-609.846
X766.82Y-241.6
X766.82Y-249.85
X766.82Y-257.6
X766.82Y-265.6
X766.82Y-273.85
X766.82Y-281.6
X766.82Y-289.85
X766.82Y-297.6
X766.82Y-305.85
X766.82Y-313.85
X766.82Y-321.85
X766.82Y-329.85
X766.82Y-337.6
X766.82Y-345.85
X766.82Y-353.6
X766.82Y-361.6
X766.82Y-369.6
X766.82Y-377.6
X766.82Y-385.85
X766.82Y-393.6
X766.82Y-401.6
X766.82Y-409.85
X766.82Y-417.85
X766.82Y-425.85
X766.82Y-433.6
X766.82Y-449.85
X766.82Y-457.85
X766.82Y-465.85
X766.82Y-473.85
X766.82Y-481.85
X766.82Y-489.85
X766.82Y-497.85
X766.82Y-505.85
X766.82Y-513.85
X766.82Y-521.85
X766.82Y-529.6
X766.82Y-537.6
X766.82Y-545.6
X766.82Y-561.85
X766.82Y-577.6
X766.82Y-593.6
X766.82Y-601.6
X766.82Y-617.85
X768.75Y-620.5
X769.15Y-244.68
X769.15Y-252.68
X769.15Y-260.68
X769.15Y-268.68
X769.15Y-276.68
X769.15Y-284.68
X769.15Y-292.68
X769.15Y-300.68
X769.15Y-308.68
X769.15Y-316.68
X769.15Y-324.68
X769.15Y-332.68
X769.15Y-340.68
X769.15Y-348.68
X769.15Y-356.68
X769.15Y-364.68
X769.15Y-372.68
X769.15Y-380.68
X769.15Y-388.68
X769.15Y-396.68
X769.15Y-404.68
X769.15Y-412.68
X769.15Y-420.68
X769.15Y-428.68
X769.15Y-436.68
X769.15Y-444.68
X769.15Y-452.68
X769.15Y-460.68
X769.15Y-468.68
X769.15Y-476.68
X769.15Y-484.68
X769.15Y-492.68
X769.15Y-500.68
X769.15Y-508.68
X769.15Y-516.68
X769.15Y-524.68
X769.15Y-532.68
X769.15Y-540.68
X769.15Y-548.68
X769.15Y-556.68
X769.15Y-564.68
X769.15Y-572.68
X769.15Y-580.68
X769.15Y-588.68
X769.15Y-596.68
X769.15Y-604.68
X769.15Y-612.68
X771.75Y-619.25
X773.07Y-553.6
X773.07Y-569.85
X773.26Y-585.904
X773.262Y-441.715
X773.319Y-609.846
X773.32Y-241.6
X773.32Y-249.85
X773.32Y-257.6
X773.32Y-265.6
X773.32Y-273.85
X773.32Y-281.6
X773.32Y-289.85
X773.32Y-297.6
X773.32Y-305.85
X773.32Y-313.85
X773.32Y-321.85
X773.32Y-329.85
X773.32Y-337.6
X773.32Y-345.85
X773.32Y-353.6
X773.32Y-361.6
X773.32Y-369.6
X773.32Y-377.6
X773.32Y-385.85
X773.32Y-393.6
X773.32Y-401.6
X773.32Y-409.85
X773.32Y-417.85
X773.32Y-425.85
X773.32Y-433.6
X773.32Y-449.85
X773.32Y-457.85
X773.32Y-465.85
X773.32Y-473.85
X773.32Y-481.85
X773.32Y-489.85
X773.32Y-497.85
X773.32Y-505.85
X773.32Y-513.85
X773.32Y-521.85
X773.32Y-529.6
X773.32Y-537.6
X773.32Y-545.6
X773.32Y-561.85
X773.32Y-577.6
X773.32Y-593.6
X773.32Y-601.6
X773.32Y-617.85
X775.35Y-620.85
X775.65Y-244.68
X775.65Y-252.68
X775.65Y-260.68
X775.65Y-268.68
X775.65Y-276.68
X775.65Y-284.68
X775.65Y-292.68
X775.65Y-300.68
X775.65Y-308.68
X775.65Y-316.68
X775.65Y-324.68
X775.65Y-332.68
X775.65Y-340.68
X775.65Y-348.68
X775.65Y-356.68
X775.65Y-364.68
X775.65Y-372.68
X775.65Y-380.68
X775.65Y-388.68
X775.65Y-396.68
X775.65Y-404.68
X775.65Y-412.68
X775.65Y-420.68
X775.65Y-428.68
X775.65Y-436.68
X775.65Y-444.68
X775.65Y-452.68
X775.65Y-460.68
X775.65Y-468.68
X775.65Y-476.68
X775.65Y-484.68
X775.65Y-492.68
X775.65Y-500.68
X775.65Y-508.68
X775.65Y-516.68
X775.65Y-524.68
X775.65Y-532.68
X775.65Y-540.68
X775.65Y-548.68
X775.65Y-556.68
X775.65Y-564.68
X775.65Y-572.68
X775.65Y-580.68
X775.65Y-588.68
X775.65Y-596.68
X775.65Y-604.68
X775.65Y-612.68
X777.0Y-241.75
X777.0Y-249.5
X777.0Y-257.5
X777.25Y-472.0
X777.83Y-387.6
X777.83Y-395.6
X777.83Y-411.6
X777.83Y-419.6
X777.83Y-427.6
X777.83Y-435.6
X777.83Y-443.6
X777.83Y-451.6
X777.83Y-459.6
X777.83Y-467.6
X777.83Y-483.6
X777.83Y-491.6
X777.83Y-499.6
X777.83Y-507.6
X777.83Y-515.6
X777.83Y-523.6
X777.83Y-531.6
X777.83Y-539.6
X777.83Y-547.6
X777.83Y-555.6
X777.83Y-563.6
X777.83Y-571.6
X777.83Y-579.6
X777.83Y-587.6
X777.83Y-595.6
X777.83Y-603.6
X777.83Y-611.6
X778.25Y-564.3
X778.35Y-619.9
X778.4Y-491.95
X778.4Y-507.95
X778.45Y-451.9
X778.45Y-516.2
X778.45Y-532.05
X778.45Y-604.35
X778.5Y-556.15
X778.5Y-572.4
X778.5Y-612.2
X778.55Y-443.95
X778.55Y-467.85
X778.55Y-579.65
X778.55Y-596.05
X778.6Y-459.75
X778.6Y-484.15
X778.6Y-499.75
X778.6Y-524.0
X778.65Y-404.25
X778.65Y-435.9
X778.65Y-539.95
X778.65Y-547.9
X778.7Y-340.25
X778.7Y-380.25
X778.7Y-387.9
X778.7Y-395.85
X778.7Y-411.75
X778.7Y-420.05
X778.75Y-268.1
X778.75Y-427.85
X778.75Y-587.75
X778.8Y-363.85
X778.85Y-292.15
X778.85Y-316.15
X778.85Y-356.1
X778.85Y-372.0
X778.9Y-300.15
X778.9Y-307.9
X778.95Y-283.65
X778.95Y-348.15
X779.0Y-276.1
X779.0Y-323.95
X779.0Y-332.15
M30
